# 3ds Max Wavefront OBJ Exporter v0.97b - (c)2007 guruware
# File Created: 01.02.2020 23:15:37

#
# object Apple
#

v  -0.1160 -0.2065 -0.1160
v  -0.1364 -0.1593 -0.1364
v  -0.0743 -0.1648 -0.1740
v  -0.0688 -0.2269 -0.1364
v  -0.1465 -0.0905 -0.1465
v  -0.0799 -0.0905 -0.1866
v  0.0000 -0.1703 -0.1866
v  0.0000 -0.2370 -0.1465
v  0.0000 -0.0905 -0.2001
v  -0.1364 -0.0217 -0.1364
v  -0.1160 0.0255 -0.1160
v  -0.0688 0.0459 -0.1364
v  -0.0743 -0.0161 -0.1740
v  0.0000 0.0560 -0.1465
v  0.0000 -0.0106 -0.1866
v  0.1160 0.0255 -0.1160
v  0.1364 -0.0217 -0.1364
v  0.0743 -0.0161 -0.1740
v  0.0688 0.0459 -0.1364
v  0.1465 -0.0905 -0.1465
v  0.0799 -0.0905 -0.1866
v  0.1364 -0.1593 -0.1364
v  0.1160 -0.2065 -0.1160
v  0.0688 -0.2269 -0.1364
v  0.0743 -0.1648 -0.1740
v  -0.1160 -0.2065 0.1160
v  -0.0688 -0.2269 0.1364
v  -0.0743 -0.1648 0.1740
v  -0.1364 -0.1593 0.1364
v  0.0000 -0.2370 0.1465
v  0.0000 -0.1703 0.1866
v  -0.0799 -0.0905 0.1866
v  -0.1465 -0.0905 0.1465
v  0.0000 -0.0905 0.2001
v  0.0688 -0.2269 0.1364
v  0.1160 -0.2065 0.1160
v  0.1364 -0.1593 0.1364
v  0.0743 -0.1648 0.1740
v  0.1465 -0.0905 0.1465
v  0.0799 -0.0905 0.1866
v  0.1160 0.0255 0.1160
v  0.0688 0.0459 0.1364
v  0.0743 -0.0161 0.1740
v  0.1364 -0.0217 0.1364
v  0.0000 0.0560 0.1465
v  0.0000 -0.0106 0.1866
v  -0.0688 0.0459 0.1364
v  -0.1160 0.0255 0.1160
v  -0.1364 -0.0217 0.1364
v  -0.0743 -0.0161 0.1740
v  -0.0743 -0.2645 -0.0743
v  -0.1364 -0.2269 -0.0688
v  0.0000 -0.2771 -0.0799
v  -0.0799 -0.2771 -0.0000
v  -0.1465 -0.2370 -0.0000
v  0.0000 -0.2906 -0.0000
v  0.1364 -0.2269 -0.0688
v  0.0743 -0.2645 -0.0743
v  0.1465 -0.2370 0.0000
v  0.0799 -0.2771 -0.0000
v  0.0743 -0.2645 0.0743
v  0.1364 -0.2269 0.0688
v  0.0000 -0.2771 0.0799
v  -0.1364 -0.2269 0.0688
v  -0.0743 -0.2645 0.0743
v  0.1740 -0.1648 -0.0743
v  0.1866 -0.0905 -0.0799
v  0.1866 -0.1703 0.0000
v  0.2001 -0.0905 0.0000
v  0.1364 0.0459 -0.0688
v  0.1740 -0.0161 -0.0743
v  0.1465 0.0560 0.0000
v  0.1866 -0.0106 0.0000
v  0.1740 -0.0161 0.0743
v  0.1364 0.0459 0.0688
v  0.1866 -0.0905 0.0799
v  0.1740 -0.1648 0.0743
v  0.0743 0.0835 -0.0743
v  0.0000 0.0962 -0.0799
v  0.0799 0.0962 0.0000
v  0.0000 0.1096 0.0000
v  -0.1364 0.0459 -0.0688
v  -0.0743 0.0835 -0.0743
v  -0.1465 0.0560 0.0000
v  -0.0799 0.0962 0.0000
v  -0.0743 0.0835 0.0743
v  -0.1364 0.0459 0.0688
v  0.0000 0.0962 0.0799
v  0.0743 0.0835 0.0743
v  -0.1740 -0.0161 -0.0743
v  -0.1866 -0.0905 -0.0799
v  -0.1866 -0.0106 0.0000
v  -0.2001 -0.0905 0.0000
v  -0.1740 -0.1648 -0.0743
v  -0.1866 -0.1703 0.0000
v  -0.1740 -0.1648 0.0743
v  -0.1866 -0.0905 0.0799
v  -0.1740 -0.0161 0.0743
v  0.0049 0.0986 0.0085
v  -0.0049 0.0986 0.0085
v  -0.0099 0.0986 -0.0000
v  -0.0049 0.0986 -0.0085
v  0.0049 0.0986 -0.0085
v  0.0099 0.0986 -0.0000
v  -0.0157 0.1466 -0.0114
v  -0.0091 0.1466 -0.0000
v  -0.0288 0.1466 -0.0114
v  -0.0354 0.1466 -0.0000
v  -0.0288 0.1466 0.0114
v  -0.0157 0.1466 0.0114
v  0.0115 0.2906 0.0199
v  0.0230 0.2906 -0.0000
v  0.0115 0.2906 -0.0199
v  -0.0115 0.2906 -0.0199
v  -0.0230 0.2906 -0.0000
v  -0.0115 0.2906 0.0199
v  -0.0169 0.1946 -0.0142
v  -0.0078 0.2426 -0.0170
v  0.0020 0.2426 -0.0000
v  -0.0087 0.1946 -0.0000
v  -0.0333 0.1946 -0.0142
v  -0.0275 0.2426 -0.0170
v  -0.0415 0.1946 -0.0000
v  -0.0374 0.2426 -0.0000
v  -0.0333 0.1946 0.0142
v  -0.0275 0.2426 0.0170
v  -0.0169 0.1946 0.0142
v  -0.0078 0.2426 0.0170
v  -0.0351 0.2143 -0.0424
v  -0.0274 0.2036 -0.0154
v  -0.0178 0.2025 -0.0128
v  -0.0124 0.2136 -0.0412
v  -0.0082 0.2014 -0.0101
v  0.0102 0.2130 -0.0400
v  -0.0469 0.2175 -0.0661
v  -0.0143 0.2175 -0.0719
v  0.0184 0.2175 -0.0776
v  -0.0519 0.2145 -0.0890
v  -0.0230 0.2136 -0.1013
v  0.0058 0.2127 -0.1136
v  -0.0544 0.2047 -0.1144
v  -0.0501 0.1916 -0.1387
v  -0.0213 0.2002 -0.1379
# 143 vertices

vn -0.5774 -0.5774 -0.5774
vn -0.6618 -0.3523 -0.6618
vn -0.3450 -0.3450 -0.8729
vn -0.3523 -0.6618 -0.6618
vn -0.7071 0.0000 -0.7071
vn -0.3482 0.0000 -0.9374
vn 0.0000 -0.3482 -0.9374
vn 0.0000 -0.7071 -0.7071
vn 0.0000 0.0000 -1.0000
vn -0.6618 0.3523 -0.6618
vn -0.5774 0.5774 -0.5774
vn -0.3523 0.6618 -0.6618
vn -0.3450 0.3450 -0.8729
vn 0.0000 0.7071 -0.7071
vn 0.0000 0.3482 -0.9374
vn 0.5774 0.5774 -0.5774
vn 0.6618 0.3523 -0.6618
vn 0.3450 0.3450 -0.8729
vn 0.3523 0.6618 -0.6618
vn 0.7071 0.0000 -0.7071
vn 0.3482 0.0000 -0.9374
vn 0.6618 -0.3523 -0.6618
vn 0.5774 -0.5774 -0.5774
vn 0.3523 -0.6618 -0.6618
vn 0.3450 -0.3450 -0.8729
vn -0.5774 -0.5774 0.5774
vn -0.3523 -0.6618 0.6618
vn -0.3450 -0.3450 0.8729
vn -0.6618 -0.3523 0.6618
vn 0.0000 -0.7071 0.7071
vn 0.0000 -0.3482 0.9374
vn -0.3482 -0.0000 0.9374
vn -0.7071 -0.0000 0.7071
vn 0.0000 -0.0000 1.0000
vn 0.3523 -0.6618 0.6618
vn 0.5774 -0.5774 0.5774
vn 0.6618 -0.3523 0.6618
vn 0.3450 -0.3450 0.8729
vn 0.7071 -0.0000 0.7071
vn 0.3482 -0.0000 0.9374
vn 0.5774 0.5774 0.5774
vn 0.3523 0.6618 0.6618
vn 0.3450 0.3450 0.8729
vn 0.6618 0.3523 0.6618
vn 0.0000 0.7071 0.7071
vn 0.0000 0.3482 0.9374
vn -0.3523 0.6618 0.6618
vn -0.5774 0.5774 0.5774
vn -0.6618 0.3523 0.6618
vn -0.3450 0.3450 0.8729
vn -0.3450 -0.8729 -0.3450
vn -0.6618 -0.6618 -0.3523
vn 0.0000 -0.9374 -0.3482
vn -0.3482 -0.9374 0.0000
vn -0.7071 -0.7071 -0.0000
vn 0.0000 -1.0000 -0.0000
vn 0.6618 -0.6618 -0.3523
vn 0.3450 -0.8729 -0.3450
vn 0.7071 -0.7071 -0.0000
vn 0.3482 -0.9374 -0.0000
vn 0.3450 -0.8729 0.3450
vn 0.6618 -0.6618 0.3523
vn 0.0000 -0.9374 0.3482
vn -0.6618 -0.6618 0.3523
vn -0.3450 -0.8729 0.3450
vn 0.8729 -0.3450 -0.3450
vn 0.9374 0.0000 -0.3482
vn 0.9374 -0.3482 -0.0000
vn 1.0000 0.0000 -0.0000
vn 0.6618 0.6618 -0.3523
vn 0.8729 0.3450 -0.3450
vn 0.7071 0.7071 0.0000
vn 0.9374 0.3482 0.0000
vn 0.8729 0.3450 0.3450
vn 0.6618 0.6618 0.3523
vn 0.9374 -0.0000 0.3482
vn 0.8729 -0.3450 0.3450
vn 0.3450 0.8729 -0.3450
vn 0.0000 0.9374 -0.3482
vn 0.3482 0.9374 0.0000
vn 0.0000 1.0000 0.0000
vn -0.6618 0.6618 -0.3523
vn -0.3450 0.8729 -0.3450
vn -0.7071 0.7071 0.0000
vn -0.3482 0.9374 0.0000
vn -0.3450 0.8729 0.3450
vn -0.6618 0.6618 0.3523
vn 0.0000 0.9374 0.3482
vn 0.3450 0.8729 0.3450
vn -0.8729 0.3450 -0.3450
vn -0.9374 0.0000 -0.3482
vn -0.9374 0.3482 0.0000
vn -1.0000 0.0000 -0.0000
vn -0.8729 -0.3450 -0.3450
vn -0.9374 -0.3482 0.0000
vn -0.8729 -0.3450 0.3450
vn -0.9374 -0.0000 0.3482
vn -0.8729 0.3450 0.3450
vn 0.5022 -0.5311 0.6825
vn -0.2731 -0.6970 0.6631
vn -0.6192 -0.7853 0.0000
vn -0.2731 -0.6970 -0.6631
vn 0.5022 -0.5311 -0.6825
vn 0.8847 -0.4661 -0.0000
vn 0.4499 0.0375 -0.8923
vn 0.9808 0.1948 -0.0000
vn -0.5210 -0.2038 -0.8289
vn -0.9577 -0.2877 -0.0000
vn -0.5210 -0.2038 0.8289
vn 0.4499 0.0375 0.8923
vn 0.4935 0.5056 0.7077
vn 0.8918 0.4525 0.0000
vn 0.4935 0.5056 -0.7077
vn -0.3142 0.6399 -0.7013
vn -0.6970 0.7170 0.0000
vn -0.3142 0.6399 0.7013
vn 0.4711 -0.0902 -0.8774
vn 0.4591 -0.1830 -0.8693
vn 0.9475 -0.3197 0.0000
vn 0.9930 -0.1177 -0.0000
vn -0.5245 -0.0412 -0.8504
vn -0.5185 0.0722 -0.8520
vn -0.9998 -0.0198 -0.0000
vn -0.9833 0.1820 -0.0000
vn -0.5245 -0.0412 0.8504
vn -0.5185 0.0722 0.8520
vn 0.4711 -0.0902 0.8774
vn 0.4591 -0.1830 0.8693
vn 0.0164 0.9761 0.2168
vn 0.0071 0.9302 0.3671
vn 0.0146 0.9688 0.2474
vn 0.0162 0.9752 0.2206
vn -0.0025 0.9999 -0.0140
vn -0.0000 1.0000 -0.0000
vn -0.0019 0.9999 -0.0109
vn -0.0631 0.9736 -0.2195
vn -0.0873 0.9574 -0.2753
vn -0.0648 0.9726 -0.2234
vn 0.4656 0.8097 -0.3572
vn -0.1647 0.8973 -0.4095
vn -0.2763 0.9442 -0.1790
# 141 vertex normals

vt 0.1611 0.6779 0.0000
vt 0.1571 0.6872 0.0000
vt 0.1692 0.6861 0.0000
vt 0.1703 0.6740 0.0000
vt 0.1551 0.7006 0.0000
vt 0.1681 0.7006 0.0000
vt 0.1837 0.6850 0.0000
vt 0.1837 0.6720 0.0000
vt 0.1837 0.7006 0.0000
vt 0.1571 0.7140 0.0000
vt 0.1611 0.7232 0.0000
vt 0.1703 0.7272 0.0000
vt 0.1692 0.7151 0.0000
vt 0.1837 0.7292 0.0000
vt 0.1837 0.7162 0.0000
vt 0.2064 0.7232 0.0000
vt 0.2104 0.7140 0.0000
vt 0.1982 0.7151 0.0000
vt 0.1972 0.7272 0.0000
vt 0.2123 0.7006 0.0000
vt 0.1993 0.7006 0.0000
vt 0.2104 0.6872 0.0000
vt 0.2064 0.6779 0.0000
vt 0.1972 0.6740 0.0000
vt 0.1982 0.6861 0.0000
vt 0.1692 0.6666 0.0000
vt 0.1571 0.6740 0.0000
vt 0.1837 0.6642 0.0000
vt 0.1681 0.6642 0.0000
vt 0.1551 0.6720 0.0000
vt 0.1837 0.6615 0.0000
vt 0.2104 0.6740 0.0000
vt 0.1982 0.6666 0.0000
vt 0.2123 0.6720 0.0000
vt 0.1993 0.6642 0.0000
vt 0.2177 0.6861 0.0000
vt 0.2202 0.7006 0.0000
vt 0.2202 0.6850 0.0000
vt 0.2228 0.7006 0.0000
vt 0.2104 0.7272 0.0000
vt 0.2177 0.7151 0.0000
vt 0.2123 0.7292 0.0000
vt 0.2202 0.7162 0.0000
vt 0.1982 0.7346 0.0000
vt 0.1837 0.7370 0.0000
vt 0.1993 0.7370 0.0000
vt 0.1837 0.7397 0.0000
vt 0.1571 0.7272 0.0000
vt 0.1692 0.7346 0.0000
vt 0.1551 0.7292 0.0000
vt 0.1681 0.7370 0.0000
vt 0.1498 0.7151 0.0000
vt 0.1473 0.7006 0.0000
vt 0.1473 0.7162 0.0000
vt 0.1447 0.7006 0.0000
vt 0.1498 0.6861 0.0000
vt 0.1473 0.6850 0.0000
vt 0.6718 0.6989 0.0000
vt 0.6698 0.6989 0.0000
vt 0.6688 0.7006 0.0000
vt 0.6698 0.7023 0.0000
vt 0.6718 0.7023 0.0000
vt 0.6728 0.7006 0.0000
vt 0.6677 0.7028 0.0000
vt 0.6690 0.7006 0.0000
vt 0.6650 0.7028 0.0000
vt 0.6637 0.7006 0.0000
vt 0.6650 0.6983 0.0000
vt 0.6677 0.6983 0.0000
vt 0.6731 0.6966 0.0000
vt 0.6754 0.7006 0.0000
vt 0.6731 0.7045 0.0000
vt 0.6685 0.7045 0.0000
vt 0.6662 0.7006 0.0000
vt 0.6685 0.6966 0.0000
vt 0.6674 0.7034 0.0000
vt 0.6692 0.7040 0.0000
vt 0.6712 0.7006 0.0000
vt 0.6691 0.7006 0.0000
vt 0.6642 0.7034 0.0000
vt 0.6653 0.7040 0.0000
vt 0.6625 0.7006 0.0000
vt 0.6633 0.7006 0.0000
vt 0.6642 0.6977 0.0000
vt 0.6653 0.6972 0.0000
vt 0.6674 0.6977 0.0000
vt 0.6692 0.6972 0.0000
vt 0.3027 0.7996 0.0000
vt 0.3042 0.7942 0.0000
vt 0.3061 0.7937 0.0000
vt 0.3072 0.7994 0.0000
vt 0.3080 0.7932 0.0000
vt 0.3117 0.7991 0.0000
vt 0.3003 0.8043 0.0000
vt 0.3068 0.8055 0.0000
vt 0.3133 0.8066 0.0000
vt 0.2993 0.8089 0.0000
vt 0.3051 0.8113 0.0000
vt 0.3108 0.8138 0.0000
vt 0.2988 0.8139 0.0000
vt 0.2997 0.8188 0.0000
vt 0.3054 0.8186 0.0000
# 102 texture coords

o Apple
g Apple
s 1
f 1/1/1 2/2/2 3/3/3 4/4/4 
f 2/2/2 5/5/5 6/6/6 3/3/3 
f 4/4/4 3/3/3 7/7/7 8/8/8 
f 3/3/3 6/6/6 9/9/9 7/7/7 
f 10/10/10 11/11/11 12/12/12 13/13/13 
f 13/13/13 12/12/12 14/14/14 15/15/15 
f 5/5/5 10/10/10 13/13/13 6/6/6 
f 6/6/6 13/13/13 15/15/15 9/9/9 
f 16/16/16 17/17/17 18/18/18 19/19/19 
f 17/17/17 20/20/20 21/21/21 18/18/18 
f 19/19/19 18/18/18 15/15/15 14/14/14 
f 18/18/18 21/21/21 9/9/9 15/15/15 
f 22/22/22 23/23/23 24/24/24 25/25/25 
f 25/25/25 24/24/24 8/8/8 7/7/7 
f 20/20/20 22/22/22 25/25/25 21/21/21 
f 21/21/21 25/25/25 7/7/7 9/9/9 
f 26/1/26 27/4/27 28/3/28 29/2/29 
f 27/4/27 30/8/30 31/7/31 28/3/28 
f 29/2/29 28/3/28 32/6/32 33/5/33 
f 28/3/28 31/7/31 34/9/34 32/6/32 
f 35/24/35 36/23/36 37/22/37 38/25/38 
f 38/25/38 37/22/37 39/20/39 40/21/40 
f 30/8/30 35/24/35 38/25/38 31/7/31 
f 31/7/31 38/25/38 40/21/40 34/9/34 
f 41/16/41 42/19/42 43/18/43 44/17/44 
f 42/19/42 45/14/45 46/15/46 43/18/43 
f 44/17/44 43/18/43 40/21/40 39/20/39 
f 43/18/43 46/15/46 34/9/34 40/21/40 
f 47/12/47 48/11/48 49/10/49 50/13/50 
f 50/13/50 49/10/49 33/5/33 32/6/32 
f 45/14/45 47/12/47 50/13/50 46/15/46 
f 46/15/46 50/13/50 32/6/32 34/9/34 
f 1/1/1 4/4/4 51/26/51 52/27/52 
f 4/4/4 8/8/8 53/28/53 51/26/51 
f 52/27/52 51/26/51 54/29/54 55/30/55 
f 51/26/51 53/28/53 56/31/56 54/29/54 
f 24/24/24 23/23/23 57/32/57 58/33/58 
f 58/33/58 57/32/57 59/34/59 60/35/60 
f 8/8/8 24/24/24 58/33/58 53/28/53 
f 53/28/53 58/33/58 60/35/60 56/31/56 
f 36/23/36 35/24/35 61/33/61 62/32/62 
f 35/24/35 30/8/30 63/28/63 61/33/61 
f 62/32/62 61/33/61 60/35/60 59/34/59 
f 61/33/61 63/28/63 56/31/56 60/35/60 
f 27/4/27 26/1/26 64/27/64 65/26/65 
f 65/26/65 64/27/64 55/30/55 54/29/54 
f 30/8/30 27/4/27 65/26/65 63/28/63 
f 63/28/63 65/26/65 54/29/54 56/31/56 
f 23/23/23 22/22/22 66/36/66 57/32/57 
f 22/22/22 20/20/20 67/37/67 66/36/66 
f 57/32/57 66/36/66 68/38/68 59/34/59 
f 66/36/66 67/37/67 69/39/69 68/38/68 
f 17/17/17 16/16/16 70/40/70 71/41/71 
f 71/41/71 70/40/70 72/42/72 73/43/73 
f 20/20/20 17/17/17 71/41/71 67/37/67 
f 67/37/67 71/41/71 73/43/73 69/39/69 
f 41/16/41 44/17/44 74/41/74 75/40/75 
f 44/17/44 39/20/39 76/37/76 74/41/74 
f 75/40/75 74/41/74 73/43/73 72/42/72 
f 74/41/74 76/37/76 69/39/69 73/43/73 
f 37/22/37 36/23/36 62/32/62 77/36/77 
f 77/36/77 62/32/62 59/34/59 68/38/68 
f 39/20/39 37/22/37 77/36/77 76/37/76 
f 76/37/76 77/36/77 68/38/68 69/39/69 
f 16/16/16 19/19/19 78/44/78 70/40/70 
f 19/19/19 14/14/14 79/45/79 78/44/78 
f 70/40/70 78/44/78 80/46/80 72/42/72 
f 78/44/78 79/45/79 81/47/81 80/46/80 
f 12/12/12 11/11/11 82/48/82 83/49/83 
f 83/49/83 82/48/82 84/50/84 85/51/85 
f 14/14/14 12/12/12 83/49/83 79/45/79 
f 79/45/79 83/49/83 85/51/85 81/47/81 
f 48/11/48 47/12/47 86/49/86 87/48/87 
f 47/12/47 45/14/45 88/45/88 86/49/86 
f 87/48/87 86/49/86 85/51/85 84/50/84 
f 86/49/86 88/45/88 81/47/81 85/51/85 
f 42/19/42 41/16/41 75/40/75 89/44/89 
f 89/44/89 75/40/75 72/42/72 80/46/80 
f 45/14/45 42/19/42 89/44/89 88/45/88 
f 88/45/88 89/44/89 80/46/80 81/47/81 
f 11/11/11 10/10/10 90/52/90 82/48/82 
f 10/10/10 5/5/5 91/53/91 90/52/90 
f 82/48/82 90/52/90 92/54/92 84/50/84 
f 90/52/90 91/53/91 93/55/93 92/54/92 
f 2/2/2 1/1/1 52/27/52 94/56/94 
f 94/56/94 52/27/52 55/30/55 95/57/95 
f 5/5/5 2/2/2 94/56/94 91/53/91 
f 91/53/91 94/56/94 95/57/95 93/55/93 
f 26/1/26 29/2/29 96/56/96 64/27/64 
f 29/2/29 33/5/33 97/53/97 96/56/96 
f 64/27/64 96/56/96 95/57/95 55/30/55 
f 96/56/96 97/53/97 93/55/93 95/57/95 
f 49/10/49 48/11/48 87/48/87 98/52/98 
f 98/52/98 87/48/87 84/50/84 92/54/92 
f 33/5/33 49/10/49 98/52/98 97/53/97 
f 97/53/97 98/52/98 92/54/92 93/55/93 
f 99/58/99 100/59/100 101/60/101 102/61/102 103/62/103 104/63/104 
s 8
f 104/63/104 103/62/103 105/64/105 106/65/106 
f 103/62/103 102/61/102 107/66/107 105/64/105 
f 102/61/102 101/60/101 108/67/108 107/66/107 
f 101/60/101 100/59/100 109/68/109 108/67/108 
f 100/59/100 99/58/99 110/69/110 109/68/109 
f 99/58/99 104/63/104 106/65/106 110/69/110 
s 1
f 111/70/111 112/71/112 113/72/113 114/73/114 115/74/115 116/75/116 
s 8
f 117/76/117 118/77/118 119/78/119 120/79/120 
f 121/80/121 122/81/122 118/77/118 117/76/117 
f 123/82/123 124/83/124 122/81/122 121/80/121 
f 125/84/125 126/85/126 124/83/124 123/82/123 
f 127/86/127 128/87/128 126/85/126 125/84/125 
f 120/79/120 119/78/119 128/87/128 127/86/127 
f 105/64/105 117/76/117 120/79/120 106/65/106 
f 107/66/107 121/80/121 117/76/117 105/64/105 
f 108/67/108 123/82/123 121/80/121 107/66/107 
f 109/68/109 125/84/125 123/82/123 108/67/108 
f 110/69/110 127/86/127 125/84/125 109/68/109 
f 106/65/106 120/79/120 127/86/127 110/69/110 
f 118/77/118 113/72/113 112/71/112 119/78/119 
f 122/81/122 114/73/114 113/72/113 118/77/118 
f 124/83/124 115/74/115 114/73/114 122/81/122 
f 126/85/126 116/75/116 115/74/115 124/83/124 
f 128/87/128 111/70/111 116/75/116 126/85/126 
f 119/78/119 112/71/112 111/70/111 128/87/128 
s 1
f 129/88/129 130/89/130 131/90/130 132/91/131 
f 132/91/131 131/90/130 133/92/130 134/93/132 
f 135/94/133 129/88/129 132/91/131 136/95/134 
f 136/95/134 132/91/131 134/93/132 137/96/135 
f 138/97/136 135/94/133 136/95/134 139/98/137 
f 139/98/137 136/95/134 137/96/135 140/99/138 
f 141/100/139 138/97/136 139/98/137 142/101/140 
f 142/101/140 139/98/137 140/99/138 143/102/141 
# 130 polygons

