# 3ds Max Wavefront OBJ Exporter v0.97b - (c)2007 guruware
# File Created: 02.02.2020 08:21:44

mtllib Bagel.mtl

#
# object Bagel
#

v  0.2038 0.2678 0.0000
v  0.1441 0.2678 0.1441
v  0.2164 0.2408 0.2164
v  0.3061 0.2408 0.0000
v  -0.0000 0.2678 0.2038
v  -0.0000 0.2408 0.3061
v  -0.1441 0.2678 0.1441
v  -0.2164 0.2408 0.2164
v  -0.2038 0.2678 -0.0000
v  -0.3061 0.2408 -0.0000
v  -0.1441 0.2678 -0.1441
v  -0.2164 0.2408 -0.2164
v  0.0000 0.2678 -0.2038
v  0.0000 0.2408 -0.3061
v  0.1441 0.2678 -0.1441
v  0.2164 0.2408 -0.2164
v  0.3722 0.1909 0.0000
v  0.2632 0.1909 0.2632
v  0.2632 0.1568 0.2632
v  0.3722 0.1568 -0.0000
v  -0.0000 0.1909 0.3722
v  -0.0000 0.1568 0.3722
v  -0.2632 0.1909 0.2632
v  -0.2632 0.1568 0.2632
v  -0.3722 0.1909 -0.0000
v  -0.3722 0.1568 -0.0000
v  -0.2632 0.1909 -0.2632
v  -0.2632 0.1568 -0.2632
v  0.0000 0.1909 -0.3722
v  0.0000 0.1568 -0.3722
v  0.2632 0.1909 -0.2632
v  0.2632 0.1568 -0.2632
v  0.2469 0.2139 0.2469
v  0.3491 0.2139 0.0000
v  -0.0000 0.2139 0.3491
v  -0.2469 0.2139 0.2469
v  -0.3491 0.2139 -0.0000
v  -0.2469 0.2139 -0.2469
v  0.0000 0.2139 -0.3491
v  0.2469 0.2139 -0.2469
v  -0.1992 0.2361 0.2422
v  -0.1992 0.2249 0.2310
v  -0.2104 0.2249 0.2422
v  -0.1992 0.2249 0.2533
v  -0.1880 0.2249 0.2422
v  -0.1992 0.2137 0.2422
v  -0.6280 0.2418 0.2648
v  -0.0857 0.2793 0.1391
v  -0.0857 0.2681 0.1280
v  -0.0969 0.2681 0.1391
v  -0.0857 0.2681 0.1503
v  -0.0745 0.2681 0.1391
v  -0.0857 0.2569 0.1391
v  -0.0034 0.2674 0.2274
v  -0.0034 0.2562 0.2162
v  -0.0146 0.2562 0.2274
v  -0.0034 0.2562 0.2386
v  0.0078 0.2562 0.2274
v  -0.0034 0.2450 0.2274
v  0.0918 0.2793 0.1426
v  0.0918 0.2681 0.1314
v  0.0807 0.2681 0.1426
v  0.0918 0.2681 0.1538
v  0.1030 0.2681 0.1426
v  0.0918 0.2569 0.1426
v  0.0799 0.2468 0.2697
v  0.0799 0.2356 0.2585
v  0.0688 0.2356 0.2697
v  0.0799 0.2356 0.2809
v  0.0911 0.2356 0.2697
v  0.0799 0.2244 0.2697
v  0.2342 0.2583 0.1363
v  0.2342 0.2471 0.1251
v  0.2231 0.2471 0.1363
v  0.2342 0.2471 0.1475
v  0.2454 0.2471 0.1363
v  0.2342 0.2360 0.1363
v  0.2840 0.2530 0.0351
v  0.2840 0.2418 0.0239
v  0.2728 0.2418 0.0351
v  0.2840 0.2418 0.0463
v  0.2952 0.2418 0.0351
v  0.2840 0.2306 0.0351
v  0.2173 0.2650 -0.0801
v  0.2173 0.2538 -0.0913
v  0.2061 0.2538 -0.0801
v  0.2173 0.2538 -0.0689
v  0.2285 0.2538 -0.0801
v  0.2173 0.2426 -0.0801
v  0.1752 0.2701 -0.1922
v  0.1752 0.2589 -0.2034
v  0.1640 0.2589 -0.1922
v  0.1752 0.2589 -0.1810
v  0.1864 0.2589 -0.1922
v  0.1752 0.2477 -0.1922
v  0.0644 0.2927 -0.1667
v  0.0644 0.2816 -0.1779
v  0.0532 0.2816 -0.1667
v  0.0644 0.2816 -0.1555
v  0.0756 0.2816 -0.1667
v  0.0644 0.2704 -0.1667
v  -0.0404 0.2532 -0.2654
v  -0.0404 0.2420 -0.2766
v  -0.0516 0.2420 -0.2654
v  -0.0404 0.2420 -0.2542
v  -0.0292 0.2420 -0.2654
v  -0.0404 0.2308 -0.2654
v  -0.1606 0.2828 -0.1480
v  -0.1606 0.2716 -0.1592
v  -0.1717 0.2716 -0.1480
v  -0.1606 0.2716 -0.1368
v  -0.1494 0.2716 -0.1480
v  -0.1606 0.2604 -0.1480
v  -0.1324 0.2873 0.0734
v  -0.1324 0.2761 0.0622
v  -0.1436 0.2761 0.0734
v  -0.1324 0.2761 0.0846
v  -0.1213 0.2761 0.0734
v  -0.1324 0.2649 0.0734
v  -0.2560 0.2569 0.0545
v  -0.2560 0.2457 0.0433
v  -0.2672 0.2457 0.0545
v  -0.2560 0.2457 0.0657
v  -0.2448 0.2457 0.0545
v  -0.2560 0.2345 0.0545
v  -0.2795 0.2530 -0.0703
v  -0.2795 0.2418 -0.0815
v  -0.2907 0.2418 -0.0703
v  -0.2795 0.2418 -0.0591
v  -0.2683 0.2418 -0.0703
v  -0.2795 0.2306 -0.0703
v  0.1602 0.2726 0.0000
v  0.1133 0.2726 0.1133
v  0.1133 0.2726 -0.1133
v  0.0000 0.2726 -0.1602
v  -0.1133 0.2726 -0.1133
v  -0.1602 0.2726 -0.0000
v  -0.1133 0.2726 0.1133
v  -0.0000 0.2726 0.1602
v  0.3722 0.1179 -0.0000
v  0.2632 0.1179 0.2632
v  0.2619 0.0932 0.2619
v  0.3704 0.0932 -0.0000
v  -0.0000 0.1179 0.3722
v  -0.0000 0.0932 0.3704
v  -0.2632 0.1179 0.2632
v  -0.2619 0.0932 0.2619
v  -0.3722 0.1179 -0.0000
v  -0.3704 0.0932 -0.0000
v  -0.2632 0.1179 -0.2632
v  -0.2619 0.0932 -0.2619
v  0.0000 0.1179 -0.3722
v  0.0000 0.0932 -0.3704
v  0.2632 0.1179 -0.2632
v  0.2619 0.0932 -0.2619
v  0.0000 0.1952 -0.1099
v  0.0777 0.1952 -0.0777
v  -0.0777 0.1952 -0.0777
v  -0.1099 0.1952 -0.0000
v  -0.0777 0.1952 0.0777
v  -0.0000 0.1952 0.1099
v  0.0777 0.1952 0.0777
v  0.1099 0.1952 0.0000
v  0.0000 0.1391 -0.1333
v  0.0943 0.1391 -0.0943
v  -0.0943 0.1391 -0.0943
v  -0.1333 0.1391 -0.0000
v  -0.0943 0.1391 0.0943
v  -0.0000 0.1391 0.1333
v  0.0943 0.1391 0.0943
v  0.1333 0.1391 -0.0000
v  0.1168 0.1179 0.1168
v  0.1652 0.1179 -0.0000
v  -0.0000 0.1179 0.1652
v  -0.1168 0.1179 0.1168
v  -0.1652 0.1179 -0.0000
v  -0.1168 0.1179 -0.1168
v  0.0000 0.1179 -0.1652
v  0.1168 0.1179 -0.1168
v  0.1900 0.0685 0.1900
v  0.2687 0.0685 -0.0000
v  -0.0000 0.0685 0.2687
v  -0.1900 0.0685 0.1900
v  -0.2687 0.0685 -0.0000
v  -0.1900 0.0685 -0.1900
v  0.0000 0.0685 -0.2687
v  0.1900 0.0685 -0.1900
v  0.2632 0.1520 0.2632
v  0.3722 0.1520 -0.0000
v  -0.0000 0.1520 0.3722
v  -0.2632 0.1520 0.2632
v  -0.3722 0.1520 -0.0000
v  -0.2632 0.1520 -0.2632
v  0.0000 0.1520 -0.3722
v  0.2632 0.1520 -0.2632
# 195 vertices

vn 0.2007 0.9797 -0.0000
vn 0.1419 0.9797 0.1419
vn 0.3020 0.9042 0.3020
vn 0.4272 0.9042 -0.0000
vn -0.0000 0.9797 0.2007
vn -0.0000 0.9042 0.4272
vn -0.1419 0.9797 0.1419
vn -0.3020 0.9042 0.3020
vn -0.2007 0.9797 -0.0000
vn -0.4272 0.9042 -0.0000
vn -0.1419 0.9797 -0.1419
vn -0.3020 0.9042 -0.3020
vn -0.0000 0.9797 -0.2007
vn 0.0000 0.9042 -0.4272
vn 0.1419 0.9797 -0.1419
vn 0.3020 0.9042 -0.3020
vn 0.9356 0.3532 -0.0000
vn 0.6615 0.3532 0.6615
vn 0.7071 -0.0000 0.7071
vn 1.0000 0.0000 -0.0000
vn 0.0000 0.3532 0.9356
vn -0.0000 -0.0000 1.0000
vn -0.6615 0.3531 0.6616
vn -0.7071 -0.0000 0.7071
vn -0.9356 0.3531 -0.0000
vn -1.0000 0.0000 -0.0000
vn -0.6615 0.3532 -0.6616
vn -0.7071 0.0000 -0.7071
vn 0.0000 0.3531 -0.9356
vn -0.0000 0.0000 -1.0000
vn 0.6616 0.3532 -0.6615
vn 0.7071 0.0000 -0.7071
vn 0.4519 0.7692 0.4519
vn 0.6391 0.7692 0.0000
vn -0.0000 0.7692 0.6391
vn -0.4519 0.7692 0.4519
vn -0.6391 0.7692 -0.0000
vn -0.4519 0.7692 -0.4519
vn -0.0000 0.7692 -0.6391
vn 0.4519 0.7692 -0.4519
vn 0.0000 1.0000 -0.0000
vn 0.0000 0.0000 -1.0000
vn 0.0000 0.0000 1.0000
vn 0.0000 -1.0000 -0.0000
vn -1.0000 0.0000 0.0000
vn 0.0000 -0.0000 -1.0000
vn -1.0000 -0.0000 -0.0000
vn 1.0000 -0.0000 0.0000
vn -0.0000 0.0000 1.0000
vn 0.0000 -0.0000 1.0000
vn 1.0000 -0.0000 -0.0000
vn -0.0000 1.0000 -0.0000
vn -0.0000 -0.0000 -1.0000
vn -0.0000 -1.0000 -0.0000
vn -0.3092 0.9510 0.0000
vn -0.2187 0.9510 -0.2187
vn -0.2187 0.9510 0.2187
vn -0.0000 0.9510 0.3092
vn 0.2187 0.9510 0.2187
vn 0.3092 0.9510 0.0000
vn 0.2187 0.9510 -0.2187
vn -0.0000 0.9510 -0.3092
vn 0.9993 -0.0361 -0.0000
vn 0.7066 -0.0361 0.7066
vn 0.5744 -0.5832 0.5744
vn 0.8123 -0.5832 -0.0000
vn 0.0000 -0.0361 0.9993
vn -0.0000 -0.5832 0.8123
vn -0.7067 -0.0361 0.7066
vn -0.5744 -0.5832 0.5744
vn -0.9993 -0.0361 0.0000
vn -0.8123 -0.5832 -0.0000
vn -0.7067 -0.0361 -0.7066
vn -0.5744 -0.5832 -0.5744
vn -0.0000 -0.0361 -0.9993
vn -0.0000 -0.5832 -0.8123
vn 0.7066 -0.0361 -0.7066
vn 0.5744 -0.5832 -0.5744
vn 0.0000 0.1027 0.9947
vn -0.7034 0.1027 0.7034
vn 0.7034 0.1027 0.7034
vn 0.9947 0.1027 0.0000
vn 0.7034 0.1027 -0.7034
vn 0.0000 0.1027 -0.9947
vn -0.7034 0.1027 -0.7034
vn -0.9947 0.1027 -0.0000
vn 0.0000 -0.6730 0.7396
vn -0.5230 -0.6730 0.5230
vn 0.5230 -0.6730 0.5230
vn 0.7396 -0.6730 -0.0000
vn 0.5230 -0.6730 -0.5230
vn 0.0000 -0.6730 -0.7396
vn -0.5230 -0.6730 -0.5230
vn -0.7396 -0.6730 -0.0000
vn -0.3394 -0.8773 -0.3394
vn -0.4800 -0.8773 -0.0000
vn 0.0000 -0.8773 -0.4800
vn 0.3394 -0.8773 -0.3394
vn 0.4800 -0.8773 -0.0000
vn 0.3394 -0.8773 0.3394
vn 0.0000 -0.8773 0.4800
vn -0.3394 -0.8773 0.3394
vn -0.0138 -0.9998 -0.0138
vn -0.0195 -0.9998 -0.0000
vn -0.0000 -0.9998 -0.0195
vn 0.0138 -0.9998 -0.0138
vn 0.0195 -0.9998 -0.0000
vn 0.0138 -0.9998 0.0138
vn 0.0000 -0.9998 0.0195
vn -0.0138 -0.9998 0.0138
vn 0.7071 0.0000 0.7071
vn -0.7071 0.0000 0.7071
# 112 vertex normals

vt 0.6617 0.8576 0.0000
vt 0.6687 0.8577 0.0000
vt 0.6602 0.8607 0.0000
vt 0.6497 0.8605 0.0000
vt 0.6855 0.8580 0.0000
vt 0.6855 0.8611 0.0000
vt 0.7024 0.8582 0.0000
vt 0.7108 0.8615 0.0000
vt 0.7094 0.8584 0.0000
vt 0.7213 0.8617 0.0000
vt 0.6419 0.8662 0.0000
vt 0.6546 0.8664 0.0000
vt 0.6546 0.8704 0.0000
vt 0.6418 0.8702 0.0000
vt 0.6854 0.8669 0.0000
vt 0.6853 0.8709 0.0000
vt 0.7162 0.8675 0.0000
vt 0.7161 0.8714 0.0000
vt 0.7289 0.8677 0.0000
vt 0.7288 0.8717 0.0000
vt 0.6566 0.8638 0.0000
vt 0.6446 0.8636 0.0000
vt 0.6854 0.8643 0.0000
vt 0.7143 0.8647 0.0000
vt 0.7263 0.8649 0.0000
vt 0.6628 0.4174 0.0000
vt 0.6628 0.4189 0.0000
vt 0.6613 0.4174 0.0000
vt 0.6628 0.4159 0.0000
vt 0.6642 0.4174 0.0000
vt 0.0000 0.2352 0.0000
vt 0.6776 0.4309 0.0000
vt 0.6776 0.4323 0.0000
vt 0.6761 0.4309 0.0000
vt 0.6776 0.4294 0.0000
vt 0.6791 0.4309 0.0000
vt 0.6884 0.4193 0.0000
vt 0.6884 0.4208 0.0000
vt 0.6869 0.4193 0.0000
vt 0.6884 0.4179 0.0000
vt 0.6898 0.4193 0.0000
vt 0.7008 0.4304 0.0000
vt 0.7008 0.4319 0.0000
vt 0.6993 0.4304 0.0000
vt 0.7008 0.4289 0.0000
vt 0.7023 0.4304 0.0000
vt 0.6992 0.4138 0.0000
vt 0.6992 0.4153 0.0000
vt 0.6978 0.4138 0.0000
vt 0.6992 0.4124 0.0000
vt 0.7007 0.4138 0.0000
vt 0.7194 0.4312 0.0000
vt 0.7194 0.4327 0.0000
vt 0.7179 0.4312 0.0000
vt 0.7194 0.4298 0.0000
vt 0.7209 0.4312 0.0000
vt 0.7259 0.4444 0.0000
vt 0.7259 0.4459 0.0000
vt 0.7244 0.4444 0.0000
vt 0.7259 0.4430 0.0000
vt 0.7274 0.4444 0.0000
vt 0.7172 0.4595 0.0000
vt 0.7172 0.4610 0.0000
vt 0.7157 0.4595 0.0000
vt 0.7172 0.4580 0.0000
vt 0.7186 0.4595 0.0000
vt 0.7117 0.4741 0.0000
vt 0.7117 0.4756 0.0000
vt 0.7102 0.4741 0.0000
vt 0.7117 0.4727 0.0000
vt 0.7131 0.4741 0.0000
vt 0.6972 0.4708 0.0000
vt 0.6972 0.4723 0.0000
vt 0.6958 0.4708 0.0000
vt 0.6972 0.4693 0.0000
vt 0.6987 0.4708 0.0000
vt 0.6835 0.4837 0.0000
vt 0.6835 0.4852 0.0000
vt 0.6821 0.4837 0.0000
vt 0.6835 0.4822 0.0000
vt 0.6850 0.4837 0.0000
vt 0.6678 0.4684 0.0000
vt 0.6678 0.4698 0.0000
vt 0.6664 0.4684 0.0000
vt 0.6678 0.4669 0.0000
vt 0.6693 0.4684 0.0000
vt 0.6715 0.4395 0.0000
vt 0.6715 0.4409 0.0000
vt 0.6700 0.4395 0.0000
vt 0.6715 0.4380 0.0000
vt 0.6730 0.4395 0.0000
vt 0.6554 0.4419 0.0000
vt 0.6554 0.4434 0.0000
vt 0.6539 0.4419 0.0000
vt 0.6554 0.4405 0.0000
vt 0.6568 0.4419 0.0000
vt 0.6523 0.4582 0.0000
vt 0.6523 0.4597 0.0000
vt 0.6508 0.4582 0.0000
vt 0.6523 0.4567 0.0000
vt 0.6538 0.4582 0.0000
vt 0.6668 0.8571 0.0000
vt 0.6723 0.8572 0.0000
vt 0.6855 0.8574 0.0000
vt 0.6988 0.8576 0.0000
vt 0.7043 0.8577 0.0000
vt 0.6417 0.8748 0.0000
vt 0.6545 0.8750 0.0000
vt 0.6546 0.8779 0.0000
vt 0.6419 0.8776 0.0000
vt 0.6852 0.8755 0.0000
vt 0.6852 0.8784 0.0000
vt 0.7160 0.8760 0.0000
vt 0.7158 0.8789 0.0000
vt 0.7288 0.8762 0.0000
vt 0.7285 0.8791 0.0000
vt 0.6854 0.8664 0.0000
vt 0.6763 0.8663 0.0000
vt 0.6945 0.8666 0.0000
vt 0.6982 0.8667 0.0000
vt 0.6725 0.8662 0.0000
vt 0.6853 0.8730 0.0000
vt 0.6743 0.8728 0.0000
vt 0.6963 0.8732 0.0000
vt 0.7009 0.8733 0.0000
vt 0.6697 0.8727 0.0000
vt 0.6716 0.8753 0.0000
vt 0.6659 0.8752 0.0000
vt 0.6989 0.8757 0.0000
vt 0.7046 0.8758 0.0000
vt 0.6629 0.8809 0.0000
vt 0.6537 0.8807 0.0000
vt 0.6852 0.8812 0.0000
vt 0.7074 0.8816 0.0000
vt 0.7166 0.8818 0.0000
vt 0.6545 0.8710 0.0000
vt 0.6418 0.8708 0.0000
vt 0.6853 0.8715 0.0000
vt 0.7161 0.8720 0.0000
vt 0.7288 0.8722 0.0000
vt 0.6546 0.8863 0.0000
vt 0.6545 0.8869 0.0000
vt 0.6418 0.8866 0.0000
vt 0.6418 0.8861 0.0000
vt 0.6853 0.8868 0.0000
vt 0.6853 0.8874 0.0000
vt 0.7161 0.8873 0.0000
vt 0.7161 0.8879 0.0000
vt 0.7288 0.8875 0.0000
vt 0.7288 0.8881 0.0000
# 150 texture coords

o Bagel
g Bagel
usemtl Material__47
s 1
f 1/1/1 2/2/2 3/3/3 4/4/4 
f 2/2/2 5/5/5 6/6/6 3/3/3 
f 5/5/5 7/7/7 8/8/8 6/6/6 
f 7/7/7 9/9/9 10/10/10 8/8/8 
f 9/9/9 11/7/11 12/8/12 10/10/10 
f 11/7/11 13/5/13 14/6/14 12/8/12 
f 13/5/13 15/2/15 16/3/16 14/6/14 
f 15/2/15 1/1/1 4/4/4 16/3/16 
s 2
f 17/11/17 18/12/18 19/13/19 20/14/20 
s 4
f 18/12/18 21/15/21 22/16/22 19/13/19 
s 2
f 21/15/21 23/17/23 24/18/24 22/16/22 
s 4
f 23/17/23 25/19/25 26/20/26 24/18/24 
s 2
f 25/19/25 27/17/27 28/18/28 26/20/26 
s 4
f 27/17/27 29/15/29 30/16/30 28/18/28 
s 2
f 29/15/29 31/12/31 32/13/32 30/16/30 
s 4
f 31/12/31 17/11/17 20/14/20 32/13/32 
s 1
f 33/21/33 18/12/18 17/11/17 34/22/34 
f 35/23/35 21/15/21 18/12/18 33/21/33 
f 36/24/36 23/17/23 21/15/21 35/23/35 
f 37/25/37 25/19/25 23/17/23 36/24/36 
f 38/24/38 27/17/27 25/19/25 37/25/37 
f 39/23/39 29/15/29 27/17/27 38/24/38 
f 40/21/40 31/12/31 29/15/29 39/23/39 
f 34/22/34 17/11/17 31/12/31 40/21/40 
f 41/26/41 42/27/42 43/28/26 
s 2
f 41/26/41 43/28/26 44/29/43 
s 4
f 41/26/41 44/29/43 45/30/20 
s 8
f 41/26/41 45/30/20 42/27/42 
s 4
f 46/26/44 43/28/26 42/27/42 
s 8
f 46/26/44 44/29/43 43/28/26 
s 1
f 46/26/44 45/30/20 44/29/43 
s 2
f 46/26/44 42/27/42 45/30/20 
s 1
f 47/31/20 47/31/20 47/31/20 
f 47/31/20 47/31/20 47/31/20 
f 47/31/20 47/31/20 47/31/20 
f 47/31/20 47/31/20 47/31/20 
f 47/31/20 47/31/20 47/31/20 
f 47/31/20 47/31/20 47/31/20 
f 47/31/20 47/31/20 47/31/20 
f 47/31/20 47/31/20 47/31/20 
f 48/32/41 49/33/30 50/34/45 
s 2
f 48/32/41 50/34/45 51/35/43 
s 4
f 48/32/41 51/35/43 52/36/20 
s 8
f 48/32/41 52/36/20 49/33/30 
s 4
f 53/32/44 50/34/45 49/33/30 
s 8
f 53/32/44 51/35/43 50/34/45 
s 1
f 53/32/44 52/36/20 51/35/43 
s 2
f 53/32/44 49/33/30 52/36/20 
s 1
f 54/37/41 55/38/46 56/39/47 
s 2
f 54/37/41 56/39/47 57/40/22 
s 4
f 54/37/41 57/40/22 58/41/48 
s 8
f 54/37/41 58/41/48 55/38/46 
s 4
f 59/37/44 56/39/47 55/38/46 
s 8
f 59/37/44 57/40/22 56/39/47 
s 1
f 59/37/44 58/41/48 57/40/22 
s 2
f 59/37/44 55/38/46 58/41/48 
s 1
f 60/42/41 61/43/42 62/44/26 
s 2
f 60/42/41 62/44/26 63/45/49 
s 4
f 60/42/41 63/45/49 64/46/20 
s 8
f 60/42/41 64/46/20 61/43/42 
s 4
f 65/42/44 62/44/26 61/43/42 
s 8
f 65/42/44 63/45/49 62/44/26 
s 1
f 65/42/44 64/46/20 63/45/49 
s 2
f 65/42/44 61/43/42 64/46/20 
s 1
f 66/47/41 67/48/30 68/49/45 
s 2
f 66/47/41 68/49/45 69/50/43 
s 4
f 66/47/41 69/50/43 70/51/20 
s 8
f 66/47/41 70/51/20 67/48/30 
s 4
f 71/47/44 68/49/45 67/48/30 
s 8
f 71/47/44 69/50/43 68/49/45 
s 1
f 71/47/44 70/51/20 69/50/43 
s 2
f 71/47/44 67/48/30 70/51/20 
s 1
f 72/52/41 73/53/46 74/54/47 
s 2
f 72/52/41 74/54/47 75/55/50 
s 4
f 72/52/41 75/55/50 76/56/51 
s 8
f 72/52/41 76/56/51 73/53/46 
s 4
f 77/52/44 74/54/47 73/53/46 
s 8
f 77/52/44 75/55/50 74/54/47 
s 1
f 77/52/44 76/56/51 75/55/50 
s 2
f 77/52/44 73/53/46 76/56/51 
s 1
f 78/57/41 79/58/46 80/59/47 
s 2
f 78/57/41 80/59/47 81/60/50 
s 4
f 78/57/41 81/60/50 82/61/51 
s 8
f 78/57/41 82/61/51 79/58/46 
s 4
f 83/57/44 80/59/47 79/58/46 
s 8
f 83/57/44 81/60/50 80/59/47 
s 1
f 83/57/44 82/61/51 81/60/50 
s 2
f 83/57/44 79/58/46 82/61/51 
s 1
f 84/62/41 85/63/42 86/64/26 
s 2
f 84/62/41 86/64/26 87/65/43 
s 4
f 84/62/41 87/65/43 88/66/20 
s 8
f 84/62/41 88/66/20 85/63/42 
s 4
f 89/62/44 86/64/26 85/63/42 
s 8
f 89/62/44 87/65/43 86/64/26 
s 1
f 89/62/44 88/66/20 87/65/43 
s 2
f 89/62/44 85/63/42 88/66/20 
s 1
f 90/67/41 91/68/42 92/69/26 
s 2
f 90/67/41 92/69/26 93/70/43 
s 4
f 90/67/41 93/70/43 94/71/20 
s 8
f 90/67/41 94/71/20 91/68/42 
s 4
f 95/67/44 92/69/26 91/68/42 
s 8
f 95/67/44 93/70/43 92/69/26 
s 1
f 95/67/44 94/71/20 93/70/43 
s 2
f 95/67/44 91/68/42 94/71/20 
s 1
f 96/72/41 97/73/42 98/74/26 
s 2
f 96/72/41 98/74/26 99/75/43 
s 4
f 96/72/41 99/75/43 100/76/20 
s 8
f 96/72/41 100/76/20 97/73/42 
s 4
f 101/72/44 98/74/26 97/73/42 
s 8
f 101/72/44 99/75/43 98/74/26 
s 1
f 101/72/44 100/76/20 99/75/43 
s 2
f 101/72/44 97/73/42 100/76/20 
s 1
f 102/77/41 103/78/46 104/79/47 
s 2
f 102/77/41 104/79/47 105/80/50 
s 4
f 102/77/41 105/80/50 106/81/51 
s 8
f 102/77/41 106/81/51 103/78/46 
s 4
f 107/77/44 104/79/47 103/78/46 
s 8
f 107/77/44 105/80/50 104/79/47 
s 1
f 107/77/44 106/81/51 105/80/50 
s 2
f 107/77/44 103/78/46 106/81/51 
s 1
f 108/82/41 109/83/42 110/84/26 
s 2
f 108/82/41 110/84/26 111/85/43 
s 4
f 108/82/41 111/85/43 112/86/20 
s 8
f 108/82/41 112/86/20 109/83/42 
s 4
f 113/82/44 110/84/26 109/83/42 
s 8
f 113/82/44 111/85/43 110/84/26 
s 1
f 113/82/44 112/86/20 111/85/43 
s 2
f 113/82/44 109/83/42 112/86/20 
s 1
f 114/87/41 115/88/30 116/89/45 
s 2
f 114/87/41 116/89/45 117/90/43 
s 4
f 114/87/41 117/90/43 118/91/20 
s 8
f 114/87/41 118/91/20 115/88/30 
s 4
f 119/87/44 116/89/45 115/88/30 
s 8
f 119/87/44 117/90/43 116/89/45 
s 1
f 119/87/44 118/91/20 117/90/43 
s 2
f 119/87/44 115/88/30 118/91/20 
s 1
f 120/92/52 121/93/53 122/94/47 
s 2
f 120/92/52 122/94/47 123/95/22 
s 4
f 120/92/52 123/95/22 124/96/48 
s 8
f 120/92/52 124/96/48 121/93/53 
s 4
f 125/92/54 122/94/47 121/93/53 
s 8
f 125/92/54 123/95/22 122/94/47 
s 1
f 125/92/54 124/96/48 123/95/22 
s 2
f 125/92/54 121/93/53 124/96/48 
s 1
f 126/97/41 127/98/53 128/99/47 
s 2
f 126/97/41 128/99/47 129/100/50 
s 4
f 126/97/41 129/100/50 130/101/48 
s 8
f 126/97/41 130/101/48 127/98/53 
s 4
f 131/97/44 128/99/47 127/98/53 
s 8
f 131/97/44 129/100/50 128/99/47 
s 1
f 131/97/44 130/101/48 129/100/50 
s 2
f 131/97/44 127/98/53 130/101/48 
s 1
f 2/2/2 1/1/1 132/102/55 133/103/56 
f 1/1/1 15/2/15 134/103/57 132/102/55 
f 15/2/15 13/5/13 135/104/58 134/103/57 
f 13/5/13 11/7/11 136/105/59 135/104/58 
f 11/7/11 9/9/9 137/106/60 136/105/59 
f 9/9/9 7/7/7 138/105/61 137/106/60 
f 7/7/7 5/5/5 139/104/62 138/105/61 
f 5/5/5 2/2/2 133/103/56 139/104/62 
s 2
f 140/107/63 141/108/64 142/109/65 143/110/66 
s 4
f 141/108/64 144/111/67 145/112/68 142/109/65 
s 2
f 144/111/67 146/113/69 147/114/70 145/112/68 
s 4
f 146/113/69 148/115/71 149/116/72 147/114/70 
s 2
f 148/115/71 150/113/73 151/114/74 149/116/72 
s 4
f 150/113/73 152/111/75 153/112/76 151/114/74 
s 2
f 152/111/75 154/108/77 155/109/78 153/112/76 
s 4
f 154/108/77 140/107/63 143/110/66 155/109/78 
s 2
f 134/103/57 135/104/58 156/117/79 157/118/80 
s 4
f 135/104/58 136/105/59 158/119/81 156/117/79 
s 2
f 136/105/59 137/106/60 159/120/82 158/119/81 
s 4
f 137/106/60 138/105/61 160/119/83 159/120/82 
s 2
f 138/105/61 139/104/62 161/117/84 160/119/83 
s 4
f 139/104/62 133/103/56 162/118/85 161/117/84 
s 2
f 133/103/56 132/102/55 163/121/86 162/118/85 
s 4
f 132/102/55 134/103/57 157/118/80 163/121/86 
s 1
f 156/117/79 164/122/87 165/123/88 157/118/80 
s 8
f 158/119/81 166/124/89 164/122/87 156/117/79 
s 1
f 159/120/82 167/125/90 166/124/89 158/119/81 
s 8
f 160/119/83 168/124/91 167/125/90 159/120/82 
s 1
f 161/117/84 169/122/92 168/124/91 160/119/83 
s 8
f 162/118/85 170/123/93 169/122/92 161/117/84 
s 1
f 163/121/86 171/126/94 170/123/93 162/118/85 
s 8
f 157/118/80 165/123/88 171/126/94 163/121/86 
s 2
f 172/127/95 170/123/93 171/126/94 173/128/96 
f 174/111/97 169/122/92 170/123/93 172/127/95 
f 175/129/98 168/124/91 169/122/92 174/111/97 
f 176/130/99 167/125/90 168/124/91 175/129/98 
f 177/129/100 166/124/89 167/125/90 176/130/99 
f 178/111/101 164/122/87 166/124/89 177/129/100 
f 179/127/102 165/123/88 164/122/87 178/111/101 
f 173/128/96 171/126/94 165/123/88 179/127/102 
f 180/131/103 172/127/95 173/128/96 181/132/104 
f 182/133/105 174/111/97 172/127/95 180/131/103 
f 183/134/106 175/129/98 174/111/97 182/133/105 
f 184/135/107 176/130/99 175/129/98 183/134/106 
f 185/134/108 177/129/100 176/130/99 184/135/107 
f 186/133/109 178/111/101 177/129/100 185/134/108 
f 187/131/110 179/127/102 178/111/101 186/133/109 
f 181/132/104 173/128/96 179/127/102 187/131/110 
s 1
f 142/109/65 180/131/103 181/132/104 143/110/66 
f 145/112/68 182/133/105 180/131/103 142/109/65 
f 147/114/70 183/134/106 182/133/105 145/112/68 
f 149/116/72 184/135/107 183/134/106 147/114/70 
f 151/114/74 185/134/108 184/135/107 149/116/72 
f 153/112/76 186/133/109 185/134/108 151/114/74 
f 155/109/78 187/131/110 186/133/109 153/112/76 
f 143/110/66 181/132/104 187/131/110 155/109/78 
f 3/3/3 33/21/33 34/22/34 4/4/4 
f 6/6/6 35/23/35 33/21/33 3/3/3 
f 8/8/8 36/24/36 35/23/35 6/6/6 
f 10/10/10 37/25/37 36/24/36 8/8/8 
f 12/8/12 38/24/38 37/25/37 10/10/10 
f 14/6/14 39/23/39 38/24/38 12/8/12 
f 16/3/16 40/21/40 39/23/39 14/6/14 
f 4/4/4 34/22/34 40/21/40 16/3/16 
s 2
f 188/136/111 141/108/64 140/107/63 189/137/20 
s 4
f 190/138/43 144/111/67 141/108/64 188/136/111 
s 2
f 191/139/112 146/113/69 144/111/67 190/138/43 
s 4
f 192/140/26 148/115/71 146/113/69 191/139/112 
s 2
f 193/139/28 150/113/73 148/115/71 192/140/26 
s 4
f 194/138/30 152/111/75 150/113/73 193/139/28 
s 2
f 195/136/32 154/108/77 152/111/75 194/138/30 
s 4
f 189/137/20 140/107/63 154/108/77 195/136/32 
s 2
f 19/141/19 188/142/111 189/143/20 20/144/20 
s 4
f 22/145/22 190/146/43 188/142/111 19/141/19 
s 2
f 24/147/24 191/148/112 190/146/43 22/145/22 
s 4
f 26/149/26 192/150/26 191/148/112 24/147/24 
s 2
f 28/147/28 193/148/28 192/150/26 26/149/26 
s 4
f 30/145/30 194/146/30 193/148/28 28/147/28 
s 2
f 32/141/32 195/142/32 194/146/30 30/145/30 
s 4
f 20/144/20 189/143/20 195/142/32 32/141/32 
# 104 polygons - 128 triangles

