# 3ds Max Wavefront OBJ Exporter v0.97b - (c)2007 guruware
# File Created: 02.02.2020 07:47:40

mtllib Baguette.mtl

#
# object Baguette
#

v  -0.0417 -0.0108 0.2154
v  -0.0420 -0.0115 0.1263
v  0.0000 -0.0116 0.1077
v  0.0000 -0.0108 0.2154
v  0.0417 0.1824 0.2154
v  0.0420 0.1832 0.1060
v  0.0000 0.1831 0.1246
v  0.0000 0.1824 0.2154
v  -0.0215 0.0684 0.5363
v  -0.0123 0.0494 0.5363
v  0.0000 0.0494 0.5363
v  0.0000 0.1222 0.5363
v  -0.0123 0.1222 0.5363
v  -0.0215 0.1031 0.5363
v  0.0582 0.0234 0.2154
v  0.0588 0.0227 0.0816
v  0.0588 0.1309 0.0816
v  0.0582 0.1482 0.2154
v  0.0215 0.0684 -0.5138
v  0.0123 0.0494 -0.5138
v  0.0000 0.0494 -0.5138
v  0.0000 0.1222 -0.5138
v  0.0123 0.1222 -0.5138
v  0.0215 0.1031 -0.5138
v  -0.0582 0.0234 -0.2154
v  -0.0588 0.0227 -0.0816
v  -0.0588 0.1309 -0.0816
v  -0.0582 0.1482 -0.2154
v  -0.0370 0.0000 -0.3924
v  -0.0291 0.0089 -0.4472
v  0.0000 0.0089 -0.4472
v  0.0000 0.0000 -0.3924
v  -0.0417 -0.0108 -0.2154
v  -0.0397 -0.0063 -0.3055
v  -0.0000 -0.0054 -0.3230
v  0.0000 -0.0108 -0.2154
v  -0.0424 -0.0124 -0.0000
v  -0.0421 -0.0118 -0.0890
v  0.0000 -0.0116 -0.1077
v  0.0000 -0.0124 -0.0000
v  0.0370 0.0000 0.3970
v  0.0283 0.0110 0.4590
v  0.0000 0.0110 0.4589
v  0.0000 0.0000 0.3970
v  0.0417 -0.0108 0.2154
v  0.0397 -0.0063 0.3055
v  0.0000 -0.0054 0.3230
v  0.0370 0.1716 -0.3924
v  0.0291 0.1627 -0.4472
v  0.0000 0.1627 -0.4472
v  0.0000 0.1716 -0.3924
v  0.0417 0.1824 -0.2154
v  0.0393 0.1769 -0.3234
v  -0.0000 0.1778 -0.3061
v  0.0000 0.1824 -0.2154
v  0.0424 0.1840 -0.0000
v  0.0420 0.1832 -0.1093
v  0.0000 0.1833 -0.0907
v  0.0000 0.1840 -0.0000
v  -0.0370 0.1716 0.3970
v  -0.0283 0.1606 0.4590
v  0.0000 0.1606 0.4589
v  0.0000 0.1716 0.3970
v  -0.0417 0.1824 0.2154
v  -0.0393 0.1769 0.3234
v  0.0000 0.1778 0.3061
v  0.0517 0.0303 -0.3924
v  0.0449 0.0416 -0.4472
v  0.0449 0.1300 -0.4472
v  0.0517 0.1412 -0.3924
v  0.0582 0.0234 -0.2154
v  0.0542 0.0276 -0.3472
v  0.0542 0.1260 -0.3472
v  0.0582 0.1482 -0.2154
v  0.0592 0.0223 -0.0000
v  0.0585 0.0229 -0.1337
v  0.0585 0.1307 -0.1337
v  0.0592 0.1493 -0.0000
v  0.0517 0.1412 0.3970
v  0.0437 0.1288 0.4590
v  0.0437 0.0428 0.4590
v  0.0517 0.0303 0.3970
v  0.0557 0.1276 0.2985
v  0.0557 0.0260 0.2985
v  -0.0517 0.0303 0.3970
v  -0.0437 0.0428 0.4590
v  -0.0437 0.1288 0.4590
v  -0.0517 0.1412 0.3970
v  -0.0582 0.0234 0.2154
v  -0.0542 0.0276 0.3472
v  -0.0542 0.1260 0.3472
v  -0.0582 0.1482 0.2154
v  -0.0592 0.0223 -0.0000
v  -0.0585 0.0229 0.1337
v  -0.0585 0.1307 0.1337
v  -0.0592 0.1493 -0.0000
v  -0.0517 0.1412 -0.3924
v  -0.0449 0.1300 -0.4472
v  -0.0449 0.0416 -0.4472
v  -0.0517 0.0303 -0.3924
v  -0.0557 0.1276 -0.2985
v  -0.0557 0.0260 -0.2985
v  -0.0170 0.0289 0.5271
v  -0.0317 0.0592 0.5271
v  -0.0283 0.0110 0.4590
v  0.0170 0.0289 -0.5046
v  0.0317 0.0592 -0.5046
v  0.0291 0.0089 -0.4472
v  0.0170 0.1427 0.5271
v  0.0317 0.1124 0.5271
v  0.0283 0.1606 0.4590
v  -0.0170 0.1427 -0.5046
v  -0.0317 0.1124 -0.5046
v  -0.0291 0.1627 -0.4472
v  -0.0370 0.0000 0.3970
v  -0.0390 -0.0045 0.3404
v  0.0370 0.0000 -0.3924
v  0.0390 -0.0045 -0.3404
v  0.0417 -0.0108 -0.2154
v  0.0420 -0.0115 -0.1263
v  0.0424 -0.0124 -0.0000
v  0.0421 -0.0118 0.0890
v  0.0370 0.1716 0.3970
v  0.0393 0.1770 0.3225
v  -0.0370 0.1716 -0.3924
v  -0.0393 0.1770 -0.3225
v  -0.0417 0.1824 -0.2154
v  -0.0420 0.1832 -0.1060
v  -0.0424 0.1840 -0.0000
v  -0.0420 0.1832 0.1093
v  0.0000 0.1833 0.0907
v  0.0123 0.0494 0.5363
v  0.0215 0.0684 0.5363
v  0.0215 0.1031 0.5363
v  0.0123 0.1222 0.5363
v  -0.0123 0.0494 -0.5138
v  -0.0215 0.0684 -0.5138
v  -0.0215 0.1031 -0.5138
v  -0.0123 0.1222 -0.5138
v  0.0000 0.0289 -0.5046
v  0.0000 0.0289 0.5270
v  0.0000 0.1427 -0.5046
v  -0.0000 0.1761 -0.3400
v  0.0000 0.1831 -0.1246
v  0.0000 0.1427 0.5270
v  0.0000 0.1761 0.3400
v  -0.0170 0.0289 -0.5046
v  0.0170 0.0289 0.5271
v  -0.0170 0.1427 0.5271
v  0.0170 0.1427 -0.5046
v  0.0317 0.0592 0.5271
v  -0.0317 0.1124 0.5271
v  0.0317 0.1124 -0.5046
v  -0.0317 0.0592 -0.5046
v  0.0421 0.1835 0.0721
v  0.0386 0.1753 -0.3574
v  0.0419 0.1829 -0.1433
v  -0.0386 0.1753 0.3574
v  0.0401 0.1787 0.2886
v  -0.0401 0.1787 -0.2886
v  -0.0421 0.1835 -0.0721
v  -0.0419 0.1829 0.1433
v  0.0421 0.1654 0.0890
v  0.0000 0.1653 0.1077
v  0.0390 0.1582 -0.3404
v  -0.0000 0.1590 -0.3230
v  0.0420 0.1651 -0.1263
v  0.0000 0.1653 -0.1077
v  -0.0390 0.1582 0.3404
v  0.0000 0.1590 0.3230
v  0.0397 0.1599 0.3055
v  -0.0397 0.1599 -0.3055
v  -0.0421 0.1654 -0.0890
v  -0.0420 0.1651 0.1263
# 174 vertices

vn -0.5302 -0.8473 0.0309
vn -0.5314 -0.8471 0.0083
vn -0.0000 -1.0000 0.0077
vn 0.0000 -0.9996 0.0289
vn 0.5302 0.8473 0.0309
vn 0.4244 0.8217 -0.3804
vn -0.1696 0.9114 -0.3749
vn -0.0000 0.9996 0.0289
vn -0.3686 -0.0572 0.9278
vn -0.2081 -0.2250 0.9519
vn 0.0000 -0.2105 0.9776
vn 0.0000 0.2105 0.9776
vn -0.2081 0.2250 0.9519
vn -0.3686 0.0572 0.9278
vn 0.9742 -0.2246 0.0211
vn 0.9748 -0.2232 0.0056
vn 0.9879 0.1546 0.0133
vn 0.9684 0.2473 0.0325
vn 0.3686 -0.0572 -0.9278
vn 0.2081 -0.2250 -0.9519
vn 0.0000 -0.2105 -0.9776
vn 0.0000 0.2105 -0.9776
vn 0.2081 0.2250 -0.9519
vn 0.3686 0.0572 -0.9278
vn -0.9742 -0.2246 -0.0211
vn -0.9748 -0.2232 -0.0056
vn -0.9879 0.1546 -0.0133
vn -0.9684 0.2473 -0.0325
vn -0.5323 -0.8348 -0.1408
vn -0.5026 -0.8158 -0.2861
vn 0.0000 -0.9694 -0.2454
vn 0.0000 -0.9929 -0.1190
vn -0.5302 -0.8473 -0.0309
vn -0.5322 -0.8442 -0.0643
vn -0.0061 -0.9979 -0.0638
vn -0.0000 -0.9996 -0.0289
vn -0.5311 -0.8473 0.0000
vn -0.5314 -0.8471 -0.0083
vn 0.0000 -1.0000 -0.0077
vn 0.0000 -1.0000 -0.0000
vn 0.5306 -0.8354 0.1434
vn 0.5099 -0.8216 0.2549
vn 0.0000 -0.9767 0.2145
vn -0.0000 -0.9923 0.1238
vn 0.5302 -0.8473 0.0309
vn 0.5320 -0.8444 0.0626
vn 0.0050 -0.9981 0.0614
vn 0.5317 0.8320 -0.1586
vn 0.5026 0.8158 -0.2861
vn 0.0000 0.9694 -0.2454
vn -0.0000 0.9923 -0.1235
vn 0.5302 0.8473 -0.0309
vn 0.4289 0.8007 -0.4183
vn -0.1622 0.8956 -0.4143
vn 0.0000 0.9996 -0.0289
vn 0.5311 0.8473 0.0000
vn 0.4250 0.8166 -0.3907
vn -0.1676 0.9073 -0.3856
vn 0.0000 1.0000 -0.0000
vn -0.5302 0.8333 0.1565
vn -0.5099 0.8216 0.2549
vn -0.0000 0.9767 0.2145
vn 0.0000 0.9919 0.1272
vn -0.5302 0.8473 0.0309
vn -0.4289 0.8007 0.4183
vn 0.1622 0.8956 0.4143
vn 0.9663 -0.2293 -0.1169
vn 0.9499 -0.2195 -0.2226
vn 0.9499 0.2195 -0.2226
vn 0.9643 0.2566 -0.0649
vn 0.9742 -0.2246 -0.0211
vn 0.9727 -0.2261 -0.0533
vn 0.9888 0.1462 -0.0313
vn 0.9687 0.2480 -0.0103
vn 0.9747 -0.2237 -0.0000
vn 0.9748 -0.2232 -0.0056
vn 0.9880 0.1545 0.0028
vn 0.9690 0.2470 0.0114
vn 0.9660 0.2430 0.0879
vn 0.9563 0.2189 0.1939
vn 0.9563 -0.2189 0.1939
vn 0.9670 -0.2301 0.1096
vn 0.9874 0.1517 0.0445
vn 0.9739 -0.2229 0.0424
vn -0.9664 -0.2293 0.1157
vn -0.9563 -0.2189 0.1939
vn -0.9563 0.2189 0.1939
vn -0.9647 0.2542 0.0692
vn -0.9742 -0.2246 0.0211
vn -0.9730 -0.2255 0.0499
vn -0.9886 0.1475 0.0301
vn -0.9687 0.2480 0.0103
vn -0.9747 -0.2237 0.0000
vn -0.9748 -0.2232 0.0056
vn -0.9880 0.1545 -0.0028
vn -0.9690 0.2470 -0.0114
vn -0.9660 0.2439 -0.0861
vn -0.9499 0.2195 -0.2226
vn -0.9499 -0.2195 -0.2226
vn -0.9670 -0.2303 -0.1089
vn -0.9875 0.1514 -0.0450
vn -0.9739 -0.2229 -0.0435
vn -0.4133 -0.6851 0.5999
vn -0.8323 -0.1902 0.5206
vn -0.5099 -0.8216 0.2549
vn 0.4003 -0.6603 -0.6355
vn 0.8170 -0.1828 -0.5469
vn 0.5026 -0.8158 -0.2861
vn 0.4133 0.6851 0.5999
vn 0.8323 0.1902 0.5206
vn 0.5099 0.8216 0.2549
vn -0.4003 0.6603 -0.6355
vn -0.8170 0.1828 -0.5469
vn -0.5026 0.8158 -0.2861
vn -0.5304 -0.8344 0.1496
vn -0.5254 -0.8479 0.0709
vn 0.5320 -0.8335 -0.1489
vn 0.5241 -0.8484 -0.0750
vn 0.5302 -0.8473 -0.0309
vn 0.5314 -0.8471 -0.0083
vn 0.5311 -0.8473 -0.0000
vn 0.5314 -0.8471 0.0083
vn 0.5306 0.8350 0.1457
vn 0.4289 0.8363 -0.3415
vn -0.5322 0.8343 -0.1437
vn -0.4298 0.8368 0.3393
vn -0.5302 0.8473 -0.0309
vn -0.4244 0.8217 0.3804
vn -0.5311 0.8473 -0.0000
vn -0.4250 0.8166 0.3907
vn 0.1676 0.9073 0.3856
vn 0.2081 -0.2250 0.9519
vn 0.3686 -0.0572 0.9278
vn 0.3686 0.0572 0.9278
vn 0.2081 0.2250 0.9519
vn -0.2081 -0.2250 -0.9519
vn -0.3686 -0.0572 -0.9278
vn -0.3686 0.0572 -0.9278
vn -0.2081 0.2250 -0.9519
vn 0.0000 -0.7383 -0.6745
vn 0.0000 -0.7641 0.6451
vn 0.0000 0.7383 -0.6745
vn 0.1679 0.9296 0.3282
vn 0.1696 0.9114 0.3749
vn 0.0000 0.7641 0.6451
vn -0.1693 0.9281 -0.3315
vn -0.4003 -0.6603 -0.6355
vn 0.4133 -0.6851 0.5999
vn -0.4133 0.6851 0.5999
vn 0.4003 0.6603 -0.6355
vn 0.8323 -0.1902 0.5206
vn -0.8323 0.1902 0.5206
vn 0.8170 0.1828 -0.5469
vn -0.8170 -0.1828 -0.5469
vn 0.5711 0.7813 0.2519
vn 0.5749 0.7997 0.1732
vn 0.5726 0.7840 0.2396
vn -0.5757 0.7976 -0.1802
vn 0.5687 0.7718 0.2844
vn -0.5687 0.7718 -0.2844
vn -0.5711 0.7813 -0.2519
vn -0.5726 0.7840 -0.2396
vn 0.6986 0.7155 -0.0024
vn -0.0015 1.0000 0.0041
vn 0.6982 0.7142 -0.0490
vn 0.0099 0.9996 -0.0268
vn 0.6986 0.7153 -0.0148
vn 0.0015 1.0000 -0.0041
vn -0.6982 0.7142 0.0490
vn -0.0099 0.9996 0.0268
vn 0.6978 0.7155 0.0319
vn -0.6978 0.7155 -0.0319
vn -0.6986 0.7155 0.0024
vn -0.6986 0.7153 0.0148
# 174 vertex normals

vt 0.6690 0.7999 0.0000
vt 0.6774 0.8070 0.0000
vt 0.6825 0.8045 0.0000
vt 0.6723 0.7959 0.0000
vt 0.6756 0.7920 0.0000
vt 0.6860 0.8006 0.0000
vt 0.6809 0.8031 0.0000
vt 0.6402 0.7724 0.0000
vt 0.6409 0.7716 0.0000
vt 0.6419 0.7704 0.0000
vt 0.6769 0.7904 0.0000
vt 0.6897 0.8010 0.0000
vt 0.7431 0.8518 0.0000
vt 0.7424 0.8527 0.0000
vt 0.7414 0.8539 0.0000
vt 0.7085 0.8357 0.0000
vt 0.6958 0.8251 0.0000
vt 0.7269 0.8477 0.0000
vt 0.7328 0.8513 0.0000
vt 0.7351 0.8486 0.0000
vt 0.7299 0.8442 0.0000
vt 0.7098 0.8341 0.0000
vt 0.7185 0.8411 0.0000
vt 0.7233 0.8387 0.0000
vt 0.7131 0.8301 0.0000
vt 0.6893 0.8170 0.0000
vt 0.6978 0.8241 0.0000
vt 0.7029 0.8216 0.0000
vt 0.6927 0.8130 0.0000
vt 0.6581 0.7780 0.0000
vt 0.6515 0.7739 0.0000
vt 0.6492 0.7765 0.0000
vt 0.6551 0.7815 0.0000
vt 0.6669 0.7850 0.0000
vt 0.6621 0.7874 0.0000
vt 0.7328 0.8407 0.0000
vt 0.7374 0.8458 0.0000
vt 0.7164 0.8262 0.0000
vt 0.7265 0.8350 0.0000
vt 0.7217 0.8374 0.0000
vt 0.6961 0.8090 0.0000
vt 0.7064 0.8177 0.0000
vt 0.7013 0.8202 0.0000
vt 0.6522 0.7850 0.0000
vt 0.6470 0.7792 0.0000
vt 0.6590 0.7910 0.0000
vt 0.6637 0.7887 0.0000
vt 0.7340 0.8393 0.0000
vt 0.7386 0.8443 0.0000
vt 0.7177 0.8246 0.0000
vt 0.7299 0.8355 0.0000
vt 0.6974 0.8074 0.0000
vt 0.7100 0.8181 0.0000
vt 0.6592 0.7766 0.0000
vt 0.6527 0.7724 0.0000
vt 0.6689 0.7840 0.0000
vt 0.6510 0.7864 0.0000
vt 0.6458 0.7807 0.0000
vt 0.6677 0.8014 0.0000
vt 0.6555 0.7906 0.0000
vt 0.6880 0.8186 0.0000
vt 0.6754 0.8079 0.0000
vt 0.7258 0.8491 0.0000
vt 0.7315 0.8528 0.0000
vt 0.7166 0.8420 0.0000
vt 0.6414 0.7727 0.0000
vt 0.6403 0.7741 0.0000
vt 0.7419 0.8515 0.0000
vt 0.7430 0.8501 0.0000
vt 0.6441 0.7695 0.0000
vt 0.6453 0.7681 0.0000
vt 0.7392 0.8547 0.0000
vt 0.7380 0.8561 0.0000
vt 0.6574 0.7897 0.0000
vt 0.7281 0.8364 0.0000
vt 0.7080 0.8191 0.0000
vt 0.6876 0.8020 0.0000
vt 0.6653 0.7837 0.0000
vt 0.7201 0.8424 0.0000
vt 0.6994 0.8254 0.0000
vt 0.6790 0.8083 0.0000
vt 0.6841 0.8058 0.0000
vt 0.6429 0.7692 0.0000
vt 0.6436 0.7684 0.0000
vt 0.7404 0.8550 0.0000
vt 0.7397 0.8559 0.0000
vt 0.7405 0.8531 0.0000
vt 0.6428 0.7711 0.0000
vt 0.7249 0.8401 0.0000
vt 0.7045 0.8229 0.0000
vt 0.6605 0.7860 0.0000
vt 0.6892 0.8033 0.0000
vt 0.7296 0.8378 0.0000
vt 0.7096 0.8204 0.0000
vt 0.6558 0.7883 0.0000
vt 0.6686 0.7863 0.0000
vt 0.7169 0.8398 0.0000
vt 0.6962 0.8227 0.0000
vt 0.6758 0.8056 0.0000
vt 0.6778 0.6543 0.0000
vt 0.6794 0.6556 0.0000
vt 0.6743 0.6582 0.0000
vt 0.6727 0.6568 0.0000
vt 0.7182 0.6887 0.0000
vt 0.7198 0.6901 0.0000
vt 0.7151 0.6924 0.0000
vt 0.7135 0.6910 0.0000
vt 0.6982 0.6714 0.0000
vt 0.6998 0.6728 0.0000
vt 0.6947 0.6753 0.0000
vt 0.6931 0.6739 0.0000
vt 0.6507 0.6447 0.0000
vt 0.6491 0.6433 0.0000
vt 0.6539 0.6410 0.0000
vt 0.6555 0.6424 0.0000
vt 0.6606 0.6377 0.0000
vt 0.6587 0.6387 0.0000
vt 0.6571 0.6374 0.0000
vt 0.6814 0.6547 0.0000
vt 0.7018 0.6718 0.0000
vt 0.7217 0.6892 0.0000
vt 0.7083 0.6957 0.0000
vt 0.7103 0.6948 0.0000
vt 0.7119 0.6961 0.0000
vt 0.6875 0.6788 0.0000
vt 0.6896 0.6778 0.0000
vt 0.6912 0.6791 0.0000
vt 0.6672 0.6616 0.0000
vt 0.6692 0.6606 0.0000
vt 0.6708 0.6620 0.0000
vt 0.6473 0.6442 0.0000
vt 0.6759 0.6595 0.0000
vt 0.7167 0.6937 0.0000
vt 0.6963 0.6766 0.0000
vt 0.6523 0.6397 0.0000
vt 0.6810 0.6570 0.0000
vt 0.7214 0.6915 0.0000
vt 0.7014 0.6741 0.0000
vt 0.6476 0.6420 0.0000
vt 0.6603 0.6400 0.0000
vt 0.7086 0.6934 0.0000
vt 0.6880 0.6764 0.0000
vt 0.6676 0.6593 0.0000
# 143 texture coords

o Baguette
g Baguette
usemtl Material__47
s 1
f 1/1/1 2/2/2 3/3/3 4/4/4 
f 5/5/5 6/6/6 7/7/7 8/4/8 
f 9/8/9 10/9/10 11/10/11 12/10/12 13/9/13 14/8/14 
f 15/11/15 16/12/16 17/12/17 18/11/18 
f 19/13/19 20/14/20 21/15/21 22/15/22 23/14/23 24/13/24 
f 25/16/25 26/17/26 27/17/27 28/16/28 
f 29/18/29 30/19/30 31/20/31 32/21/32 
f 33/22/33 34/23/34 35/24/35 36/25/36 
f 37/26/37 38/27/38 39/28/39 40/29/40 
f 41/30/41 42/31/42 43/32/43 44/33/44 
f 45/5/45 46/34/46 47/35/47 4/4/4 
f 48/36/48 49/37/49 50/20/50 51/21/51 
f 52/38/52 53/39/53 54/40/54 55/25/55 
f 56/41/56 57/42/57 58/43/58 59/29/59 
f 60/44/60 61/45/61 62/32/62 63/33/63 
f 64/1/64 65/46/65 66/47/66 8/4/8 
f 67/48/67 68/49/68 69/49/69 70/48/70 
f 71/50/71 72/51/72 73/51/73 74/50/74 
f 75/52/75 76/53/76 77/53/77 78/52/78 
f 79/54/79 80/55/80 81/55/81 82/54/82 
f 18/11/18 83/56/83 84/56/84 15/11/15 
f 85/57/85 86/58/86 87/58/87 88/57/88 
f 89/59/89 90/60/90 91/60/91 92/59/92 
f 93/61/93 94/62/94 95/62/95 96/61/96 
f 97/63/97 98/64/98 99/64/99 100/63/100 
f 28/16/28 101/65/101 102/65/102 25/16/25 
s 2
f 103/66/103 104/67/104 86/58/86 105/45/105 
f 106/68/106 107/69/107 68/49/68 108/37/108 
f 109/70/109 110/71/110 80/55/80 111/31/111 
f 112/72/112 113/73/113 98/64/98 114/19/114 
f 115/44/115 85/57/85 90/60/90 116/74/116 
f 1/1/1 89/59/89 94/62/94 2/2/2 
f 37/26/37 93/61/93 26/17/26 38/27/38 
f 33/22/33 25/16/25 102/65/102 34/23/34 
f 29/18/29 100/63/100 99/64/99 30/19/30 
f 117/36/117 67/48/67 72/51/72 118/75/118 
f 119/38/119 71/50/71 76/53/76 120/76/120 
f 121/41/121 75/52/75 16/12/16 122/77/122 
f 45/5/45 15/11/15 84/56/84 46/34/46 
f 41/30/41 82/54/82 81/55/81 42/31/42 
f 123/30/123 79/54/79 83/56/83 124/78/124 
f 5/5/5 18/11/18 17/12/17 6/6/6 
f 56/41/56 78/52/78 77/53/77 57/42/57 
f 52/38/52 74/50/74 73/51/73 53/39/53 
f 48/36/48 70/48/70 69/49/69 49/37/49 
f 125/18/125 97/63/97 101/65/101 126/79/126 
f 127/22/127 28/16/28 27/17/27 128/80/128 
f 129/26/129 96/61/96 95/62/95 130/81/130 
f 64/1/64 92/59/92 91/60/91 65/46/65 
f 60/44/60 88/57/88 87/58/87 61/45/61 
s 1
f 40/29/40 121/41/121 122/77/122 3/3/3 
f 59/29/59 129/26/129 130/81/130 131/82/131 
f 11/10/11 132/83/132 133/84/133 134/84/134 135/83/135 12/10/12 
f 21/15/21 136/85/136 137/86/137 138/86/138 139/85/139 22/15/22 
f 140/87/140 106/68/106 108/37/108 31/20/31 
f 32/21/32 117/36/117 118/75/118 35/24/35 
f 36/25/36 119/38/119 120/76/120 39/28/39 
f 141/88/141 103/66/103 105/45/105 43/32/43 
f 44/33/44 115/44/115 116/74/116 47/35/47 
f 142/87/142 112/72/112 114/19/114 50/20/50 
f 51/21/51 125/18/125 126/79/126 143/89/143 
f 55/25/55 127/22/127 128/80/128 144/90/144 
f 145/88/145 109/70/109 111/31/111 62/32/62 
f 63/33/63 123/30/123 124/78/124 146/91/146 
s 4
f 147/72/147 136/85/136 21/15/21 140/87/140 
f 148/70/148 132/83/132 11/10/11 141/88/141 
f 149/66/149 13/9/13 12/10/12 145/88/145 
f 150/68/150 23/14/23 22/15/22 142/87/142 
f 133/84/133 151/71/151 110/71/110 134/84/134 
f 14/8/14 152/67/152 104/67/104 9/8/9 
f 107/69/107 19/13/19 24/13/24 153/69/153 
f 137/86/137 154/73/154 113/73/113 138/86/138 
f 103/66/103 10/9/10 9/8/9 104/67/104 
f 151/71/151 133/84/133 132/83/132 148/70/148 
f 154/73/154 137/86/137 136/85/136 147/72/147 
f 106/68/106 20/14/20 19/13/19 107/69/107 
f 152/67/152 14/8/14 13/9/13 149/66/149 
f 109/70/109 135/83/135 134/84/134 110/71/110 
f 112/72/112 139/85/139 138/86/138 113/73/113 
f 153/69/153 24/13/24 23/14/23 150/68/150 
f 140/87/140 21/15/21 20/14/20 106/68/106 
f 141/88/141 11/10/11 10/9/10 103/66/103 
f 145/88/145 12/10/12 135/83/135 109/70/109 
f 142/87/142 22/15/22 139/85/139 112/72/112 
s 1
f 30/19/30 147/72/147 140/87/140 31/20/31 
f 49/37/49 150/68/150 142/87/142 50/20/50 
f 68/49/68 107/69/107 153/69/153 69/49/69 
f 98/64/98 113/73/113 154/73/154 99/64/99 
s 2
f 68/49/68 67/48/67 117/36/117 108/37/108 
f 98/64/98 97/63/97 125/18/125 114/19/114 
f 99/64/99 154/73/154 147/72/147 30/19/30 
f 69/49/69 153/69/153 150/68/150 49/37/49 
s 1
f 108/37/108 117/36/117 32/21/32 31/20/31 
f 114/19/114 125/18/125 51/21/51 50/20/50 
f 42/31/42 148/70/148 141/88/141 43/32/43 
f 61/45/61 149/66/149 145/88/145 62/32/62 
f 80/55/80 110/71/110 151/71/151 81/55/81 
f 86/58/86 104/67/104 152/67/152 87/58/87 
s 2
f 86/58/86 85/57/85 115/44/115 105/45/105 
f 80/55/80 79/54/79 123/30/123 111/31/111 
f 81/55/81 151/71/151 148/70/148 42/31/42 
f 87/58/87 152/67/152 149/66/149 61/45/61 
s 1
f 105/45/105 115/44/115 44/33/44 43/32/43 
f 111/31/111 123/30/123 63/33/63 62/32/62 
f 155/92/155 56/41/56 59/29/59 131/82/131 
f 156/93/156 48/36/48 51/21/51 143/89/143 
f 157/94/157 52/38/52 55/25/55 144/90/144 
f 158/95/158 60/44/60 63/33/63 146/91/146 
s 2
f 83/56/83 18/11/18 5/5/5 159/96/159 
f 17/12/17 78/52/78 56/41/56 155/92/155 
f 77/53/77 74/50/74 52/38/52 157/94/157 
f 73/51/73 70/48/70 48/36/48 156/93/156 
f 101/65/101 28/16/28 127/22/127 160/97/160 
f 27/17/27 96/61/96 129/26/129 161/98/161 
f 95/62/95 92/59/92 64/1/64 162/99/162 
f 91/60/91 88/57/88 60/44/60 158/95/158 
s 1
f 162/99/162 64/1/64 8/4/8 7/7/7 
f 160/97/160 127/22/127 55/25/55 54/40/54 
f 161/98/161 129/26/129 59/29/59 58/43/58 
f 159/96/159 5/5/5 8/4/8 66/47/66 
f 6/100/6 163/101/163 164/102/164 7/103/7 
f 53/104/53 165/105/165 166/106/166 54/107/54 
f 57/108/57 167/109/167 168/110/168 58/111/58 
f 65/112/65 169/113/169 170/114/170 66/115/66 
s 2
f 83/116/83 171/117/171 124/118/124 
f 17/119/17 163/101/163 6/100/6 
f 77/120/77 167/109/167 57/108/57 
f 73/121/73 165/105/165 53/104/53 
f 101/122/101 172/123/172 126/124/126 
f 27/125/27 173/126/173 128/127/128 
f 95/128/95 174/129/174 130/130/130 
f 91/131/91 169/113/169 65/112/65 
s 1
f 130/130/130 174/129/174 164/102/164 131/132/131 
f 126/124/126 172/123/172 166/106/166 143/133/143 
f 128/127/128 173/126/173 168/110/168 144/134/144 
f 124/118/124 171/117/171 170/114/170 146/135/146 
f 2/2/2 37/26/37 40/29/40 3/3/3 
f 163/101/163 155/136/155 131/132/131 164/102/164 
f 16/12/16 75/52/75 78/52/78 17/12/17 
f 26/17/26 93/61/93 96/61/96 27/17/27 
f 34/23/34 29/18/29 32/21/32 35/24/35 
f 38/27/38 33/22/33 36/25/36 39/28/39 
f 46/34/46 41/30/41 44/33/44 47/35/47 
f 165/105/165 156/137/156 143/133/143 166/106/166 
f 167/109/167 157/138/157 144/134/144 168/110/168 
f 169/113/169 158/139/158 146/135/146 170/114/170 
f 72/51/72 67/48/67 70/48/70 73/51/73 
f 76/53/76 71/50/71 74/50/74 77/53/77 
f 83/56/83 79/54/79 82/54/82 84/56/84 
f 90/60/90 85/57/85 88/57/88 91/60/91 
f 94/62/94 89/59/89 92/59/92 95/62/95 
f 101/65/101 97/63/97 100/63/100 102/65/102 
s 2
f 90/60/90 89/59/89 1/1/1 116/74/116 
f 94/62/94 93/61/93 37/26/37 2/2/2 
f 26/17/26 25/16/25 33/22/33 38/27/38 
f 102/65/102 100/63/100 29/18/29 34/23/34 
f 72/51/72 71/50/71 119/38/119 118/75/118 
f 76/53/76 75/52/75 121/41/121 120/76/120 
f 16/12/16 15/11/15 45/5/45 122/77/122 
f 84/56/84 82/54/82 41/30/41 46/34/46 
f 83/116/83 159/140/159 171/117/171 
f 17/119/17 155/136/155 163/101/163 
f 77/120/77 157/138/157 167/109/167 
f 73/121/73 156/137/156 165/105/165 
f 101/122/101 160/141/160 172/123/172 
f 27/125/27 161/142/161 173/126/173 
f 95/128/95 162/143/162 174/129/174 
f 91/131/91 158/139/158 169/113/169 
s 1
f 122/77/122 45/5/45 4/4/4 3/3/3 
f 174/129/174 162/143/162 7/103/7 164/102/164 
f 118/75/118 119/38/119 36/25/36 35/24/35 
f 120/76/120 121/41/121 40/29/40 39/28/39 
f 116/74/116 1/1/1 4/4/4 47/35/47 
f 172/123/172 160/141/160 54/107/54 166/106/166 
f 173/126/173 161/142/161 58/111/58 168/110/168 
f 171/117/171 159/140/159 66/115/66 170/114/170 
# 160 polygons - 16 triangles

