# 3ds Max Wavefront OBJ Exporter v0.97b - (c)2007 guruware
# File Created: 01.02.2020 16:42:39

mtllib Chicken.mtl

#
# object Chicken
#

v  0.4081 0.1665 0.6314
v  0.4297 0.1572 0.6256
v  0.4512 0.1665 0.6198
v  0.4602 0.1888 0.6174
v  0.4512 0.2111 0.6198
v  0.4297 0.2204 0.6256
v  0.4081 0.2111 0.6314
v  0.3992 0.1888 0.6338
v  0.3790 0.2186 0.5517
v  0.3671 0.1888 0.5549
v  0.3677 0.1888 0.6094
v  0.3834 0.2282 0.6052
v  0.4078 0.2310 0.5440
v  0.4215 0.2445 0.5950
v  0.4366 0.2186 0.5363
v  0.4595 0.2282 0.5848
v  0.4487 0.1888 0.5328
v  0.4753 0.1888 0.5806
v  0.4366 0.1590 0.5363
v  0.4595 0.1494 0.5848
v  0.4078 0.1466 0.5440
v  0.4215 0.1331 0.5950
v  0.3790 0.1590 0.5517
v  0.3834 0.1494 0.6052
v  0.5138 0.1665 0.4483
v  0.5114 0.1888 0.4394
v  0.5138 0.2111 0.4483
v  0.5196 0.2204 0.4699
v  0.5254 0.2111 0.4914
v  0.5277 0.1888 0.5004
v  0.5254 0.1665 0.4914
v  0.5196 0.1572 0.4699
v  0.4303 0.2186 0.4629
v  0.4788 0.2282 0.4400
v  0.4745 0.1888 0.4243
v  0.4271 0.1888 0.4510
v  0.4380 0.2310 0.4917
v  0.4890 0.2445 0.4781
v  0.4457 0.2186 0.5205
v  0.4992 0.2282 0.5161
v  0.5034 0.1888 0.5319
v  0.4457 0.1590 0.5205
v  0.4992 0.1494 0.5161
v  0.4380 0.1466 0.4917
v  0.4890 0.1331 0.4781
v  0.4303 0.1590 0.4629
v  0.4788 0.1494 0.4400
v  0.2295 0.2185 0.3736
v  0.4262 0.2113 0.4955
v  0.4309 0.1888 0.4875
v  0.2357 0.1888 0.3630
v  0.2147 0.2308 0.3994
v  0.4150 0.2206 0.5150
v  0.1998 0.2185 0.4251
v  0.4037 0.2113 0.5345
v  0.1937 0.1888 0.4358
v  0.3991 0.1888 0.5426
v  0.1998 0.1591 0.4251
v  0.4037 0.1663 0.5345
v  0.2147 0.1468 0.3994
v  0.4150 0.1570 0.5150
v  0.2295 0.1591 0.3736
v  0.4262 0.1663 0.4955
v  -0.1319 0.1888 0.1976
v  -0.0136 0.1888 0.1229
v  -0.0317 0.1012 0.1543
v  -0.0755 0.0650 0.2301
v  -0.1193 0.1012 0.3059
v  -0.1374 0.1888 0.3374
v  -0.1193 0.2764 0.3059
v  -0.0755 0.3127 0.2301
v  -0.0317 0.2764 0.1543
v  0.1481 0.1888 0.1570
v  0.1225 0.0650 0.2014
v  0.0606 0.0137 0.3087
v  -0.0014 0.0650 0.4159
v  -0.0270 0.1888 0.4604
v  -0.0014 0.3127 0.4159
v  0.0606 0.3639 0.3087
v  0.1225 0.3127 0.2014
v  0.2586 0.1888 0.2800
v  0.2404 0.1012 0.3114
v  0.1966 0.0650 0.3872
v  0.1529 0.1012 0.4631
v  0.1347 0.1888 0.4945
v  0.1529 0.2764 0.4631
v  0.1966 0.3127 0.3872
v  0.2404 0.2764 0.3114
v  0.2530 0.1888 0.4198
v  0.3536 0.3153 0.0461
v  0.3687 0.2447 0.2716
v  -0.1040 0.1539 0.2662
v  -0.1040 0.2447 0.0192
v  0.2591 0.3153 0.4415
v  -0.1040 0.2447 0.5286
v  -0.4688 0.3153 0.4606
v  -0.5964 0.2447 0.2662
v  -0.4688 0.3153 0.0486
v  -0.1040 0.5171 -0.0188
v  0.4324 0.5171 0.0254
v  -0.5821 0.5171 0.0434
v  -0.6797 0.5171 0.2662
v  -0.5821 0.5171 0.4726
v  -0.1040 0.5171 0.6160
v  0.3050 0.5171 0.5250
v  0.4489 0.5171 0.2945
v  -0.4091 0.2628 0.1273
v  -0.4309 0.2641 0.1564
v  -0.4314 0.2426 0.1933
v  -0.4051 0.2280 0.2138
v  -0.2567 0.1838 0.1666
v  -0.2392 0.2047 0.1055
v  -0.4555 0.1980 0.1409
v  -0.4337 0.1966 0.1118
v  -0.2638 0.1385 0.0900
v  -0.2732 0.1395 0.1562
v  -0.4216 0.1837 0.2034
v  -0.4479 0.1983 0.1830
v  -0.2476 0.1720 0.0898
v  -0.4309 0.2345 0.1141
v  -0.1533 0.1230 0.2620
v  -0.2304 0.1752 0.1619
v  -0.2329 0.1504 0.1587
v  -0.1503 0.0940 0.2684
v  -0.4543 0.2357 0.1462
v  -0.4503 0.2239 0.1902
v  -0.4219 0.2080 0.2131
v  -0.2268 0.2006 0.1032
v  -0.2514 0.1344 0.0877
v  -0.2469 0.1308 0.1515
v  -0.2342 0.1676 0.0874
v  -0.2612 0.1597 0.1638
v  -0.1573 0.1577 0.1756
v  -0.1819 0.0916 0.1601
v  -0.1698 0.0787 0.2516
v  -0.1593 0.1205 0.1693
v  0.4081 0.8677 0.6314
v  0.3992 0.8454 0.6338
v  0.4081 0.8230 0.6314
v  0.4297 0.8138 0.6256
v  0.4512 0.8230 0.6198
v  0.4602 0.8454 0.6174
v  0.4512 0.8677 0.6198
v  0.4297 0.8770 0.6256
v  0.3790 0.8156 0.5517
v  0.3834 0.8060 0.6052
v  0.3677 0.8454 0.6094
v  0.3671 0.8454 0.5549
v  0.4078 0.8032 0.5440
v  0.4215 0.7897 0.5950
v  0.4366 0.8156 0.5363
v  0.4595 0.8060 0.5848
v  0.4487 0.8454 0.5328
v  0.4753 0.8454 0.5806
v  0.4366 0.8752 0.5363
v  0.4595 0.8848 0.5848
v  0.4078 0.8875 0.5440
v  0.4215 0.9011 0.5950
v  0.3790 0.8752 0.5517
v  0.3834 0.8848 0.6052
v  0.5138 0.8677 0.4483
v  0.5196 0.8770 0.4699
v  0.5254 0.8677 0.4914
v  0.5277 0.8454 0.5004
v  0.5254 0.8230 0.4914
v  0.5196 0.8138 0.4699
v  0.5138 0.8230 0.4483
v  0.5114 0.8454 0.4394
v  0.4303 0.8156 0.4629
v  0.4271 0.8454 0.4510
v  0.4745 0.8454 0.4243
v  0.4788 0.8060 0.4400
v  0.4380 0.8032 0.4917
v  0.4890 0.7897 0.4781
v  0.4457 0.8156 0.5205
v  0.4992 0.8060 0.5161
v  0.5034 0.8454 0.5319
v  0.4457 0.8752 0.5205
v  0.4992 0.8848 0.5161
v  0.4380 0.8875 0.4917
v  0.4890 0.9011 0.4781
v  0.4303 0.8752 0.4629
v  0.4788 0.8848 0.4400
v  0.2295 0.8157 0.3736
v  0.2357 0.8454 0.3630
v  0.4309 0.8454 0.4875
v  0.4262 0.8229 0.4955
v  0.2147 0.8034 0.3994
v  0.4150 0.8136 0.5150
v  0.1998 0.8157 0.4251
v  0.4037 0.8229 0.5345
v  0.1937 0.8454 0.4358
v  0.3991 0.8454 0.5426
v  0.1998 0.8751 0.4251
v  0.4037 0.8679 0.5345
v  0.2147 0.8874 0.3994
v  0.4150 0.8772 0.5150
v  0.2295 0.8751 0.3736
v  0.4262 0.8679 0.4955
v  -0.1319 0.8454 0.1976
v  -0.0317 0.9330 0.1543
v  -0.0136 0.8454 0.1229
v  -0.0755 0.9692 0.2301
v  -0.1193 0.9330 0.3059
v  -0.1374 0.8454 0.3374
v  -0.1193 0.7578 0.3059
v  -0.0755 0.7215 0.2301
v  -0.0317 0.7578 0.1543
v  0.1225 0.9692 0.2014
v  0.1481 0.8454 0.1570
v  0.0606 1.0205 0.3087
v  -0.0014 0.9692 0.4159
v  -0.0270 0.8454 0.4604
v  -0.0014 0.7215 0.4159
v  0.0606 0.6702 0.3087
v  0.1225 0.7215 0.2014
v  0.2404 0.9330 0.3114
v  0.2586 0.8454 0.2800
v  0.1966 0.9692 0.3872
v  0.1529 0.9330 0.4631
v  0.1347 0.8454 0.4945
v  0.1529 0.7578 0.4631
v  0.1966 0.7215 0.3872
v  0.2404 0.7578 0.3114
v  0.2530 0.8454 0.4198
v  0.3536 0.7188 0.0461
v  -0.1040 0.7895 0.0192
v  -0.1040 0.8803 0.2662
v  0.3687 0.7895 0.2716
v  -0.1040 0.7895 0.5286
v  0.2591 0.7188 0.4415
v  -0.4688 0.7188 0.4606
v  -0.5964 0.7895 0.2662
v  -0.4688 0.7188 0.0486
v  -0.4146 0.7821 0.1197
v  -0.2427 0.8345 0.0993
v  -0.2569 0.8471 0.1635
v  -0.4057 0.8037 0.2100
v  -0.4335 0.7935 0.1888
v  -0.4354 0.7776 0.1492
v  -0.4570 0.8464 0.1443
v  -0.4479 0.8396 0.1856
v  -0.4202 0.8498 0.2068
v  -0.2714 0.8932 0.1603
v  -0.2642 0.9033 0.0945
v  -0.4361 0.8509 0.1149
v  -0.4352 0.8130 0.1116
v  -0.2498 0.8695 0.0889
v  -0.1472 0.8884 0.2623
v  -0.1424 0.9160 0.2726
v  -0.2316 0.8801 0.1595
v  -0.2304 0.8551 0.1590
v  -0.4515 0.8133 0.1892
v  -0.4576 0.8083 0.1442
v  -0.4215 0.8244 0.2129
v  -0.2301 0.8383 0.0972
v  -0.2448 0.9012 0.1558
v  -0.2517 0.9071 0.0924
v  -0.2363 0.8735 0.0866
v  -0.2602 0.8715 0.1643
v  -0.1560 0.8668 0.1720
v  -0.1616 0.9345 0.2590
v  -0.1776 0.9355 0.1672
v  -0.1562 0.9046 0.1712
# 264 vertices

vn -0.1375 -0.3706 0.9186
vn 0.2204 -0.5241 0.8226
vn 0.5784 -0.3706 0.7267
vn 0.7266 0.0000 0.6870
vn 0.5784 0.3706 0.7267
vn 0.2204 0.5241 0.8227
vn -0.1375 0.3706 0.9186
vn -0.2858 0.0000 0.9583
vn -0.7541 0.6132 -0.2354
vn -0.9744 0.0000 -0.2250
vn -0.9034 -0.0000 0.4289
vn -0.6251 0.6955 0.3543
vn -0.1401 0.9722 -0.1878
vn 0.0467 0.9836 0.1743
vn 0.6591 0.7519 -0.0167
vn 0.7185 0.6955 -0.0057
vn 0.8660 0.0000 0.5000
vn 0.9970 -0.0000 -0.0776
vn 0.6591 -0.7519 -0.0167
vn 0.7185 -0.6955 -0.0057
vn -0.1401 -0.9722 -0.1878
vn 0.0467 -0.9836 0.1743
vn -0.7541 -0.6132 -0.2354
vn -0.6251 -0.6955 0.3543
vn 0.7267 -0.3706 -0.5784
vn 0.6870 -0.0000 -0.7267
vn 0.7267 0.3706 -0.5784
vn 0.8227 0.5241 -0.2204
vn 0.9186 0.3706 0.1375
vn 0.9583 0.0000 0.2858
vn 0.9186 -0.3706 0.1375
vn 0.8226 -0.5241 -0.2204
vn -0.5809 0.6132 -0.5354
vn -0.0057 0.6955 -0.7185
vn -0.0803 0.0000 -0.9968
vn -0.6820 0.0000 -0.7313
vn -0.2327 0.9722 -0.0274
vn 0.1743 0.9836 -0.0467
vn 0.3151 0.7519 0.5791
vn 0.3543 0.6955 0.6251
vn 0.4313 -0.0000 0.9022
vn 0.3151 -0.7519 0.5791
vn 0.3543 -0.6955 0.6251
vn -0.2327 -0.9722 -0.0274
vn 0.1743 -0.9836 -0.0467
vn -0.5809 -0.6132 -0.5354
vn -0.0057 -0.6955 -0.7185
vn 0.3915 0.7064 -0.5897
vn 0.5378 0.0000 -0.8431
vn 0.0383 0.9990 0.0221
vn -0.3150 0.7064 0.6339
vn -0.4613 0.0000 0.8873
vn -0.4613 -0.0000 0.8873
vn -0.3150 -0.7064 0.6339
vn 0.0383 -0.9990 0.0221
vn 0.3915 -0.7064 -0.5897
vn -0.8660 0.0000 -0.5000
vn -0.1234 0.0000 -0.9924
vn -0.2402 -0.5641 -0.7900
vn -0.5222 -0.7977 -0.3015
vn -0.8043 -0.5641 0.1870
vn -0.9211 0.0000 0.3894
vn -0.8043 0.5641 0.1870
vn -0.5222 0.7977 -0.3015
vn -0.2402 0.5641 -0.7900
vn 0.5000 0.0000 -0.8660
vn 0.3536 -0.7071 -0.6124
vn -0.0000 -1.0000 -0.0000
vn -0.3536 -0.7071 0.6124
vn -0.5000 -0.0000 0.8660
vn -0.3536 0.7071 0.6124
vn 0.0000 1.0000 0.0000
vn 0.3536 0.7071 -0.6124
vn 0.9211 0.0000 -0.3894
vn 0.8043 -0.5641 -0.1870
vn 0.5222 -0.7977 0.3015
vn 0.2402 -0.5641 0.7900
vn 0.1234 -0.0000 0.9924
vn 0.2402 0.5641 0.7900
vn 0.5222 0.7977 0.3015
vn 0.8043 0.5641 -0.1870
vn 0.8660 -0.0000 0.5000
vn 0.4921 -0.5727 -0.6556
vn 0.6531 -0.7420 0.1513
vn 0.0036 -0.9999 -0.0103
vn -0.0197 -0.6485 -0.7609
vn 0.4391 -0.5836 0.6831
vn 0.0167 -0.6973 0.7166
vn -0.3858 -0.5317 0.7540
vn -0.7020 -0.7118 0.0226
vn -0.3475 -0.5253 -0.7768
vn -0.0234 0.0000 -0.9997
vn 0.7581 -0.0000 -0.6521
vn -0.6804 0.0000 -0.7328
vn -0.9999 0.0000 0.0134
vn -0.7089 0.0000 0.7053
vn -0.0346 -0.0000 0.9994
vn 0.5692 -0.0000 0.8222
vn 0.9689 -0.0000 0.2474
vn -0.0143 0.8992 -0.4372
vn -0.2077 0.9649 0.1605
vn -0.3537 0.6977 0.6230
vn 0.1437 0.5084 0.8490
vn 0.3490 0.4398 0.8275
vn 0.2512 0.9020 -0.3510
vn -0.7848 -0.5856 -0.2027
vn -0.5080 -0.4272 -0.7479
vn -0.3185 -0.6286 -0.7095
vn -0.1273 -0.8398 0.5278
vn -0.3309 -0.7665 0.5504
vn -0.7978 -0.4955 0.3436
vn -0.0679 0.2514 -0.9655
vn -0.4581 0.3608 -0.8124
vn 0.2895 0.4613 0.8387
vn -0.0018 0.6280 0.7782
vn -0.4553 -0.0389 0.8895
vn 0.4127 -0.3505 0.8407
vn -0.9006 0.3832 -0.2049
vn -0.8486 0.2013 0.4892
vn -0.3012 -0.1098 0.9472
vn 0.4741 0.7591 -0.4461
vn -0.0443 -0.6337 -0.7724
vn -0.5068 -0.7288 0.4604
vn 0.3586 0.0843 -0.9297
vn 0.1382 -0.2744 0.9516
vn 0.8002 0.5908 -0.1035
vn 0.2610 -0.8578 -0.4428
vn -0.1880 -0.8216 0.5382
vn 0.8747 -0.2250 -0.4292
vn -0.2858 -0.0000 0.9583
vn 0.2204 -0.5241 0.8227
vn 0.7266 -0.0000 0.6870
vn -0.9034 0.0000 0.4289
vn 0.9970 0.0000 -0.0776
vn 0.9583 -0.0000 0.2858
vn -0.0803 -0.0000 -0.9968
vn 0.5378 -0.0000 -0.8431
vn 0.5000 -0.0000 -0.8660
vn -0.0000 -1.0000 0.0000
vn 0.9211 -0.0000 -0.3894
vn 0.4921 0.5727 -0.6556
vn -0.0197 0.6485 -0.7609
vn 0.0036 0.9999 -0.0103
vn 0.6531 0.7420 0.1513
vn 0.0167 0.6973 0.7166
vn 0.4391 0.5836 0.6831
vn -0.3858 0.5317 0.7540
vn -0.7020 0.7118 0.0226
vn -0.3475 0.5253 -0.7768
vn -0.0775 -0.8245 -0.5605
vn 0.1903 -0.8526 -0.4867
vn 0.3531 -0.5715 0.7408
vn 0.1453 -0.6325 0.7608
vn -0.3690 -0.7628 0.5310
vn -0.2535 -0.9669 0.0292
vn -0.7588 0.6459 -0.0839
vn -0.7578 0.4782 0.4439
vn -0.2702 0.6936 0.6678
vn -0.0639 0.7595 0.6474
vn -0.3085 0.7395 -0.5984
vn -0.5097 0.5552 -0.6572
vn -0.5044 -0.2166 -0.8358
vn -0.1144 -0.1051 -0.9879
vn 0.2929 -0.5915 0.7512
vn 0.4595 0.2046 0.8643
vn -0.4218 -0.0687 0.9041
vn -0.0088 -0.7335 0.6797
vn -0.8409 -0.2290 0.4903
vn -0.9264 -0.3056 -0.2199
vn -0.2622 -0.0144 0.9649
vn 0.4171 -0.7082 -0.5696
vn -0.4509 0.6779 0.5807
vn -0.0367 0.7404 -0.6712
vn 0.3215 0.0343 -0.9463
vn 0.1853 0.1264 0.9745
vn 0.7633 -0.6073 -0.2203
vn -0.1251 0.7429 0.6576
vn 0.2913 0.8994 -0.3260
vn 0.8703 0.2426 -0.4287
# 179 vertex normals

vt 0.6250 1.0000 1.0000
vt 0.2197 1.0000 -0.4142
vt 0.1250 1.0000 -1.0000
vt 0.2500 1.0000 -1.0000
vt 0.5214 1.0000 -0.4142
vt 0.7803 1.0000 0.4142
vt 0.8750 1.0000 1.0000
vt 0.7500 1.0000 1.0000
vt 0.8750 0.5000 1.0000
vt 0.7500 0.5000 1.0000
vt 0.0000 0.5000 1.0000
vt -0.1250 0.5000 1.0000
vt -0.1250 1.0000 1.0000
vt 0.0000 1.0000 1.0000
vt 0.1250 0.5000 1.0000
vt 0.1250 1.0000 1.0000
vt 0.2500 0.5000 1.0000
vt 0.2500 1.0000 1.0000
vt 0.3750 0.5000 1.0000
vt 0.3750 1.0000 1.0000
vt 0.5000 0.5000 1.0000
vt 0.5000 1.0000 1.0000
vt 0.6250 0.5000 1.0000
vt 0.8750 0.2500 1.0000
vt 0.7500 0.2500 1.0000
vt 0.0000 0.2500 1.0000
vt -0.1250 0.2500 1.0000
vt 0.1250 0.2500 1.0000
vt 0.2500 0.2500 1.0000
vt 0.3750 0.2500 1.0000
vt 0.5000 0.2500 1.0000
vt 0.6250 0.2500 1.0000
vt 0.0000 1.0000 0.0000
vt 0.0000 0.7500 0.0000
vt 0.1250 0.7500 0.0000
vt 0.1250 1.0000 0.0000
vt 0.2500 0.7500 0.0000
vt 0.2500 1.0000 0.0000
vt 0.3750 0.7500 0.0000
vt 0.3750 1.0000 0.0000
vt 0.5000 0.7500 0.0000
vt 0.5000 1.0000 0.0000
vt 0.6250 0.7500 0.0000
vt 0.6250 1.0000 0.0000
vt 0.7500 0.7500 0.0000
vt 0.7500 1.0000 0.0000
vt 0.8750 0.7500 0.0000
vt 0.8750 1.0000 0.0000
vt 1.0000 0.7500 0.0000
vt 0.0000 0.5000 0.0000
vt 0.1250 0.5000 0.0000
vt 0.2500 0.5000 0.0000
vt 0.3750 0.5000 0.0000
vt 0.5000 0.5000 0.0000
vt 0.6250 0.5000 0.0000
vt 0.7500 0.5000 0.0000
vt 0.8750 0.5000 0.0000
vt 1.0000 0.5000 0.0000
vt 0.0000 0.2500 0.0000
vt 0.1250 0.2500 0.0000
vt 0.2500 0.2500 0.0000
vt 0.3750 0.2500 0.0000
vt 0.5000 0.2500 0.0000
vt 0.6250 0.2500 0.0000
vt 0.7500 0.2500 0.0000
vt 0.8750 0.2500 0.0000
vt 1.0000 0.2500 0.0000
vt 0.0000 0.0000 0.0000
vt 0.1250 0.0000 0.0000
vt 0.2500 0.0000 0.0000
vt 0.3750 0.0000 0.0000
vt 0.5000 0.0000 0.0000
vt 0.6250 0.0000 0.0000
vt 0.7500 0.0000 0.0000
vt 0.8750 0.0000 0.0000
vt 1.0000 0.0000 0.0000
vt 1.0000 1.0000 0.0000
vt 0.9101 0.0000 0.0000
vt 1.0000 0.2779 0.0000
vt 1.0000 0.7221 0.0000
vt 0.9101 1.0000 0.0000
vt 0.4550 1.0000 0.0000
vt 0.4550 0.0000 0.0000
vt 0.0000 0.2779 0.0000
vt 0.0899 0.0000 0.0000
vt 0.5450 0.0000 0.0000
vt 0.5450 1.0000 0.0000
vt 0.0899 1.0000 0.0000
vt 0.0000 0.7221 0.0000
vt 0.5450 0.5000 0.0000
vt 0.0899 0.5000 0.0000
vt 0.2275 0.0000 0.0000
vt 0.2275 0.5000 0.0000
vt 0.2779 0.0000 0.0000
vt 0.7221 0.0000 0.0000
vt 0.7221 0.5000 0.0000
vt 0.2779 0.5000 0.0000
vt 1.0561 1.0000 0.0000
vt 0.7221 1.0000 0.0000
vt 1.0561 0.5000 0.0000
vt -0.0561 -0.0000 0.0000
vt -0.0561 0.5000 0.0000
vt 0.2275 1.0000 0.0000
vt 0.7725 0.0000 0.0000
vt 0.7725 1.0000 0.0000
vt 0.7725 0.5000 0.0000
vt 0.9101 0.5000 0.0000
vt 0.4550 0.5000 0.0000
vt 0.2779 1.0000 0.0000
vt 1.0561 -0.0000 0.0000
vt -0.0561 1.0000 0.0000
# 111 texture coords

o Chicken
g Chicken
usemtl wire_115115115
s 1
f 1/1/1 2/2/2 3/3/3 4/4/4 5/5/5 6/6/6 7/7/7 8/8/8 
f 9/9/9 10/10/10 11/8/11 12/7/12 
f 13/11/13 9/12/9 12/13/12 14/14/14 
f 15/15/15 13/11/13 14/14/14 16/16/16 
f 17/17/17 15/15/15 16/16/16 18/18/18 
f 19/19/19 17/17/17 18/18/18 20/20/20 
f 21/21/21 19/19/19 20/20/20 22/22/22 
f 23/23/23 21/21/21 22/22/22 24/1/24 
f 10/10/10 23/23/23 24/1/24 11/8/11 
s 2
f 11/8/11 8/8/8 7/7/7 12/7/12 
f 12/7/12 7/7/7 6/6/6 14/6/14 
f 14/6/14 6/6/6 5/5/5 16/5/16 
f 16/5/16 5/5/5 4/4/4 18/4/18 
f 18/4/18 4/4/4 3/3/3 20/3/20 
f 20/3/20 3/3/3 2/2/2 22/2/22 
f 22/2/22 2/2/2 1/1/1 24/1/24 
f 24/1/24 1/1/1 8/8/8 11/8/11 
s 1
f 25/1/25 26/8/26 27/7/27 28/6/28 29/5/29 30/4/30 31/3/31 32/2/32 
f 33/9/33 34/7/34 35/8/35 36/10/36 
f 37/11/37 38/14/38 34/13/34 33/12/33 
f 39/15/39 40/16/40 38/14/38 37/11/37 
f 17/17/17 41/18/41 40/16/40 39/15/39 
f 42/19/42 43/20/43 41/18/41 17/17/17 
f 44/21/44 45/22/45 43/20/43 42/19/42 
f 46/23/46 47/1/47 45/22/45 44/21/44 
f 36/10/36 35/8/35 47/1/47 46/23/46 
s 2
f 35/8/35 34/7/34 27/7/27 26/8/26 
f 34/7/34 38/6/38 28/6/28 27/7/27 
f 38/6/38 40/5/40 29/5/29 28/6/28 
f 40/5/40 41/4/41 30/4/30 29/5/29 
f 41/4/41 43/3/43 31/3/31 30/4/30 
f 43/3/43 45/2/45 32/2/32 31/3/31 
f 45/2/45 47/1/47 25/1/25 32/2/32 
f 47/1/47 35/8/35 26/8/26 25/1/25 
s 1
f 17/3/17 39/4/39 15/3/15 
f 37/5/37 13/4/13 15/3/15 39/4/39 
f 33/6/33 9/5/9 13/4/13 37/5/37 
f 36/13/36 10/6/10 9/5/9 33/6/33 
f 46/7/46 23/10/23 10/6/10 36/13/36 
f 44/8/44 21/1/21 23/10/23 46/7/46 
f 42/2/42 19/2/19 21/1/21 44/8/44 
f 17/3/17 19/2/19 42/2/42 
f 48/24/48 49/9/48 50/10/49 51/25/49 
f 52/26/50 53/11/50 49/12/48 48/27/48 
f 54/28/51 55/15/51 53/11/50 52/26/50 
f 56/29/52 57/17/53 55/15/51 54/28/51 
f 58/30/54 59/19/54 57/17/53 56/29/52 
f 60/31/55 61/21/55 59/19/54 58/30/54 
f 62/32/56 63/23/56 61/21/55 60/31/55 
f 51/25/49 50/10/49 63/23/56 62/32/56 
f 64/33/57 65/34/58 66/35/59 
f 64/36/57 66/35/59 67/37/60 
f 64/38/57 67/37/60 68/39/61 
f 64/40/57 68/39/61 69/41/62 
f 64/42/57 69/41/62 70/43/63 
f 64/44/57 70/43/63 71/45/64 
f 64/46/57 71/45/64 72/47/65 
f 64/48/57 72/47/65 65/49/58 
f 65/34/58 73/50/66 74/51/67 66/35/59 
f 66/35/59 74/51/67 75/52/68 67/37/60 
f 67/37/60 75/52/68 76/53/69 68/39/61 
f 68/39/61 76/53/69 77/54/70 69/41/62 
f 69/41/62 77/54/70 78/55/71 70/43/63 
f 70/43/63 78/55/71 79/56/72 71/45/64 
f 71/45/64 79/56/72 80/57/73 72/47/65 
f 72/47/65 80/57/73 73/58/66 65/49/58 
f 73/50/66 81/59/74 82/60/75 74/51/67 
f 74/51/67 82/60/75 83/61/76 75/52/68 
f 75/52/68 83/61/76 84/62/77 76/53/69 
f 76/53/69 84/62/77 85/63/78 77/54/70 
f 77/54/70 85/63/78 86/64/79 78/55/71 
f 78/55/71 86/64/79 87/65/80 79/56/72 
f 79/56/72 87/65/80 88/66/81 80/57/73 
f 80/57/73 88/66/81 81/67/74 73/58/66 
f 89/68/82 82/60/75 81/59/74 
f 89/69/82 83/61/76 82/60/75 
f 89/70/82 84/62/77 83/61/76 
f 89/71/82 85/63/78 84/62/77 
f 89/72/82 86/64/79 85/63/78 
f 89/73/82 87/65/80 86/64/79 
f 89/74/82 88/66/81 87/65/80 
f 89/75/82 81/67/74 88/66/81 
f 90/76/83 91/58/84 92/54/85 93/72/86 
f 91/58/84 94/77/87 95/42/88 92/54/85 
f 96/33/89 97/50/90 92/54/85 95/42/88 
f 97/50/90 98/68/91 93/72/86 92/54/85 
s 2
f 90/68/83 93/72/86 99/54/92 100/50/93 
f 93/72/86 98/76/91 101/58/94 99/54/92 
s 4
f 98/68/91 97/72/90 102/54/95 101/50/94 
s 1
f 97/72/90 96/76/89 103/58/96 102/54/95 
f 96/68/89 95/72/88 104/54/97 103/50/96 
f 95/72/88 94/76/87 105/58/98 104/54/97 
f 94/68/87 91/72/84 106/54/99 105/50/98 
f 91/72/84 90/76/83 100/58/93 106/54/99 
f 107/78/100 108/79/101 109/80/102 110/81/103 111/82/104 112/83/105 
f 113/84/106 114/85/107 115/86/108 116/87/109 117/88/110 118/89/111 
s 2
f 107/85/100 112/86/105 119/90/112 120/91/113 
f 121/68/114 122/92/115 123/93/116 124/50/117 
s 4
f 109/94/102 108/95/101 125/96/118 126/97/119 
f 114/98/107 113/99/106 125/96/118 120/100/113 
f 110/101/103 109/94/102 126/97/119 127/102/120 
s 1
f 111/82/104 122/103/115 128/92/121 112/83/105 
f 115/86/108 129/104/122 130/105/123 116/87/109 
s 2
f 112/86/105 128/104/121 131/106/124 119/90/112 
s 8
f 111/83/104 110/78/103 127/107/120 132/108/125 
f 122/92/115 111/83/104 132/108/125 123/93/116 
s 1
f 122/103/115 121/33/114 133/68/126 128/92/121 
f 129/104/122 134/76/127 135/77/128 130/105/123 
s 4
f 128/104/121 133/76/126 136/58/129 131/106/124 
f 121/33/114 124/33/117 136/76/129 133/76/126 
s 2
f 119/90/112 115/87/108 114/88/107 120/91/113 
f 123/93/116 130/103/123 135/33/128 124/50/117 
s 4
f 125/96/118 113/99/106 118/109/111 126/97/119 
f 125/96/118 108/95/101 107/110/100 120/100/113 
f 126/97/119 118/109/111 117/111/110 127/102/120 
s 2
f 131/106/124 129/105/122 115/87/108 119/90/112 
s 8
f 127/107/120 117/81/110 116/82/109 132/108/125 
f 132/108/125 116/82/109 130/103/123 123/93/116 
s 4
f 136/58/129 134/77/127 129/105/122 131/106/124 
f 124/33/117 135/33/128 134/76/127 136/76/129 
s 1
f 137/1/7 138/8/130 139/7/1 140/6/131 141/5/3 142/4/132 143/3/5 144/2/6 
f 145/9/23 146/7/24 147/8/133 148/10/10 
f 149/11/21 150/14/22 146/13/24 145/12/23 
f 151/15/19 152/16/20 150/14/22 149/11/21 
f 153/17/82 154/18/134 152/16/20 151/15/19 
f 155/19/15 156/20/16 154/18/134 153/17/82 
f 157/21/13 158/22/14 156/20/16 155/19/15 
f 159/23/9 160/1/12 158/22/14 157/21/13 
f 148/10/10 147/8/133 160/1/12 159/23/9 
s 2
f 147/8/133 146/7/24 139/7/1 138/8/130 
f 146/7/24 150/6/22 140/6/131 139/7/1 
f 150/6/22 152/5/20 141/5/3 140/6/131 
f 152/5/20 154/4/134 142/4/132 141/5/3 
f 154/4/134 156/3/16 143/3/5 142/4/132 
f 156/3/16 158/2/14 144/2/6 143/3/5 
f 158/2/14 160/1/12 137/1/7 144/2/6 
f 160/1/12 147/8/133 138/8/130 137/1/7 
s 1
f 161/1/27 162/2/28 163/3/29 164/4/135 165/5/31 166/6/32 167/7/25 168/8/26 
f 169/9/46 170/10/36 171/8/136 172/7/47 
f 173/11/44 169/12/46 172/13/47 174/14/45 
f 175/15/42 173/11/44 174/14/45 176/16/43 
f 153/17/82 175/15/42 176/16/43 177/18/41 
f 178/19/39 153/17/82 177/18/41 179/20/40 
f 180/21/37 178/19/39 179/20/40 181/22/38 
f 182/23/33 180/21/37 181/22/38 183/1/34 
f 170/10/36 182/23/33 183/1/34 171/8/136 
s 2
f 171/8/136 168/8/26 167/7/25 172/7/47 
f 172/7/47 167/7/25 166/6/32 174/6/45 
f 174/6/45 166/6/32 165/5/31 176/5/43 
f 176/5/43 165/5/31 164/4/135 177/4/41 
f 177/4/41 164/4/135 163/3/29 179/3/40 
f 179/3/40 163/3/29 162/2/28 181/2/38 
f 181/2/38 162/2/28 161/1/27 183/1/34 
f 183/1/34 161/1/27 168/8/26 171/8/136 
s 1
f 153/3/82 151/3/19 175/4/42 
f 173/5/44 175/4/42 151/3/19 149/4/21 
f 169/6/46 173/5/44 149/4/21 145/5/23 
f 170/13/36 169/6/46 145/5/23 148/6/10 
f 182/7/33 170/13/36 148/6/10 159/10/9 
f 180/8/37 182/7/33 159/10/9 157/1/13 
f 178/2/39 180/8/37 157/1/13 155/2/15 
f 153/3/82 178/2/39 155/2/15 
f 184/24/56 185/25/49 186/10/137 187/9/56 
f 188/26/55 184/27/56 187/12/56 189/11/55 
f 190/28/54 188/26/55 189/11/55 191/15/54 
f 192/29/52 190/28/54 191/15/54 193/17/52 
f 194/30/51 192/29/52 193/17/52 195/19/51 
f 196/31/50 194/30/51 195/19/51 197/21/50 
f 198/32/48 196/31/50 197/21/50 199/23/48 
f 185/25/49 198/32/48 199/23/48 186/10/137 
f 200/33/57 201/35/65 202/34/58 
f 200/36/57 203/37/64 201/35/65 
f 200/38/57 204/39/63 203/37/64 
f 200/40/57 205/41/62 204/39/63 
f 200/42/57 206/43/61 205/41/62 
f 200/44/57 207/45/60 206/43/61 
f 200/46/57 208/47/59 207/45/60 
f 200/48/57 202/49/58 208/47/59 
f 202/34/58 201/35/65 209/51/73 210/50/138 
f 201/35/65 203/37/64 211/52/72 209/51/73 
f 203/37/64 204/39/63 212/53/71 211/52/72 
f 204/39/63 205/41/62 213/54/70 212/53/71 
f 205/41/62 206/43/61 214/55/69 213/54/70 
f 206/43/61 207/45/60 215/56/139 214/55/69 
f 207/45/60 208/47/59 216/57/67 215/56/139 
f 208/47/59 202/49/58 210/58/138 216/57/67 
f 210/50/138 209/51/73 217/60/81 218/59/140 
f 209/51/73 211/52/72 219/61/80 217/60/81 
f 211/52/72 212/53/71 220/62/79 219/61/80 
f 212/53/71 213/54/70 221/63/78 220/62/79 
f 213/54/70 214/55/69 222/64/77 221/63/78 
f 214/55/69 215/56/139 223/65/76 222/64/77 
f 215/56/139 216/57/67 224/66/75 223/65/76 
f 216/57/67 210/58/138 218/67/140 224/66/75 
f 225/68/82 218/59/140 217/60/81 
f 225/69/82 217/60/81 219/61/80 
f 225/70/82 219/61/80 220/62/79 
f 225/71/82 220/62/79 221/63/78 
f 225/72/82 221/63/78 222/64/77 
f 225/73/82 222/64/77 223/65/76 
f 225/74/82 223/65/76 224/66/75 
f 225/75/82 224/66/75 218/67/140 
f 226/76/141 227/72/142 228/54/143 229/58/144 
f 229/58/144 228/54/143 230/42/145 231/77/146 
f 232/33/147 230/42/145 228/54/143 233/50/148 
f 233/50/148 228/54/143 227/72/142 234/68/149 
s 2
f 226/68/141 100/50/93 99/54/92 227/72/142 
f 227/72/142 99/54/92 101/58/94 234/76/149 
s 4
f 234/68/149 101/50/94 102/54/95 233/72/148 
s 1
f 233/72/148 102/54/95 103/58/96 232/76/147 
f 232/68/147 103/50/96 104/54/97 230/72/145 
f 230/72/145 104/54/97 105/58/98 231/76/146 
f 231/68/146 105/50/98 106/54/99 229/72/144 
f 229/72/144 106/54/99 100/58/93 226/76/141 
f 235/78/150 236/83/151 237/82/152 238/81/153 239/80/154 240/79/155 
f 241/84/156 242/89/157 243/88/158 244/87/159 245/86/160 246/85/161 
s 2
f 235/85/150 247/91/162 248/90/163 236/86/151 
f 249/68/164 250/50/165 251/93/166 252/92/167 
s 4
f 239/94/154 253/97/168 254/96/169 240/95/155 
f 246/98/161 247/100/162 254/96/169 241/99/156 
f 238/101/153 255/102/170 253/97/168 239/94/154 
s 1
f 237/82/152 236/83/151 256/92/171 252/103/167 
f 245/86/160 244/87/159 257/105/172 258/104/173 
s 2
f 236/86/151 248/90/163 259/106/174 256/104/171 
s 8
f 237/83/152 260/108/175 255/107/170 238/78/153 
f 252/92/167 251/93/166 260/108/175 237/83/152 
s 1
f 252/103/167 256/92/171 261/68/176 249/33/164 
f 258/104/173 257/105/172 262/77/177 263/76/178 
s 4
f 256/104/171 259/106/174 264/58/179 261/76/176 
f 249/33/164 261/76/176 264/76/179 250/33/165 
s 2
f 248/90/163 247/91/162 246/88/161 245/87/160 
f 251/93/166 250/50/165 262/33/177 257/103/172 
s 4
f 254/96/169 253/97/168 242/109/157 241/99/156 
f 254/96/169 247/100/162 235/110/150 240/95/155 
f 253/97/168 255/102/170 243/111/158 242/109/157 
s 2
f 259/106/174 248/90/163 245/87/160 258/105/173 
s 8
f 255/107/170 260/108/175 244/82/159 243/81/158 
f 260/108/175 251/93/166 257/103/172 244/82/159 
s 4
f 264/58/179 259/106/174 258/105/173 263/77/178 
f 250/33/165 264/76/179 263/76/178 262/33/177 
# 204 polygons - 36 triangles

