# 3ds Max Wavefront OBJ Exporter v0.97b - (c)2007 guruware
# File Created: 01.02.2020 14:39:29

mtllib Chicken.mtl

#
# object Chicken
#

v  10.6051 -8.5041 8.6354
v  11.1283 -8.7285 8.4952
v  11.6515 -8.5041 8.3550
v  11.8683 -7.9624 8.2969
v  11.6515 -7.4207 8.3550
v  11.1283 -7.1963 8.4952
v  10.6050 -7.4207 8.6354
v  10.3883 -7.9624 8.6935
v  9.8995 -7.2392 6.7033
v  9.6101 -7.9624 6.7808
v  9.6242 -7.9624 8.1024
v  10.0064 -7.0069 8.0000
v  10.5980 -6.9397 6.5161
v  10.9293 -6.6112 7.7527
v  11.2965 -7.2392 6.3289
v  11.8522 -7.0069 7.5054
v  11.5902 -7.9624 6.2439
v  12.2345 -7.9624 7.4030
v  11.2965 -8.6856 6.3289
v  11.8522 -8.9179 7.5054
v  10.5980 -8.9851 6.5161
v  10.9293 -9.3136 7.7527
v  9.8995 -8.6856 6.7033
v  10.0064 -8.9179 8.0000
v  13.1687 -8.5041 4.1950
v  13.1106 -7.9624 3.9782
v  13.1687 -7.4207 4.1950
v  13.3089 -7.1963 4.7182
v  13.4491 -7.4207 5.2414
v  13.5072 -7.9624 5.4582
v  13.4491 -8.5041 5.2414
v  13.3089 -8.7285 4.7182
v  11.1427 -7.2392 4.5500
v  12.3192 -7.0069 3.9943
v  12.2167 -7.9624 3.6120
v  11.0652 -7.9624 4.2606
v  11.3299 -6.9397 5.2485
v  12.5664 -6.6112 4.9172
v  11.5170 -7.2392 5.9470
v  12.8137 -7.0069 5.8401
v  12.9162 -7.9624 6.2223
v  11.5170 -8.6856 5.9470
v  12.8137 -8.9179 5.8401
v  11.3299 -8.9851 5.2485
v  12.5664 -9.3136 4.9172
v  11.1427 -8.6856 4.5500
v  12.3192 -8.9179 3.9943
v  6.2740 -7.2417 2.3841
v  11.0447 -7.4171 5.3410
v  11.1576 -7.9624 5.1454
v  6.4233 -7.9624 2.1256
v  5.9137 -6.9432 3.0082
v  10.7721 -7.1912 5.8132
v  5.5533 -7.2417 3.6324
v  10.4994 -7.4171 6.2855
v  5.4041 -7.9624 3.8909
v  10.3865 -7.9624 6.4811
v  5.5533 -8.6831 3.6324
v  10.4994 -8.5077 6.2855
v  5.9137 -8.9816 3.0082
v  10.7721 -8.7336 5.8132
v  6.2740 -8.6831 2.3841
v  11.0447 -8.5077 5.3410
v  -2.4916 -7.9624 -1.8863
v  0.3773 -7.9624 -3.6983
v  -0.0625 -10.0864 -2.9364
v  -1.1245 -10.9661 -1.0970
v  -2.1865 -10.0864 0.7424
v  -2.6264 -7.9624 1.5043
v  -2.1865 -5.8384 0.7424
v  -1.1245 -4.9587 -1.0970
v  -0.0625 -5.8384 -2.9364
v  4.2999 -7.9624 -2.8702
v  3.6778 -10.9661 -1.7927
v  2.1760 -12.2103 0.8086
v  0.6741 -10.9661 3.4099
v  0.0520 -7.9624 4.4874
v  0.6741 -4.9587 3.4099
v  2.1760 -3.7145 0.8086
v  3.6778 -4.9587 -1.7927
v  6.9784 -7.9624 0.1128
v  6.5385 -10.0864 0.8747
v  5.4765 -10.9661 2.7141
v  4.4145 -10.0864 4.5535
v  3.9746 -7.9624 5.3154
v  4.4145 -5.8384 4.5535
v  5.4765 -4.9587 2.7141
v  6.5385 -5.8384 0.8747
v  6.8436 -7.9624 3.5034
v  9.2821 -4.8934 -5.5595
v  9.6501 -6.6061 -0.0910
v  -1.8159 -8.8081 -0.2213
v  -1.8159 -6.6061 -6.2136
v  6.9923 -4.8934 4.0302
v  -1.8159 -6.6061 6.1424
v  -10.6630 -4.8934 4.4926
v  -13.7595 -6.6061 -0.2213
v  -10.6630 -4.8934 -5.4983
v  -1.8159 0.0000 -7.1333
v  11.1957 -0.0000 -6.0631
v  -13.4111 0.0000 -5.6247
v  -15.7779 0.0000 -0.2213
v  -13.4111 0.0000 4.7841
v  -1.8159 -0.0000 8.2636
v  8.1045 -0.0000 6.0558
v  11.5953 -0.0000 0.4644
v  -9.2151 -6.1686 -3.5900
v  -9.7442 -6.1366 -2.8859
v  -9.7557 -6.6578 -1.9890
v  -9.1180 -7.0111 -1.4938
v  -5.5194 -8.0828 -2.6368
v  -5.0946 -7.5780 -4.1206
v  -10.3411 -7.7403 -3.2615
v  -9.8120 -7.7723 -3.9657
v  -5.6915 -9.1818 -4.4962
v  -5.9196 -9.1580 -2.8886
v  -9.5182 -8.0863 -1.7456
v  -10.1559 -7.7329 -2.2408
v  -5.2984 -8.3702 -4.5003
v  -9.7434 -6.8536 -3.9116
v  -3.0111 -9.5585 -0.3228
v  -4.8811 -8.2937 -2.7511
v  -4.9411 -8.8945 -2.8295
v  -2.9391 -10.2628 -0.1691
v  -10.3115 -6.8248 -3.1317
v  -10.2148 -7.1107 -2.0646
v  -9.5258 -7.4971 -1.5098
v  -4.7931 -7.6776 -4.1745
v  -5.3900 -9.2813 -4.5502
v  -5.2812 -9.3688 -3.0030
v  -4.9736 -8.4775 -4.5584
v  -5.6289 -8.6674 -2.7063
v  -3.1082 -8.7159 -2.4190
v  -3.7052 -10.3197 -2.7947
v  -3.4113 -10.6336 -0.5746
v  -3.1567 -9.6193 -2.5709
v  10.6051 8.5041 8.6354
v  10.3883 7.9624 8.6935
v  10.6051 7.4207 8.6354
v  11.1283 7.1963 8.4952
v  11.6515 7.4207 8.3550
v  11.8683 7.9624 8.2969
v  11.6515 8.5041 8.3550
v  11.1283 8.7285 8.4952
v  9.8995 7.2392 6.7033
v  10.0064 7.0069 8.0000
v  9.6242 7.9624 8.1024
v  9.6101 7.9624 6.7808
v  10.5980 6.9397 6.5161
v  10.9293 6.6112 7.7527
v  11.2965 7.2392 6.3290
v  11.8522 7.0069 7.5054
v  11.5902 7.9624 6.2439
v  12.2345 7.9624 7.4030
v  11.2965 8.6856 6.3290
v  11.8522 8.9179 7.5054
v  10.5980 8.9851 6.5161
v  10.9293 9.3136 7.7527
v  9.8995 8.6856 6.7033
v  10.0064 8.9179 8.0000
v  13.1687 8.5041 4.1950
v  13.3089 8.7285 4.7182
v  13.4491 8.5041 5.2414
v  13.5072 7.9624 5.4582
v  13.4491 7.4207 5.2414
v  13.3089 7.1963 4.7182
v  13.1687 7.4207 4.1950
v  13.1107 7.9624 3.9782
v  11.1427 7.2392 4.5500
v  11.0652 7.9624 4.2606
v  12.2167 7.9624 3.6120
v  12.3192 7.0069 3.9943
v  11.3299 6.9397 5.2485
v  12.5665 6.6112 4.9172
v  11.5170 7.2392 5.9470
v  12.8137 7.0069 5.8401
v  12.9162 7.9624 6.2223
v  11.5170 8.6856 5.9470
v  12.8137 8.9179 5.8401
v  11.3299 8.9851 5.2485
v  12.5665 9.3136 4.9172
v  11.1427 8.6856 4.5500
v  12.3192 8.9179 3.9943
v  6.2740 7.2417 2.3841
v  6.4233 7.9624 2.1256
v  11.1576 7.9624 5.1454
v  11.0447 7.4171 5.3410
v  5.9137 6.9432 3.0082
v  10.7721 7.1912 5.8132
v  5.5533 7.2417 3.6324
v  10.4994 7.4171 6.2855
v  5.4041 7.9624 3.8909
v  10.3865 7.9624 6.4811
v  5.5533 8.6831 3.6324
v  10.4994 8.5077 6.2855
v  5.9137 8.9816 3.0082
v  10.7721 8.7336 5.8132
v  6.2740 8.6831 2.3841
v  11.0447 8.5077 5.3410
v  -2.4916 7.9624 -1.8863
v  -0.0625 10.0864 -2.9364
v  0.3773 7.9624 -3.6983
v  -1.1245 10.9661 -1.0970
v  -2.1865 10.0864 0.7424
v  -2.6264 7.9624 1.5043
v  -2.1865 5.8384 0.7424
v  -1.1245 4.9587 -1.0970
v  -0.0625 5.8384 -2.9364
v  3.6779 10.9661 -1.7927
v  4.2999 7.9624 -2.8702
v  2.1760 12.2103 0.8086
v  0.6741 10.9661 3.4099
v  0.0520 7.9624 4.4874
v  0.6741 4.9587 3.4099
v  2.1760 3.7145 0.8086
v  3.6779 4.9587 -1.7927
v  6.5385 10.0864 0.8747
v  6.9784 7.9624 0.1128
v  5.4765 10.9661 2.7141
v  4.4145 10.0864 4.5535
v  3.9746 7.9624 5.3154
v  4.4145 5.8384 4.5535
v  5.4765 4.9587 2.7141
v  6.5385 5.8384 0.8747
v  6.8436 7.9624 3.5034
v  9.2821 4.8934 -5.5595
v  -1.8159 6.6061 -6.2136
v  -1.8159 8.8081 -0.2213
v  9.6501 6.6061 -0.0910
v  -1.8159 6.6061 6.1424
v  6.9923 4.8934 4.0302
v  -10.6630 4.8934 4.4926
v  -13.7595 6.6061 -0.2213
v  -10.6630 4.8934 -5.4983
v  -9.3484 6.4275 -3.7740
v  -5.1788 7.6990 -4.2687
v  -5.5248 8.0031 -2.7116
v  -9.1343 6.9514 -1.5847
v  -9.8067 6.7047 -2.0983
v  -9.8539 6.3192 -3.0603
v  -10.3765 7.9873 -3.1773
v  -10.1570 7.8230 -2.1768
v  -9.4847 8.0697 -1.6631
v  -5.8751 9.1214 -2.7900
v  -5.7014 9.3671 -4.3857
v  -9.8709 8.0957 -3.8910
v  -9.8499 7.1765 -3.9720
v  -5.3527 8.5467 -4.5223
v  -2.8630 9.0049 -0.3168
v  -2.7481 9.6752 -0.0671
v  -4.9107 8.8053 -2.8100
v  -4.8803 8.1973 -2.8211
v  -10.2432 7.1854 -2.0892
v  -10.3916 7.0623 -3.1812
v  -9.5158 7.4536 -1.5140
v  -4.8745 7.7907 -4.3204
v  -5.2307 9.3156 -2.8995
v  -5.3970 9.4588 -4.4374
v  -5.0248 8.6455 -4.5780
v  -5.6050 8.5961 -2.6921
v  -3.0770 8.4810 -2.5062
v  -3.2133 10.1232 -0.3953
v  -3.5996 10.1492 -2.6232
v  -3.0821 9.3981 -2.5250
# 264 vertices

vn -0.1375 -0.3706 0.9186
vn 0.2204 -0.5241 0.8227
vn 0.5784 -0.3706 0.7267
vn 0.7266 0.0000 0.6870
vn 0.5784 0.3706 0.7267
vn 0.2204 0.5241 0.8227
vn -0.1375 0.3706 0.9186
vn -0.2858 0.0000 0.9583
vn -0.7541 0.6132 -0.2354
vn -0.9744 0.0000 -0.2250
vn -0.9034 0.0000 0.4289
vn -0.6251 0.6955 0.3543
vn -0.1401 0.9722 -0.1878
vn 0.0467 0.9836 0.1743
vn 0.6591 0.7519 -0.0167
vn 0.7185 0.6955 -0.0057
vn 0.8660 -0.0000 0.5000
vn 0.9970 -0.0000 -0.0776
vn 0.6591 -0.7519 -0.0167
vn 0.7185 -0.6955 -0.0057
vn -0.1401 -0.9722 -0.1878
vn 0.0467 -0.9836 0.1743
vn -0.7541 -0.6132 -0.2354
vn -0.6251 -0.6955 0.3543
vn 0.7267 -0.3706 -0.5784
vn 0.6870 -0.0000 -0.7267
vn 0.7267 0.3706 -0.5784
vn 0.8227 0.5241 -0.2204
vn 0.9186 0.3706 0.1375
vn 0.9583 -0.0000 0.2858
vn 0.9186 -0.3706 0.1375
vn 0.8227 -0.5241 -0.2204
vn -0.5809 0.6132 -0.5354
vn -0.0057 0.6955 -0.7185
vn -0.0803 0.0000 -0.9968
vn -0.6820 0.0000 -0.7313
vn -0.2327 0.9722 -0.0274
vn 0.1743 0.9836 -0.0467
vn 0.3151 0.7519 0.5791
vn 0.3543 0.6955 0.6251
vn 0.4313 -0.0000 0.9022
vn 0.3151 -0.7519 0.5791
vn 0.3543 -0.6955 0.6251
vn -0.2327 -0.9722 -0.0274
vn 0.1743 -0.9836 -0.0467
vn -0.5809 -0.6132 -0.5354
vn -0.0057 -0.6955 -0.7185
vn 0.3915 0.7064 -0.5897
vn 0.5378 0.0000 -0.8431
vn 0.0383 0.9990 0.0221
vn -0.3150 0.7064 0.6339
vn -0.4613 0.0000 0.8873
vn -0.4613 -0.0000 0.8873
vn -0.3150 -0.7064 0.6339
vn 0.0383 -0.9990 0.0221
vn 0.3915 -0.7064 -0.5897
vn -0.8660 0.0000 -0.5000
vn -0.1234 0.0000 -0.9924
vn -0.2402 -0.5641 -0.7900
vn -0.5222 -0.7977 -0.3015
vn -0.8043 -0.5641 0.1870
vn -0.9211 0.0000 0.3894
vn -0.8043 0.5641 0.1870
vn -0.5222 0.7977 -0.3015
vn -0.2402 0.5641 -0.7900
vn 0.5000 0.0000 -0.8660
vn 0.3536 -0.7071 -0.6124
vn -0.0000 -1.0000 -0.0000
vn -0.3536 -0.7071 0.6124
vn -0.5000 -0.0000 0.8660
vn -0.3536 0.7071 0.6124
vn 0.0000 1.0000 0.0000
vn 0.3536 0.7071 -0.6124
vn 0.9211 -0.0000 -0.3894
vn 0.8043 -0.5641 -0.1870
vn 0.5222 -0.7977 0.3015
vn 0.2402 -0.5641 0.7900
vn 0.1234 -0.0000 0.9924
vn 0.2402 0.5641 0.7900
vn 0.5222 0.7977 0.3015
vn 0.8043 0.5641 -0.1870
vn 0.4921 -0.5727 -0.6556
vn 0.6531 -0.7420 0.1513
vn 0.0036 -0.9999 -0.0103
vn -0.0197 -0.6485 -0.7609
vn 0.4391 -0.5836 0.6831
vn 0.0167 -0.6973 0.7166
vn -0.3858 -0.5317 0.7540
vn -0.7020 -0.7118 0.0226
vn -0.3475 -0.5253 -0.7768
vn -0.0234 0.0000 -0.9997
vn 0.7581 -0.0000 -0.6521
vn -0.6804 0.0000 -0.7328
vn -0.9999 0.0000 0.0134
vn -0.7089 0.0000 0.7053
vn -0.0346 -0.0000 0.9994
vn 0.5692 -0.0000 0.8222
vn 0.9689 -0.0000 0.2474
vn -0.0143 0.8992 -0.4372
vn -0.2077 0.9649 0.1605
vn -0.3537 0.6977 0.6230
vn 0.1437 0.5084 0.8490
vn 0.3490 0.4398 0.8275
vn 0.2512 0.9020 -0.3510
vn -0.7848 -0.5856 -0.2027
vn -0.5080 -0.4272 -0.7479
vn -0.3185 -0.6286 -0.7095
vn -0.1273 -0.8398 0.5278
vn -0.3309 -0.7665 0.5504
vn -0.7978 -0.4955 0.3436
vn -0.0679 0.2514 -0.9655
vn -0.4581 0.3608 -0.8124
vn 0.2895 0.4613 0.8387
vn -0.0018 0.6280 0.7782
vn -0.4553 -0.0389 0.8895
vn 0.4127 -0.3505 0.8407
vn -0.9006 0.3832 -0.2049
vn -0.8486 0.2013 0.4892
vn -0.3012 -0.1098 0.9472
vn 0.4741 0.7591 -0.4461
vn -0.0443 -0.6337 -0.7724
vn -0.5068 -0.7288 0.4604
vn 0.3586 0.0843 -0.9297
vn 0.1382 -0.2744 0.9516
vn 0.8002 0.5908 -0.1035
vn 0.2610 -0.8578 -0.4428
vn -0.1880 -0.8216 0.5382
vn 0.8747 -0.2250 -0.4292
vn -0.2858 -0.0000 0.9583
vn 0.7266 -0.0000 0.6870
vn 0.5378 -0.0000 -0.8431
vn -0.5000 0.0000 0.8660
vn -0.0000 -1.0000 0.0000
vn 0.4921 0.5727 -0.6556
vn -0.0197 0.6485 -0.7609
vn 0.0036 0.9999 -0.0103
vn 0.6531 0.7420 0.1513
vn 0.0167 0.6973 0.7166
vn 0.4391 0.5836 0.6831
vn -0.3858 0.5317 0.7540
vn -0.7020 0.7118 0.0226
vn -0.3475 0.5253 -0.7768
vn -0.0775 -0.8245 -0.5605
vn 0.1903 -0.8526 -0.4867
vn 0.3531 -0.5715 0.7408
vn 0.1453 -0.6325 0.7608
vn -0.3690 -0.7628 0.5310
vn -0.2535 -0.9669 0.0292
vn -0.7588 0.6459 -0.0839
vn -0.7578 0.4782 0.4439
vn -0.2702 0.6936 0.6678
vn -0.0639 0.7595 0.6474
vn -0.3085 0.7395 -0.5984
vn -0.5097 0.5552 -0.6572
vn -0.5044 -0.2166 -0.8358
vn -0.1144 -0.1051 -0.9879
vn 0.2929 -0.5915 0.7512
vn 0.4595 0.2046 0.8643
vn -0.4218 -0.0687 0.9041
vn -0.0088 -0.7335 0.6797
vn -0.8409 -0.2290 0.4903
vn -0.9264 -0.3056 -0.2199
vn -0.2622 -0.0144 0.9649
vn 0.4171 -0.7082 -0.5696
vn -0.4509 0.6779 0.5807
vn -0.0367 0.7404 -0.6712
vn 0.3215 0.0343 -0.9463
vn 0.1853 0.1264 0.9745
vn 0.7633 -0.6073 -0.2203
vn -0.1251 0.7429 0.6576
vn 0.2913 0.8994 -0.3260
vn 0.8703 0.2426 -0.4287
# 172 vertex normals

vt 0.6250 1.0000 1.0000
vt 0.2197 1.0000 -0.4142
vt 0.1250 1.0000 -1.0000
vt 0.2500 1.0000 -1.0000
vt 0.5214 1.0000 -0.4142
vt 0.7803 1.0000 0.4142
vt 0.8750 1.0000 1.0000
vt 0.7500 1.0000 1.0000
vt 0.8750 0.5000 1.0000
vt 0.7500 0.5000 1.0000
vt 0.0000 0.5000 1.0000
vt -0.1250 0.5000 1.0000
vt -0.1250 1.0000 1.0000
vt 0.0000 1.0000 1.0000
vt 0.1250 0.5000 1.0000
vt 0.1250 1.0000 1.0000
vt 0.2500 0.5000 1.0000
vt 0.2500 1.0000 1.0000
vt 0.3750 0.5000 1.0000
vt 0.3750 1.0000 1.0000
vt 0.5000 0.5000 1.0000
vt 0.5000 1.0000 1.0000
vt 0.6250 0.5000 1.0000
vt 0.8750 0.2500 1.0000
vt 0.7500 0.2500 1.0000
vt 0.0000 0.2500 1.0000
vt -0.1250 0.2500 1.0000
vt 0.1250 0.2500 1.0000
vt 0.2500 0.2500 1.0000
vt 0.3750 0.2500 1.0000
vt 0.5000 0.2500 1.0000
vt 0.6250 0.2500 1.0000
vt 0.0000 1.0000 0.0000
vt 0.0000 0.7500 0.0000
vt 0.1250 0.7500 0.0000
vt 0.1250 1.0000 0.0000
vt 0.2500 0.7500 0.0000
vt 0.2500 1.0000 0.0000
vt 0.3750 0.7500 0.0000
vt 0.3750 1.0000 0.0000
vt 0.5000 0.7500 0.0000
vt 0.5000 1.0000 0.0000
vt 0.6250 0.7500 0.0000
vt 0.6250 1.0000 0.0000
vt 0.7500 0.7500 0.0000
vt 0.7500 1.0000 0.0000
vt 0.8750 0.7500 0.0000
vt 0.8750 1.0000 0.0000
vt 1.0000 0.7500 0.0000
vt 0.0000 0.5000 0.0000
vt 0.1250 0.5000 0.0000
vt 0.2500 0.5000 0.0000
vt 0.3750 0.5000 0.0000
vt 0.5000 0.5000 0.0000
vt 0.6250 0.5000 0.0000
vt 0.7500 0.5000 0.0000
vt 0.8750 0.5000 0.0000
vt 1.0000 0.5000 0.0000
vt 0.0000 0.2500 0.0000
vt 0.1250 0.2500 0.0000
vt 0.2500 0.2500 0.0000
vt 0.3750 0.2500 0.0000
vt 0.5000 0.2500 0.0000
vt 0.6250 0.2500 0.0000
vt 0.7500 0.2500 0.0000
vt 0.8750 0.2500 0.0000
vt 1.0000 0.2500 0.0000
vt 0.0000 0.0000 0.0000
vt 0.1250 0.0000 0.0000
vt 0.2500 0.0000 0.0000
vt 0.3750 0.0000 0.0000
vt 0.5000 0.0000 0.0000
vt 0.6250 0.0000 0.0000
vt 0.7500 0.0000 0.0000
vt 0.8750 0.0000 0.0000
vt 1.0000 0.0000 0.0000
vt 1.0000 1.0000 0.0000
vt 0.9101 0.0000 0.0000
vt 1.0000 0.2779 0.0000
vt 1.0000 0.7221 0.0000
vt 0.9101 1.0000 0.0000
vt 0.4550 1.0000 0.0000
vt 0.4550 0.0000 0.0000
vt 0.0000 0.2779 0.0000
vt 0.0899 0.0000 0.0000
vt 0.5450 0.0000 0.0000
vt 0.5450 1.0000 0.0000
vt 0.0899 1.0000 0.0000
vt 0.0000 0.7221 0.0000
vt 0.5450 0.5000 0.0000
vt 0.0899 0.5000 0.0000
vt 0.2275 0.0000 0.0000
vt 0.2275 0.5000 0.0000
vt 0.2779 0.0000 0.0000
vt 0.7221 0.0000 0.0000
vt 0.7221 0.5000 0.0000
vt 0.2779 0.5000 0.0000
vt 1.0561 1.0000 0.0000
vt 0.7221 1.0000 0.0000
vt 1.0561 0.5000 0.0000
vt -0.0561 -0.0000 0.0000
vt -0.0561 0.5000 0.0000
vt 0.2275 1.0000 0.0000
vt 0.7725 0.0000 0.0000
vt 0.7725 1.0000 0.0000
vt 0.7725 0.5000 0.0000
vt 0.9101 0.5000 0.0000
vt 0.4550 0.5000 0.0000
vt 0.2779 1.0000 0.0000
vt 1.0561 -0.0000 0.0000
vt -0.0561 1.0000 0.0000
# 111 texture coords

o Chicken
g Chicken
usemtl wire_115115115
s 1
f 1/1/1 2/2/2 3/3/3 4/4/4 5/5/5 6/6/6 7/7/7 8/8/8 
f 9/9/9 10/10/10 11/8/11 12/7/12 
f 13/11/13 9/12/9 12/13/12 14/14/14 
f 15/15/15 13/11/13 14/14/14 16/16/16 
f 17/17/17 15/15/15 16/16/16 18/18/18 
f 19/19/19 17/17/17 18/18/18 20/20/20 
f 21/21/21 19/19/19 20/20/20 22/22/22 
f 23/23/23 21/21/21 22/22/22 24/1/24 
f 10/10/10 23/23/23 24/1/24 11/8/11 
s 2
f 11/8/11 8/8/8 7/7/7 12/7/12 
f 12/7/12 7/7/7 6/6/6 14/6/14 
f 14/6/14 6/6/6 5/5/5 16/5/16 
f 16/5/16 5/5/5 4/4/4 18/4/18 
f 18/4/18 4/4/4 3/3/3 20/3/20 
f 20/3/20 3/3/3 2/2/2 22/2/22 
f 22/2/22 2/2/2 1/1/1 24/1/24 
f 24/1/24 1/1/1 8/8/8 11/8/11 
s 1
f 25/1/25 26/8/26 27/7/27 28/6/28 29/5/29 30/4/30 31/3/31 32/2/32 
f 33/9/33 34/7/34 35/8/35 36/10/36 
f 37/11/37 38/14/38 34/13/34 33/12/33 
f 39/15/39 40/16/40 38/14/38 37/11/37 
f 17/17/17 41/18/41 40/16/40 39/15/39 
f 42/19/42 43/20/43 41/18/41 17/17/17 
f 44/21/44 45/22/45 43/20/43 42/19/42 
f 46/23/46 47/1/47 45/22/45 44/21/44 
f 36/10/36 35/8/35 47/1/47 46/23/46 
s 2
f 35/8/35 34/7/34 27/7/27 26/8/26 
f 34/7/34 38/6/38 28/6/28 27/7/27 
f 38/6/38 40/5/40 29/5/29 28/6/28 
f 40/5/40 41/4/41 30/4/30 29/5/29 
f 41/4/41 43/3/43 31/3/31 30/4/30 
f 43/3/43 45/2/45 32/2/32 31/3/31 
f 45/2/45 47/1/47 25/1/25 32/2/32 
f 47/1/47 35/8/35 26/8/26 25/1/25 
s 1
f 17/3/17 39/4/39 15/3/15 
f 37/5/37 13/4/13 15/3/15 39/4/39 
f 33/6/33 9/5/9 13/4/13 37/5/37 
f 36/13/36 10/6/10 9/5/9 33/6/33 
f 46/7/46 23/10/23 10/6/10 36/13/36 
f 44/8/44 21/1/21 23/10/23 46/7/46 
f 42/2/42 19/2/19 21/1/21 44/8/44 
f 17/3/17 19/2/19 42/2/42 
f 48/24/48 49/9/48 50/10/49 51/25/49 
f 52/26/50 53/11/50 49/12/48 48/27/48 
f 54/28/51 55/15/51 53/11/50 52/26/50 
f 56/29/52 57/17/53 55/15/51 54/28/51 
f 58/30/54 59/19/54 57/17/53 56/29/52 
f 60/31/55 61/21/55 59/19/54 58/30/54 
f 62/32/56 63/23/56 61/21/55 60/31/55 
f 51/25/49 50/10/49 63/23/56 62/32/56 
f 64/33/57 65/34/58 66/35/59 
f 64/36/57 66/35/59 67/37/60 
f 64/38/57 67/37/60 68/39/61 
f 64/40/57 68/39/61 69/41/62 
f 64/42/57 69/41/62 70/43/63 
f 64/44/57 70/43/63 71/45/64 
f 64/46/57 71/45/64 72/47/65 
f 64/48/57 72/47/65 65/49/58 
f 65/34/58 73/50/66 74/51/67 66/35/59 
f 66/35/59 74/51/67 75/52/68 67/37/60 
f 67/37/60 75/52/68 76/53/69 68/39/61 
f 68/39/61 76/53/69 77/54/70 69/41/62 
f 69/41/62 77/54/70 78/55/71 70/43/63 
f 70/43/63 78/55/71 79/56/72 71/45/64 
f 71/45/64 79/56/72 80/57/73 72/47/65 
f 72/47/65 80/57/73 73/58/66 65/49/58 
f 73/50/66 81/59/74 82/60/75 74/51/67 
f 74/51/67 82/60/75 83/61/76 75/52/68 
f 75/52/68 83/61/76 84/62/77 76/53/69 
f 76/53/69 84/62/77 85/63/78 77/54/70 
f 77/54/70 85/63/78 86/64/79 78/55/71 
f 78/55/71 86/64/79 87/65/80 79/56/72 
f 79/56/72 87/65/80 88/66/81 80/57/73 
f 80/57/73 88/66/81 81/67/74 73/58/66 
f 89/68/17 82/60/75 81/59/74 
f 89/69/17 83/61/76 82/60/75 
f 89/70/17 84/62/77 83/61/76 
f 89/71/17 85/63/78 84/62/77 
f 89/72/17 86/64/79 85/63/78 
f 89/73/17 87/65/80 86/64/79 
f 89/74/17 88/66/81 87/65/80 
f 89/75/17 81/67/74 88/66/81 
f 90/76/82 91/58/83 92/54/84 93/72/85 
f 91/58/83 94/77/86 95/42/87 92/54/84 
f 96/33/88 97/50/89 92/54/84 95/42/87 
f 97/50/89 98/68/90 93/72/85 92/54/84 
s 2
f 90/68/82 93/72/85 99/54/91 100/50/92 
f 93/72/85 98/76/90 101/58/93 99/54/91 
s 4
f 98/68/90 97/72/89 102/54/94 101/50/93 
s 1
f 97/72/89 96/76/88 103/58/95 102/54/94 
f 96/68/88 95/72/87 104/54/96 103/50/95 
f 95/72/87 94/76/86 105/58/97 104/54/96 
f 94/68/86 91/72/83 106/54/98 105/50/97 
f 91/72/83 90/76/82 100/58/92 106/54/98 
f 107/78/99 108/79/100 109/80/101 110/81/102 111/82/103 112/83/104 
f 113/84/105 114/85/106 115/86/107 116/87/108 117/88/109 118/89/110 
s 2
f 107/85/99 112/86/104 119/90/111 120/91/112 
f 121/68/113 122/92/114 123/93/115 124/50/116 
s 4
f 109/94/101 108/95/100 125/96/117 126/97/118 
f 114/98/106 113/99/105 125/96/117 120/100/112 
f 110/101/102 109/94/101 126/97/118 127/102/119 
s 1
f 111/82/103 122/103/114 128/92/120 112/83/104 
f 115/86/107 129/104/121 130/105/122 116/87/108 
s 2
f 112/86/104 128/104/120 131/106/123 119/90/111 
s 8
f 111/83/103 110/78/102 127/107/119 132/108/124 
f 122/92/114 111/83/103 132/108/124 123/93/115 
s 1
f 122/103/114 121/33/113 133/68/125 128/92/120 
f 129/104/121 134/76/126 135/77/127 130/105/122 
s 4
f 128/104/120 133/76/125 136/58/128 131/106/123 
f 121/33/113 124/33/116 136/76/128 133/76/125 
s 2
f 119/90/111 115/87/107 114/88/106 120/91/112 
f 123/93/115 130/103/122 135/33/127 124/50/116 
s 4
f 125/96/117 113/99/105 118/109/110 126/97/118 
f 125/96/117 108/95/100 107/110/99 120/100/112 
f 126/97/118 118/109/110 117/111/109 127/102/119 
s 2
f 131/106/123 129/105/121 115/87/107 119/90/111 
s 8
f 127/107/119 117/81/109 116/82/108 132/108/124 
f 132/108/124 116/82/108 130/103/122 123/93/115 
s 4
f 136/58/128 134/77/126 129/105/121 131/106/123 
f 124/33/116 135/33/127 134/76/126 136/76/128 
s 1
f 137/1/7 138/8/129 139/7/1 140/6/2 141/5/3 142/4/130 143/3/5 144/2/6 
f 145/9/23 146/7/24 147/8/11 148/10/10 
f 149/11/21 150/14/22 146/13/24 145/12/23 
f 151/15/19 152/16/20 150/14/22 149/11/21 
f 153/17/17 154/18/18 152/16/20 151/15/19 
f 155/19/15 156/20/16 154/18/18 153/17/17 
f 157/21/13 158/22/14 156/20/16 155/19/15 
f 159/23/9 160/1/12 158/22/14 157/21/13 
f 148/10/10 147/8/11 160/1/12 159/23/9 
s 2
f 147/8/11 146/7/24 139/7/1 138/8/129 
f 146/7/24 150/6/22 140/6/2 139/7/1 
f 150/6/22 152/5/20 141/5/3 140/6/2 
f 152/5/20 154/4/18 142/4/130 141/5/3 
f 154/4/18 156/3/16 143/3/5 142/4/130 
f 156/3/16 158/2/14 144/2/6 143/3/5 
f 158/2/14 160/1/12 137/1/7 144/2/6 
f 160/1/12 147/8/11 138/8/129 137/1/7 
s 1
f 161/1/27 162/2/28 163/3/29 164/4/30 165/5/31 166/6/32 167/7/25 168/8/26 
f 169/9/46 170/10/36 171/8/35 172/7/47 
f 173/11/44 169/12/46 172/13/47 174/14/45 
f 175/15/42 173/11/44 174/14/45 176/16/43 
f 153/17/17 175/15/42 176/16/43 177/18/41 
f 178/19/39 153/17/17 177/18/41 179/20/40 
f 180/21/37 178/19/39 179/20/40 181/22/38 
f 182/23/33 180/21/37 181/22/38 183/1/34 
f 170/10/36 182/23/33 183/1/34 171/8/35 
s 2
f 171/8/35 168/8/26 167/7/25 172/7/47 
f 172/7/47 167/7/25 166/6/32 174/6/45 
f 174/6/45 166/6/32 165/5/31 176/5/43 
f 176/5/43 165/5/31 164/4/30 177/4/41 
f 177/4/41 164/4/30 163/3/29 179/3/40 
f 179/3/40 163/3/29 162/2/28 181/2/38 
f 181/2/38 162/2/28 161/1/27 183/1/34 
f 183/1/34 161/1/27 168/8/26 171/8/35 
s 1
f 153/3/17 151/3/19 175/4/42 
f 173/5/44 175/4/42 151/3/19 149/4/21 
f 169/6/46 173/5/44 149/4/21 145/5/23 
f 170/13/36 169/6/46 145/5/23 148/6/10 
f 182/7/33 170/13/36 148/6/10 159/10/9 
f 180/8/37 182/7/33 159/10/9 157/1/13 
f 178/2/39 180/8/37 157/1/13 155/2/15 
f 153/3/17 178/2/39 155/2/15 
f 184/24/56 185/25/49 186/10/131 187/9/56 
f 188/26/55 184/27/56 187/12/56 189/11/55 
f 190/28/54 188/26/55 189/11/55 191/15/54 
f 192/29/52 190/28/54 191/15/54 193/17/53 
f 194/30/51 192/29/52 193/17/53 195/19/51 
f 196/31/50 194/30/51 195/19/51 197/21/50 
f 198/32/48 196/31/50 197/21/50 199/23/48 
f 185/25/49 198/32/48 199/23/48 186/10/131 
f 200/33/57 201/35/65 202/34/58 
f 200/36/57 203/37/64 201/35/65 
f 200/38/57 204/39/63 203/37/64 
f 200/40/57 205/41/62 204/39/63 
f 200/42/57 206/43/61 205/41/62 
f 200/44/57 207/45/60 206/43/61 
f 200/46/57 208/47/59 207/45/60 
f 200/48/57 202/49/58 208/47/59 
f 202/34/58 201/35/65 209/51/73 210/50/66 
f 201/35/65 203/37/64 211/52/72 209/51/73 
f 203/37/64 204/39/63 212/53/71 211/52/72 
f 204/39/63 205/41/62 213/54/132 212/53/71 
f 205/41/62 206/43/61 214/55/69 213/54/132 
f 206/43/61 207/45/60 215/56/133 214/55/69 
f 207/45/60 208/47/59 216/57/67 215/56/133 
f 208/47/59 202/49/58 210/58/66 216/57/67 
f 210/50/66 209/51/73 217/60/81 218/59/74 
f 209/51/73 211/52/72 219/61/80 217/60/81 
f 211/52/72 212/53/71 220/62/79 219/61/80 
f 212/53/71 213/54/132 221/63/78 220/62/79 
f 213/54/132 214/55/69 222/64/77 221/63/78 
f 214/55/69 215/56/133 223/65/76 222/64/77 
f 215/56/133 216/57/67 224/66/75 223/65/76 
f 216/57/67 210/58/66 218/67/74 224/66/75 
f 225/68/17 218/59/74 217/60/81 
f 225/69/17 217/60/81 219/61/80 
f 225/70/17 219/61/80 220/62/79 
f 225/71/17 220/62/79 221/63/78 
f 225/72/17 221/63/78 222/64/77 
f 225/73/17 222/64/77 223/65/76 
f 225/74/17 223/65/76 224/66/75 
f 225/75/17 224/66/75 218/67/74 
f 226/76/134 227/72/135 228/54/136 229/58/137 
f 229/58/137 228/54/136 230/42/138 231/77/139 
f 232/33/140 230/42/138 228/54/136 233/50/141 
f 233/50/141 228/54/136 227/72/135 234/68/142 
s 2
f 226/68/134 100/50/92 99/54/91 227/72/135 
f 227/72/135 99/54/91 101/58/93 234/76/142 
s 4
f 234/68/142 101/50/93 102/54/94 233/72/141 
s 1
f 233/72/141 102/54/94 103/58/95 232/76/140 
f 232/68/140 103/50/95 104/54/96 230/72/138 
f 230/72/138 104/54/96 105/58/97 231/76/139 
f 231/68/139 105/50/97 106/54/98 229/72/137 
f 229/72/137 106/54/98 100/58/92 226/76/134 
f 235/78/143 236/83/144 237/82/145 238/81/146 239/80/147 240/79/148 
f 241/84/149 242/89/150 243/88/151 244/87/152 245/86/153 246/85/154 
s 2
f 235/85/143 247/91/155 248/90/156 236/86/144 
f 249/68/157 250/50/158 251/93/159 252/92/160 
s 4
f 239/94/147 253/97/161 254/96/162 240/95/148 
f 246/98/154 247/100/155 254/96/162 241/99/149 
f 238/101/146 255/102/163 253/97/161 239/94/147 
s 1
f 237/82/145 236/83/144 256/92/164 252/103/160 
f 245/86/153 244/87/152 257/105/165 258/104/166 
s 2
f 236/86/144 248/90/156 259/106/167 256/104/164 
s 8
f 237/83/145 260/108/168 255/107/163 238/78/146 
f 252/92/160 251/93/159 260/108/168 237/83/145 
s 1
f 252/103/160 256/92/164 261/68/169 249/33/157 
f 258/104/166 257/105/165 262/77/170 263/76/171 
s 4
f 256/104/164 259/106/167 264/58/172 261/76/169 
f 249/33/157 261/76/169 264/76/172 250/33/158 
s 2
f 248/90/156 247/91/155 246/88/154 245/87/153 
f 251/93/159 250/50/158 262/33/170 257/103/165 
s 4
f 254/96/162 253/97/161 242/109/150 241/99/149 
f 254/96/162 247/100/155 235/110/143 240/95/148 
f 253/97/161 255/102/163 243/111/151 242/109/150 
s 2
f 259/106/167 248/90/156 245/87/153 258/105/166 
s 8
f 255/107/163 260/108/168 244/82/152 243/81/151 
f 260/108/168 251/93/159 257/103/165 244/82/152 
s 4
f 264/58/172 259/106/167 258/105/166 263/77/171 
f 250/33/158 264/76/172 263/76/171 262/33/170 
# 204 polygons - 36 triangles

