# 3ds Max Wavefront OBJ Exporter v0.97b - (c)2007 guruware
# File Created: 02.02.2020 12:18:37

mtllib Dishsoap.mtl

#
# object Cylinder001
#

v  0.0152 0.0000 -0.0170
v  0.0480 0.0000 -0.0538
v  0.0809 0.0000 -0.0170
v  -0.0152 0.0000 -0.0170
v  -0.0480 0.0000 -0.0538
v  -0.0809 0.0000 -0.0170
v  -0.0152 0.0000 0.0170
v  -0.0480 0.0000 0.0538
v  -0.0809 0.0000 0.0170
v  0.0152 0.0000 0.0170
v  0.0480 0.0000 0.0538
v  0.0809 0.0000 0.0170
v  0.0863 0.0000 -0.0967
v  0.1623 0.0000 -0.0170
v  -0.0863 0.0000 -0.0967
v  -0.1623 0.0000 -0.0170
v  -0.0863 0.0000 0.0967
v  -0.1623 0.0000 0.0170
v  0.0863 0.0000 0.0967
v  0.1623 0.0000 0.0170
v  0.1769 0.0145 -0.0170
v  0.0960 0.0145 -0.1075
v  0.0854 0.2246 -0.0956
v  0.1573 0.2246 -0.0151
v  -0.0960 0.0145 -0.1075
v  -0.0854 0.2246 -0.0956
v  -0.1769 0.0145 -0.0170
v  -0.1573 0.2246 -0.0151
v  -0.1769 0.0145 0.0170
v  -0.0960 0.0145 0.1075
v  -0.0854 0.2246 0.0956
v  -0.1573 0.2246 0.0151
v  0.0960 0.0145 0.1075
v  0.0854 0.2246 0.0956
v  0.1769 0.0145 0.0170
v  0.1573 0.2246 0.0151
v  0.1649 0.6420 -0.0170
v  0.0889 0.6435 -0.0995
v  0.0346 0.7181 -0.0387
v  0.0540 0.7181 -0.0170
v  -0.0889 0.6435 -0.0995
v  -0.0346 0.7181 -0.0387
v  -0.1649 0.6420 -0.0170
v  -0.0540 0.7181 -0.0170
v  -0.1649 0.6420 0.0170
v  -0.0889 0.6435 0.0995
v  -0.0346 0.7181 0.0387
v  -0.0540 0.7181 0.0170
v  0.0889 0.6435 0.0995
v  0.0346 0.7181 0.0387
v  0.1649 0.6420 0.0170
v  0.0540 0.7181 0.0170
v  0.0152 0.8026 -0.0170
v  0.0663 0.8026 -0.0170
v  0.0383 0.8026 -0.0429
v  -0.0152 0.8026 -0.0170
v  -0.0383 0.8026 -0.0429
v  -0.0663 0.8026 -0.0170
v  -0.0152 0.8026 0.0170
v  -0.0663 0.8026 0.0170
v  -0.0383 0.8026 0.0429
v  0.0152 0.8026 0.0170
v  0.0383 0.8026 0.0429
v  0.0663 0.8026 0.0170
v  0.0458 0.7884 -0.0512
v  0.0765 0.7887 -0.0170
v  -0.0458 0.7884 -0.0512
v  -0.0765 0.7887 -0.0170
v  -0.0458 0.7884 0.0512
v  -0.0765 0.7887 0.0170
v  0.0458 0.7884 0.0512
v  0.0765 0.7887 0.0170
v  0.1769 0.6192 -0.0170
v  0.1769 0.6192 0.0170
v  0.1583 0.5412 0.0152
v  0.1583 0.5412 -0.0152
v  0.0960 0.6192 -0.1075
v  -0.0960 0.6192 -0.1075
v  -0.1769 0.6192 -0.0170
v  -0.0960 0.6192 0.1075
v  -0.1769 0.6192 0.0170
v  0.0960 0.6192 0.1075
v  0.0759 0.4634 -0.0850
v  0.0850 0.5335 -0.0951
v  0.1565 0.5335 -0.0150
v  0.1398 0.4633 -0.0134
v  -0.0759 0.4634 -0.0850
v  -0.0850 0.5335 -0.0951
v  -0.1398 0.4633 -0.0134
v  -0.1565 0.5335 -0.0150
v  -0.0759 0.4634 0.0850
v  -0.0850 0.5335 0.0951
v  -0.1565 0.5335 0.0150
v  -0.1398 0.4633 0.0134
v  0.0759 0.4634 0.0850
v  0.0850 0.5335 0.0951
v  0.1398 0.4633 0.0134
v  0.1565 0.5335 0.0150
v  0.1378 0.4347 0.0132
v  0.1554 0.2456 0.0149
v  0.1554 0.2456 -0.0149
v  0.1378 0.4347 -0.0132
v  0.0748 0.4347 -0.0837
v  -0.0748 0.4347 -0.0837
v  -0.1378 0.4347 -0.0132
v  -0.0748 0.4347 0.0837
v  -0.1378 0.4347 0.0132
v  0.0748 0.4347 0.0837
v  0.0843 0.2456 -0.0944
v  -0.0843 0.2456 -0.0944
v  -0.1554 0.2456 -0.0149
v  -0.0843 0.2456 0.0944
v  -0.1554 0.2456 0.0149
v  0.0843 0.2456 0.0944
v  0.0860 0.5413 -0.0962
v  -0.0860 0.5413 -0.0962
v  -0.1583 0.5412 -0.0152
v  -0.0860 0.5413 0.0962
v  -0.1583 0.5412 0.0152
v  0.0860 0.5413 0.0962
# 120 vertices

vn 0.0000 -1.0000 -0.0000
vn 0.1551 -0.8767 -0.4553
vn 0.4330 -0.8751 -0.2161
vn -0.1551 -0.8767 -0.4553
vn -0.4330 -0.8751 -0.2161
vn -0.1551 -0.8767 0.4553
vn -0.4330 -0.8751 0.2161
vn 0.1551 -0.8767 0.4553
vn 0.4330 -0.8751 0.2161
vn 0.8976 -0.3029 -0.3202
vn 0.4062 -0.3110 -0.8592
vn 0.4073 0.0721 -0.9105
vn 0.9304 0.0899 -0.3553
vn -0.4062 -0.3110 -0.8592
vn -0.4073 0.0721 -0.9105
vn -0.8976 -0.3029 -0.3202
vn -0.9304 0.0899 -0.3553
vn -0.8976 -0.3029 0.3202
vn -0.4062 -0.3110 0.8592
vn -0.4073 0.0721 0.9105
vn -0.9304 0.0899 0.3553
vn 0.4062 -0.3110 0.8592
vn 0.4073 0.0721 0.9105
vn 0.8976 -0.3029 0.3202
vn 0.9304 0.0899 0.3553
vn 0.7321 0.6150 -0.2929
vn 0.3351 0.5437 -0.7695
vn 0.3450 0.3221 -0.8816
vn 0.8532 0.3571 -0.3801
vn -0.3351 0.5437 -0.7695
vn -0.3450 0.3221 -0.8816
vn -0.7321 0.6150 -0.2929
vn -0.8532 0.3571 -0.3801
vn -0.7321 0.6150 0.2929
vn -0.3351 0.5437 0.7695
vn -0.3450 0.3221 0.8816
vn -0.8532 0.3571 0.3801
vn 0.3351 0.5437 0.7695
vn 0.3450 0.3221 0.8816
vn 0.7321 0.6150 0.2929
vn 0.8532 0.3571 0.3801
vn 0.0000 1.0000 -0.0000
vn 0.4976 0.8261 -0.2644
vn 0.1628 0.8462 -0.5074
vn -0.1628 0.8462 -0.5074
vn -0.4976 0.8261 -0.2644
vn -0.4976 0.8261 0.2644
vn -0.1628 0.8462 0.5074
vn 0.1628 0.8462 0.5074
vn 0.4976 0.8261 0.2644
vn 0.4238 0.1908 -0.8854
vn 0.9346 0.1442 -0.3252
vn -0.4238 0.1908 -0.8854
vn -0.9346 0.1441 -0.3252
vn -0.4238 0.1908 0.8854
vn -0.9346 0.1442 0.3252
vn 0.4238 0.1908 0.8854
vn 0.9346 0.1441 0.3252
vn 0.9364 0.1089 -0.3335
vn 0.9364 0.1089 0.3335
vn 0.9098 -0.2247 0.3490
vn 0.9098 -0.2247 -0.3490
vn 0.4250 0.1008 -0.8995
vn -0.4250 0.1008 -0.8995
vn -0.9364 0.1089 -0.3335
vn -0.4250 0.1008 0.8995
vn -0.9364 0.1089 0.3335
vn 0.4250 0.1008 0.8995
vn 0.4001 -0.1204 -0.9085
vn 0.4002 -0.1818 -0.8982
vn 0.9218 -0.1491 -0.3577
vn -0.4001 -0.1204 -0.9085
vn -0.4002 -0.1818 -0.8982
vn -0.9218 -0.1491 -0.3577
vn -0.9098 -0.2247 -0.3490
vn -0.4001 -0.1204 0.9085
vn -0.4002 -0.1818 0.8982
vn -0.9098 -0.2247 0.3490
vn -0.9218 -0.1491 0.3577
vn 0.4001 -0.1204 0.9085
vn 0.4002 -0.1818 0.8982
vn 0.9218 -0.1491 0.3577
vn 0.9324 0.0110 0.3612
vn 0.9324 0.0110 -0.3612
vn 0.4036 0.0086 -0.9149
vn -0.4036 0.0086 -0.9149
vn -0.9324 0.0110 -0.3612
vn -0.4036 0.0086 0.9149
vn -0.9324 0.0110 0.3612
vn 0.4036 0.0086 0.9149
# 90 vertex normals

vt 0.3183 0.4521 0.0000
vt 0.3268 0.4521 0.0000
vt 0.3354 0.4521 0.0000
vt 0.3104 0.4521 0.0000
vt 0.3018 0.4521 0.0000
vt 0.2933 0.4521 0.0000
vt 0.3368 0.4521 0.0000
vt 0.3566 0.4521 0.0000
vt 0.2919 0.4521 0.0000
vt 0.2721 0.4521 0.0000
vt 0.3604 0.4559 0.0000
vt 0.3393 0.4559 0.0000
vt 0.3366 0.5106 0.0000
vt 0.3553 0.5106 0.0000
vt 0.2893 0.4559 0.0000
vt 0.2921 0.5106 0.0000
vt 0.2683 0.4559 0.0000
vt 0.2734 0.5106 0.0000
vt 0.3583 0.6435 0.0000
vt 0.3377 0.6440 0.0000
vt 0.3224 0.6645 0.0000
vt 0.3278 0.6645 0.0000
vt 0.2888 0.6440 0.0000
vt 0.3034 0.6645 0.0000
vt 0.2676 0.6435 0.0000
vt 0.2981 0.6645 0.0000
vt 0.2885 0.6440 0.0000
vt 0.3374 0.6440 0.0000
vt 0.3263 0.9707 0.0000
vt 0.3576 0.9707 0.0000
vt 0.3405 0.9707 0.0000
vt 0.3078 0.9707 0.0000
vt 0.2937 0.9707 0.0000
vt 0.2766 0.9707 0.0000
vt 0.3382 0.9192 0.0000
vt 0.3450 0.9621 0.0000
vt 0.3638 0.9623 0.0000
vt 0.3501 0.9192 0.0000
vt 0.2960 0.9192 0.0000
vt 0.2891 0.9621 0.0000
vt 0.2841 0.9192 0.0000
vt 0.2704 0.9623 0.0000
vt 0.3616 0.6373 0.0000
vt 0.3565 0.6158 0.0000
vt 0.3397 0.6373 0.0000
vt 0.2869 0.6373 0.0000
vt 0.2643 0.6373 0.0000
vt 0.2865 0.6373 0.0000
vt 0.3393 0.6373 0.0000
vt 0.2127 0.5418 0.0000
vt 0.2158 0.5660 0.0000
vt 0.2405 0.5659 0.0000
vt 0.2347 0.5417 0.0000
vt 0.1603 0.5418 0.0000
vt 0.1572 0.5660 0.0000
vt 0.1383 0.5417 0.0000
vt 0.1325 0.5659 0.0000
vt 0.2340 0.5319 0.0000
vt 0.2401 0.4666 0.0000
vt 0.2123 0.5319 0.0000
vt 0.1607 0.5319 0.0000
vt 0.1390 0.5319 0.0000
vt 0.4576 0.5087 0.0000
vt 0.4573 0.5142 0.0000
vt 0.4758 0.5142 0.0000
vt 0.4763 0.5087 0.0000
vt 0.4131 0.5087 0.0000
vt 0.4134 0.5142 0.0000
vt 0.3944 0.5087 0.0000
vt 0.3949 0.5142 0.0000
vt 0.4775 0.6139 0.0000
vt 0.4770 0.6118 0.0000
vt 0.3366 0.6158 0.0000
vt 0.2893 0.6158 0.0000
vt 0.2694 0.6158 0.0000
vt 0.4573 0.6118 0.0000
vt 0.4576 0.6140 0.0000
vt 0.4106 0.6118 0.0000
vt 0.4103 0.6140 0.0000
vt 0.3909 0.6118 0.0000
vt 0.3904 0.6139 0.0000
vt 0.2156 0.4666 0.0000
vt 0.1574 0.4666 0.0000
vt 0.1329 0.4666 0.0000
# 84 texture coords

o Cylinder001
g Cylinder001
usemtl Material__47
s 1
f 1/1/1 2/2/1 3/3/1 
f 1/1/1 4/4/1 5/5/1 2/2/1 
f 4/4/1 6/6/1 5/5/1 
f 7/4/1 8/5/1 9/6/1 
f 7/4/1 10/1/1 11/2/1 8/5/1 
f 10/1/1 12/3/1 11/2/1 
f 3/3/1 2/2/1 13/7/2 14/8/3 
f 2/2/1 5/5/1 15/9/4 13/7/2 
f 5/5/1 6/6/1 16/10/5 15/9/4 
f 9/6/1 8/5/1 17/9/6 18/10/7 
f 8/5/1 11/2/1 19/7/8 17/9/6 
f 11/2/1 12/3/1 20/8/9 19/7/8 
f 21/11/10 22/12/11 23/13/12 24/14/13 
s 2
f 22/12/11 25/15/14 26/16/15 23/13/12 
s 1
f 25/15/14 27/17/16 28/18/17 26/16/15 
f 29/17/18 30/15/19 31/16/20 32/18/21 
s 2
f 30/15/19 33/12/22 34/13/23 31/16/20 
s 1
f 33/12/22 35/11/24 36/14/25 34/13/23 
s 4
f 37/19/26 38/20/27 39/21/28 40/22/29 
s 2
f 38/20/27 41/23/30 42/24/31 39/21/28 
s 4
f 41/23/30 43/25/32 44/26/33 42/24/31 
f 45/25/34 46/27/35 47/24/36 48/26/37 
s 2
f 46/27/35 49/28/38 50/21/39 47/24/36 
s 4
f 49/28/38 51/19/40 52/22/41 50/21/39 
s 1
f 53/29/42 54/30/43 55/31/44 
f 56/32/42 53/29/42 55/31/44 57/33/45 
f 56/32/42 57/33/45 58/34/46 
f 59/32/42 60/34/47 61/33/48 
f 62/29/42 59/32/42 61/33/48 63/31/49 
f 62/29/42 63/31/49 64/30/50 
f 39/35/28 65/36/51 66/37/52 40/38/29 
s 8
f 42/39/31 67/40/53 65/36/51 39/35/28 
s 1
f 44/41/33 68/42/54 67/40/53 42/39/31 
f 47/39/36 69/40/55 70/42/56 48/41/37 
s 8
f 50/35/39 71/36/57 69/40/55 47/39/36 
s 1
f 52/38/41 72/37/58 71/36/57 50/35/39 
f 10/1/1 7/4/1 4/4/1 1/1/1 
f 53/29/42 56/32/42 59/32/42 62/29/42 
f 3/3/1 12/3/1 10/1/1 1/1/1 
f 4/4/1 7/4/1 9/6/1 6/6/1 
f 14/8/3 20/8/9 12/3/1 3/3/1 
f 6/6/1 9/6/1 18/10/7 16/10/5 
s 2
f 73/43/59 74/43/60 75/44/61 76/44/62 
f 27/17/16 29/17/18 32/18/21 28/18/17 
f 66/37/52 72/37/58 52/38/41 40/38/29 
s 4
f 43/25/32 45/25/34 48/26/37 44/26/33 
s 1
f 53/29/42 62/29/42 64/30/50 54/30/43 
f 58/34/46 60/34/47 59/32/42 56/32/42 
s 4
f 40/22/29 52/22/41 51/19/40 37/19/26 
s 2
f 44/41/33 48/41/37 70/42/56 68/42/54 
s 4
f 13/7/2 22/12/11 21/11/10 14/8/3 
s 8
f 15/9/4 25/15/14 22/12/11 13/7/2 
s 4
f 16/10/5 27/17/16 25/15/14 15/9/4 
f 17/9/6 30/15/19 29/17/18 18/10/7 
s 8
f 19/7/8 33/12/22 30/15/19 17/9/6 
s 4
f 20/8/9 35/11/24 33/12/22 19/7/8 
f 77/45/63 38/20/27 37/19/26 73/43/59 
s 2
f 78/46/64 41/23/30 38/20/27 77/45/63 
s 4
f 79/47/65 43/25/32 41/23/30 78/46/64 
f 80/48/66 46/27/35 45/25/34 81/47/67 
s 2
f 82/49/68 49/28/38 46/27/35 80/48/66 
s 4
f 74/43/60 51/19/40 49/28/38 82/49/68 
s 8
f 35/11/24 20/8/9 14/8/3 21/11/10 
f 27/17/16 16/10/5 18/10/7 29/17/18 
s 4
f 51/19/40 74/43/60 73/43/59 37/19/26 
f 43/25/32 79/47/65 81/47/67 45/25/34 
s 1
f 83/50/69 84/51/70 85/52/62 86/53/71 
s 2
f 87/54/72 88/55/73 84/51/70 83/50/69 
s 1
f 89/56/74 90/57/75 88/55/73 87/54/72 
f 91/54/76 92/55/77 93/57/78 94/56/79 
s 2
f 95/50/80 96/51/81 92/55/77 91/54/76 
s 1
f 97/53/82 98/52/61 96/51/81 95/50/80 
s 2
f 99/58/83 100/59/25 101/59/13 102/58/84 
f 94/56/79 93/57/78 90/57/75 89/56/74 
s 1
f 103/60/85 83/50/69 86/53/71 102/58/84 
s 2
f 104/61/86 87/54/72 83/50/69 103/60/85 
s 1
f 105/62/87 89/56/74 87/54/72 104/61/86 
f 106/61/88 91/54/76 94/56/79 107/62/89 
s 2
f 108/60/90 95/50/80 91/54/76 106/61/88 
s 1
f 99/58/83 97/53/82 95/50/80 108/60/90 
s 2
f 97/53/82 99/58/83 102/58/84 86/53/71 
f 107/62/89 94/56/79 89/56/74 105/62/87 
s 4
f 65/36/51 55/31/44 54/30/43 66/37/52 
s 2
f 67/40/53 57/33/45 55/31/44 65/36/51 
s 4
f 68/42/54 58/34/46 57/33/45 67/40/53 
f 69/40/55 61/33/48 60/34/47 70/42/56 
s 2
f 71/36/57 63/31/49 61/33/48 69/40/55 
s 4
f 72/37/58 64/30/50 63/31/49 71/36/57 
s 8
f 64/30/50 72/37/58 66/37/52 54/30/43 
f 70/42/56 60/34/47 58/34/46 68/42/54 
s 1
f 23/63/12 109/64/12 101/65/13 24/66/13 
s 2
f 26/67/15 110/68/15 109/64/12 23/63/12 
s 1
f 28/69/17 111/70/17 110/68/15 26/67/15 
f 31/67/20 112/68/20 113/70/21 32/69/21 
s 2
f 34/63/23 114/64/23 112/68/20 31/67/20 
s 1
f 36/66/25 100/65/25 114/64/23 34/63/23 
s 2
f 75/71/61 98/72/61 85/72/62 76/71/62 
f 32/69/21 113/70/21 111/70/17 28/69/17 
s 1
f 115/73/70 77/45/63 73/43/59 76/44/62 
s 2
f 116/74/73 78/46/64 77/45/63 115/73/70 
s 1
f 117/75/75 79/47/65 78/46/64 116/74/73 
f 118/74/77 80/48/66 81/47/67 119/75/78 
s 2
f 120/73/81 82/49/68 80/48/66 118/74/77 
s 1
f 75/44/61 74/43/60 82/49/68 120/73/81 
s 2
f 36/14/25 35/11/24 21/11/10 24/14/13 
f 119/75/78 81/47/67 79/47/65 117/75/75 
s 1
f 84/76/70 115/77/70 76/71/62 85/72/62 
s 2
f 88/78/73 116/79/73 115/77/70 84/76/70 
s 1
f 90/80/75 117/81/75 116/79/73 88/78/73 
f 92/78/77 118/79/77 119/81/78 93/80/78 
s 2
f 96/76/81 120/77/81 118/79/77 92/78/77 
s 1
f 98/72/61 75/71/61 120/77/81 96/76/81 
s 2
f 100/65/25 36/66/25 24/66/13 101/65/13 
f 93/80/78 119/81/78 117/81/75 90/80/75 
s 1
f 109/82/12 103/60/85 102/58/84 101/59/13 
s 2
f 110/83/15 104/61/86 103/60/85 109/82/12 
s 1
f 111/84/17 105/62/87 104/61/86 110/83/15 
f 112/83/20 106/61/88 107/62/89 113/84/21 
s 2
f 114/82/23 108/60/90 106/61/88 112/83/20 
s 1
f 100/59/25 99/58/83 108/60/90 114/82/23 
s 2
f 98/52/61 97/53/82 86/53/71 85/52/62 
f 113/84/21 107/62/89 105/62/87 111/84/17 
# 114 polygons - 8 triangles

