# 3ds Max Wavefront OBJ Exporter v0.97b - (c)2007 guruware
# File Created: 01.02.2020 23:16:06

#
# object Fish
#

v  -0.0666 0.0871 0.1208
v  -0.1898 0.0270 0.0927
v  -0.1820 0.0270 0.1012
v  -0.0396 0.0871 0.1357
v  -0.0666 -0.0828 0.1208
v  -0.0396 -0.0828 0.1357
v  -0.1820 -0.0227 0.1012
v  -0.1898 -0.0227 0.0927
v  -0.0666 0.0428 0.1208
v  -0.0666 0.0040 0.1208
v  -0.1898 0.0040 0.0927
v  -0.1898 0.0128 0.0927
v  -0.1820 0.0040 0.1012
v  -0.1820 0.0128 0.1012
v  -0.0396 0.0040 0.1357
v  -0.0396 0.0428 0.1357
v  -0.2184 0.1625 0.0913
v  -0.2184 -0.1386 0.0913
v  -0.0565 -0.1643 0.1068
v  -0.0565 0.1881 0.1068
v  0.5251 0.0516 0.0215
v  0.5251 0.0119 0.0215
v  0.6179 0.0167 0.0309
v  0.6179 0.0768 0.0309
v  0.6179 0.0167 0.0000
v  0.6179 0.0768 0.0000
v  0.4835 0.0685 0.0297
v  0.4835 0.0853 0.0000
v  0.2944 0.1381 0.0000
v  0.2944 0.1144 0.0604
v  0.5251 0.0914 0.0215
v  0.1053 0.1604 0.0906
v  0.1053 -0.1365 0.0906
v  0.2944 -0.0906 0.0604
v  0.1053 0.1840 0.0000
v  -0.0565 0.2118 -0.0000
v  -0.4775 -0.0731 0.0501
v  -0.4775 -0.1074 -0.0000
v  -0.2184 -0.1730 -0.0000
v  -0.4775 0.0969 0.0501
v  -0.6179 0.0602 0.0235
v  -0.5690 0.0119 0.0335
v  -0.6179 0.0839 -0.0000
v  -0.5690 0.0119 -0.0000
v  0.4835 -0.0447 0.0297
v  -0.2184 0.1861 -0.0000
v  0.6179 0.1513 0.0000
v  0.5251 0.1082 0.0000
v  0.6179 0.1513 0.0309
v  0.5251 -0.0634 0.0000
v  0.6179 -0.1275 0.0000
v  0.6179 -0.1275 0.0309
v  0.5251 -0.0676 0.0215
v  0.4836 -0.0587 0.0000
v  0.2944 -0.1250 0.0000
v  -0.0565 -0.1987 -0.0000
v  0.1053 -0.1709 0.0000
v  -0.4775 0.1205 -0.0000
v  -0.5934 -0.0123 -0.0000
v  -0.4569 0.0498 0.0763
v  -0.4742 0.0324 0.0661
v  -0.4569 0.0252 0.0661
v  -0.4814 0.0498 0.0661
v  -0.4742 0.0672 0.0661
v  -0.4569 0.0744 0.0661
v  -0.4395 0.0672 0.0661
v  -0.4323 0.0498 0.0661
v  -0.4395 0.0324 0.0661
v  -0.4814 0.0252 0.0415
v  -0.4569 0.0151 0.0415
v  -0.4916 0.0498 0.0415
v  -0.4814 0.0744 0.0415
v  -0.4569 0.0846 0.0415
v  -0.4323 0.0744 0.0415
v  -0.4221 0.0498 0.0415
v  -0.4323 0.0252 0.0415
v  -0.0666 -0.0422 0.1208
v  -0.1898 -0.0121 0.0927
v  -0.0666 0.0003 0.1208
v  -0.0666 -0.0385 0.1208
v  -0.1898 -0.0084 0.0927
v  -0.1898 0.0003 0.0927
v  -0.1898 0.0164 0.0927
v  -0.0666 0.0465 0.1208
v  -0.1820 -0.0121 0.1012
v  -0.1820 -0.0084 0.1012
v  -0.1820 0.0003 0.1012
v  -0.1820 0.0164 0.1012
v  -0.0396 -0.0422 0.1357
v  -0.0396 -0.0385 0.1357
v  -0.0396 0.0003 0.1357
v  -0.0396 0.0465 0.1357
v  -0.0666 0.0871 -0.1208
v  -0.0396 0.0871 -0.1357
v  -0.1820 0.0270 -0.1012
v  -0.1898 0.0270 -0.0927
v  -0.0666 -0.0828 -0.1208
v  -0.1898 -0.0227 -0.0927
v  -0.1820 -0.0227 -0.1012
v  -0.0396 -0.0828 -0.1357
v  -0.0666 0.0428 -0.1208
v  -0.1898 0.0128 -0.0927
v  -0.1898 0.0040 -0.0927
v  -0.0666 0.0040 -0.1208
v  -0.1820 0.0128 -0.1012
v  -0.1820 0.0040 -0.1012
v  -0.0396 0.0428 -0.1357
v  -0.0396 0.0040 -0.1357
v  -0.2184 0.1625 -0.0913
v  -0.0565 0.1881 -0.1068
v  -0.0565 -0.1643 -0.1068
v  -0.2184 -0.1386 -0.0913
v  0.6179 0.0768 -0.0309
v  0.6179 0.0167 -0.0309
v  0.5251 0.0119 -0.0215
v  0.5251 0.0516 -0.0215
v  0.4835 0.0685 -0.0297
v  0.2944 0.1144 -0.0604
v  0.5251 -0.0278 -0.0215
v  0.4835 -0.0447 -0.0297
v  0.1053 0.1604 -0.0906
v  0.2944 -0.0906 -0.0604
v  0.1053 -0.1365 -0.0906
v  -0.4775 -0.0731 -0.0501
v  -0.4775 0.0969 -0.0501
v  -0.5690 0.0119 -0.0335
v  -0.6179 0.0602 -0.0235
v  0.6179 0.1513 -0.0309
v  0.5251 0.0914 -0.0215
v  0.5251 -0.0676 -0.0215
v  0.6179 -0.1275 -0.0309
v  -0.4569 0.0498 -0.0763
v  -0.4569 0.0252 -0.0661
v  -0.4742 0.0324 -0.0661
v  -0.4814 0.0498 -0.0661
v  -0.4742 0.0672 -0.0661
v  -0.4569 0.0744 -0.0661
v  -0.4395 0.0672 -0.0661
v  -0.4323 0.0498 -0.0661
v  -0.4395 0.0324 -0.0661
v  -0.4569 0.0151 -0.0415
v  -0.4814 0.0252 -0.0415
v  -0.4916 0.0498 -0.0415
v  -0.4814 0.0744 -0.0415
v  -0.4569 0.0846 -0.0415
v  -0.4323 0.0744 -0.0415
v  -0.4221 0.0498 -0.0415
v  -0.4323 0.0252 -0.0415
v  -0.0666 -0.0422 -0.1208
v  -0.1898 -0.0121 -0.0927
v  -0.0666 0.0003 -0.1208
v  -0.1898 0.0003 -0.0927
v  -0.1898 -0.0084 -0.0927
v  -0.0666 -0.0385 -0.1208
v  -0.1898 0.0164 -0.0927
v  -0.0666 0.0465 -0.1208
v  -0.1820 -0.0121 -0.1012
v  -0.1820 0.0003 -0.1012
v  -0.1820 -0.0084 -0.1012
v  -0.1820 0.0164 -0.1012
v  -0.0396 -0.0422 -0.1357
v  -0.0396 0.0003 -0.1357
v  -0.0396 -0.0385 -0.1357
v  -0.0396 0.0465 -0.1357
v  0.5251 -0.0278 0.0215
v  0.6179 -0.0626 0.0309
v  0.6179 -0.0530 0.0309
v  0.6179 0.0071 0.0309
v  0.6179 0.0864 0.0309
v  0.6179 -0.0626 0.0000
v  0.6179 -0.0530 0.0000
v  0.6179 0.0071 0.0000
v  0.6179 0.0864 0.0000
v  0.6179 -0.0626 -0.0309
v  0.6179 0.0071 -0.0309
v  0.6179 -0.0530 -0.0309
v  0.6179 0.0864 -0.0309
# 177 vertices

vn -0.0610 0.9358 -0.3473
vn -0.7933 0.4221 -0.4388
vn -0.5202 0.3813 0.7642
vn 0.7211 0.6279 0.2930
vn -0.0611 -0.9358 -0.3471
vn 0.7215 -0.6278 0.2922
vn -0.5202 -0.3813 0.7642
vn -0.7933 -0.4221 -0.4388
vn 0.3561 -0.0000 -0.9344
vn -0.8647 -0.0000 -0.5023
vn -0.5080 -0.0000 0.8613
vn 0.9321 -0.0000 0.3623
vn -0.2167 0.5972 0.7723
vn -0.2129 -0.5561 0.8034
vn 0.0052 -0.6093 0.7929
vn 0.0053 0.6446 0.7645
vn 0.0465 0.0000 0.9989
vn 0.6708 0.0000 0.7416
vn 1.0000 0.0000 0.0000
vn 0.1260 0.4061 0.9051
vn -0.1315 0.9913 -0.0000
vn 0.2515 0.9679 0.0000
vn 0.2596 0.5371 0.8026
vn -0.2187 0.4188 0.8814
vn 0.2195 0.5938 0.7741
vn 0.2154 -0.5525 0.8052
vn 0.2518 -0.4796 0.8406
vn 0.2016 0.9795 0.0000
vn 0.0062 1.0000 -0.0000
vn -0.3948 -0.4495 0.8013
vn -0.4217 -0.9067 -0.0000
vn -0.1992 -0.9799 -0.0000
vn -0.2701 0.5069 0.8186
vn -0.9190 -0.1746 0.3534
vn -0.5676 -0.2191 0.7936
vn -0.7983 0.6023 -0.0000
vn -0.9953 0.0970 -0.0000
vn 0.1213 -0.4350 0.8922
vn -0.1998 0.9798 -0.0000
vn 0.5375 0.8433 0.0000
vn -0.4471 0.8945 -0.0000
vn 0.3840 0.7223 0.5752
vn -0.3423 -0.9396 -0.0000
vn 0.4641 -0.8858 0.0000
vn 0.3840 -0.7223 0.5752
vn -0.4105 -0.6720 0.6164
vn 0.1191 -0.9929 0.0000
vn 0.2797 -0.9601 0.0000
vn 0.0061 -1.0000 0.0000
vn 0.2012 -0.9796 0.0000
vn -0.2487 0.9686 -0.0000
vn -0.9776 -0.2107 -0.0000
vn -0.0000 -0.0000 1.0000
vn -0.5294 -0.5294 0.6630
vn -0.0000 -0.7486 0.6630
vn -0.7486 -0.0000 0.6630
vn -0.5294 0.5294 0.6630
vn -0.0000 0.7486 0.6630
vn 0.5294 0.5294 0.6630
vn 0.7486 -0.0000 0.6630
vn 0.5294 -0.5294 0.6630
vn -0.6533 -0.6533 0.3827
vn -0.0000 -0.9239 0.3827
vn -0.9239 0.0000 0.3827
vn -0.6533 0.6533 0.3827
vn -0.0000 0.9239 0.3827
vn 0.6533 0.6533 0.3827
vn 0.9239 0.0000 0.3827
vn 0.6533 -0.6533 0.3827
vn 0.9321 0.0000 0.3623
vn -0.0610 0.9358 0.3473
vn 0.7211 0.6279 -0.2930
vn -0.5202 0.3813 -0.7642
vn -0.7933 0.4221 0.4388
vn -0.0611 -0.9358 0.3471
vn -0.7933 -0.4221 0.4388
vn -0.5202 -0.3813 -0.7642
vn 0.7215 -0.6278 -0.2922
vn 0.3561 -0.0000 0.9344
vn -0.8647 -0.0000 0.5023
vn -0.5080 -0.0000 -0.8613
vn 0.9321 -0.0000 -0.3623
vn -0.2167 0.5972 -0.7723
vn 0.0053 0.6446 -0.7645
vn 0.0052 -0.6093 -0.7929
vn -0.2129 -0.5561 -0.8034
vn 0.6708 0.0000 -0.7416
vn 0.0465 0.0000 -0.9989
vn 0.1260 0.4061 -0.9051
vn 0.2596 0.5371 -0.8026
vn 0.1213 -0.4350 -0.8922
vn 0.2195 0.5938 -0.7741
vn 0.2518 -0.4796 -0.8406
vn 0.2154 -0.5525 -0.8052
vn -0.3948 -0.4495 -0.8013
vn -0.2701 0.5069 -0.8186
vn -0.5676 -0.2191 -0.7936
vn -0.9190 -0.1746 -0.3534
vn 0.3840 0.7223 -0.5752
vn -0.2187 0.4188 -0.8814
vn -0.4105 -0.6720 -0.6164
vn 0.3840 -0.7223 -0.5752
vn 0.0000 -0.0000 -1.0000
vn 0.0000 -0.7486 -0.6630
vn -0.5294 -0.5294 -0.6630
vn -0.7486 -0.0000 -0.6630
vn -0.5294 0.5294 -0.6630
vn 0.0000 0.7486 -0.6630
vn 0.5294 0.5294 -0.6630
vn 0.7486 -0.0000 -0.6630
vn 0.5294 -0.5294 -0.6630
vn -0.0000 -0.9239 -0.3827
vn -0.6533 -0.6533 -0.3827
vn -0.9239 0.0000 -0.3827
vn -0.6533 0.6533 -0.3827
vn 0.0000 0.9239 -0.3827
vn 0.6533 0.6533 -0.3827
vn 0.9239 0.0000 -0.3827
vn 0.6533 -0.6533 -0.3827
vn 0.9321 0.0000 -0.3623
# 120 vertex normals

vt 0.0932 0.4764 0.0000
vt 0.0487 0.4452 0.0000
vt 0.0538 0.4453 0.0000
vt 0.1059 0.4771 0.0000
vt 0.0932 0.4024 0.0000
vt 0.1059 0.4031 0.0000
vt 0.0538 0.4236 0.0000
vt 0.0487 0.4236 0.0000
vt 0.0932 0.4571 0.0000
vt 0.0932 0.4402 0.0000
vt 0.0487 0.4352 0.0000
vt 0.0487 0.4390 0.0000
vt 0.0538 0.4352 0.0000
vt 0.0538 0.4391 0.0000
vt 0.0607 0.1873 0.0000
vt 0.0607 0.1835 0.0000
vt 0.0755 0.1835 0.0000
vt 0.0755 0.2001 0.0000
vt 0.1059 0.4578 0.0000
vt 0.1059 0.4409 0.0000
vt 0.0476 0.2236 0.0000
vt 0.0476 0.1577 0.0000
vt 0.0590 0.1521 0.0000
vt 0.0590 0.2292 0.0000
vt 0.0999 0.1993 0.0000
vt 0.0999 0.1906 0.0000
vt 0.1064 0.1917 0.0000
vt 0.1064 0.2048 0.0000
vt 0.0970 0.2030 0.0000
vt 0.0970 0.2038 0.0000
vt 0.0837 0.2154 0.0000
vt 0.0837 0.2131 0.0000
vt 0.0999 0.2080 0.0000
vt 0.0704 0.2231 0.0000
vt 0.0704 0.1582 0.0000
vt 0.0837 0.1682 0.0000
vt 0.0704 0.2254 0.0000
vt 0.0590 0.2315 0.0000
vt 0.0825 0.3814 0.0000
vt 0.1047 0.3863 0.0000
vt 0.1046 0.3908 0.0000
vt 0.0822 0.3895 0.0000
vt 0.0294 0.2092 0.0000
vt 0.0294 0.1721 0.0000
vt 0.0195 0.2012 0.0000
vt 0.0229 0.1906 0.0000
vt 0.7758 0.6917 0.0000
vt 0.7758 0.6940 0.0000
vt 0.7792 0.6811 0.0000
vt 0.0970 0.1783 0.0000
vt 0.0476 0.2259 0.0000
vt 0.1064 0.2211 0.0000
vt 0.0999 0.2088 0.0000
vt 0.0999 0.1742 0.0000
vt 0.1064 0.1601 0.0000
vt 0.0999 0.1733 0.0000
vt 0.0970 0.1752 0.0000
vt 0.0368 0.3865 0.0000
vt 0.0198 0.3852 0.0000
vt 0.0199 0.3825 0.0000
vt 0.0370 0.3810 0.0000
vt 0.0681 0.3887 0.0000
vt 0.0537 0.3877 0.0000
vt 0.0540 0.3796 0.0000
vt 0.0685 0.3792 0.0000
vt 0.0294 0.2115 0.0000
vt 0.0195 0.2035 0.0000
vt 0.0212 0.1854 0.0000
vt 0.0294 0.1645 0.0000
vt 0.9554 0.9437 0.0000
vt 0.9471 0.9353 0.0000
vt 0.9554 0.9318 0.0000
vt 0.9436 0.9437 0.0000
vt 0.9471 0.9520 0.0000
vt 0.9554 0.9555 0.0000
vt 0.9638 0.9520 0.0000
vt 0.9672 0.9437 0.0000
vt 0.9638 0.9353 0.0000
vt 0.9436 0.9318 0.0000
vt 0.9554 0.9269 0.0000
vt 0.9387 0.9437 0.0000
vt 0.9436 0.9555 0.0000
vt 0.9554 0.9604 0.0000
vt 0.9672 0.9555 0.0000
vt 0.9721 0.9437 0.0000
vt 0.9672 0.9318 0.0000
vt 0.7775 0.6758 0.0000
vt 0.0932 0.4201 0.0000
vt 0.0487 0.4282 0.0000
vt 0.0932 0.4386 0.0000
vt 0.0932 0.4217 0.0000
vt 0.0487 0.4298 0.0000
vt 0.0487 0.4336 0.0000
vt 0.0487 0.4406 0.0000
vt 0.0932 0.4587 0.0000
vt 0.0538 0.4282 0.0000
vt 0.0538 0.4298 0.0000
vt 0.0538 0.4336 0.0000
vt 0.0538 0.4407 0.0000
vt 0.0607 0.1766 0.0000
vt 0.0607 0.1721 0.0000
vt 0.0755 0.1464 0.0000
vt 0.0755 0.1638 0.0000
vt 0.0607 0.1819 0.0000
vt 0.0607 0.1782 0.0000
vt 0.0755 0.1653 0.0000
vt 0.0755 0.1819 0.0000
vt 0.0755 0.2017 0.0000
vt 0.0755 0.2191 0.0000
vt 0.0607 0.1934 0.0000
vt 0.0607 0.1888 0.0000
vt 0.1059 0.4208 0.0000
vt 0.1059 0.4393 0.0000
vt 0.1059 0.4224 0.0000
vt 0.1059 0.4594 0.0000
vt 0.0582 0.3938 0.0000
vt 0.0582 0.3922 0.0000
vt 0.0729 0.3794 0.0000
vt 0.0729 0.3809 0.0000
vt 0.0582 0.3991 0.0000
vt 0.0582 0.3976 0.0000
vt 0.0729 0.3976 0.0000
vt 0.0729 0.3991 0.0000
vt 0.0729 0.4157 0.0000
vt 0.0729 0.4173 0.0000
vt 0.0582 0.4044 0.0000
vt 0.0582 0.4029 0.0000
vt 0.0999 0.1819 0.0000
vt 0.1064 0.1743 0.0000
vt 0.1064 0.1764 0.0000
vt 0.1064 0.1896 0.0000
vt 0.1064 0.2069 0.0000
vt 0.0854 0.3908 0.0000
vt 0.0919 0.3832 0.0000
vt 0.0919 0.3853 0.0000
vt 0.0854 0.3995 0.0000
vt 0.0919 0.3985 0.0000
vt 0.0919 0.4006 0.0000
vt 0.0919 0.4137 0.0000
vt 0.0919 0.4158 0.0000
vt 0.0854 0.4082 0.0000
# 141 texture coords

o Fish
g Fish
s 1
f 1/1/1 2/2/2 3/3/3 4/4/4 
f 5/5/5 6/6/6 7/7/7 8/8/8 
s 2
f 9/9/9 10/10/9 11/11/10 12/12/10 
s 4
f 12/12/10 11/11/10 13/13/11 14/14/11 
s 8
f 14/15/11 13/16/11 15/17/12 16/18/12 
s 2
f 16/19/12 15/20/12 10/10/9 9/9/9 
s 1
f 17/21/13 18/22/14 19/23/15 20/24/16 
f 21/25/17 22/26/17 23/27/18 24/28/18 
s 2
f 24/28/18 23/27/18 25/27/19 26/28/19 
f 27/29/20 28/30/21 29/31/22 30/32/23 
s 1
f 27/29/20 21/25/17 31/33/24 
f 32/34/25 33/35/26 34/36/27 30/32/23 
s 2
f 32/34/25 35/37/28 36/38/29 20/24/16 
f 18/39/14 37/40/30 38/41/31 39/42/32 
s 1
f 17/21/13 40/43/33 37/44/30 18/22/14 
f 40/43/33 41/45/34 42/46/35 
s 4
f 41/47/34 43/48/36 44/49/37 42/49/35 
s 2
f 30/32/23 29/31/22 35/37/28 32/34/25 
s 1
f 30/32/23 34/36/27 45/50/38 27/29/20 
f 20/24/16 19/23/15 33/35/26 32/34/25 
s 2
f 20/24/16 36/38/29 46/51/39 17/21/13 
s 1
f 40/43/33 42/46/35 37/44/30 
s 4
f 47/52/40 48/53/41 31/33/24 49/52/42 
f 48/53/41 28/30/21 27/29/20 31/33/24 
f 50/54/43 51/55/44 52/55/45 53/56/46 
f 54/57/47 50/54/43 53/56/46 45/50/38 
s 2
f 55/58/48 54/59/47 45/60/38 34/61/27 
f 56/62/49 57/63/50 33/64/26 19/65/15 
f 46/51/39 58/66/51 40/43/33 17/21/13 
f 58/66/51 43/67/36 41/45/34 40/43/33 
f 57/63/50 55/58/48 34/61/27 33/64/26 
f 39/42/32 56/62/49 19/65/15 18/39/14 
f 37/44/30 42/46/35 59/68/52 38/69/31 
s 1
f 60/70/53 61/71/54 62/72/55 
f 60/70/53 63/73/56 61/71/54 
f 60/70/53 64/74/57 63/73/56 
f 60/70/53 65/75/58 64/74/57 
f 60/70/53 66/76/59 65/75/58 
f 60/70/53 67/77/60 66/76/59 
f 60/70/53 68/78/61 67/77/60 
f 60/70/53 62/72/55 68/78/61 
s 2
f 62/72/55 61/71/54 69/79/62 70/80/63 
s 4
f 61/71/54 63/73/56 71/81/64 69/79/62 
s 2
f 63/73/56 64/74/57 72/82/65 71/81/64 
s 4
f 64/74/57 65/75/58 73/83/66 72/82/65 
s 2
f 65/75/58 66/76/59 74/84/67 73/83/66 
s 4
f 66/76/59 67/77/60 75/85/68 74/84/67 
s 2
f 67/77/60 68/78/61 76/86/69 75/85/68 
s 4
f 68/78/61 62/72/55 70/80/63 76/86/69 
s 8
f 44/49/37 59/87/52 42/49/35 
s 2
f 77/88/9 5/5/5 8/8/8 78/89/10 
f 79/90/9 80/91/9 81/92/10 82/93/10 
f 83/94/10 2/2/2 1/1/1 84/95/9 
s 4
f 78/89/10 8/8/8 7/7/7 85/96/11 
f 82/93/10 81/92/10 86/97/11 87/98/11 
f 88/99/11 3/3/3 2/2/2 83/94/10 
s 8
f 85/100/11 7/101/7 6/102/6 89/103/70 
f 87/104/11 86/105/11 90/106/12 91/107/12 
f 92/108/70 4/109/4 3/110/3 88/111/11 
s 2
f 89/112/70 6/6/6 5/5/5 77/88/9 
f 91/113/12 90/114/12 80/91/9 79/90/9 
f 84/95/9 1/1/1 4/4/4 92/115/70 
f 80/91/9 77/88/9 78/89/10 81/92/10 
f 10/10/9 79/90/9 82/93/10 11/11/10 
f 12/12/10 83/94/10 84/95/9 9/9/9 
s 4
f 81/92/10 78/89/10 85/96/11 86/97/11 
f 11/11/10 82/93/10 87/98/11 13/13/11 
f 14/14/11 88/99/11 83/94/10 12/12/10 
s 8
f 86/116/11 85/117/11 89/118/70 90/119/12 
f 13/120/11 87/121/11 91/122/12 15/123/12 
f 16/124/12 92/125/70 88/126/11 14/127/11 
s 2
f 90/114/12 89/112/70 77/88/9 80/91/9 
f 15/20/12 91/113/12 79/90/9 10/10/9 
f 9/9/9 84/95/9 92/115/70 16/19/12 
s 1
f 93/1/71 94/4/72 95/3/73 96/2/74 
f 97/5/75 98/8/76 99/7/77 100/6/78 
s 2
f 101/9/79 102/12/80 103/11/80 104/10/79 
s 4
f 102/12/80 105/14/81 106/13/81 103/11/80 
s 8
f 105/15/81 107/18/82 108/17/82 106/16/81 
s 2
f 107/19/82 101/9/79 104/10/79 108/20/82 
s 1
f 109/21/83 110/24/84 111/23/85 112/22/86 
f 113/28/87 114/27/87 115/26/88 116/25/88 
s 2
f 26/28/19 25/27/19 114/27/87 113/28/87 
f 117/29/89 118/32/90 29/31/22 28/30/21 
s 1
f 117/29/89 115/26/88 119/128/88 120/50/91 
f 121/34/92 118/32/90 122/36/93 123/35/94 
s 2
f 121/34/92 110/24/84 36/38/29 35/37/28 
s 16
f 112/39/86 39/42/32 38/41/31 124/40/95 
s 1
f 109/21/83 112/22/86 124/44/95 125/43/96 
f 125/43/96 126/46/97 127/45/98 
s 4
f 127/47/98 126/49/97 44/49/37 43/48/36 
s 2
f 118/32/90 121/34/92 35/37/28 29/31/22 
s 1
f 118/32/90 117/29/89 120/50/91 122/36/93 
f 110/24/84 121/34/92 123/35/94 111/23/85 
s 2
f 110/24/84 109/21/83 46/51/39 36/38/29 
s 1
f 125/43/96 124/44/95 126/46/97 
s 4
f 47/52/40 128/52/99 129/33/100 48/53/41 
f 48/53/41 129/33/100 117/29/89 28/30/21 
f 50/54/43 130/56/101 131/55/102 51/55/44 
f 54/57/47 120/50/91 130/56/101 50/54/43 
s 16
f 55/58/48 122/61/93 120/60/91 54/59/47 
f 56/62/49 111/65/85 123/64/94 57/63/50 
s 2
f 46/51/39 109/21/83 125/43/96 58/66/51 
f 58/66/51 125/43/96 127/45/98 43/67/36 
s 16
f 57/63/50 123/64/94 122/61/93 55/58/48 
f 39/42/32 112/39/86 111/65/85 56/62/49 
f 124/44/95 38/69/31 59/68/52 126/46/97 
s 1
f 132/70/103 133/72/104 134/71/105 
f 132/70/103 134/71/105 135/73/106 
f 132/70/103 135/73/106 136/74/107 
f 132/70/103 136/74/107 137/75/108 
f 132/70/103 137/75/108 138/76/109 
f 132/70/103 138/76/109 139/77/110 
f 132/70/103 139/77/110 140/78/111 
f 132/70/103 140/78/111 133/72/104 
s 2
f 133/72/104 141/80/112 142/79/113 134/71/105 
s 4
f 134/71/105 142/79/113 143/81/114 135/73/106 
s 2
f 135/73/106 143/81/114 144/82/115 136/74/107 
s 4
f 136/74/107 144/82/115 145/83/116 137/75/108 
s 2
f 137/75/108 145/83/116 146/84/117 138/76/109 
s 4
f 138/76/109 146/84/117 147/85/118 139/77/110 
s 2
f 139/77/110 147/85/118 148/86/119 140/78/111 
s 4
f 140/78/111 148/86/119 141/80/112 133/72/104 
s 8
f 44/49/37 126/49/97 59/87/52 
s 2
f 149/88/79 150/89/80 98/8/76 97/5/75 
f 151/90/79 152/93/80 153/92/80 154/91/79 
f 155/94/80 156/95/79 93/1/71 96/2/74 
s 4
f 150/89/80 157/96/81 99/7/77 98/8/76 
f 152/93/80 158/98/81 159/97/81 153/92/80 
f 160/99/81 155/94/80 96/2/74 95/3/73 
s 8
f 157/100/81 161/103/120 100/102/78 99/101/77 
f 158/104/81 162/107/82 163/106/82 159/105/81 
f 164/108/120 160/111/81 95/110/73 94/109/72 
s 2
f 161/112/120 149/88/79 97/5/75 100/6/78 
f 162/113/82 151/90/79 154/91/79 163/114/82 
f 156/95/79 164/115/120 94/4/72 93/1/71 
f 154/91/79 153/92/80 150/89/80 149/88/79 
f 104/10/79 103/11/80 152/93/80 151/90/79 
f 102/12/80 101/9/79 156/95/79 155/94/80 
s 4
f 153/92/80 159/97/81 157/96/81 150/89/80 
f 103/11/80 106/13/81 158/98/81 152/93/80 
f 105/14/81 102/12/80 155/94/80 160/99/81 
s 8
f 159/116/81 163/119/82 161/118/120 157/117/81 
f 106/120/81 108/123/82 162/122/82 158/121/81 
f 107/124/82 105/127/81 160/126/81 164/125/120 
s 2
f 163/114/82 154/91/79 149/88/79 161/112/120 
f 108/20/82 104/10/79 151/90/79 162/113/82 
f 101/9/79 107/19/82 164/115/120 156/95/79 
s 1
f 165/128/17 53/56/46 52/55/45 166/129/18 
f 22/26/17 165/128/17 167/130/18 168/131/18 
f 169/132/18 49/52/42 31/33/24 21/25/17 
s 2
f 166/129/18 52/55/45 51/55/44 170/129/19 
f 168/131/18 167/130/18 171/130/19 172/131/19 
f 173/132/19 47/52/40 49/52/42 169/132/18 
s 1
f 174/129/87 131/55/102 130/56/101 119/128/88 
f 175/131/87 176/130/87 119/128/88 115/26/88 
f 116/25/88 129/33/100 128/52/99 177/132/87 
s 2
f 170/129/19 51/55/44 131/55/102 174/129/87 
f 172/131/19 171/130/19 176/130/87 175/131/87 
f 177/132/87 128/52/99 47/52/40 173/132/19 
s 1
f 165/133/17 166/134/18 167/135/18 
f 22/136/17 168/137/18 23/138/18 
f 24/139/18 169/140/18 21/141/17 
s 2
f 167/135/18 166/134/18 170/134/19 171/135/19 
f 23/138/18 168/137/18 172/137/19 25/138/19 
f 26/139/19 173/140/19 169/140/18 24/139/18 
s 1
f 176/135/87 174/134/87 119/133/88 
f 114/138/87 175/137/87 115/136/88 
f 116/141/88 177/140/87 113/139/87 
s 2
f 171/135/19 170/134/19 174/134/87 176/135/87 
f 25/138/19 172/137/19 175/137/87 114/138/87 
f 113/139/87 177/140/87 173/140/19 26/139/19 
s 1
f 27/29/20 22/26/17 21/25/17 
f 45/50/38 53/56/46 165/128/17 
f 27/29/20 45/50/38 165/128/17 22/26/17 
f 117/29/89 116/25/88 115/26/88 
f 117/29/89 129/33/100 116/25/88 
f 119/128/88 130/56/101 120/50/91 
# 144 polygons - 34 triangles

