# 3ds Max Wavefront OBJ Exporter v0.97b - (c)2007 guruware
# File Created: 01.02.2020 16:42:49

mtllib Fish.mtl

#
# object Fish
#

v  -0.0290 0.6042 0.1087
v  -0.0020 0.6042 0.0938
v  -0.1444 0.5441 0.1283
v  -0.1522 0.5441 0.1368
v  -0.0290 0.4343 0.1087
v  -0.1522 0.4944 0.1368
v  -0.1444 0.4944 0.1283
v  -0.0020 0.4343 0.0938
v  -0.1808 0.6796 0.1382
v  -0.0190 0.7052 0.1227
v  -0.0190 0.3528 0.1227
v  -0.1808 0.3785 0.1382
v  0.5627 0.6085 0.2080
v  0.6554 0.6684 0.1986
v  0.6554 0.3896 0.1986
v  0.5627 0.4495 0.2080
v  0.6554 0.6684 0.2295
v  0.6554 0.3896 0.2295
v  0.5211 0.5856 0.1998
v  0.3320 0.6315 0.1690
v  0.3320 0.6421 0.2295
v  0.5211 0.5893 0.2295
v  0.5211 0.4724 0.1998
v  0.1429 0.6775 0.1389
v  0.3320 0.4265 0.1690
v  0.1429 0.3806 0.1389
v  -0.0190 0.7158 0.2295
v  0.1429 0.6880 0.2295
v  -0.1808 0.3441 0.2295
v  -0.4399 0.4097 0.2295
v  -0.4399 0.4440 0.1794
v  -0.4399 0.6140 0.1794
v  -0.5314 0.5290 0.1960
v  -0.5803 0.5773 0.2059
v  -0.5314 0.5290 0.2295
v  -0.5803 0.5879 0.2295
v  -0.1808 0.6901 0.2295
v  0.5627 0.6122 0.2295
v  0.5627 0.4537 0.2295
v  0.5211 0.4584 0.2295
v  0.3320 0.3921 0.2295
v  -0.0190 0.3184 0.2295
v  0.1429 0.3462 0.2295
v  -0.4399 0.6245 0.2295
v  -0.5558 0.5048 0.2295
v  -0.4193 0.5669 0.1532
v  -0.4193 0.5423 0.1634
v  -0.4366 0.5495 0.1634
v  -0.4438 0.5669 0.1634
v  -0.4366 0.5843 0.1634
v  -0.4193 0.5915 0.1634
v  -0.4019 0.5843 0.1634
v  -0.3947 0.5669 0.1634
v  -0.4019 0.5495 0.1634
v  -0.4193 0.5322 0.1880
v  -0.4438 0.5423 0.1880
v  -0.4540 0.5669 0.1880
v  -0.4438 0.5915 0.1880
v  -0.4193 0.6017 0.1880
v  -0.3947 0.5915 0.1880
v  -0.3845 0.5669 0.1880
v  -0.3947 0.5423 0.1880
v  -0.0290 0.6042 0.3503
v  -0.1522 0.5441 0.3222
v  -0.1444 0.5441 0.3307
v  -0.0020 0.6042 0.3652
v  -0.0290 0.4343 0.3503
v  -0.0020 0.4343 0.3652
v  -0.1444 0.4944 0.3307
v  -0.1522 0.4944 0.3222
v  -0.1808 0.6796 0.3208
v  -0.1808 0.3785 0.3208
v  -0.0190 0.3528 0.3362
v  -0.0190 0.7052 0.3362
v  0.5627 0.6085 0.2510
v  0.5627 0.4495 0.2510
v  0.6554 0.3896 0.2603
v  0.6554 0.6684 0.2603
v  0.5211 0.5856 0.2592
v  0.3320 0.6315 0.2899
v  0.5211 0.4724 0.2592
v  0.1429 0.6775 0.3201
v  0.1429 0.3806 0.3201
v  0.3320 0.4265 0.2899
v  -0.4399 0.4440 0.2796
v  -0.4399 0.6140 0.2796
v  -0.5803 0.5773 0.2530
v  -0.5314 0.5290 0.2629
v  -0.4193 0.5669 0.3058
v  -0.4366 0.5495 0.2956
v  -0.4193 0.5423 0.2956
v  -0.4438 0.5669 0.2956
v  -0.4366 0.5843 0.2956
v  -0.4193 0.5915 0.2956
v  -0.4019 0.5843 0.2956
v  -0.3947 0.5669 0.2956
v  -0.4019 0.5495 0.2956
v  -0.4438 0.5423 0.2710
v  -0.4193 0.5322 0.2710
v  -0.4540 0.5669 0.2710
v  -0.4438 0.5915 0.2710
v  -0.4193 0.6017 0.2710
v  -0.3947 0.5915 0.2710
v  -0.3845 0.5669 0.2710
v  -0.3947 0.5423 0.2710
# 105 vertices

vn -0.0611 0.9358 0.3471
vn 0.7215 0.6278 -0.2922
vn -0.5202 0.3813 -0.7642
vn -0.7933 0.4221 0.4388
vn -0.0611 -0.9358 0.3471
vn -0.7933 -0.4221 0.4388
vn -0.5202 -0.3813 -0.7642
vn 0.7215 -0.6278 -0.2922
vn -0.2209 0.6479 -0.7290
vn 0.0055 0.6871 -0.7265
vn 0.0052 -0.6093 -0.7929
vn -0.2129 -0.5561 -0.8034
vn -0.3394 0.5802 -0.7404
vn 0.3840 0.7223 -0.5752
vn 0.3840 -0.7223 -0.5752
vn -0.4105 -0.6720 -0.6164
vn 0.4905 0.8714 -0.0000
vn 0.4643 -0.8857 -0.0000
vn 0.0980 0.5571 -0.8247
vn 0.2684 0.6128 -0.7433
vn 0.2520 0.9677 -0.0000
vn -0.1187 0.9929 -0.0000
vn 0.1213 -0.4350 -0.8922
vn 0.2239 0.6449 -0.7307
vn 0.2518 -0.4796 -0.8406
vn 0.2154 -0.5525 -0.8052
vn 0.0063 1.0000 -0.0000
vn 0.2022 0.9794 -0.0000
vn -0.1992 -0.9799 0.0000
vn -0.4217 -0.9067 0.0000
vn -0.3948 -0.4495 -0.8013
vn -0.2810 0.5956 -0.7525
vn -0.5676 -0.2191 -0.7936
vn -0.8885 0.0099 -0.4588
vn -0.9988 0.0492 -0.0000
vn -0.8773 0.4800 -0.0000
vn -0.2006 0.9797 -0.0000
vn -0.5015 0.8652 -0.0000
vn -0.3423 -0.9396 0.0000
vn 0.1191 -0.9929 0.0000
vn 0.2797 -0.9601 0.0000
vn 0.0061 -1.0000 0.0000
vn 0.2012 -0.9796 0.0000
vn -0.2488 0.9685 -0.0000
vn -0.9776 -0.2107 -0.0000
vn -0.0000 -0.0000 -1.0000
vn -0.0000 -0.7486 -0.6630
vn -0.5294 -0.5294 -0.6630
vn -0.7486 -0.0000 -0.6630
vn -0.5294 0.5294 -0.6630
vn -0.0000 0.7486 -0.6630
vn 0.5294 0.5294 -0.6630
vn 0.7486 -0.0000 -0.6630
vn 0.5294 -0.5294 -0.6630
vn -0.0000 -0.9239 -0.3827
vn -0.6533 -0.6533 -0.3827
vn -0.9239 0.0000 -0.3827
vn -0.6533 0.6533 -0.3827
vn -0.0000 0.9239 -0.3827
vn 0.6533 0.6533 -0.3827
vn 0.9239 0.0000 -0.3827
vn 0.6533 -0.6533 -0.3827
vn -0.0610 0.9358 -0.3473
vn -0.7933 0.4221 -0.4388
vn -0.5202 0.3813 0.7642
vn 0.7211 0.6279 0.2930
vn -0.0611 -0.9358 -0.3471
vn 0.7215 -0.6278 0.2922
vn -0.5202 -0.3813 0.7642
vn -0.7933 -0.4221 -0.4388
vn -0.2209 0.6479 0.7290
vn -0.2129 -0.5561 0.8034
vn 0.0052 -0.6093 0.7929
vn 0.0055 0.6871 0.7265
vn -0.3394 0.5802 0.7404
vn -0.4105 -0.6720 0.6164
vn 0.3840 -0.7223 0.5752
vn 0.3840 0.7223 0.5752
vn 0.0980 0.5571 0.8247
vn 0.2684 0.6128 0.7433
vn 0.1213 -0.4350 0.8922
vn 0.2239 0.6449 0.7307
vn 0.2154 -0.5525 0.8052
vn 0.2518 -0.4796 0.8406
vn -0.3948 -0.4495 0.8013
vn -0.2810 0.5956 0.7525
vn -0.8885 0.0099 0.4588
vn -0.5676 -0.2191 0.7936
vn -0.0000 -0.0000 1.0000
vn -0.5294 -0.5294 0.6630
vn -0.0000 -0.7486 0.6630
vn -0.7486 -0.0000 0.6630
vn -0.5294 0.5294 0.6630
vn -0.0000 0.7486 0.6630
vn 0.5294 0.5294 0.6630
vn 0.7486 -0.0000 0.6630
vn 0.5294 -0.5294 0.6630
vn -0.6533 -0.6533 0.3827
vn -0.0000 -0.9239 0.3827
vn -0.9239 0.0000 0.3827
vn -0.6533 0.6533 0.3827
vn -0.0000 0.9239 0.3827
vn 0.6533 0.6533 0.3827
vn 0.9239 0.0000 0.3827
vn 0.6533 -0.6533 0.3827
# 105 vertex normals

vt 1.0000 0.0000 0.0000
vt 1.0000 1.0000 0.0000
vt 0.0000 1.0000 0.0000
vt 0.0000 0.0000 0.0000
vt 0.0625 0.0000 0.0000
vt 0.0625 1.0000 0.0000
vt 0.5000 0.0000 0.0000
vt 0.5000 1.0000 0.0000
vt 0.4628 0.0000 0.0000
vt 0.4628 1.0000 0.0000
vt 0.2500 1.0000 0.0000
vt 0.1875 1.0000 0.0000
vt 0.1875 0.5197 0.0000
vt 0.2500 0.5385 0.0000
vt 0.2500 0.0000 0.0000
vt 0.1250 0.0000 0.0000
vt 0.1875 0.0000 0.0000
vt 0.1250 1.0000 0.0000
vt 0.0625 0.5113 0.0000
vt 0.1250 0.5133 0.0000
vt 1.0000 0.5132 0.0000
vt 1.0000 0.5236 0.0000
vt 0.0000 0.5000 0.0000
vt 0.4655 0.5345 0.0000
vt 0.4524 0.5476 0.0000
vt 0.0000 0.5132 0.0000
vt 1.0000 0.5372 0.0000
vt 0.5000 0.5516 0.0000
vt 0.0000 0.5372 0.0000
vt 0.7500 0.5385 0.0000
vt 0.7500 1.0000 0.0000
vt 0.8125 0.5197 0.0000
vt 0.8125 1.0000 0.0000
vt 0.9375 0.5113 0.0000
vt 0.9375 1.0000 0.0000
vt 0.8750 1.0000 0.0000
vt 0.8750 0.5133 0.0000
vt 0.0000 0.5236 0.0000
vt 0.0000 0.5476 0.0000
vt 0.0000 0.7500 0.0000
vt 0.1250 0.7500 0.0000
vt 0.2500 0.7500 0.0000
vt 0.3750 0.7500 0.0000
vt 0.3750 1.0000 0.0000
vt 0.5000 0.7500 0.0000
vt 0.6250 0.7500 0.0000
vt 0.6250 1.0000 0.0000
vt 0.7500 0.7500 0.0000
vt 0.8750 0.7500 0.0000
vt 1.0000 0.7500 0.0000
vt 0.1250 0.5000 0.0000
vt 0.2500 0.5000 0.0000
vt 0.3750 0.5000 0.0000
vt 0.5000 0.5000 0.0000
vt 0.6250 0.5000 0.0000
vt 0.7500 0.5000 0.0000
vt 0.8750 0.5000 0.0000
vt 1.0000 0.5000 0.0000
# 58 texture coords

o Fish
g Fish
usemtl wire_115115115
s 1
f 1/1/1 2/2/2 3/3/3 4/4/4 
f 5/4/5 6/1/6 7/2/7 8/3/8 
s 2
f 1/4/1 4/1/4 6/2/6 5/3/5 
s 4
f 4/4/4 3/1/3 7/2/7 6/3/6 
f 3/4/3 2/1/2 8/2/8 7/3/7 
s 2
f 2/4/2 1/1/1 5/2/5 8/3/8 
s 1
f 9/4/9 10/5/10 11/6/11 12/3/12 
f 13/7/13 14/1/14 15/2/15 16/8/16 
s 2
f 14/4/14 17/9/17 18/10/18 15/3/15 
s 4
f 19/11/19 20/12/20 21/13/21 22/14/22 
s 1
f 19/15/19 13/7/13 16/8/16 23/11/23 
f 24/16/24 20/17/20 25/12/25 26/18/26 
s 4
f 24/18/24 10/6/10 27/19/27 28/20/28 
f 12/2/12 29/21/29 30/22/30 31/2/31 
s 1
f 9/4/9 12/3/12 31/3/31 32/4/32 
f 32/4/32 33/23/33 34/4/34 
s 2
f 34/3/34 33/3/33 35/24/35 36/25/36 
s 4
f 20/12/20 24/18/24 28/20/28 21/13/21 
s 1
f 20/17/20 19/15/19 23/11/23 25/12/25 
f 10/5/10 24/16/24 26/18/26 11/6/11 
s 4
f 10/6/10 9/3/9 37/26/37 27/19/27 
s 1
f 32/4/32 31/3/31 33/23/33 
s 4
f 17/27/17 14/2/14 13/8/13 38/28/38 
f 38/28/38 13/8/13 19/11/19 22/14/22 
f 39/28/39 16/8/16 15/3/15 18/29/18 
f 40/30/40 23/31/23 16/8/16 39/28/39 
f 41/32/41 25/33/25 23/31/23 40/30/40 
f 42/34/42 11/35/11 26/36/26 43/37/43 
f 37/26/37 9/3/9 32/3/32 44/38/44 
f 44/38/44 32/3/32 34/3/34 36/39/36 
f 43/37/43 26/36/26 25/33/25 41/32/41 
f 29/21/29 12/2/12 11/35/11 42/34/42 
f 31/2/31 30/4/30 45/3/45 33/8/33 
s 1
f 46/3/46 47/40/47 48/41/48 
f 46/18/46 48/41/48 49/42/49 
f 46/11/46 49/42/49 50/43/50 
f 46/44/46 50/43/50 51/45/51 
f 46/8/46 51/45/51 52/46/52 
f 46/47/46 52/46/52 53/48/53 
f 46/31/46 53/48/53 54/49/54 
f 46/36/46 54/49/54 47/50/47 
f 47/40/47 55/23/55 56/51/56 48/41/48 
f 48/41/48 56/51/56 57/52/57 49/42/49 
f 49/42/49 57/52/57 58/53/58 50/43/50 
f 50/43/50 58/53/58 59/54/59 51/45/51 
f 51/45/51 59/54/59 60/55/60 52/46/52 
f 52/46/52 60/55/60 61/56/61 53/48/53 
f 53/48/53 61/56/61 62/57/62 54/49/54 
f 54/49/54 62/57/62 55/58/55 47/50/47 
s 8
f 35/24/35 33/3/33 45/54/45 
s 1
f 63/1/63 64/4/64 65/3/65 66/2/66 
f 67/4/67 68/3/68 69/2/69 70/1/70 
s 2
f 63/4/63 67/3/67 70/2/70 64/1/64 
s 4
f 64/4/64 70/3/70 69/2/69 65/1/65 
f 65/4/65 69/3/69 68/2/68 66/1/66 
s 2
f 66/4/66 68/3/68 67/2/67 63/1/63 
s 1
f 71/4/71 72/3/72 73/6/73 74/5/74 
f 75/7/75 76/8/76 77/2/77 78/1/78 
s 2
f 78/4/78 77/3/77 18/10/18 17/9/17 
s 4
f 79/11/79 22/14/22 21/13/21 80/12/80 
s 1
f 79/15/79 81/11/81 76/8/76 75/7/75 
f 82/16/82 83/18/83 84/12/84 80/17/80 
s 4
f 82/18/82 28/20/28 27/19/27 74/6/74 
f 72/2/72 85/2/85 30/22/30 29/21/29 
s 1
f 71/4/71 86/4/86 85/3/85 72/3/72 
f 86/4/86 87/4/87 88/23/88 
s 2
f 87/3/87 36/25/36 35/24/35 88/3/88 
s 4
f 80/12/80 21/13/21 28/20/28 82/18/82 
s 1
f 80/17/80 84/12/84 81/11/81 79/15/79 
f 74/5/74 73/6/73 83/18/83 82/16/82 
s 4
f 74/6/74 27/19/27 37/26/37 71/3/71 
s 1
f 86/4/86 88/23/88 85/3/85 
s 4
f 17/27/17 38/28/38 75/8/75 78/2/78 
f 38/28/38 22/14/22 79/11/79 75/8/75 
f 39/28/39 18/29/18 77/3/77 76/8/76 
f 40/30/40 39/28/39 76/8/76 81/31/81 
f 41/32/41 40/30/40 81/31/81 84/33/84 
f 42/34/42 43/37/43 83/36/83 73/35/73 
f 37/26/37 44/38/44 86/3/86 71/3/71 
f 44/38/44 36/39/36 87/3/87 86/3/86 
f 43/37/43 41/32/41 84/33/84 83/36/83 
f 29/21/29 42/34/42 73/35/73 72/2/72 
f 85/2/85 88/8/88 45/3/45 30/4/30 
s 1
f 89/3/89 90/41/90 91/40/91 
f 89/18/89 92/42/92 90/41/90 
f 89/11/89 93/43/93 92/42/92 
f 89/44/89 94/45/94 93/43/93 
f 89/8/89 95/46/95 94/45/94 
f 89/47/89 96/48/96 95/46/95 
f 89/31/89 97/49/97 96/48/96 
f 89/36/89 91/50/91 97/49/97 
f 91/40/91 90/41/90 98/51/98 99/23/99 
f 90/41/90 92/42/92 100/52/100 98/51/98 
f 92/42/92 93/43/93 101/53/101 100/52/100 
f 93/43/93 94/45/94 102/54/102 101/53/101 
f 94/45/94 95/46/95 103/55/103 102/54/102 
f 95/46/95 96/48/96 104/56/104 103/55/103 
f 96/48/96 97/49/97 105/57/105 104/56/104 
f 97/49/97 91/50/91 99/58/99 105/57/105 
s 8
f 35/24/35 45/54/45 88/3/88 
# 78 polygons - 22 triangles

