# 3ds Max Wavefront OBJ Exporter v0.97b - (c)2007 guruware
# File Created: 01.02.2020 15:22:46

mtllib FreshWall.mtl

#
# object Fresh_case
#

v  -97.7031 0.0000 -166.6667
v  -97.7031 0.0000 -250.0000
v  0.0001 0.0000 -250.0000
v  0.0001 0.0000 -166.6667
v  0.0001 230.0000 -166.6667
v  0.0001 230.0000 -250.0000
v  -97.7031 230.0000 -250.0000
v  -97.7031 230.0000 -166.6667
v  -97.7031 0.0000 -0.0000
v  0.0001 0.0000 -0.0000
v  0.0001 110.8922 -0.0000
v  -97.7031 94.9535 -0.0000
v  0.0001 110.8922 -250.0000
v  0.0001 110.8922 -166.6667
v  0.0001 0.0000 -500.0000
v  -97.7031 0.0000 -500.0000
v  -97.7031 94.9535 -500.0000
v  0.0001 110.8922 -500.0000
v  -97.7031 0.0000 -333.3333
v  -97.7031 94.9535 -250.0000
v  -97.7031 94.9535 -333.3333
v  -97.7031 110.9290 -0.0000
v  0.0001 230.0000 -333.3333
v  0.0001 110.8922 -333.3333
v  -97.7031 110.9290 -500.0000
v  -97.7031 0.0000 -416.6667
v  0.0001 0.0000 -416.6667
v  0.0001 0.0000 -333.3333
v  0.0001 0.0000 -83.3333
v  -97.7031 0.0000 -83.3333
v  0.0001 230.0000 -416.6667
v  0.0001 230.0000 -500.0000
v  -97.7031 230.0000 -500.0000
v  -97.7031 230.0000 -416.6667
v  -97.7031 230.0000 -333.3333
v  -97.7031 230.0000 -83.3333
v  -97.7031 230.0000 -0.0000
v  0.0001 230.0000 -0.0000
v  0.0001 230.0000 -83.3333
v  0.0001 110.8922 -416.6667
v  0.0001 110.8922 -83.3333
v  -97.7031 94.9535 -83.3333
v  -97.7031 94.9535 -166.6667
v  -97.7031 94.9535 -416.6667
v  -11.9687 222.7147 -416.6667
v  -11.9687 222.7147 -492.7147
v  -11.9687 110.9221 -492.7147
v  -11.9687 110.9221 -416.6667
v  -11.9687 222.7147 -333.3333
v  -11.9687 110.9221 -333.3333
v  -97.7031 222.7147 -492.7147
v  -97.7031 222.7147 -416.6667
v  -97.7031 110.9294 -492.7147
v  -97.7031 102.2388 -416.6667
v  -97.7031 102.2388 -492.7147
v  -97.7031 102.2388 -333.3333
v  -97.7031 102.2388 -250.0000
v  -97.7031 102.2388 -166.6667
v  -97.7031 102.2388 -83.3333
v  -97.7031 102.2388 -7.2853
v  -97.7031 110.9294 -7.2853
v  -97.7031 222.7147 -83.3333
v  -97.7031 222.7147 -7.2853
v  -97.7031 222.7147 -166.6667
v  -97.7031 222.7147 -250.0000
v  -97.7031 222.7147 -333.3333
v  -91.8127 222.7147 -492.7147
v  -91.8127 222.7147 -416.6667
v  -91.8127 110.9295 -492.7147
v  -97.7080 110.9152 -416.6667
v  -91.8264 110.9265 -416.6667
v  -97.7080 110.9152 -333.3333
v  -91.8264 110.9265 -333.3333
v  -97.7080 110.9152 -250.0000
v  -91.8264 110.9265 -250.0000
v  -97.7080 110.9152 -166.6667
v  -91.8264 110.9265 -166.6667
v  -97.7080 110.9152 -83.3333
v  -91.8264 110.9265 -83.3333
v  -91.8127 110.9295 -7.2853
v  -91.8127 222.7147 -83.3333
v  -91.8127 222.7147 -7.2853
v  -91.8127 222.7147 -166.6667
v  -91.8127 222.7147 -250.0000
v  -91.8127 222.7147 -333.3333
v  -91.8127 103.6299 -492.7147
v  -91.8127 103.6299 -416.6667
v  -91.8127 103.6299 -333.3333
v  -91.8127 103.6299 -250.0000
v  -11.9687 110.9221 -250.0000
v  -91.8127 103.6299 -166.6667
v  -11.9687 110.9221 -166.6667
v  -91.8127 103.6299 -83.3333
v  -11.9687 110.9221 -83.3333
v  -91.8127 103.6299 -7.2853
v  -11.9687 110.9221 -7.2853
v  -11.9687 222.7147 -7.2853
v  -11.9687 222.7147 -83.3333
v  -11.9687 222.7147 -166.6667
v  -11.9687 222.7147 -250.0000
# 100 vertices

vn -0.7071 -0.7071 -0.0000
vn 0.7071 -0.7071 -0.0000
vn 0.7071 0.7071 -0.0000
vn -0.7071 0.7071 -0.0000
vn -0.5774 -0.5774 0.5774
vn 0.5774 -0.5774 0.5774
vn 0.7071 0.0000 0.7071
vn -0.7071 0.0000 0.7071
vn 1.0000 0.0000 -0.0000
vn 0.5774 -0.5774 -0.5774
vn -0.5774 -0.5774 -0.5774
vn -0.7071 0.0000 -0.7071
vn 0.7071 0.0000 -0.7071
vn -1.0000 0.0000 -0.0000
vn 0.5774 0.5774 -0.5774
vn -0.5774 0.5774 -0.5774
vn -0.5774 0.5774 0.5774
vn 0.5774 0.5774 0.5774
vn -0.6005 0.5480 0.5824
vn -0.7386 0.6741 -0.0000
vn -0.9045 -0.3015 0.3015
vn -0.9045 0.3015 0.3015
vn -1.0000 -0.0003 -0.0000
vn -0.9045 0.3015 -0.3015
vn -0.9045 -0.3015 -0.3015
vn 0.0000 -0.7071 0.7071
vn 0.0000 -1.0000 -0.0000
vn 0.3015 0.3015 0.9045
vn -0.7080 0.7062 0.0000
vn 0.7057 0.7085 0.0001
vn -0.7079 0.7063 -0.0000
vn 0.7057 0.7085 -0.0000
vn -0.7080 0.7062 -0.0000
vn 0.7057 0.7085 -0.0001
vn 0.3015 0.3015 -0.9045
vn 0.0000 -0.7071 -0.7071
vn 0.5527 0.6054 0.5728
vn 0.6735 0.7392 -0.0000
vn 0.5527 0.6054 -0.5728
vn -0.6005 0.5480 -0.5824
# 40 vertex normals

vt 1.0000 0.3333 0.0000
vt 1.0000 0.5000 0.0000
vt 0.0000 0.5000 0.0000
vt 0.0000 0.3333 0.0000
vt 0.0000 0.0000 0.0000
vt 1.0000 0.0000 0.0000
vt 1.0000 0.5188 0.0000
vt 0.3333 0.0000 0.0000
vt 0.5000 0.0000 0.0000
vt 0.5000 0.5188 0.0000
vt 0.3333 0.5188 0.0000
vt 0.0000 0.5188 0.0000
vt 0.5000 0.5000 0.0000
vt 0.3333 0.5000 0.0000
vt 0.0000 0.5375 0.0000
vt 0.6667 1.0000 0.0000
vt 0.5000 1.0000 0.0000
vt 0.6667 0.5188 0.0000
vt 1.0000 0.5375 0.0000
vt 1.0000 0.8333 0.0000
vt 1.0000 1.0000 0.0000
vt 0.0000 1.0000 0.0000
vt 0.0000 0.8333 0.0000
vt 1.0000 0.6667 0.0000
vt 0.0000 0.6667 0.0000
vt 0.0000 0.1667 0.0000
vt 1.0000 0.1667 0.0000
vt 0.8333 0.0000 0.0000
vt 0.8333 0.5188 0.0000
vt 0.6667 0.0000 0.0000
vt 0.1667 0.5188 0.0000
vt 0.1667 0.0000 0.0000
vt 0.8333 0.5000 0.0000
vt 0.6667 0.5000 0.0000
vt 0.1667 0.5000 0.0000
vt 0.1667 1.0000 0.0000
vt 0.3333 1.0000 0.0000
vt 0.9625 0.5188 0.0000
vt 0.9250 0.5375 0.0000
vt 0.8333 1.0000 0.0000
# 40 texture coords

o Fresh_case
g Fresh_case
usemtl wire_143143143
s 2
f 1/1/1 2/2/1 3/3/2 4/4/2 
s 4
f 5/1/3 6/2/3 7/3/4 8/4/4 
s 8
f 9/5/5 10/6/6 11/7/7 12/3/8 
s 16
f 4/8/2 3/9/2 13/10/9 14/11/9 
s 32
f 15/5/10 16/6/11 17/2/12 18/12/13 
s 64
f 19/8/1 2/9/1 20/13/14 21/14/14 
s 8
f 11/7/7 22/15/8 12/3/8 
s 16
f 23/16/3 6/17/3 13/10/9 24/18/9 
s 32
f 17/2/12 25/19/12 18/12/13 
s 2
f 26/20/1 16/21/11 15/22/10 27/23/2 
f 19/24/1 26/20/1 27/23/2 28/25/2 
f 2/2/1 19/24/1 28/25/2 3/3/2 
f 29/26/2 10/5/6 9/6/5 30/27/1 
f 4/4/2 29/26/2 30/27/1 1/1/1 
s 4
f 31/20/3 32/21/15 33/22/16 34/23/4 
f 23/24/3 31/20/3 34/23/4 35/25/4 
f 6/2/3 23/24/3 35/25/4 7/3/4 
f 36/26/4 37/5/17 38/6/18 39/27/3 
f 8/4/4 36/26/4 39/27/3 5/1/3 
s 16
f 27/28/2 15/6/10 18/7/13 40/29/9 
f 28/30/2 27/28/2 40/29/9 24/18/9 
f 3/9/2 28/30/2 24/18/9 13/10/9 
f 41/31/9 11/12/7 10/5/6 29/32/2 
f 14/11/9 41/31/9 29/32/2 4/8/2 
s 64
f 30/28/1 9/6/5 12/2/8 42/33/14 
f 1/30/1 30/28/1 42/33/14 43/34/14 
f 2/9/1 1/30/1 43/34/14 20/13/14 
f 44/35/14 17/3/12 16/5/11 26/32/1 
f 21/14/14 44/35/14 26/32/1 19/8/1 
s 16
f 39/36/3 38/22/18 11/12/7 41/31/9 
f 5/37/3 39/36/3 41/31/9 14/11/9 
f 6/17/3 5/37/3 14/11/9 13/10/9 
s off
f 45/22/1 46/22/5 47/38/19 48/38/20 
f 49/22/1 45/22/1 48/38/20 50/38/20 
f 34/22/4 33/22/16 51/22/21 52/22/1 
f 33/22/16 25/39/12 53/39/22 51/22/21 
f 17/2/12 44/2/14 54/2/23 55/2/14 
f 44/2/14 21/2/14 56/2/23 54/2/23 
f 21/2/14 20/2/14 57/2/23 56/2/23 
f 20/2/14 43/2/14 58/2/23 57/2/23 
f 43/2/14 42/2/14 59/2/23 58/2/23 
f 42/2/14 12/2/8 60/2/14 59/2/23 
f 12/2/8 22/39/8 61/39/24 60/2/14 
f 37/22/17 36/22/4 62/22/1 63/22/25 
f 36/22/4 8/22/4 64/22/1 62/22/1 
f 8/22/4 7/22/4 65/22/1 64/22/1 
f 7/22/4 35/22/4 66/22/1 65/22/1 
f 35/22/4 34/22/4 52/22/1 66/22/1 
f 52/22/1 51/22/21 67/22/26 68/22/27 
f 51/22/21 53/39/22 69/39/28 67/22/26 
f 53/2/22 70/2/29 71/2/30 69/2/28 
f 70/2/29 72/2/31 73/2/32 71/2/30 
f 72/2/31 74/2/31 75/2/32 73/2/32 
f 74/2/31 76/2/31 77/2/32 75/2/32 
f 76/2/31 78/2/33 79/2/34 77/2/32 
f 78/2/33 61/2/24 80/2/35 79/2/34 
f 63/22/25 62/22/1 81/22/27 82/22/36 
f 62/22/1 64/22/1 83/22/27 81/22/27 
f 64/22/1 65/22/1 84/22/27 83/22/27 
f 65/22/1 66/22/1 85/22/27 84/22/27 
f 66/22/1 52/22/1 68/22/27 85/22/27 
f 67/22/26 46/22/5 45/22/1 68/22/27 
f 86/2/37 47/38/19 69/39/28 
f 87/2/38 48/38/20 47/38/19 86/2/37 
f 88/2/38 50/38/20 48/38/20 87/2/38 
f 89/2/38 90/38/20 50/38/20 88/2/38 
f 91/2/38 92/38/20 90/38/20 89/2/38 
f 93/2/38 94/38/20 92/38/20 91/2/38 
f 95/2/39 96/38/40 94/38/20 93/2/38 
f 82/22/36 97/22/11 96/38/40 80/39/35 
f 81/22/27 98/22/1 97/22/11 82/22/36 
f 83/22/27 99/22/1 98/22/1 81/22/27 
f 84/22/27 100/22/1 99/22/1 83/22/27 
f 85/22/27 49/22/1 100/22/1 84/22/27 
f 68/22/27 45/22/1 49/22/1 85/22/27 
s 8
f 11/7/7 38/21/18 37/22/17 22/15/8 
s 32
f 25/19/12 33/21/16 32/22/15 18/12/13 
s off
f 90/38/20 100/22/1 49/22/1 50/38/20 
s 16
f 18/7/13 32/21/15 31/40/3 40/29/9 
f 40/29/9 31/40/3 23/16/3 24/18/9 
s off
f 96/38/40 97/22/11 98/22/1 94/38/20 
f 94/38/20 98/22/1 99/22/1 92/38/20 
f 92/38/20 99/22/1 100/22/1 90/38/20 
f 25/39/12 17/2/12 55/2/14 53/39/22 
f 22/39/8 37/22/17 63/22/25 61/39/24 
f 61/39/24 63/22/25 82/22/36 80/39/35 
f 47/38/19 46/22/5 67/22/26 69/39/28 
f 96/38/40 95/2/39 80/39/35 
f 55/2/14 54/2/23 70/2/29 53/2/22 
f 54/2/23 56/2/23 72/2/31 70/2/29 
f 56/2/23 57/2/23 74/2/31 72/2/31 
f 57/2/23 58/2/23 76/2/31 74/2/31 
f 58/2/23 59/2/23 78/2/33 76/2/31 
f 59/2/23 60/2/14 61/2/24 78/2/33 
f 95/2/39 93/2/38 79/2/34 80/2/35 
f 93/2/38 91/2/38 77/2/32 79/2/34 
f 91/2/38 89/2/38 75/2/32 77/2/32 
f 89/2/38 88/2/38 73/2/32 75/2/32 
f 88/2/38 87/2/38 71/2/30 73/2/32 
f 87/2/38 86/2/37 69/2/28 71/2/30 
# 96 polygons - 4 triangles

