# 3ds Max Wavefront OBJ Exporter v0.97b - (c)2007 guruware
# File Created: 01.02.2020 15:19:59

mtllib GroceryShelf002.mtl

#
# object Shelf002
#

v  0.0000 -0.0459 -60.0485
v  0.0000 -0.0459 -6.3485
v  -249.9621 -0.0459 -6.3486
v  -249.9621 -0.0459 -60.0486
v  -164.4222 -0.0459 -60.0486
v  -85.5300 -0.0459 -60.0486
v  -85.5300 229.9541 -6.3486
v  -164.4222 229.9541 -6.3486
v  -164.4222 229.9541 -0.0486
v  -85.5300 229.9541 -0.0486
v  -85.5558 10.1388 -6.4437
v  -164.4112 10.1388 -6.4437
v  -164.4112 104.9347 -6.4437
v  -85.5558 104.9347 -6.4437
v  -499.9621 -0.0459 -60.0487
v  -499.9621 -0.0459 -6.3487
v  -499.9621 10.1388 -6.3487
v  -499.9621 10.1388 -60.0487
v  -249.9621 114.9541 -0.0486
v  -249.9621 10.1388 -0.0486
v  0.0000 10.1388 -0.0485
v  0.0000 114.9541 -0.0485
v  0.0000 -0.0459 -0.0485
v  0.0000 10.1388 -6.3485
v  -164.4112 219.9347 -6.4437
v  -85.5558 219.9347 -6.4437
v  -85.5558 124.9735 -6.4437
v  -164.4112 124.9735 -6.4437
v  -499.9621 114.9541 -0.0487
v  -499.9621 229.9541 -0.0487
v  -499.9621 229.9541 -6.3487
v  -499.9621 114.9541 -6.3487
v  0.0000 229.9541 -0.0485
v  -249.9621 229.9541 -0.0486
v  0.0000 114.9541 -60.0485
v  0.0000 229.9541 -60.0485
v  0.0000 229.9541 -6.3485
v  0.0000 114.9541 -6.3485
v  -164.4222 229.9541 -60.0486
v  -85.5300 229.9541 -60.0486
v  -85.5559 219.9347 -60.0486
v  -164.4112 219.9347 -60.0486
v  -10.0194 124.9735 -60.0485
v  -10.0194 219.9347 -60.0485
v  -85.5300 114.9541 -60.0486
v  -164.4222 114.9541 -60.0486
v  -164.4112 124.9735 -60.0486
v  -85.5559 124.9735 -60.0486
v  -249.9621 114.9541 -60.0486
v  -249.9621 229.9541 -60.0486
v  -239.9427 219.9347 -60.0486
v  -239.9427 124.9735 -60.0486
v  -164.4112 10.1388 -60.0486
v  -85.5559 10.1388 -60.0486
v  -249.9621 10.1388 -60.0486
v  -239.9427 10.1388 -60.0486
v  -85.5559 104.9347 -60.0486
v  -164.4112 104.9347 -60.0486
v  0.0000 10.1388 -60.0485
v  -10.0194 10.1388 -60.0485
v  -10.0194 104.9347 -60.0485
v  -239.9427 104.9347 -60.0486
v  -239.9427 104.9347 -6.4437
v  -239.9427 10.1388 -6.4437
v  -10.0194 10.1388 -6.4436
v  -10.0194 104.9347 -6.4436
v  -10.0194 124.9735 -6.4436
v  -10.0194 219.9347 -6.4436
v  -239.9427 219.9347 -6.4437
v  -239.9427 124.9735 -6.4437
v  -499.9621 10.1388 -0.0487
v  -249.9621 -0.0459 -0.0486
v  -499.9621 -0.0459 -0.0487
v  -249.9621 229.9541 -6.3486
v  -249.9621 114.9541 -6.3486
v  -249.9621 10.1388 -6.3486
v  -333.2955 -0.0459 -0.0487
v  -416.6288 -0.0459 -0.0487
v  -416.6288 -0.0459 -6.3487
v  -333.2955 -0.0459 -6.3487
v  -333.2955 10.1388 -0.0487
v  -416.6288 10.1388 -0.0487
v  -333.2955 114.9541 -0.0487
v  -416.6288 114.9541 -0.0487
v  -333.2955 229.9541 -0.0487
v  -416.6288 229.9541 -0.0487
v  -333.2955 229.9541 -6.3487
v  -416.6288 229.9541 -6.3487
v  -333.2955 114.9541 -6.3487
v  -416.6288 114.9541 -6.3487
v  -333.2955 10.1388 -6.3487
v  -416.6288 10.1388 -6.3487
v  -333.2954 10.1388 -60.0487
v  -416.6288 10.1388 -60.0487
v  -333.2954 -0.0459 -60.0487
v  -416.6288 -0.0459 -60.0487
# 96 vertices

vn 0.5774 -0.5774 -0.5774
vn 0.7071 -0.7071 0.0000
vn 0.0000 -1.0000 -0.0000
vn 0.0000 -0.7071 -0.7071
vn 0.0000 1.0000 -0.0000
vn -0.0000 0.7071 0.7071
vn 0.0000 0.7071 -0.7071
vn -0.5774 -0.5774 -0.5774
vn -0.7071 -0.7071 -0.0000
vn -0.9045 0.3015 -0.3015
vn -0.5774 0.5774 -0.5774
vn -0.0000 0.0000 1.0000
vn -0.0000 -0.0000 1.0000
vn 0.7071 0.0000 0.7071
vn 0.7071 -0.0000 0.7071
vn 0.5774 -0.5774 0.5774
vn 1.0000 0.0000 0.0000
vn -0.7071 0.0000 0.7071
vn -0.5774 0.5774 0.5774
vn -0.7071 -0.0000 -0.7071
vn 0.5774 0.5774 0.5774
vn 0.7071 0.0000 -0.7071
vn 0.5774 0.5774 -0.5774
vn 0.7071 0.7071 0.0000
vn -0.3015 0.3015 -0.9045
vn -0.3015 -0.3015 -0.9045
vn 0.0000 0.0000 -1.0000
vn 0.3015 -0.3015 -0.9045
vn 0.3015 0.3015 -0.9045
vn -0.7071 -0.0000 0.7071
vn -0.0000 -0.7071 0.7071
vn -0.5774 -0.5774 0.5774
vn -0.3015 0.9045 -0.3015
vn 0.0000 -0.0000 -1.0000
# 34 vertex normals

vt 1.0000 0.0000 0.0000
vt 1.0000 0.8950 0.0000
vt 0.0000 0.8950 0.0000
vt 0.0000 0.0000 0.0000
vt 0.3333 0.0000 0.0000
vt 0.6667 0.0000 0.0000
vt 0.3333 0.8950 0.0000
vt 0.6667 0.8950 0.0000
vt 0.6667 1.0000 0.0000
vt 0.3333 1.0000 0.0000
vt 0.6667 0.5000 0.0000
vt 0.3333 0.5000 0.0000
vt 0.8950 0.0000 0.0000
vt 0.8950 0.0450 0.0000
vt 0.0000 0.0450 0.0000
vt 0.0000 0.5000 0.0000
vt 1.0000 0.0450 0.0000
vt 1.0000 0.5000 0.0000
vt 0.1050 0.0000 0.0000
vt 0.1050 0.0450 0.0000
vt 1.0000 1.0000 0.0000
vt 0.8950 1.0000 0.0000
vt 0.8950 0.5000 0.0000
vt 0.0000 1.0000 0.0000
vt 0.1050 1.0000 0.0000
vt 0.1050 0.5000 0.0000
# 26 texture coords

o Shelf002
g Shelf002
usemtl wire_229154215
s 2
f 1/1/1 2/2/2 3/3/3 4/4/4 5/5/4 6/6/4 
s 4
f 7/7/5 8/8/5 9/9/6 10/10/6 
s 8
f 11/5/7 12/6/7 13/11/4 14/12/4 
s 16
f 15/4/8 16/13/9 17/14/10 18/15/11 
s 32
f 19/16/12 20/15/13 21/17/14 22/18/15 
s 64
f 23/4/16 2/19/2 24/20/17 21/15/14 
s 8
f 25/9/4 26/10/4 27/12/7 28/11/7 
s 16
f 29/18/18 30/21/19 31/22/11 32/23/20 
s 32
f 22/18/15 33/21/21 10/9/6 9/10/6 34/24/6 19/16/12 
s 64
f 35/18/22 36/21/23 37/25/24 38/26/17 
s off
f 39/9/7 40/10/7 41/10/4 42/9/4 
f 36/24/23 35/16/22 43/16/25 44/24/26 
f 45/12/27 46/11/27 47/11/7 48/12/7 
f 49/18/20 50/21/11 51/21/28 52/18/29 
f 6/5/4 5/6/4 53/6/7 54/5/7 
f 4/1/4 55/17/25 56/1/29 
f 46/11/27 45/12/27 57/12/4 58/11/4 
f 35/16/22 59/15/22 60/4/25 61/16/26 
f 54/5/7 53/6/7 12/6/7 11/5/7 
f 56/1/29 62/18/28 63/18/1 64/1/23 
f 58/11/4 57/12/4 14/12/4 13/11/4 
f 61/16/26 60/4/25 65/4/11 66/16/8 
f 42/9/4 41/10/4 26/10/4 25/9/4 
f 44/24/26 43/16/25 67/16/11 68/24/8 
f 48/12/7 47/11/7 28/11/7 27/12/7 
f 52/18/29 51/21/28 69/21/1 70/18/23 
s 16
f 71/17/30 29/18/18 32/23/20 17/14/10 
s 32
f 20/15/13 72/4/31 23/1/16 21/17/14 
s 64
f 59/17/22 35/18/22 38/26/17 24/20/17 
s off
f 59/15/22 1/4/1 60/4/25 
f 55/17/25 49/18/20 62/18/28 56/1/29 
s 2
f 2/2/2 23/21/16 72/24/31 3/3/3 
s 4
f 40/5/7 39/6/7 8/8/5 7/7/5 
s 16
f 16/13/9 73/1/32 71/17/30 17/14/10 
s 64
f 2/19/2 1/1/1 59/17/22 24/20/17 
s 16
f 74/22/33 50/24/11 49/16/20 75/23/20 
s 64
f 37/25/24 33/24/21 22/16/15 38/26/17 
s 16
f 75/23/20 49/16/20 55/15/25 76/14/11 
s 64
f 38/26/17 22/16/15 21/15/14 24/20/17 
s off
f 77/1/31 78/1/31 79/13/3 80/13/3 
f 78/1/31 77/1/31 81/17/13 82/17/13 
f 82/17/13 81/17/13 83/18/12 84/18/12 
f 84/18/12 83/18/12 85/21/6 86/21/6 
f 86/21/6 85/21/6 87/22/7 88/22/7 
f 89/23/34 90/23/34 88/22/7 87/22/7 
f 91/14/7 92/14/7 90/23/34 89/23/34 
f 92/14/7 91/14/7 93/15/7 94/15/7 
f 95/4/4 96/4/4 94/15/7 93/15/7 
f 80/13/3 79/13/3 96/4/4 95/4/4 
s 4
f 8/8/5 74/2/33 34/21/6 9/9/6 
f 10/10/6 33/24/21 37/3/24 7/7/5 
s 8
f 12/6/7 64/1/23 63/18/1 13/11/4 
f 14/12/4 66/16/8 65/4/11 11/5/7 
f 26/10/4 68/24/8 67/16/11 27/12/7 
f 28/11/7 70/18/23 69/21/1 25/9/4 
s off
f 40/10/7 36/24/23 44/24/26 41/10/4 
f 42/9/4 51/21/28 50/21/11 39/9/7 
f 46/11/27 49/18/20 52/18/29 47/11/7 
f 48/12/7 43/16/25 35/16/22 45/12/27 
f 5/6/4 4/1/4 56/1/29 53/6/7 
f 54/5/7 60/4/25 1/4/1 6/5/4 
f 45/12/27 35/16/22 61/16/26 57/12/4 
f 58/11/4 62/18/28 49/18/20 46/11/27 
f 53/6/7 56/1/29 64/1/23 12/6/7 
f 11/5/7 65/4/11 60/4/25 54/5/7 
f 57/12/4 61/16/26 66/16/8 14/12/4 
f 13/11/4 63/18/1 62/18/28 58/11/4 
f 41/10/4 44/24/26 68/24/8 26/10/4 
f 25/9/4 69/21/1 51/21/28 42/9/4 
f 47/11/7 52/18/29 70/18/23 28/11/7 
f 27/12/7 67/16/11 43/16/25 48/12/7 
s 4
f 39/6/7 50/1/11 74/2/33 8/8/5 
f 7/7/5 37/3/24 36/4/23 40/5/7 
s off
f 78/1/31 73/1/32 16/13/9 79/13/3 
f 80/13/3 3/13/3 72/1/31 77/1/31 
f 77/1/31 72/1/31 20/17/13 81/17/13 
f 82/17/13 71/17/30 73/1/32 78/1/31 
f 81/17/13 20/17/13 19/18/12 83/18/12 
f 84/18/12 29/18/18 71/17/30 82/17/13 
f 83/18/12 19/18/12 34/21/6 85/21/6 
f 86/21/6 30/21/19 29/18/18 84/18/12 
f 85/21/6 34/21/6 74/22/33 87/22/7 
f 88/22/7 31/22/11 30/21/19 86/21/6 
f 90/23/34 32/23/20 31/22/11 88/22/7 
f 87/22/7 74/22/33 75/23/20 89/23/34 
f 92/14/7 17/14/10 32/23/20 90/23/34 
f 89/23/34 75/23/20 76/14/11 91/14/7 
f 91/14/7 76/14/11 55/15/25 93/15/7 
f 94/15/7 18/15/11 17/14/10 92/14/7 
f 96/4/4 15/4/8 18/15/11 94/15/7 
f 93/15/7 55/15/25 4/4/4 95/4/4 
f 79/13/3 16/13/9 15/4/8 96/4/4 
f 95/4/4 4/4/4 3/13/3 80/13/3 
# 91 polygons - 2 triangles

