# 3ds Max Wavefront OBJ Exporter v0.97b - (c)2007 guruware
# File Created: 01.02.2020 16:47:51

mtllib GroceryShelf002.mtl

#
# object Shelf002
#

v  0.0000 -0.0005 -0.6166
v  0.0000 -0.0005 -0.0652
v  -2.5665 -0.0005 -0.0652
v  -2.5665 -0.0005 -0.6166
v  -1.6882 -0.0005 -0.6166
v  -0.8782 -0.0005 -0.6166
v  -0.8782 2.3611 -0.0652
v  -1.6882 2.3611 -0.0652
v  -1.6882 2.3611 -0.0005
v  -0.8782 2.3611 -0.0005
v  -0.8784 0.1041 -0.0662
v  -1.6881 0.1041 -0.0662
v  -1.6881 1.0774 -0.0662
v  -0.8784 1.0774 -0.0662
v  -5.1334 -0.0005 -0.6166
v  -5.1334 -0.0005 -0.0652
v  -5.1334 0.1041 -0.0652
v  -5.1334 0.1041 -0.6166
v  -2.5665 1.1803 -0.0005
v  -2.5665 0.1041 -0.0005
v  0.0000 0.1041 -0.0005
v  0.0000 1.1803 -0.0005
v  0.0000 -0.0005 -0.0005
v  0.0000 0.1041 -0.0652
v  -1.6881 2.2582 -0.0662
v  -0.8784 2.2582 -0.0662
v  -0.8784 1.2832 -0.0662
v  -1.6881 1.2832 -0.0662
v  -5.1334 1.1803 -0.0005
v  -5.1334 2.3611 -0.0005
v  -5.1334 2.3611 -0.0652
v  -5.1334 1.1803 -0.0652
v  0.0000 2.3611 -0.0005
v  -2.5665 2.3611 -0.0005
v  0.0000 1.1803 -0.6166
v  0.0000 2.3611 -0.6166
v  0.0000 2.3611 -0.0652
v  0.0000 1.1803 -0.0652
v  -1.6882 2.3611 -0.6166
v  -0.8782 2.3611 -0.6166
v  -0.8784 2.2582 -0.6166
v  -1.6881 2.2582 -0.6166
v  -0.1029 1.2832 -0.6166
v  -0.1029 2.2582 -0.6166
v  -0.8782 1.1803 -0.6166
v  -1.6882 1.1803 -0.6166
v  -1.6881 1.2832 -0.6166
v  -0.8784 1.2832 -0.6166
v  -2.5665 1.1803 -0.6166
v  -2.5665 2.3611 -0.6166
v  -2.4636 2.2582 -0.6166
v  -2.4636 1.2832 -0.6166
v  -1.6881 0.1041 -0.6166
v  -0.8784 0.1041 -0.6166
v  -2.5665 0.1041 -0.6166
v  -2.4636 0.1041 -0.6166
v  -0.8784 1.0774 -0.6166
v  -1.6881 1.0774 -0.6166
v  0.0000 0.1041 -0.6166
v  -0.1029 0.1041 -0.6166
v  -0.1029 1.0774 -0.6166
v  -2.4636 1.0774 -0.6166
v  -2.4636 1.0774 -0.0662
v  -2.4636 0.1041 -0.0662
v  -0.1029 0.1041 -0.0662
v  -0.1029 1.0774 -0.0662
v  -0.1029 1.2832 -0.0662
v  -0.1029 2.2582 -0.0662
v  -2.4636 2.2582 -0.0662
v  -2.4636 1.2832 -0.0662
v  -5.1334 0.1041 -0.0005
v  -2.5665 -0.0005 -0.0005
v  -5.1334 -0.0005 -0.0005
v  -2.5665 2.3611 -0.0652
v  -2.5665 1.1803 -0.0652
v  -2.5665 0.1041 -0.0652
v  -3.4221 -0.0005 -0.0005
v  -4.2778 -0.0005 -0.0005
v  -4.2778 -0.0005 -0.0652
v  -3.4221 -0.0005 -0.0652
v  -3.4221 0.1041 -0.0005
v  -4.2778 0.1041 -0.0005
v  -3.4221 1.1803 -0.0005
v  -4.2778 1.1803 -0.0005
v  -3.4221 2.3611 -0.0005
v  -4.2778 2.3611 -0.0005
v  -3.4221 2.3611 -0.0652
v  -4.2778 2.3611 -0.0652
v  -3.4221 1.1803 -0.0652
v  -4.2778 1.1803 -0.0652
v  -3.4221 0.1041 -0.0652
v  -4.2778 0.1041 -0.0652
v  -3.4221 0.1041 -0.6166
v  -4.2778 0.1041 -0.6166
v  -3.4221 -0.0005 -0.6166
v  -4.2778 -0.0005 -0.6166
# 96 vertices

vn 0.5774 -0.5774 -0.5774
vn 0.7071 -0.7071 0.0000
vn 0.0000 -1.0000 -0.0000
vn 0.0000 -0.7071 -0.7071
vn 0.0000 1.0000 -0.0000
vn -0.0000 0.7071 0.7071
vn 0.0000 0.7071 -0.7071
vn -0.5774 -0.5774 -0.5774
vn -0.7071 -0.7071 -0.0000
vn -0.9045 0.3015 -0.3015
vn -0.5774 0.5774 -0.5774
vn -0.0000 0.0000 1.0000
vn 0.7071 0.0000 0.7071
vn 0.7071 -0.0000 0.7071
vn 0.5774 -0.5774 0.5774
vn 1.0000 0.0000 0.0000
vn -0.7071 0.0000 0.7071
vn -0.5774 0.5774 0.5774
vn -0.7071 -0.0000 -0.7071
vn 0.5774 0.5774 0.5774
vn 0.7071 0.0000 -0.7071
vn 0.5774 0.5774 -0.5774
vn 0.7071 0.7071 0.0000
vn -0.3015 0.3015 -0.9045
vn -0.3015 -0.3015 -0.9045
vn 0.0000 0.0000 -1.0000
vn 0.3015 -0.3015 -0.9045
vn 0.3015 0.3015 -0.9045
vn -0.0000 -0.7071 0.7071
vn -0.5774 -0.5774 0.5774
vn -0.3015 0.9045 -0.3015
vn 0.0000 -0.0000 -1.0000
# 32 vertex normals

vt 1.0000 0.0000 0.0000
vt 1.0000 0.8950 0.0000
vt 0.0000 0.8950 0.0000
vt 0.0000 0.0000 0.0000
vt 0.3333 0.0000 0.0000
vt 0.6667 0.0000 0.0000
vt 0.3333 0.8950 0.0000
vt 0.6667 0.8950 0.0000
vt 0.6667 1.0000 0.0000
vt 0.3333 1.0000 0.0000
vt 0.6667 0.5000 0.0000
vt 0.3333 0.5000 0.0000
vt 0.8950 0.0000 0.0000
vt 0.8950 0.0450 0.0000
vt 0.0000 0.0450 0.0000
vt 0.0000 0.5000 0.0000
vt 1.0000 0.0450 0.0000
vt 1.0000 0.5000 0.0000
vt 0.1050 0.0000 0.0000
vt 0.1050 0.0450 0.0000
vt 1.0000 1.0000 0.0000
vt 0.8950 1.0000 0.0000
vt 0.8950 0.5000 0.0000
vt 0.0000 1.0000 0.0000
vt 0.1050 1.0000 0.0000
vt 0.1050 0.5000 0.0000
# 26 texture coords

o Shelf002
g Shelf002
usemtl wire_229154215
s 2
f 1/1/1 2/2/2 3/3/3 4/4/4 5/5/4 6/6/4 
s 4
f 7/7/5 8/8/5 9/9/6 10/10/6 
s 8
f 11/5/7 12/6/7 13/11/4 14/12/4 
s 16
f 15/4/8 16/13/9 17/14/10 18/15/11 
s 32
f 19/16/12 20/15/12 21/17/13 22/18/14 
s 64
f 23/4/15 2/19/2 24/20/16 21/15/13 
s 8
f 25/9/4 26/10/4 27/12/7 28/11/7 
s 16
f 29/18/17 30/21/18 31/22/11 32/23/19 
s 32
f 22/18/14 33/21/20 10/9/6 9/10/6 34/24/6 19/16/12 
s 64
f 35/18/21 36/21/22 37/25/23 38/26/16 
s off
f 39/9/7 40/10/7 41/10/4 42/9/4 
f 36/24/22 35/16/21 43/16/24 44/24/25 
f 45/12/26 46/11/26 47/11/7 48/12/7 
f 49/18/19 50/21/11 51/21/27 52/18/28 
f 6/5/4 5/6/4 53/6/7 54/5/7 
f 4/1/4 55/17/24 56/1/28 
f 46/11/26 45/12/26 57/12/4 58/11/4 
f 35/16/21 59/15/21 60/4/24 61/16/25 
f 54/5/7 53/6/7 12/6/7 11/5/7 
f 56/1/28 62/18/27 63/18/1 64/1/22 
f 58/11/4 57/12/4 14/12/4 13/11/4 
f 61/16/25 60/4/24 65/4/11 66/16/8 
f 42/9/4 41/10/4 26/10/4 25/9/4 
f 44/24/25 43/16/24 67/16/11 68/24/8 
f 48/12/7 47/11/7 28/11/7 27/12/7 
f 52/18/28 51/21/27 69/21/1 70/18/22 
s 16
f 71/17/17 29/18/17 32/23/19 17/14/10 
s 32
f 20/15/12 72/4/29 23/1/15 21/17/13 
s 64
f 59/17/21 35/18/21 38/26/16 24/20/16 
s off
f 59/15/21 1/4/1 60/4/24 
f 55/17/24 49/18/19 62/18/27 56/1/28 
s 2
f 2/2/2 23/21/15 72/24/29 3/3/3 
s 4
f 40/5/7 39/6/7 8/8/5 7/7/5 
s 16
f 16/13/9 73/1/30 71/17/17 17/14/10 
s 64
f 2/19/2 1/1/1 59/17/21 24/20/16 
s 16
f 74/22/31 50/24/11 49/16/19 75/23/19 
s 64
f 37/25/23 33/24/20 22/16/14 38/26/16 
s 16
f 75/23/19 49/16/19 55/15/24 76/14/11 
s 64
f 38/26/16 22/16/14 21/15/13 24/20/16 
s off
f 77/1/29 78/1/29 79/13/3 80/13/3 
f 78/1/29 77/1/29 81/17/12 82/17/12 
f 82/17/12 81/17/12 83/18/12 84/18/12 
f 84/18/12 83/18/12 85/21/6 86/21/6 
f 86/21/6 85/21/6 87/22/7 88/22/7 
f 89/23/32 90/23/32 88/22/7 87/22/7 
f 91/14/7 92/14/7 90/23/32 89/23/32 
f 92/14/7 91/14/7 93/15/7 94/15/7 
f 95/4/4 96/4/4 94/15/7 93/15/7 
f 80/13/3 79/13/3 96/4/4 95/4/4 
s 4
f 8/8/5 74/2/31 34/21/6 9/9/6 
f 10/10/6 33/24/20 37/3/23 7/7/5 
s 8
f 12/6/7 64/1/22 63/18/1 13/11/4 
f 14/12/4 66/16/8 65/4/11 11/5/7 
f 26/10/4 68/24/8 67/16/11 27/12/7 
f 28/11/7 70/18/22 69/21/1 25/9/4 
s off
f 40/10/7 36/24/22 44/24/25 41/10/4 
f 42/9/4 51/21/27 50/21/11 39/9/7 
f 46/11/26 49/18/19 52/18/28 47/11/7 
f 48/12/7 43/16/24 35/16/21 45/12/26 
f 5/6/4 4/1/4 56/1/28 53/6/7 
f 54/5/7 60/4/24 1/4/1 6/5/4 
f 45/12/26 35/16/21 61/16/25 57/12/4 
f 58/11/4 62/18/27 49/18/19 46/11/26 
f 53/6/7 56/1/28 64/1/22 12/6/7 
f 11/5/7 65/4/11 60/4/24 54/5/7 
f 57/12/4 61/16/25 66/16/8 14/12/4 
f 13/11/4 63/18/1 62/18/27 58/11/4 
f 41/10/4 44/24/25 68/24/8 26/10/4 
f 25/9/4 69/21/1 51/21/27 42/9/4 
f 47/11/7 52/18/28 70/18/22 28/11/7 
f 27/12/7 67/16/11 43/16/24 48/12/7 
s 4
f 39/6/7 50/1/11 74/2/31 8/8/5 
f 7/7/5 37/3/23 36/4/22 40/5/7 
s off
f 78/1/29 73/1/30 16/13/9 79/13/3 
f 80/13/3 3/13/3 72/1/29 77/1/29 
f 77/1/29 72/1/29 20/17/12 81/17/12 
f 82/17/12 71/17/17 73/1/30 78/1/29 
f 81/17/12 20/17/12 19/18/12 83/18/12 
f 84/18/12 29/18/17 71/17/17 82/17/12 
f 83/18/12 19/18/12 34/21/6 85/21/6 
f 86/21/6 30/21/18 29/18/17 84/18/12 
f 85/21/6 34/21/6 74/22/31 87/22/7 
f 88/22/7 31/22/11 30/21/18 86/21/6 
f 90/23/32 32/23/19 31/22/11 88/22/7 
f 87/22/7 74/22/31 75/23/19 89/23/32 
f 92/14/7 17/14/10 32/23/19 90/23/32 
f 89/23/32 75/23/19 76/14/11 91/14/7 
f 91/14/7 76/14/11 55/15/24 93/15/7 
f 94/15/7 18/15/11 17/14/10 92/14/7 
f 96/4/4 15/4/8 18/15/11 94/15/7 
f 93/15/7 55/15/24 4/4/4 95/4/4 
f 79/13/3 16/13/9 15/4/8 96/4/4 
f 95/4/4 4/4/4 3/13/3 80/13/3 
# 91 polygons - 2 triangles

