# 3ds Max Wavefront OBJ Exporter v0.97b - (c)2007 guruware
# File Created: 01.02.2020 16:47:33

mtllib GroceryShelf001.mtl

#
# object Shelf001
#

v  -1.7305 0.0000 0.6161
v  -2.5669 0.0000 0.6161
v  -2.5669 0.0000 -0.0000
v  -1.7305 0.0000 -0.0000
v  -1.7305 2.3615 -0.0000
v  -2.5669 2.3615 -0.0000
v  -2.5669 2.3615 0.6161
v  -1.7305 2.3615 0.6161
v  -1.7311 1.0779 0.0657
v  -2.5669 1.0779 0.0657
v  -2.5669 0.1029 0.0657
v  -1.7311 0.1029 0.0657
v  0.0000 0.0000 0.6161
v  0.0000 0.0000 0.0000
v  0.0000 1.1808 0.0000
v  0.0000 1.1808 0.6161
v  -3.4033 1.1808 -0.0000
v  -2.5669 1.1808 -0.0000
v  -3.4033 0.0000 -0.0000
v  -5.1338 0.0000 -0.0000
v  -5.1338 0.0000 0.6161
v  -5.1338 1.1808 0.6161
v  -5.1338 1.1808 -0.0000
v  -3.4026 1.2836 0.0657
v  -2.5669 1.2836 0.0657
v  -2.5669 2.2587 0.0657
v  -3.4026 2.2587 0.0657
v  0.0000 2.3615 0.0000
v  0.0000 2.3615 0.6161
v  -1.7305 1.1808 -0.0000
v  -5.1338 2.3615 0.6161
v  -5.1338 2.3615 -0.0000
v  -3.4026 2.2587 0.6161
v  -2.5669 2.2587 0.6161
v  -3.4033 2.3615 0.6161
v  -5.0309 1.2836 0.6161
v  -5.0309 2.2587 0.6161
v  -1.7311 1.2836 0.6161
v  -2.5669 1.2836 0.6161
v  -2.5669 1.1808 0.6161
v  -1.7305 1.1808 0.6161
v  -0.1029 2.2587 0.6161
v  -0.1029 1.2836 0.6161
v  -1.7311 0.1029 0.6161
v  -2.5669 0.1029 0.6161
v  -0.1029 1.0779 0.6161
v  -0.1029 0.1029 0.6161
v  -3.4026 1.0779 0.6161
v  -2.5669 1.0779 0.6161
v  -3.4033 1.1808 0.6161
v  -5.0309 0.1029 0.6161
v  -5.0309 1.0779 0.6161
v  -0.1029 1.0779 0.0657
v  -0.1029 0.1029 0.0657
v  -3.4026 1.0779 0.0657
v  -5.0309 0.1029 0.0657
v  -5.0309 1.0779 0.0657
v  -5.0309 1.2836 0.0657
v  -5.0309 2.2587 0.0657
v  -1.7311 1.2836 0.0657
v  -0.1029 2.2587 0.0657
v  -0.1029 1.2836 0.0657
v  -4.2393 0.0000 0.6161
v  -4.2393 0.0000 -0.0000
v  -3.4033 0.0000 0.6161
v  -0.8946 0.0000 -0.0000
v  -0.8946 0.0000 0.6161
v  -4.2393 2.3615 -0.0000
v  -4.2393 2.3615 0.6161
v  -3.4033 2.3615 -0.0000
v  -0.8946 2.3615 0.6161
v  -0.8946 2.3615 -0.0000
v  -4.2387 1.0779 0.0657
v  -4.2387 0.1029 0.0657
v  -3.4026 0.1029 0.0657
v  -0.8949 0.1029 0.0657
v  -0.8949 1.0779 0.0657
v  -0.8946 1.1808 -0.0000
v  -4.2393 1.1808 -0.0000
v  -0.8949 1.2836 0.0657
v  -0.8949 2.2587 0.0657
v  -1.7311 2.2587 0.0657
v  -4.2387 2.2587 0.0657
v  -4.2387 1.2836 0.0657
v  -0.8949 2.2587 0.6161
v  -1.7311 2.2587 0.6161
v  -4.2387 2.2587 0.6161
v  -4.2387 1.2836 0.6161
v  -4.2393 1.1808 0.6161
v  -3.4026 1.2836 0.6161
v  -0.8946 1.1808 0.6161
v  -0.8949 1.2836 0.6161
v  -4.2387 0.1029 0.6161
v  -3.4026 0.1029 0.6161
v  -0.8949 0.1029 0.6161
v  -0.8949 1.0779 0.6161
v  -1.7311 1.0779 0.6161
v  -4.2387 1.0779 0.6161
# 98 vertices

vn -0.0000 -0.7071 0.7071
vn 0.0000 -0.7071 -0.7071
vn 0.0000 0.7071 -0.7071
vn -0.0000 0.7071 0.7071
vn 0.5774 -0.5774 0.5774
vn 0.5774 -0.5774 -0.5774
vn 0.7071 0.0000 -0.7071
vn 0.7071 0.0000 0.7071
vn 0.0000 0.0000 -1.0000
vn -0.5774 -0.5774 -0.5774
vn -0.5774 -0.5774 0.5774
vn -0.7071 0.0000 0.7071
vn -0.7071 0.0000 -0.7071
vn 0.5774 0.5774 -0.5774
vn 0.5774 0.5774 0.5774
vn -0.5774 0.5774 0.5774
vn -0.5774 0.5774 -0.5774
vn 0.3015 0.3015 0.9045
vn 0.3015 -0.3015 0.9045
vn -0.0000 0.0000 1.0000
vn -0.3015 -0.3015 0.9045
vn -0.3015 0.3015 0.9045
# 22 vertex normals

vt 0.3333 0.0000 0.0000
vt 0.5000 0.0000 0.0000
vt 0.5000 1.0000 0.0000
vt 0.3333 1.0000 0.0000
vt 0.6667 1.0000 0.0000
vt 0.6667 0.0000 0.0000
vt 0.6667 0.5000 0.0000
vt 0.5000 0.5000 0.0000
vt 0.0000 0.0000 0.0000
vt 1.0000 0.0000 0.0000
vt 1.0000 0.5000 0.0000
vt 0.0000 0.5000 0.0000
vt 0.3333 0.5000 0.0000
vt 1.0000 1.0000 0.0000
vt 0.0000 1.0000 0.0000
vt 0.8333 0.0000 0.0000
vt 0.8333 1.0000 0.0000
vt 0.1667 1.0000 0.0000
vt 0.1667 0.0000 0.0000
vt 0.1667 0.5000 0.0000
vt 0.8333 0.5000 0.0000
# 21 texture coords

o Shelf001
g Shelf001
usemtl wire_229154215
s 2
f 1/1/1 2/2/1 3/3/2 4/4/2 
s 4
f 5/5/3 6/3/3 7/2/4 8/6/4 
s 8
f 9/7/1 10/8/1 11/2/4 12/6/4 
s 16
f 13/9/5 14/10/6 15/11/7 16/12/8 
s 32
f 17/7/9 18/8/9 3/2/2 19/6/2 
s 64
f 20/9/10 21/10/11 22/11/12 23/12/13 
s 8
f 24/13/4 25/8/4 26/3/1 27/4/1 
s 16
f 15/11/7 28/14/14 29/15/15 16/12/8 
s 32
f 30/13/9 18/8/9 6/3/3 5/4/3 
s 64
f 22/11/12 31/14/16 32/15/17 23/12/13 
s off
f 33/4/1 34/3/1 7/3/4 35/4/4 
f 31/15/16 22/12/12 36/12/18 37/15/19 
f 38/7/4 39/8/4 40/8/20 41/7/20 
f 16/11/8 29/14/15 42/14/21 43/11/22 
f 44/6/4 45/2/4 2/2/1 1/6/1 
f 13/10/5 16/11/8 46/11/21 47/10/22 
f 48/13/1 49/8/1 40/8/20 50/13/20 
f 22/12/12 21/9/11 51/9/18 52/12/19 
f 12/6/4 11/2/4 45/2/4 44/6/4 
f 47/10/22 46/11/21 53/11/11 54/10/16 
f 55/13/1 10/8/1 49/8/1 48/13/1 
f 52/12/19 51/9/18 56/9/15 57/12/5 
f 27/4/1 26/3/1 34/3/1 33/4/1 
f 37/15/19 36/12/18 58/12/15 59/15/5 
f 60/7/4 25/8/4 39/8/4 38/7/4 
f 43/11/22 42/14/21 61/14/11 62/11/16 
s 2
f 63/16/1 21/10/11 20/14/10 64/17/2 
f 65/6/1 63/16/1 64/17/2 19/5/2 
f 2/2/1 65/6/1 19/5/2 3/3/2 
f 66/18/2 14/15/6 13/9/5 67/19/1 
f 4/4/2 66/18/2 67/19/1 1/1/1 
s 4
f 68/18/3 32/15/17 31/9/16 69/19/4 
f 70/4/3 68/18/3 69/19/4 35/1/4 
f 6/3/3 70/4/3 35/1/4 7/2/4 
f 71/16/4 29/10/15 28/14/14 72/17/3 
f 8/6/4 71/16/4 72/17/3 5/5/3 
s 8
f 73/20/1 57/12/5 56/9/15 74/19/4 
f 55/13/1 73/20/1 74/19/4 75/1/4 
f 10/8/1 55/13/1 75/1/4 11/2/4 
f 76/16/4 54/10/16 53/11/11 77/21/1 
f 12/6/4 76/16/4 77/21/1 9/7/1 
s 32
f 78/20/9 15/12/7 14/9/6 66/19/2 
f 30/13/9 78/20/9 66/19/2 4/1/2 
f 18/8/9 30/13/9 4/1/2 3/2/2 
f 64/16/2 20/10/10 23/11/13 79/21/9 
f 19/6/2 64/16/2 79/21/9 17/7/9 
s 8
f 80/21/4 62/11/16 61/14/11 81/17/1 
f 60/7/4 80/21/4 81/17/1 82/5/1 
f 25/8/4 60/7/4 82/5/1 26/3/1 
f 83/18/1 59/15/5 58/12/15 84/20/4 
f 27/4/1 83/18/1 84/20/4 24/13/4 
s 32
f 79/21/9 23/11/13 32/14/17 68/17/3 
f 17/7/9 79/21/9 68/17/3 70/5/3 
f 18/8/9 17/7/9 70/5/3 6/3/3 
f 72/18/3 28/15/14 15/12/7 78/20/9 
f 5/4/3 72/18/3 78/20/9 30/13/9 
s off
f 85/17/1 42/14/21 29/14/15 71/17/4 
f 86/5/1 85/17/1 71/17/4 8/5/4 
f 34/3/1 86/5/1 8/5/4 7/3/4 
f 69/18/4 31/15/16 37/15/19 87/18/1 
f 35/4/4 69/18/4 87/18/1 33/4/1 
f 88/20/4 36/12/18 22/12/12 89/20/20 
f 90/13/4 88/20/4 89/20/20 50/13/20 
f 39/8/4 90/13/4 50/13/20 40/8/20 
f 91/21/20 16/11/8 43/11/22 92/21/4 
f 41/7/20 91/21/20 92/21/4 38/7/4 
f 93/19/4 51/9/18 21/9/11 63/19/1 
f 94/1/4 93/19/4 63/19/1 65/1/1 
f 45/2/4 94/1/4 65/1/1 2/2/1 
f 67/16/1 13/10/5 47/10/22 95/16/4 
f 1/6/1 67/16/1 95/16/4 44/6/4 
f 96/21/1 46/11/21 16/11/8 91/21/20 
f 97/7/1 96/21/1 91/21/20 41/7/20 
f 49/8/1 97/7/1 41/7/20 40/8/20 
f 89/20/20 22/12/12 52/12/19 98/20/1 
f 50/13/20 89/20/20 98/20/1 48/13/1 
f 74/19/4 56/9/15 51/9/18 93/19/4 
f 75/1/4 74/19/4 93/19/4 94/1/4 
f 11/2/4 75/1/4 94/1/4 45/2/4 
f 95/16/4 47/10/22 54/10/16 76/16/4 
f 44/6/4 95/16/4 76/16/4 12/6/4 
f 77/21/1 53/11/11 46/11/21 96/21/1 
f 9/7/1 77/21/1 96/21/1 97/7/1 
f 10/8/1 9/7/1 97/7/1 49/8/1 
f 98/20/1 52/12/19 57/12/5 73/20/1 
f 48/13/1 98/20/1 73/20/1 55/13/1 
f 81/17/1 61/14/11 42/14/21 85/17/1 
f 82/5/1 81/17/1 85/17/1 86/5/1 
f 26/3/1 82/5/1 86/5/1 34/3/1 
f 87/18/1 37/15/19 59/15/5 83/18/1 
f 33/4/1 87/18/1 83/18/1 27/4/1 
f 84/20/4 58/12/15 36/12/18 88/20/4 
f 24/13/4 84/20/4 88/20/4 90/13/4 
f 25/8/4 24/13/4 90/13/4 39/8/4 
f 92/21/4 43/11/22 62/11/16 80/21/4 
f 38/7/4 92/21/4 80/21/4 60/7/4 
# 96 polygons

