# 3ds Max Wavefront OBJ Exporter v0.97b - (c)2007 guruware
# File Created: 01.02.2020 16:43:14

mtllib Ham.mtl

#
# object Ham
#

v  0.1199 0.0894 0.3119
v  0.0376 0.0894 0.3460
v  -0.0448 0.0894 0.3119
v  -0.0789 0.0894 0.2295
v  -0.0448 0.0894 0.1471
v  0.0376 0.0894 0.1130
v  0.1199 0.0894 0.1471
v  0.1541 0.0894 0.2295
v  0.4504 0.0894 0.2295
v  0.3295 0.0894 -0.0624
v  0.2902 0.2858 -0.0231
v  0.3949 0.2858 0.2295
v  0.0376 0.0894 -0.1833
v  0.0376 0.2858 -0.1278
v  -0.2543 0.0894 -0.0624
v  -0.2150 0.2858 -0.0231
v  -0.3752 0.0894 0.2295
v  -0.3197 0.2858 0.2295
v  -0.2543 0.0894 0.5214
v  -0.2150 0.2858 0.4821
v  0.0376 0.0894 0.6423
v  0.0376 0.2858 0.5868
v  0.3295 0.0894 0.5214
v  0.2902 0.2858 0.4821
v  0.1299 0.6241 0.3218
v  0.1682 0.6241 0.2295
v  0.1299 0.6241 0.1372
v  0.0376 0.6241 0.0989
v  -0.0547 0.6241 0.1372
v  -0.0930 0.6241 0.2295
v  -0.0547 0.6241 0.3218
v  0.0376 0.6241 0.3601
v  0.2252 0.4904 0.0419
v  0.3029 0.4904 0.2295
v  0.0376 0.4904 -0.0358
v  -0.1500 0.4904 0.0419
v  -0.2277 0.4904 0.2295
v  -0.1500 0.4904 0.4171
v  0.0376 0.4904 0.4948
v  0.2252 0.4904 0.4171
v  0.4226 0.0894 0.2295
v  0.3098 0.0894 -0.0427
v  0.3098 0.0894 0.5017
v  0.0376 0.0894 0.6145
v  -0.2346 0.0894 0.5017
v  -0.3474 0.0894 0.2295
v  -0.2346 0.0894 -0.0427
v  0.0376 0.0894 -0.1555
v  0.1013 0.6218 0.2295
v  0.0826 0.6218 0.1844
v  0.0637 0.6466 0.2034
v  0.0745 0.6466 0.2295
v  0.0376 0.6218 0.1658
v  0.0376 0.6466 0.1926
v  -0.0075 0.6218 0.1844
v  0.0115 0.6466 0.2034
v  -0.0261 0.6218 0.2295
v  0.0007 0.6466 0.2295
v  -0.0075 0.6218 0.2746
v  0.0115 0.6466 0.2556
v  0.0376 0.6218 0.2932
v  0.0376 0.6466 0.2664
v  0.0826 0.6218 0.2746
v  0.0637 0.6466 0.2556
v  -0.0731 0.9045 0.2531
v  -0.0564 0.9212 0.2629
v  -0.0397 0.9379 0.2531
v  -0.0328 0.9448 0.2295
v  -0.0397 0.9379 0.2059
v  -0.0564 0.9212 0.1961
v  -0.0731 0.9045 0.2059
v  -0.0800 0.8976 0.2295
v  -0.0155 0.8358 0.1980
v  -0.0247 0.8265 0.2295
v  -0.0743 0.8559 0.2295
v  -0.0621 0.8681 0.1878
v  0.0068 0.8581 0.1849
v  -0.0327 0.8975 0.1706
v  0.0291 0.8804 0.1980
v  -0.0032 0.9270 0.1878
v  0.0387 0.8896 0.2295
v  0.0090 0.9392 0.2295
v  0.0291 0.8804 0.2610
v  -0.0032 0.9270 0.2711
v  0.0068 0.8581 0.2741
v  -0.0327 0.8975 0.2884
v  -0.0155 0.8358 0.2610
v  -0.0621 0.8681 0.2711
v  0.1505 0.9045 0.2531
v  0.1574 0.8976 0.2295
v  0.1505 0.9045 0.2059
v  0.1338 0.9212 0.1961
v  0.1171 0.9379 0.2059
v  0.1101 0.9448 0.2295
v  0.1171 0.9379 0.2531
v  0.1338 0.9212 0.2629
v  0.0929 0.8358 0.1980
v  0.1395 0.8681 0.1878
v  0.1517 0.8559 0.2295
v  0.1021 0.8265 0.2295
v  0.0706 0.8581 0.1849
v  0.1101 0.8975 0.1706
v  0.0483 0.8804 0.1980
v  0.0806 0.9270 0.1878
v  0.0684 0.9392 0.2295
v  0.0483 0.8804 0.2610
v  0.0806 0.9270 0.2711
v  0.0706 0.8581 0.2741
v  0.1101 0.8975 0.2884
v  0.0929 0.8358 0.2610
v  0.1395 0.8681 0.2711
v  0.0573 0.8497 0.2098
v  0.0655 0.8497 0.2295
v  0.0376 0.8497 0.2016
v  0.0178 0.8497 0.2098
v  0.0097 0.8497 0.2295
v  0.0178 0.8497 0.2492
v  0.0376 0.8497 0.2574
v  0.0573 0.8497 0.2492
# 119 vertices

vn -0.0000 -1.0000 -0.0000
vn 0.0000 -1.0000 -0.0000
vn 0.8514 -0.5245 -0.0000
vn 0.6021 -0.5245 -0.6021
vn 0.6659 0.3363 -0.6659
vn 0.9418 0.3363 0.0000
vn -0.0000 -0.5245 -0.8514
vn -0.0000 0.3363 -0.9418
vn -0.6021 -0.5245 -0.6021
vn -0.6659 0.3363 -0.6659
vn -0.8514 -0.5245 -0.0000
vn -0.9418 0.3363 0.0000
vn -0.6021 -0.5245 0.6021
vn -0.6659 0.3363 0.6659
vn 0.0000 -0.5245 0.8514
vn 0.0000 0.3363 0.9418
vn 0.6021 -0.5245 0.6021
vn 0.6659 0.3363 0.6659
vn 0.3224 0.8900 0.3224
vn 0.4560 0.8900 0.0000
vn 0.3224 0.8900 -0.3224
vn -0.0000 0.8900 -0.4560
vn -0.3224 0.8900 -0.3224
vn -0.4560 0.8900 0.0000
vn -0.3224 0.8900 0.3224
vn -0.0000 0.8900 0.4560
vn 0.5908 0.5494 -0.5908
vn 0.8355 0.5494 0.0000
vn -0.0000 0.5494 -0.8355
vn -0.5908 0.5494 -0.5908
vn -0.8355 0.5494 0.0000
vn -0.5908 0.5494 0.5908
vn -0.0000 0.5494 0.8355
vn 0.5908 0.5494 0.5908
vn 0.6798 0.7334 -0.0000
vn 0.4807 0.7334 -0.4807
vn 0.6277 0.4603 -0.6277
vn 0.8878 0.4603 0.0000
vn -0.0000 0.7334 -0.6798
vn -0.0000 0.4603 -0.8878
vn -0.4807 0.7334 -0.4807
vn -0.6277 0.4603 -0.6277
vn -0.6798 0.7334 0.0000
vn -0.8878 0.4603 -0.0000
vn -0.4807 0.7334 0.4807
vn -0.6277 0.4603 0.6277
vn 0.0000 0.7334 0.6798
vn -0.0000 0.4603 0.8878
vn 0.4807 0.7334 0.4807
vn 0.6277 0.4603 0.6277
vn -0.8643 0.3402 0.3706
vn -0.6022 0.6022 0.5241
vn -0.3402 0.8643 0.3706
vn -0.2316 0.9728 0.0000
vn -0.3402 0.8643 -0.3706
vn -0.6022 0.6022 -0.5241
vn -0.8643 0.3402 -0.3706
vn -0.9728 0.2316 -0.0000
vn -0.1732 -0.7707 -0.6132
vn -0.2924 -0.9563 -0.0000
vn -0.8231 -0.5679 -0.0000
vn -0.6194 -0.3642 -0.6955
vn 0.0926 -0.2152 -0.9722
vn -0.1276 0.1276 -0.9836
vn 0.3440 0.5624 -0.7519
vn 0.3642 0.6194 -0.6955
vn -0.0000 1.0000 -0.0000
vn 0.5657 0.8246 0.0000
vn 0.3440 0.5624 0.7519
vn 0.3642 0.6194 0.6955
vn 0.0926 -0.2152 0.9722
vn -0.1276 0.1276 0.9836
vn -0.1732 -0.7707 0.6132
vn -0.6194 -0.3642 0.6955
vn 0.8643 0.3402 0.3706
vn 0.9728 0.2316 -0.0000
vn 0.8643 0.3402 -0.3706
vn 0.6022 0.6022 -0.5241
vn 0.3402 0.8643 -0.3706
vn 0.2316 0.9728 0.0000
vn 0.3402 0.8643 0.3706
vn 0.6022 0.6022 0.5241
vn 0.1732 -0.7707 -0.6132
vn 0.6194 -0.3642 -0.6955
vn 0.8231 -0.5679 -0.0000
vn 0.2924 -0.9563 -0.0000
vn -0.0926 -0.2152 -0.9722
vn 0.1276 0.1276 -0.9836
vn -0.3440 0.5624 -0.7519
vn -0.3642 0.6194 -0.6955
vn -0.5657 0.8246 -0.0000
vn -0.3440 0.5624 0.7519
vn -0.3642 0.6194 0.6955
vn -0.0926 -0.2152 0.9722
vn 0.1276 0.1276 0.9836
vn 0.1732 -0.7707 0.6132
vn 0.6194 -0.3642 0.6955
vn 0.7064 0.0442 -0.7064
vn 0.9990 0.0442 -0.0000
vn -0.0000 0.0442 -0.9990
vn -0.7064 0.0442 -0.7064
vn -0.9990 0.0442 0.0000
vn -0.7064 0.0442 0.7064
vn -0.0000 0.0442 0.9990
vn 0.7064 0.0442 0.7064
# 105 vertex normals

vt 0.6250 0.0000 1.0000
vt 0.5000 0.0000 1.0000
vt 0.3750 0.0000 1.0000
vt 0.2500 0.0000 1.0000
vt 0.1250 0.0000 1.0000
vt 0.0000 0.0000 1.0000
vt -0.1250 0.0000 1.0000
vt 0.1161 0.0000 0.4142
vt 0.7500 0.0000 1.0000
vt 0.8750 0.0000 1.0000
vt 0.8750 0.5000 1.0000
vt 0.7500 0.5000 1.0000
vt 0.0000 0.5000 1.0000
vt -0.1250 0.5000 1.0000
vt 0.1250 0.5000 1.0000
vt 0.2500 0.5000 1.0000
vt 0.3750 0.5000 1.0000
vt 0.5000 0.5000 1.0000
vt 0.6250 0.5000 1.0000
vt 0.6250 1.0000 1.0000
vt 0.7500 1.0000 1.0000
vt 0.8750 1.0000 1.0000
vt 0.7803 1.0000 0.4142
vt 0.5214 1.0000 -0.4142
vt 0.2500 1.0000 -1.0000
vt 0.1250 1.0000 -1.0000
vt 0.2197 1.0000 -0.4142
vt 0.8750 0.7500 1.0000
vt 0.7500 0.7500 1.0000
vt 0.0000 0.7500 1.0000
vt -0.1250 0.7500 1.0000
vt 0.1250 0.7500 1.0000
vt 0.2500 0.7500 1.0000
vt 0.3750 0.7500 1.0000
vt 0.5000 0.7500 1.0000
vt 0.6250 0.7500 1.0000
vt 0.0000 1.0000 1.0000
vt -0.1250 1.0000 1.0000
vt 0.1250 1.0000 1.0000
vt 0.2500 1.0000 1.0000
vt 0.3750 1.0000 1.0000
vt 0.5000 1.0000 1.0000
vt 0.8750 0.2500 1.0000
vt 0.7500 0.2500 1.0000
vt 0.0000 0.2500 1.0000
vt -0.1250 0.2500 1.0000
vt 0.1250 0.2500 1.0000
vt 0.2500 0.2500 1.0000
vt 0.3750 0.2500 1.0000
vt 0.5000 0.2500 1.0000
vt 0.6250 0.2500 1.0000
# 51 texture coords

o Ham
g Ham
usemtl wire_115115115
s 1
f 1/1/1 2/2/1 3/3/2 4/4/2 5/5/1 6/6/2 7/7/2 8/8/2 
s 2
f 9/9/3 10/10/4 11/11/5 12/12/6 
f 10/7/4 13/6/7 14/13/8 11/14/5 
f 13/6/7 15/5/9 16/15/10 14/13/8 
f 15/5/9 17/4/11 18/16/12 16/15/10 
f 17/4/11 19/3/13 20/17/14 18/16/12 
f 19/3/13 21/2/15 22/18/16 20/17/14 
f 21/2/15 23/1/17 24/19/18 22/18/16 
f 23/1/17 9/9/3 12/12/6 24/19/18 
s 1
f 25/20/19 26/21/20 27/22/21 28/23/22 29/24/23 30/25/24 31/26/25 32/27/26 
s 2
f 11/11/5 33/28/27 34/29/28 12/12/6 
f 14/13/8 35/30/29 33/31/27 11/14/5 
f 16/15/10 36/32/30 35/30/29 14/13/8 
f 18/16/12 37/33/31 36/32/30 16/15/10 
f 20/17/14 38/34/32 37/33/31 18/16/12 
f 22/18/16 39/35/33 38/34/32 20/17/14 
f 24/19/18 40/36/34 39/35/33 22/18/16 
f 12/12/6 34/29/28 40/36/34 24/19/18 
f 33/28/27 27/22/21 26/21/20 34/29/28 
f 35/30/29 28/37/22 27/38/21 33/31/27 
f 36/32/30 29/39/23 28/37/22 35/30/29 
f 37/33/31 30/40/24 29/39/23 36/32/30 
f 38/34/32 31/41/25 30/40/24 37/33/31 
f 39/35/33 32/42/26 31/41/25 38/34/32 
f 40/36/34 25/20/19 32/42/26 39/35/33 
f 34/29/28 26/21/20 25/20/19 40/36/34 
s 1
f 10/7/4 9/8/3 41/8/2 42/7/1 
f 9/8/3 23/1/17 43/1/2 41/8/2 
f 23/1/17 21/2/15 44/2/1 43/1/2 
f 21/2/15 19/3/13 45/3/1 44/2/1 
f 19/3/13 17/4/11 46/4/1 45/3/1 
f 17/4/11 15/5/9 47/5/2 46/4/1 
f 15/5/9 13/6/7 48/6/2 47/5/2 
f 13/6/7 10/7/4 42/7/1 48/6/2 
f 41/8/2 8/8/2 7/7/2 42/7/1 
f 43/1/2 1/1/1 8/8/2 41/8/2 
f 44/2/1 2/2/1 1/1/1 43/1/2 
f 45/3/1 3/3/2 2/2/1 44/2/1 
f 46/4/1 4/4/2 3/3/2 45/3/1 
f 47/5/2 5/5/1 4/4/2 46/4/1 
f 48/6/2 6/6/2 5/5/1 47/5/2 
f 42/7/1 7/7/2 6/6/2 48/6/2 
f 49/9/35 50/10/36 51/43/37 52/44/38 
f 50/7/36 53/6/39 54/45/40 51/46/37 
f 53/6/39 55/5/41 56/47/42 54/45/40 
f 55/5/41 57/4/43 58/48/44 56/47/42 
f 57/4/43 59/3/45 60/49/46 58/48/44 
f 59/3/45 61/2/47 62/50/48 60/49/46 
f 61/2/47 63/1/49 64/51/50 62/50/48 
f 63/1/49 49/9/35 52/44/38 64/51/50 
f 65/20/51 66/27/52 67/26/53 68/25/54 69/24/55 70/23/56 71/22/57 72/21/58 
f 73/11/59 74/12/60 75/21/61 76/22/62 
f 77/13/63 73/14/59 76/38/62 78/37/64 
f 79/15/65 77/13/63 78/37/64 80/39/66 
f 81/16/67 79/15/65 80/39/66 82/40/68 
f 83/17/69 81/16/67 82/40/68 84/41/70 
f 85/18/71 83/17/69 84/41/70 86/42/72 
f 87/19/73 85/18/71 86/42/72 88/20/74 
f 74/12/60 87/19/73 88/20/74 75/21/61 
s 2
f 75/21/61 72/21/58 71/22/57 76/22/62 
f 76/22/62 71/22/57 70/23/56 78/23/64 
f 78/23/64 70/23/56 69/24/55 80/24/66 
f 80/24/66 69/24/55 68/25/54 82/25/68 
f 82/25/68 68/25/54 67/26/53 84/26/70 
f 84/26/70 67/26/53 66/27/52 86/27/72 
f 86/27/72 66/27/52 65/20/51 88/20/74 
f 88/20/74 65/20/51 72/21/58 75/21/61 
s 1
f 89/20/75 90/21/76 91/22/77 92/23/78 93/24/79 94/25/80 95/26/81 96/27/82 
f 97/11/83 98/22/84 99/21/85 100/12/86 
f 101/13/87 102/37/88 98/38/84 97/14/83 
f 103/15/89 104/39/90 102/37/88 101/13/87 
f 81/16/67 105/40/91 104/39/90 103/15/89 
f 106/17/92 107/41/93 105/40/91 81/16/67 
f 108/18/94 109/42/95 107/41/93 106/17/92 
f 110/19/96 111/20/97 109/42/95 108/18/94 
f 100/12/86 99/21/85 111/20/97 110/19/96 
s 2
f 99/21/85 98/22/84 91/22/77 90/21/76 
f 98/22/84 102/23/88 92/23/78 91/22/77 
f 102/23/88 104/24/90 93/24/79 92/23/78 
f 104/24/90 105/25/91 94/25/80 93/24/79 
f 105/25/91 107/26/93 95/26/81 94/25/80 
f 107/26/93 109/27/95 96/27/82 95/26/81 
f 109/27/95 111/20/97 89/20/75 96/27/82 
f 111/20/97 99/21/85 90/21/76 89/20/75 
s 1
f 81/26/67 103/25/89 79/26/65 
f 101/24/87 77/25/63 79/26/65 103/25/89 
f 97/23/83 73/24/59 77/25/63 101/24/87 
f 100/38/86 74/23/60 73/24/59 97/23/83 
f 110/22/96 87/12/73 74/23/60 100/38/86 
f 108/21/94 85/20/71 87/12/73 110/22/96 
f 106/27/92 83/27/69 85/20/71 108/21/94 
f 81/26/67 83/27/69 106/27/92 
f 51/43/37 112/11/98 113/12/99 52/44/38 
f 54/45/40 114/13/100 112/14/98 51/46/37 
f 56/47/42 115/15/101 114/13/100 54/45/40 
f 58/48/44 116/16/102 115/15/101 56/47/42 
f 60/49/46 117/17/103 116/16/102 58/48/44 
f 62/50/48 118/18/104 117/17/103 60/49/46 
f 64/51/50 119/19/105 118/18/104 62/50/48 
f 52/44/38 113/12/99 119/19/105 64/51/50 
# 98 polygons - 2 triangles

