# 3ds Max Wavefront OBJ Exporter v0.97b - (c)2007 guruware
# File Created: 02.02.2020 09:10:02

mtllib HotdogBun.mtl

#
# object HotdogBun
#

v  -0.0257 0.0482 0.2350
v  -0.0193 0.0417 0.1175
v  -0.0052 0.0804 0.1175
v  -0.0145 0.0791 0.2350
v  -0.1369 0.0886 0.2350
v  -0.1256 0.1195 0.2350
v  -0.1319 0.1265 0.1175
v  -0.1460 0.0878 0.1175
v  -0.0681 0.1047 0.2776
v  -0.0793 0.0740 0.2776
v  -0.0189 0.0941 0.2289
v  -0.0096 0.0953 0.1204
v  -0.0565 0.1366 0.1388
v  -0.0644 0.1149 0.2665
v  -0.0145 0.0791 -0.2350
v  -0.0257 0.0482 -0.2350
v  -0.0793 0.0740 -0.2776
v  -0.0681 0.1047 -0.2776
v  -0.0381 0.0438 -0.2285
v  -0.0315 0.0375 -0.1207
v  -0.0819 0.0667 -0.1388
v  -0.0824 0.0653 -0.2662
v  -0.0128 0.0352 -0.0000
v  -0.0193 0.0417 -0.1175
v  -0.0052 0.0804 -0.1175
v  0.0041 0.0817 -0.0000
v  -0.1382 0.1335 -0.0000
v  -0.1319 0.1265 -0.1175
v  -0.1460 0.0878 -0.1175
v  -0.1551 0.0870 -0.0000
v  -0.0008 0.0967 -0.0000
v  -0.0096 0.0953 -0.1204
v  -0.0565 0.1366 -0.1388
v  -0.0547 0.1415 -0.0000
v  -0.0255 0.0311 -0.0000
v  -0.0315 0.0375 0.1207
v  -0.0819 0.0667 0.1388
v  -0.0835 0.0624 -0.0000
v  -0.1248 0.1418 -0.0000
v  -0.1189 0.1351 0.1204
v  -0.1369 0.0886 -0.2350
v  -0.1256 0.1195 -0.2350
v  -0.1480 0.0756 -0.0000
v  -0.1392 0.0767 -0.1207
v  -0.0644 0.1149 -0.2665
v  -0.1125 0.1282 -0.2289
v  -0.1189 0.1351 -0.1204
v  -0.0824 0.0653 0.2662
v  -0.1302 0.0773 0.2285
v  -0.1392 0.0767 0.1207
v  -0.0189 0.0941 -0.2289
v  -0.0381 0.0438 0.2285
v  -0.1125 0.1282 0.2289
v  -0.1302 0.0773 -0.2285
v  -0.0277 0.0203 0.2350
v  -0.0305 -0.0041 0.2350
v  -0.0226 -0.0092 0.1175
v  -0.0191 0.0234 0.1175
v  -0.1455 0.0306 0.2350
v  -0.1534 0.0352 0.1175
v  -0.1570 0.0026 0.1175
v  -0.1484 0.0063 0.2350
v  -0.0871 0.0195 0.2776
v  -0.0899 -0.0046 0.2776
v  -0.0409 -0.0158 0.2289
v  -0.0909 -0.0155 0.2665
v  -0.0929 -0.0291 0.1388
v  -0.0330 -0.0209 0.1204
v  -0.0305 -0.0041 -0.2350
v  -0.0899 -0.0046 -0.2776
v  -0.0871 0.0195 -0.2776
v  -0.0277 0.0203 -0.2350
v  -0.0370 0.0295 -0.2285
v  -0.0863 0.0287 -0.2662
v  -0.0864 0.0273 -0.1388
v  -0.0284 0.0324 -0.1207
v  -0.0105 0.0266 -0.0000
v  -0.0148 -0.0143 -0.0000
v  -0.0226 -0.0092 -0.1175
v  -0.0191 0.0234 -0.1175
v  -0.1657 -0.0011 -0.0000
v  -0.1613 0.0398 -0.0000
v  -0.1534 0.0352 -0.1175
v  -0.1570 0.0026 -0.1175
v  -0.0256 -0.0258 -0.0000
v  -0.0933 -0.0343 -0.0000
v  -0.0929 -0.0291 -0.1388
v  -0.0330 -0.0209 -0.1204
v  -0.0203 0.0357 -0.0000
v  -0.0860 0.0318 -0.0000
v  -0.0864 0.0273 0.1388
v  -0.0284 0.0324 0.1207
v  -0.1488 -0.0107 0.1204
v  -0.1570 -0.0143 -0.0000
v  -0.1484 0.0063 -0.2350
v  -0.1455 0.0306 -0.2350
v  -0.1426 0.0424 -0.1207
v  -0.1501 0.0471 -0.0000
v  -0.0909 -0.0155 -0.2665
v  -0.1488 -0.0107 -0.1204
v  -0.1402 -0.0071 -0.2289
v  -0.0863 0.0287 0.2662
v  -0.1426 0.0424 0.1207
v  -0.1347 0.0380 0.2285
v  -0.0409 -0.0158 -0.2289
v  -0.0370 0.0295 0.2285
v  -0.1402 -0.0071 0.2289
v  -0.1347 0.0380 -0.2285
# 108 vertices

vn 0.5883 -0.6653 0.4596
vn 0.7030 -0.7069 0.0777
vn 0.9962 -0.0376 0.0785
vn 0.8877 0.0114 0.4603
vn -0.8783 -0.1315 0.4596
vn -0.6727 0.5793 0.4603
vn -0.7873 0.6116 0.0785
vn -0.9929 -0.0896 0.0777
vn 0.1226 0.3369 0.9335
vn -0.1237 -0.3397 0.9324
vn 0.7422 0.6240 0.2446
vn 0.8491 0.5232 0.0734
vn 0.3396 0.9331 0.1184
vn 0.2888 0.7935 0.5357
vn 0.8877 0.0114 -0.4603
vn 0.5883 -0.6653 -0.4596
vn -0.1237 -0.3397 -0.9324
vn 0.1226 0.3369 -0.9335
vn -0.0556 -0.9775 -0.2036
vn -0.0859 -0.9950 -0.0513
vn -0.3420 -0.9397 -0.0064
vn -0.3056 -0.8395 -0.4492
vn 0.6951 -0.7189 -0.0000
vn 0.7030 -0.7069 -0.0777
vn 0.9962 -0.0376 -0.0785
vn 0.9999 -0.0134 -0.0000
vn -0.7746 0.6325 -0.0000
vn -0.7873 0.6116 -0.0785
vn -0.9929 -0.0896 -0.0777
vn -0.9946 -0.1039 -0.0000
vn 0.8298 0.5580 -0.0000
vn 0.8491 0.5232 -0.0734
vn 0.3396 0.9331 -0.1184
vn 0.3420 0.9397 0.0000
vn -0.0770 -0.9970 -0.0000
vn -0.0859 -0.9950 0.0513
vn -0.3420 -0.9397 0.0064
vn -0.3420 -0.9397 0.0000
vn -0.2770 0.9609 -0.0000
vn -0.3141 0.9465 0.0734
vn -0.8783 -0.1315 -0.4596
vn -0.6727 0.5793 -0.4603
vn -0.5819 -0.8133 -0.0000
vn -0.5738 -0.8174 -0.0513
vn 0.2888 0.7935 -0.5357
vn -0.1675 0.9551 -0.2446
vn -0.3141 0.9465 -0.0734
vn -0.3056 -0.8395 0.4492
vn -0.5857 -0.7845 0.2036
vn -0.5738 -0.8174 0.0513
vn 0.7422 0.6240 -0.2446
vn -0.0556 -0.9775 0.2036
vn -0.1675 0.9551 0.2446
vn -0.5857 -0.7845 -0.2036
vn 0.8195 0.3423 0.4597
vn 0.7938 -0.3976 0.4602
vn 0.9143 -0.3972 0.0786
vn 0.9397 0.3331 0.0777
vn -0.7331 0.5014 0.4595
vn -0.8563 0.5105 0.0777
vn -0.9744 -0.2106 0.0783
vn -0.8580 -0.2278 0.4604
vn 0.0393 0.3593 0.9324
vn -0.0373 -0.3565 0.9336
vn 0.4090 -0.8792 0.2446
vn -0.0745 -0.8535 0.5157
vn -0.0910 -0.9928 0.0784
vn 0.4843 -0.8720 0.0708
vn 0.7938 -0.3976 -0.4602
vn -0.0373 -0.3565 -0.9336
vn 0.0393 0.3593 -0.9324
vn 0.8195 0.3423 -0.4597
vn 0.3627 0.9094 -0.2036
vn 0.0779 0.8900 -0.4492
vn 0.0872 0.9962 -0.0064
vn 0.3427 0.9381 -0.0513
vn 0.9369 0.3496 -0.0000
vn 0.9083 -0.4184 -0.0000
vn 0.9143 -0.3972 -0.0786
vn 0.9397 0.3331 -0.0777
vn -0.9714 -0.2374 -0.0000
vn -0.8529 0.5220 -0.0000
vn -0.8563 0.5105 -0.0777
vn -0.9744 -0.2106 -0.0783
vn 0.4603 -0.8878 -0.0000
vn -0.0897 -0.9960 0.0000
vn -0.0910 -0.9928 -0.0784
vn 0.4843 -0.8720 -0.0708
vn 0.3516 0.9362 -0.0000
vn 0.0872 0.9962 -0.0000
vn 0.0872 0.9962 0.0064
vn 0.3427 0.9381 0.0513
vn -0.6309 -0.7726 0.0709
vn -0.6094 -0.7928 -0.0000
vn -0.8580 -0.2278 -0.4604
vn -0.7331 0.5014 -0.4595
vn -0.1746 0.9833 -0.0513
vn -0.1837 0.9830 -0.0000
vn -0.0745 -0.8535 -0.5157
vn -0.6309 -0.7726 -0.0709
vn -0.5554 -0.7948 -0.2446
vn 0.0779 0.8900 0.4492
vn -0.1746 0.9833 0.0513
vn -0.1993 0.9586 0.2036
vn 0.4090 -0.8792 -0.2446
vn 0.3627 0.9094 0.2036
vn -0.5554 -0.7948 0.2446
vn -0.1993 0.9586 -0.2036
# 108 vertex normals

vt 0.6611 0.6344 0.0000
vt 0.6814 0.6560 0.0000
vt 0.6841 0.6537 0.0000
vt 0.6633 0.6325 0.0000
vt 0.6397 0.6523 0.0000
vt 0.6419 0.6505 0.0000
vt 0.6597 0.6742 0.0000
vt 0.6570 0.6764 0.0000
vt 0.6461 0.6330 0.0000
vt 0.6439 0.6348 0.0000
vt 0.6634 0.6344 0.0000
vt 0.6828 0.6538 0.0000
vt 0.6708 0.6579 0.0000
vt 0.6486 0.6345 0.0000
vt 0.7393 0.7231 0.0000
vt 0.7371 0.7249 0.0000
vt 0.7337 0.7418 0.0000
vt 0.7359 0.7400 0.0000
vt 0.2342 0.5995 0.0000
vt 0.2162 0.5791 0.0000
vt 0.2104 0.5913 0.0000
vt 0.2330 0.6140 0.0000
vt 0.7016 0.6775 0.0000
vt 0.7194 0.7012 0.0000
vt 0.7221 0.6990 0.0000
vt 0.7049 0.6748 0.0000
vt 0.6775 0.6978 0.0000
vt 0.6977 0.7194 0.0000
vt 0.6950 0.7217 0.0000
vt 0.6742 0.7006 0.0000
vt 0.7039 0.6756 0.0000
vt 0.7217 0.7002 0.0000
vt 0.7157 0.7114 0.0000
vt 0.6936 0.6843 0.0000
vt 0.1958 0.5566 0.0000
vt 0.1732 0.5362 0.0000
vt 0.1611 0.5419 0.0000
vt 0.1855 0.5669 0.0000
vt 0.6801 0.6957 0.0000
vt 0.6617 0.6715 0.0000
vt 0.7157 0.7429 0.0000
vt 0.7179 0.7411 0.0000
vt 0.1740 0.5784 0.0000
vt 0.1970 0.5983 0.0000
vt 0.7348 0.7372 0.0000
vt 0.7194 0.7378 0.0000
vt 0.7007 0.7179 0.0000
vt 0.1383 0.5194 0.0000
vt 0.1365 0.5345 0.0000
vt 0.1541 0.5553 0.0000
vt 0.7375 0.7227 0.0000
vt 0.1529 0.5182 0.0000
vt 0.6454 0.6496 0.0000
vt 0.6968 0.7213 0.0000
vt 0.7160 0.7406 0.0000
vt 0.7313 0.7401 0.0000
vt 0.7108 0.7155 0.0000
vt 0.1539 0.5148 0.0000
vt 0.1760 0.5346 0.0000
vt 0.2178 0.6182 0.0000
vt 0.2178 0.6158 0.0000
vt 0.1952 0.5989 0.0000
vt 0.1342 0.5346 0.0000
vt 0.1368 0.5167 0.0000
vt 0.2375 0.5984 0.0000
vt 0.2356 0.6155 0.0000
vt 0.1980 0.5543 0.0000
vt 0.2178 0.5764 0.0000
vt 0.1727 0.5796 0.0000
vt 0.1534 0.5571 0.0000
vt 0.6608 0.6347 0.0000
vt 0.6602 0.6351 0.0000
vt 0.6807 0.6565 0.0000
vt 0.6814 0.6559 0.0000
vt 0.6381 0.6537 0.0000
vt 0.6555 0.6776 0.0000
vt 0.6548 0.6782 0.0000
vt 0.6375 0.6542 0.0000
vt 0.6424 0.6361 0.0000
vt 0.6419 0.6365 0.0000
vt 0.6592 0.6380 0.0000
vt 0.6435 0.6388 0.0000
vt 0.6638 0.6638 0.0000
vt 0.6783 0.6576 0.0000
vt 0.7362 0.7257 0.0000
vt 0.7317 0.7435 0.0000
vt 0.7322 0.7431 0.0000
vt 0.7368 0.7252 0.0000
vt 0.2344 0.5993 0.0000
vt 0.2323 0.6147 0.0000
vt 0.2096 0.5921 0.0000
vt 0.2167 0.5786 0.0000
vt 0.7021 0.6772 0.0000
vt 0.7013 0.6779 0.0000
vt 0.7187 0.7018 0.0000
vt 0.6722 0.7023 0.0000
vt 0.6730 0.7016 0.0000
vt 0.6935 0.7229 0.0000
vt 0.6928 0.7235 0.0000
vt 0.6992 0.6796 0.0000
vt 0.6861 0.6906 0.0000
vt 0.7086 0.7173 0.0000
vt 0.7172 0.7040 0.0000
vt 0.1967 0.5556 0.0000
vt 0.1850 0.5673 0.0000
vt 0.1603 0.5427 0.0000
vt 0.1738 0.5356 0.0000
vt 0.6559 0.6763 0.0000
vt 0.6738 0.7009 0.0000
vt 0.7135 0.7448 0.0000
vt 0.7141 0.7443 0.0000
vt 0.1964 0.5989 0.0000
vt 0.1736 0.5787 0.0000
vt 0.7297 0.7415 0.0000
vt 0.6949 0.7228 0.0000
vt 0.7141 0.7423 0.0000
vt 0.1376 0.5200 0.0000
vt 0.1535 0.5559 0.0000
vt 0.1357 0.5353 0.0000
vt 0.7332 0.7262 0.0000
vt 0.1531 0.5180 0.0000
vt 0.6401 0.6540 0.0000
vt 0.2170 0.6166 0.0000
vt 0.1536 0.5152 0.0000
vt 0.1760 0.5345 0.0000
vt 0.2162 0.6197 0.0000
vt 0.1939 0.6002 0.0000
vt 0.1326 0.5361 0.0000
vt 0.1354 0.5181 0.0000
vt 0.2372 0.5988 0.0000
vt 0.2342 0.6169 0.0000
vt 0.1985 0.5539 0.0000
vt 0.2178 0.5763 0.0000
vt 0.1716 0.5807 0.0000
vt 0.1521 0.5584 0.0000
# 135 texture coords

o HotdogBun
g HotdogBun
usemtl Material__47
s 1
f 1/1/1 2/2/2 3/3/3 4/4/4 
f 5/5/5 6/6/6 7/7/7 8/8/8 
s 2
f 1/1/1 4/4/4 9/9/9 10/10/10 
s 1
f 11/11/11 12/12/12 13/13/13 14/14/14 
s 2
f 15/15/15 16/16/16 17/17/17 18/18/18 
s 1
f 19/19/19 20/20/20 21/21/21 22/22/22 
f 23/23/23 24/24/24 25/25/25 26/26/26 
f 27/27/27 28/28/28 29/29/29 30/30/30 
f 31/31/31 32/32/32 33/33/33 34/34/34 
f 35/35/35 36/36/36 37/37/37 38/38/38 
s 4
f 9/9/9 6/6/6 5/5/5 10/10/10 
s 2
f 34/34/34 39/39/39 40/40/40 13/13/13 
s 4
f 17/17/17 41/41/41 42/42/42 18/18/18 
s 1
f 38/38/38 43/43/43 44/44/44 21/21/21 
s 2
f 45/45/45 46/46/46 47/47/47 33/33/33 
s 1
f 48/48/48 49/49/49 50/50/50 37/37/37 
f 2/2/2 23/23/23 26/26/26 3/3/3 
f 7/7/7 27/27/27 30/30/30 8/8/8 
f 12/12/12 31/31/31 34/34/34 13/13/13 
f 20/20/20 35/35/35 38/38/38 21/21/21 
f 24/24/24 16/16/16 15/15/15 25/25/25 
f 28/28/28 42/42/42 41/41/41 29/29/29 
f 32/32/32 51/51/51 45/45/45 33/33/33 
f 36/36/36 52/52/52 48/48/48 37/37/37 
s 2
f 40/40/40 53/53/53 14/14/14 13/13/13 
s 1
f 44/54/44 54/55/54 22/56/22 21/57/21 
s 2
f 47/47/47 39/39/39 34/34/34 33/33/33 
s 1
f 50/50/50 43/43/43 38/38/38 37/37/37 
s 4
f 1/58/1 52/52/52 36/36/36 2/59/2 
f 15/15/15 51/51/51 32/32/32 25/25/25 
s 8
f 6/6/6 53/53/53 40/40/40 7/7/7 
s 2
f 41/60/41 54/61/54 44/44/44 29/62/29 
s 8
f 4/4/4 11/11/11 14/14/14 9/9/9 
f 5/63/5 49/49/49 48/48/48 10/64/10 
f 51/51/51 15/15/15 18/18/18 45/45/45 
f 16/65/16 19/19/19 22/22/22 17/66/17 
s 4
f 23/67/23 35/35/35 20/20/20 24/68/24 
f 26/26/26 31/31/31 12/12/12 3/3/3 
s 8
f 27/27/27 39/39/39 47/47/47 28/28/28 
s 2
f 30/69/30 43/43/43 50/50/50 8/70/8 
s 16
f 9/9/9 14/14/14 53/53/53 6/6/6 
f 10/64/10 48/48/48 52/52/52 1/58/1 
f 45/45/45 18/18/18 42/42/42 46/46/46 
f 17/66/17 22/22/22 54/61/54 41/60/41 
s 4
f 2/59/2 36/36/36 35/35/35 23/67/23 
f 25/25/25 32/32/32 31/31/31 26/26/26 
s 8
f 7/7/7 40/40/40 39/39/39 27/27/27 
s 2
f 29/62/29 44/44/44 43/43/43 30/69/30 
s 4
f 24/68/24 20/20/20 19/19/19 16/65/16 
f 3/3/3 12/12/12 11/11/11 4/4/4 
s 8
f 28/28/28 47/47/47 46/46/46 42/42/42 
s 2
f 8/70/8 50/50/50 49/49/49 5/63/5 
s 1
f 55/71/55 56/72/56 57/73/57 58/74/58 
f 59/75/59 60/76/60 61/77/61 62/78/62 
s 2
f 55/71/55 63/79/63 64/80/64 56/72/56 
s 1
f 65/81/65 66/82/66 67/83/67 68/84/68 
s 2
f 69/85/69 70/86/70 71/87/71 72/88/72 
s 1
f 73/89/73 74/90/74 75/91/75 76/92/76 
f 77/93/77 78/94/78 79/95/79 80/24/80 
f 81/96/81 82/97/82 83/98/83 84/99/84 
f 85/100/85 86/101/86 87/102/87 88/103/88 
f 89/104/89 90/105/90 91/106/91 92/107/92 
s 4
f 64/80/64 63/79/63 59/75/59 62/78/62 
s 2
f 86/101/86 67/83/67 93/108/93 94/109/94 
s 4
f 71/87/71 70/86/70 95/110/95 96/111/96 
s 1
f 90/105/90 75/91/75 97/112/97 98/113/98 
s 2
f 99/114/99 87/102/87 100/115/100 101/116/101 
s 1
f 102/117/102 91/106/91 103/118/103 104/119/104 
f 58/74/58 57/73/57 78/94/78 77/93/77 
f 61/77/61 60/76/60 82/97/82 81/96/81 
f 68/84/68 67/83/67 86/101/86 85/100/85 
f 76/92/76 75/91/75 90/105/90 89/104/89 
f 80/24/80 79/95/79 69/85/69 72/88/72 
f 84/99/84 83/98/83 96/111/96 95/110/95 
f 88/103/88 87/102/87 99/114/99 105/120/105 
f 92/107/92 91/106/91 102/117/102 106/121/106 
s 2
f 93/108/93 67/83/67 66/82/66 107/122/107 
s 1
f 97/112/97 75/91/75 74/90/74 108/123/108 
s 2
f 100/115/100 87/102/87 86/101/86 94/109/94 
s 1
f 103/118/103 91/106/91 90/105/90 98/113/98 
s 4
f 55/124/55 58/125/58 92/107/92 106/121/106 
f 69/85/69 79/95/79 88/103/88 105/120/105 
s 8
f 62/78/62 61/77/61 93/108/93 107/122/107 
s 2
f 96/126/96 83/127/83 97/112/97 108/123/108 
s 8
f 56/72/56 64/80/64 66/82/66 65/81/65 
f 59/128/59 63/129/63 102/117/102 104/119/104 
f 105/120/105 99/114/99 70/86/70 69/85/69 
f 72/130/72 71/131/71 74/90/74 73/89/73 
s 4
f 77/132/77 80/133/80 76/92/76 89/104/89 
f 78/94/78 57/73/57 68/84/68 85/100/85 
s 8
f 81/96/81 84/99/84 100/115/100 94/109/94 
s 2
f 82/134/82 60/135/60 103/118/103 98/113/98 
s 16
f 64/80/64 62/78/62 107/122/107 66/82/66 
f 63/129/63 55/124/55 106/121/106 102/117/102 
f 99/114/99 101/116/101 95/110/95 70/86/70 
f 71/131/71 96/126/96 108/123/108 74/90/74 
s 4
f 58/125/58 77/132/77 89/104/89 92/107/92 
f 79/95/79 78/94/78 85/100/85 88/103/88 
s 8
f 61/77/61 81/96/81 94/109/94 93/108/93 
s 2
f 83/127/83 82/134/82 98/113/98 97/112/97 
s 4
f 80/133/80 72/130/72 73/89/73 76/92/76 
f 57/73/57 56/72/56 65/81/65 68/84/68 
s 8
f 84/99/84 95/110/95 101/116/101 100/115/100 
s 2
f 60/135/60 59/128/59 104/119/104 103/118/103 
# 104 polygons

