# 3ds Max Wavefront OBJ Exporter v0.97b - (c)2007 guruware
# File Created: 02.02.2020 07:39:10

mtllib LoafBread_brown.mtl

#
# object Breadloaf_brown
#

v  -0.0926 -0.1294 0.2497
v  -0.0926 -0.1294 -0.0000
v  -0.0527 -0.1294 -0.0000
v  -0.0527 -0.1294 0.2497
v  -0.0935 0.1066 0.2497
v  -0.0527 0.1231 0.2497
v  -0.0527 0.1231 -0.0000
v  -0.0935 0.1066 -0.0000
v  -0.0886 -0.1111 0.2528
v  -0.0526 -0.1111 0.2528
v  -0.0466 0.0245 0.2528
v  -0.0777 0.0263 0.2528
v  0.1044 -0.1166 0.2497
v  0.1044 -0.1166 -0.0000
v  0.0933 0.0245 -0.0000
v  0.0933 0.0245 0.2497
v  0.0886 -0.1111 -0.2528
v  0.0526 -0.1111 -0.2528
v  0.0466 0.0245 -0.2528
v  0.0777 0.0263 -0.2528
v  -0.1044 -0.1166 -0.2497
v  -0.1044 -0.1166 -0.0000
v  -0.0933 0.0245 -0.0000
v  -0.0933 0.0245 -0.2497
v  0.0777 0.0263 0.2528
v  0.0901 0.0655 0.2528
v  0.0527 0.0632 0.2528
v  0.0466 0.0245 0.2528
v  0.0933 0.0245 -0.2497
v  0.1054 0.0632 -0.2497
v  0.1054 0.0632 -0.0000
v  -0.0777 0.0263 -0.2528
v  -0.0901 0.0655 -0.2528
v  -0.0527 0.0632 -0.2528
v  -0.0466 0.0245 -0.2528
v  -0.0933 0.0245 0.2497
v  -0.1054 0.0632 0.2497
v  -0.1054 0.0632 -0.0000
v  -0.0000 -0.1294 -0.2497
v  0.0527 -0.1294 -0.2497
v  0.0527 -0.1294 -0.0000
v  -0.0000 -0.1294 -0.0000
v  -0.0000 0.1294 0.2497
v  0.0527 0.1218 0.2497
v  0.0527 0.1218 -0.0000
v  -0.0000 0.1294 -0.0000
v  0.0526 -0.1111 0.2528
v  -0.0000 0.0245 0.2528
v  -0.0000 -0.1111 0.2528
v  -0.0526 -0.1111 -0.2528
v  -0.0000 0.0245 -0.2528
v  -0.0000 -0.1111 -0.2528
v  -0.0002 0.1139 0.2528
v  -0.0489 0.1081 0.2528
v  -0.0527 0.0632 0.2528
v  -0.0000 0.0632 0.2528
v  -0.0002 0.1139 -0.2528
v  0.0488 0.1068 -0.2528
v  0.0527 0.0632 -0.2528
v  -0.0000 0.0632 -0.2528
v  -0.0527 -0.1294 -0.2497
v  0.0488 0.1068 0.2528
v  -0.0489 0.1081 -0.2528
v  0.0926 -0.1294 -0.2497
v  0.0926 -0.1294 -0.0000
v  0.0934 0.1063 0.2497
v  0.0934 0.1063 -0.0000
v  0.0886 -0.1111 0.2528
v  -0.0886 -0.1111 -0.2528
v  -0.0834 0.0941 0.2528
v  0.0835 0.0936 -0.2528
v  0.0901 0.0841 0.2528
v  0.1054 0.0889 -0.2497
v  0.1054 0.0889 -0.0000
v  -0.0901 0.0842 -0.2528
v  -0.1054 0.0889 0.2497
v  -0.1054 0.0889 -0.0000
v  -0.0901 0.0655 0.2528
v  0.0901 0.0655 -0.2528
v  0.1054 0.0889 0.2497
v  -0.0935 0.1066 -0.2497
v  -0.1054 0.0889 -0.2497
v  -0.0834 0.0941 -0.2528
v  0.0901 0.0841 -0.2528
v  -0.0901 0.0842 0.2528
v  0.0835 0.0936 0.2528
v  -0.1044 -0.1166 0.2497
v  0.1044 -0.1166 -0.2497
v  0.0527 -0.1262 0.2528
v  0.0913 -0.1265 0.2528
v  0.0859 -0.1140 0.2528
v  0.0527 -0.1140 0.2528
v  0.1014 -0.1155 0.2528
v  0.0902 0.0248 0.2528
v  0.1023 0.0637 0.2528
v  0.1024 0.0880 0.2528
v  0.0915 0.1038 0.2528
v  0.0519 0.1188 0.2528
v  -0.0000 0.1262 0.2528
v  -0.0519 0.1200 0.2528
v  -0.0916 0.1041 0.2528
v  -0.1024 0.0880 0.2528
v  -0.1023 0.0637 0.2528
v  -0.0902 0.0248 0.2528
v  -0.1015 -0.1155 0.2528
v  -0.0913 -0.1265 0.2528
v  -0.0859 -0.1140 0.2528
v  -0.0527 -0.1262 0.2528
v  -0.0527 -0.1140 0.2528
v  -0.0000 -0.1262 0.2528
v  -0.0000 -0.1140 0.2528
v  -0.0527 -0.1262 -0.2528
v  -0.0913 -0.1265 -0.2528
v  -0.0859 -0.1140 -0.2528
v  -0.0527 -0.1140 -0.2528
v  -0.1015 -0.1155 -0.2528
v  -0.0902 0.0248 -0.2528
v  -0.1023 0.0637 -0.2528
v  -0.1024 0.0880 -0.2528
v  -0.0916 0.1041 -0.2528
v  -0.0519 0.1200 -0.2528
v  -0.0000 0.1262 -0.2528
v  0.0519 0.1188 -0.2528
v  0.0915 0.1038 -0.2528
v  0.1024 0.0880 -0.2528
v  0.1023 0.0637 -0.2528
v  0.0902 0.0248 -0.2528
v  0.1014 -0.1155 -0.2528
v  0.0913 -0.1265 -0.2528
v  0.0859 -0.1140 -0.2528
v  0.0527 -0.1262 -0.2528
v  0.0527 -0.1140 -0.2528
v  -0.0000 -0.1262 -0.2528
v  -0.0000 -0.1140 -0.2528
v  -0.0926 -0.1294 -0.2497
v  0.0527 -0.1294 0.2497
v  0.0926 -0.1294 0.2497
v  0.0527 0.1218 -0.2497
v  0.0934 0.1063 -0.2497
v  0.1054 0.0632 0.2497
v  -0.1054 0.0632 -0.2497
v  -0.0000 -0.1294 0.2497
v  -0.0527 0.1231 -0.2497
v  -0.0000 0.1294 -0.2497
# 144 vertices

vn -0.3751 -0.8576 0.3519
vn -0.4008 -0.9162 -0.0000
vn 0.0000 -1.0000 -0.0000
vn 0.0000 -0.9239 0.3826
vn -0.5876 0.7249 0.3596
vn -0.2310 0.8991 0.3717
vn -0.2489 0.9685 -0.0000
vn -0.6297 0.7768 0.0000
vn -0.0000 0.0000 1.0000
vn -0.0000 -0.0000 1.0000
vn 0.8844 -0.3066 0.3519
vn 0.9448 -0.3275 -0.0000
vn 0.9937 -0.1123 -0.0000
vn 0.9107 -0.1029 0.4001
vn -0.0000 -0.0000 -1.0000
vn -0.0000 0.0000 -1.0000
vn -0.8844 -0.3066 -0.3519
vn -0.9448 -0.3275 -0.0000
vn -0.9937 -0.1123 -0.0000
vn -0.9106 -0.1029 -0.4002
vn 0.9107 -0.1030 -0.4001
vn 0.9182 -0.1406 -0.3703
vn 0.9885 -0.1513 0.0000
vn 0.0000 0.0000 -1.0000
vn -0.9107 -0.1030 0.4001
vn -0.9182 -0.1406 0.3702
vn -0.9885 -0.1513 0.0000
vn -0.0000 -0.9239 -0.3827
vn 0.0111 0.9282 0.3719
vn 0.2321 0.8981 0.3735
vn 0.2502 0.9682 -0.0000
vn 0.0119 0.9999 0.0000
vn 0.0000 -0.0000 1.0000
vn 0.0000 0.0000 1.0000
vn 0.0000 -0.0000 -1.0000
vn 0.0000 -0.9239 -0.3826
vn 0.3752 -0.8576 -0.3519
vn 0.4008 -0.9162 0.0000
vn 0.5762 0.7341 0.3592
vn 0.6174 0.7866 -0.0000
vn 0.8911 0.2774 -0.3592
vn 0.9548 0.2972 0.0000
vn -0.8924 0.2727 0.3596
vn -0.9564 0.2922 0.0000
vn 0.8911 0.2774 0.3592
vn -0.5876 0.7249 -0.3596
vn -0.8924 0.2727 -0.3596
vn -0.8844 -0.3066 0.3519
vn 0.8844 -0.3066 -0.3519
vn -0.0013 -0.3820 0.9242
vn 0.1833 -0.4240 0.8869
vn 0.4362 -0.1508 0.8871
vn 0.3394 -0.0381 0.9399
vn 0.4080 -0.0633 0.9108
vn 0.4225 0.1303 0.8969
vn 0.2723 0.3482 0.8970
vn 0.1008 0.3922 0.9143
vn 0.0049 0.4091 0.9125
vn -0.1013 0.3967 0.9123
vn -0.2772 0.3430 0.8975
vn -0.4222 0.1279 0.8974
vn -0.4080 -0.0633 0.9108
vn -0.3394 -0.0381 0.9399
vn -0.4362 -0.1508 0.8871
vn -0.1833 -0.4240 0.8869
vn 0.0013 -0.3820 0.9242
vn 0.0000 -0.3827 0.9239
vn 0.0013 -0.3820 -0.9242
vn -0.1833 -0.4240 -0.8869
vn -0.4362 -0.1508 -0.8871
vn -0.3393 -0.0380 -0.9399
vn -0.4081 -0.0633 -0.9108
vn -0.4222 0.1279 -0.8974
vn -0.2772 0.3430 -0.8975
vn -0.1013 0.3967 -0.9123
vn 0.0049 0.4091 -0.9125
vn 0.1008 0.3922 -0.9144
vn 0.2723 0.3482 -0.8970
vn 0.4225 0.1303 -0.8969
vn 0.4080 -0.0633 -0.9108
vn 0.3394 -0.0380 -0.9399
vn 0.4362 -0.1508 -0.8871
vn 0.1833 -0.4240 -0.8869
vn -0.0013 -0.3819 -0.9242
vn 0.0000 -0.3827 -0.9239
vn -0.3751 -0.8576 -0.3519
vn -0.0000 -0.9239 0.3826
vn 0.3751 -0.8576 0.3519
vn 0.2321 0.8981 -0.3735
vn 0.5762 0.7341 -0.3592
vn 0.9182 -0.1406 0.3702
vn -0.9183 -0.1406 -0.3702
vn 0.0000 -0.9239 0.3827
vn -0.2310 0.8991 -0.3717
vn 0.0111 0.9282 -0.3719
# 95 vertex normals

vt 0.6692 0.8770 0.0000
vt 0.6692 0.8551 0.0000
vt 0.6775 0.8551 0.0000
vt 0.6775 0.8770 0.0000
vt 0.7083 0.8770 0.0000
vt 0.6997 0.8770 0.0000
vt 0.6997 0.8551 0.0000
vt 0.7083 0.8551 0.0000
vt 0.6477 0.6335 0.0000
vt 0.6639 0.6335 0.0000
vt 0.6666 0.6944 0.0000
vt 0.6526 0.6952 0.0000
vt 0.7106 0.8754 0.0000
vt 0.6886 0.8754 0.0000
vt 0.6886 0.8551 0.0000
vt 0.7106 0.8551 0.0000
vt 0.7273 0.6335 0.0000
vt 0.7112 0.6335 0.0000
vt 0.7085 0.6944 0.0000
vt 0.7225 0.6952 0.0000
vt 0.7280 0.7129 0.0000
vt 0.7112 0.7118 0.0000
vt 0.6667 0.8551 0.0000
vt 0.6667 0.8440 0.0000
vt 0.6886 0.8440 0.0000
vt 0.6471 0.7129 0.0000
vt 0.6638 0.7118 0.0000
vt 0.6886 0.8332 0.0000
vt 0.6997 0.8332 0.0000
vt 0.6886 0.8770 0.0000
vt 0.6875 0.6944 0.0000
vt 0.6875 0.6335 0.0000
vt 0.6874 0.7346 0.0000
vt 0.6656 0.7320 0.0000
vt 0.6875 0.7118 0.0000
vt 0.7095 0.7315 0.0000
vt 0.6775 0.8332 0.0000
vt 0.7081 0.8332 0.0000
vt 0.7081 0.8551 0.0000
vt 0.6690 0.8770 0.0000
vt 0.6690 0.8551 0.0000
vt 0.6500 0.7257 0.0000
vt 0.7251 0.7255 0.0000
vt 0.7280 0.7213 0.0000
vt 0.6667 0.8366 0.0000
vt 0.6886 0.8366 0.0000
vt 0.6471 0.7213 0.0000
vt 0.7106 0.8338 0.0000
vt 0.7106 0.8366 0.0000
vt 0.6886 0.8338 0.0000
vt 0.6667 0.8753 0.0000
vt 0.6667 0.8754 0.0000
vt 0.6886 0.8753 0.0000
vt 0.6775 0.8773 0.0000
vt 0.6692 0.8773 0.0000
vt 0.6665 0.8754 0.0000
vt 0.6665 0.8551 0.0000
vt 0.6665 0.8440 0.0000
vt 0.6665 0.8366 0.0000
vt 0.6690 0.8329 0.0000
vt 0.6775 0.8329 0.0000
vt 0.6886 0.8329 0.0000
vt 0.6997 0.8329 0.0000
vt 0.7083 0.8329 0.0000
vt 0.7108 0.8366 0.0000
vt 0.7108 0.8440 0.0000
vt 0.7108 0.8551 0.0000
vt 0.7108 0.8754 0.0000
vt 0.7081 0.8773 0.0000
vt 0.6997 0.8773 0.0000
vt 0.6886 0.8773 0.0000
vt 0.6489 0.6322 0.0000
vt 0.6638 0.6322 0.0000
vt 0.6875 0.6322 0.0000
vt 0.7112 0.6322 0.0000
vt 0.7261 0.6322 0.0000
vt 0.6775 0.8202 0.0000
vt 0.6692 0.8332 0.0000
vt 0.6694 0.8213 0.0000
vt 0.6997 0.8900 0.0000
vt 0.7081 0.8770 0.0000
vt 0.7079 0.8889 0.0000
vt 0.6998 0.8883 0.0000
vt 0.7082 0.8879 0.0000
vt 0.6775 0.8217 0.0000
vt 0.6690 0.8332 0.0000
vt 0.6692 0.8221 0.0000
vt 0.7161 0.8753 0.0000
vt 0.7165 0.8550 0.0000
vt 0.6467 0.8369 0.0000
vt 0.6460 0.8439 0.0000
vt 0.6608 0.8550 0.0000
vt 0.6611 0.8753 0.0000
vt 0.7297 0.8553 0.0000
vt 0.7106 0.8440 0.0000
vt 0.7298 0.8441 0.0000
vt 0.6475 0.8441 0.0000
vt 0.6476 0.8553 0.0000
vt 0.6997 0.8202 0.0000
vt 0.6886 0.8202 0.0000
vt 0.6775 0.8900 0.0000
vt 0.6886 0.8900 0.0000
vt 0.6776 0.8897 0.0000
vt 0.6886 0.8896 0.0000
vt 0.6996 0.8205 0.0000
vt 0.6887 0.8205 0.0000
vt 0.6887 0.8897 0.0000
vt 0.6996 0.8897 0.0000
vt 0.6886 0.8205 0.0000
vt 0.6776 0.8205 0.0000
vt 0.7079 0.8213 0.0000
vt 0.6694 0.8889 0.0000
vt 0.6692 0.8880 0.0000
vt 0.6775 0.8885 0.0000
vt 0.7082 0.8223 0.0000
vt 0.7083 0.8332 0.0000
vt 0.6998 0.8219 0.0000
vt 0.7313 0.8439 0.0000
vt 0.7306 0.8369 0.0000
vt 0.6623 0.8339 0.0000
vt 0.6667 0.8338 0.0000
vt 0.6623 0.8365 0.0000
vt 0.7150 0.8365 0.0000
vt 0.7150 0.8340 0.0000
vt 0.7150 0.8339 0.0000
vt 0.6623 0.8340 0.0000
vt 0.6756 0.8754 0.0000
vt 0.6756 0.8753 0.0000
vt 0.7017 0.8753 0.0000
vt 0.7106 0.8753 0.0000
vt 0.7017 0.8754 0.0000
# 131 texture coords

o Breadloaf_brown
g Breadloaf_brown
usemtl Material__47
s 1
f 1/1/1 2/2/2 3/3/3 4/4/4 
f 5/5/5 6/6/6 7/7/7 8/8/8 
f 9/9/9 10/10/10 11/11/9 12/12/10 
f 13/13/11 14/14/12 15/15/13 16/16/14 
f 17/17/15 18/18/15 19/19/16 20/20/16 
f 21/13/17 22/14/18 23/15/19 24/16/20 
f 25/20/10 26/21/10 27/22/10 28/19/10 
f 29/23/21 30/24/22 31/25/23 15/15/13 
f 32/12/16 33/26/24 34/27/24 35/11/24 
f 36/23/25 37/24/26 38/25/27 23/15/19 
f 39/28/28 40/29/28 41/7/3 42/15/3 
f 43/30/29 44/4/30 45/3/31 46/15/32 
f 47/18/33 28/19/10 48/31/34 49/32/34 
f 50/10/15 35/11/24 51/31/24 52/32/24 
f 53/33/33 54/34/9 55/27/10 56/35/34 
f 57/33/15 58/36/15 59/22/16 60/35/35 
f 61/37/36 39/28/28 42/15/3 3/3/3 
f 6/6/6 43/30/29 46/15/32 7/7/7 
f 49/32/34 48/31/34 11/11/9 10/10/10 
f 52/32/24 51/31/24 19/19/16 18/18/15 
f 62/36/34 53/33/33 56/35/34 27/22/10 
f 63/34/35 57/33/15 60/35/35 34/27/24 
f 40/29/28 64/38/37 65/39/38 41/7/3 
f 44/4/30 66/40/39 67/41/40 45/3/31 
f 68/17/10 25/20/10 28/19/10 47/18/33 
f 69/9/24 32/12/16 35/11/24 50/10/15 
f 54/34/9 70/42/34 55/27/10 
f 58/36/15 71/43/15 59/22/16 
f 26/21/10 72/44/34 27/22/10 
f 30/24/22 73/45/41 74/46/42 31/25/23 
f 33/26/24 75/47/35 34/27/24 
f 37/24/26 76/45/43 77/46/44 38/25/27 
f 55/27/10 11/11/9 48/31/34 56/35/34 
f 59/22/16 19/19/16 51/31/24 60/35/35 
f 56/35/34 48/31/34 28/19/10 27/22/10 
f 60/35/35 51/31/24 35/11/24 34/27/24 
f 78/26/33 12/12/10 11/11/9 55/27/10 
f 79/21/35 20/20/16 19/19/16 59/22/16 
s 2
f 66/48/39 80/49/45 74/46/42 67/50/40 
f 81/48/46 82/49/47 77/46/44 8/50/8 
s 1
f 83/42/15 63/34/35 34/27/24 
f 75/47/35 83/42/15 34/27/24 
f 84/44/24 79/21/35 59/22/16 
f 71/43/15 84/44/24 59/22/16 
f 85/47/34 78/26/33 55/27/10 
f 70/42/34 85/47/34 55/27/10 
f 86/43/9 62/36/34 27/22/10 
f 72/44/34 86/43/9 27/22/10 
s 2
f 1/51/1 87/52/48 22/14/18 2/53/2 
f 64/51/37 88/52/49 14/14/12 65/53/38 
s 1
f 89/54/50 90/55/51 91/55/10 92/54/33 
f 90/55/51 93/56/52 68/56/10 91/55/10 
f 93/56/52 94/57/53 25/57/10 68/56/10 
f 94/57/53 95/58/54 26/58/10 25/57/10 
f 95/58/54 96/59/55 72/59/34 26/58/10 
f 96/59/55 97/60/56 86/60/9 72/59/34 
f 97/60/56 98/61/57 62/61/34 86/60/9 
f 98/61/57 99/62/58 53/62/33 62/61/34 
f 99/62/58 100/63/59 54/63/9 53/62/33 
f 100/63/59 101/64/60 70/64/34 54/63/9 
f 101/64/60 102/65/61 85/65/34 70/64/34 
f 102/65/61 103/66/62 78/66/33 85/65/34 
f 103/66/62 104/67/63 12/67/10 78/66/33 
f 104/67/63 105/68/64 9/68/9 12/67/10 
f 105/68/64 106/69/65 107/69/9 9/68/9 
f 106/69/65 108/70/66 109/70/33 107/69/9 
f 108/70/66 110/71/67 111/71/34 109/70/33 
f 110/71/67 89/54/50 92/54/33 111/71/34 
f 112/54/68 113/55/69 114/55/16 115/54/35 
f 113/55/69 116/56/70 69/56/24 114/55/16 
f 116/56/70 117/57/71 32/57/16 69/56/24 
f 117/57/71 118/58/72 33/58/24 32/57/16 
f 118/58/72 119/59/73 75/59/35 33/58/24 
f 119/59/73 120/60/74 83/60/15 75/59/35 
f 120/60/74 121/61/75 63/61/35 83/60/15 
f 121/61/75 122/62/76 57/62/15 63/61/35 
f 122/62/76 123/63/77 58/63/15 57/62/15 
f 123/63/77 124/64/78 71/64/15 58/63/15 
f 124/64/78 125/65/79 84/65/24 71/64/15 
f 125/65/79 126/66/80 79/66/35 84/65/24 
f 126/66/80 127/67/81 20/67/16 79/66/35 
f 127/67/81 128/68/82 17/68/15 20/67/16 
f 128/68/82 129/69/83 130/69/15 17/68/15 
f 129/69/83 131/70/84 132/70/35 130/69/15 
f 131/70/84 133/71/85 134/71/24 132/70/35 
f 133/71/85 112/54/68 115/54/35 134/71/24 
f 9/9/9 107/72/9 109/73/33 10/10/10 
f 10/10/10 109/73/33 111/74/34 49/32/34 
f 49/32/34 111/74/34 92/75/33 47/18/33 
f 47/18/33 92/75/33 91/76/10 68/17/10 
f 17/17/15 130/76/15 132/75/35 18/18/15 
f 18/18/15 132/75/35 134/74/24 52/32/24 
f 52/32/24 134/74/24 115/73/35 50/10/15 
f 50/10/15 115/73/35 114/72/16 69/9/24 
s 4
f 112/77/68 61/37/36 135/78/86 113/79/69 
f 89/80/50 136/6/87 137/81/88 90/82/51 
f 100/83/59 6/6/6 5/5/5 101/84/60 
f 123/85/77 138/37/89 139/86/90 124/87/78 
f 93/88/52 13/13/11 16/16/14 94/89/53 
f 102/90/61 76/45/43 37/24/26 103/91/62 
f 127/92/81 29/23/21 88/52/49 128/93/82 
f 116/88/70 21/13/17 24/16/20 117/89/71 
f 94/94/53 16/16/14 140/95/91 95/96/54 
f 104/92/63 36/23/25 87/52/48 105/93/64 
f 126/97/80 30/24/22 29/23/21 127/98/81 
f 117/94/71 24/16/20 141/95/92 118/96/72 
f 131/99/84 40/29/28 39/28/28 133/100/85 
f 108/101/66 4/4/4 142/30/93 110/102/67 
f 98/103/57 44/4/30 43/30/29 99/104/58 
f 121/105/75 143/29/94 144/28/95 122/106/76 
f 133/100/85 39/28/28 61/37/36 112/77/68 
f 110/102/67 142/30/93 136/6/87 89/80/50 
f 99/107/58 43/30/29 6/6/6 100/108/59 
f 122/109/76 144/28/95 138/37/89 123/110/77 
f 129/111/83 64/38/37 40/29/28 131/99/84 
f 106/112/65 1/1/1 4/4/4 108/101/66 
f 97/113/56 66/40/39 44/4/30 98/114/57 
f 120/115/74 81/116/46 143/29/94 121/117/75 
f 103/97/62 37/24/26 36/23/25 104/98/63 
f 95/118/54 140/95/91 80/49/45 96/119/55 
f 125/90/79 73/45/41 30/24/22 126/91/80 
f 118/118/72 141/95/92 82/49/47 119/119/73 
f 101/120/60 5/121/5 76/45/43 102/122/61 
f 96/123/55 80/49/45 66/48/39 97/124/56 
f 119/123/73 82/49/47 81/48/46 120/125/74 
f 124/126/78 139/121/90 73/45/41 125/122/79 
s 8
f 105/127/64 87/52/48 1/51/1 106/128/65 
f 90/129/51 137/130/88 13/13/11 93/131/52 
f 113/129/69 135/130/86 21/13/17 116/131/70 
f 128/127/82 88/52/49 64/51/37 129/128/83 
s 1
f 2/2/2 135/78/86 61/37/36 3/3/3 
f 7/7/7 143/29/94 81/116/46 8/8/8 
f 14/14/12 88/52/49 29/23/21 15/15/13 
f 22/14/18 87/52/48 36/23/25 23/15/19 
f 31/25/23 140/95/91 16/16/14 15/15/13 
f 38/25/27 141/95/92 24/16/20 23/15/19 
f 41/7/3 136/6/87 142/30/93 42/15/3 
f 45/3/31 138/37/89 144/28/95 46/15/32 
f 42/15/3 142/30/93 4/4/4 3/3/3 
f 46/15/32 144/28/95 143/29/94 7/7/7 
f 65/39/38 137/81/88 136/6/87 41/7/3 
f 67/41/40 139/86/90 138/37/89 45/3/31 
f 74/46/42 80/49/45 140/95/91 31/25/23 
f 77/46/44 82/49/47 141/95/92 38/25/27 
s 2
f 74/46/42 73/45/41 139/121/90 67/50/40 
f 77/46/44 76/45/43 5/121/5 8/50/8 
f 22/14/18 21/13/17 135/130/86 2/53/2 
f 14/14/12 13/13/11 137/130/88 65/53/38 
# 136 polygons - 12 triangles

