# 3ds Max Wavefront OBJ Exporter v0.97b - (c)2007 guruware
# File Created: 01.02.2020 16:47:12

mtllib LobsterTank.mtl

#
# object Lobster_Tank
#

v  -0.8359 0.8940 0.0103
v  -0.8359 0.8940 1.1244
v  -0.0102 0.8940 1.1244
v  -0.0102 0.8940 0.0103
v  -0.8462 0.8730 -0.0000
v  -0.8462 0.8730 1.1347
v  -0.8462 1.4377 1.1347
v  -0.8462 1.4377 -0.0000
v  0.0000 0.8730 1.1347
v  0.0000 1.4377 1.1347
v  0.0000 0.8730 -0.0000
v  0.0000 1.4377 -0.0000
v  -0.8462 0.0000 1.1347
v  0.0000 0.0000 1.1347
v  0.0000 0.0000 -0.0000
v  -0.8462 0.0000 -0.0000
v  -0.8359 1.4377 0.0103
v  -0.0102 1.4377 0.0103
v  -0.8359 1.4377 1.1244
v  -0.0102 1.4377 1.1244
v  -0.8359 1.3355 0.0103
v  -0.8359 1.3355 1.1244
v  -0.0102 1.3355 1.1244
v  -0.0102 1.3355 0.0103
# 24 vertices

vn 0.5774 0.5774 0.5774
vn 0.5774 0.5774 -0.5774
vn -0.5774 0.5774 -0.5774
vn -0.5774 0.5774 0.5774
vn -0.8944 0.0000 -0.4472
vn -0.7071 0.0000 0.7071
vn -0.5773 0.5774 0.5773
vn -0.5773 0.5774 -0.5773
vn 0.7071 -0.0000 0.7071
vn 0.5774 0.5773 0.5774
vn 0.8944 -0.0000 -0.4472
vn 0.5774 0.5773 -0.5774
vn -0.5774 -0.5774 0.5774
vn 0.5774 -0.5774 0.5774
vn 0.7071 -0.7071 -0.0000
vn -0.7071 -0.7071 -0.0000
vn 0.3015 0.9045 0.3015
vn -0.3015 0.9045 0.3015
vn 0.3015 0.9045 -0.3015
vn -0.3015 0.9045 -0.3015
vn 0.0000 1.0000 -0.0000
# 21 vertex normals

vt 0.3333 1.0000 0.0000
vt 0.0000 1.0000 0.0000
vt 0.0000 0.0000 0.0000
vt 0.3333 0.0000 0.0000
vt 1.0000 0.0000 0.0000
vt 1.0000 1.0000 0.0000
vt 0.6667 0.0000 0.0000
vt 0.6667 1.0000 0.0000
# 8 texture coords

o Lobster_Tank
g Lobster_Tank
usemtl wire_006135113
s 4
f 1/1/1 2/2/2 3/3/3 4/4/4 
s off
f 5/1/5 6/2/6 7/2/7 8/1/8 
f 6/2/6 9/3/9 10/3/10 7/2/7 
f 9/3/9 11/4/11 12/4/12 10/3/10 
s 1
f 11/4/11 5/1/5 8/1/8 12/4/12 
s 64
f 13/3/13 14/5/14 9/6/9 6/2/6 
s 2
f 15/7/15 14/5/14 13/6/13 16/8/16 
s 8
f 11/1/11 9/2/9 14/3/14 15/4/15 
s 32
f 16/7/16 13/5/13 6/6/6 5/8/5 
s off
f 12/4/12 8/1/8 17/1/17 18/4/18 
f 8/1/8 7/2/7 19/2/19 17/1/17 
f 7/2/7 10/3/10 20/3/20 19/2/19 
f 10/3/10 12/4/12 18/4/18 20/3/20 
f 18/4/18 17/1/17 1/1/1 4/4/4 
f 17/1/17 19/2/19 2/2/2 1/1/1 
f 19/2/19 20/3/20 3/3/3 2/2/2 
f 20/3/20 18/4/18 4/4/4 3/3/3 
s 4
f 21/1/21 22/2/21 23/3/21 24/4/21 
# 18 polygons

