# 3ds Max Wavefront OBJ Exporter v0.97b - (c)2007 guruware
# File Created: 01.02.2020 15:17:07

mtllib MeatSeafoodTable.mtl

#
# object MeatSeafood_Table
#

v  57.8909 0.0000 -198.4879
v  115.8854 0.0000 -198.4879
v  115.8854 0.0000 -194.3670
v  57.8909 0.0000 -194.3670
v  59.8780 88.8045 -118.0791
v  113.8725 88.8151 -118.0791
v  113.8725 79.8783 -192.3766
v  59.8780 80.1760 -192.3766
v  57.8909 0.0000 -116.0695
v  115.8854 0.0000 -116.0695
v  115.8854 93.6459 -116.0695
v  57.8909 93.6459 -116.0695
v  173.8799 0.0000 -116.0695
v  173.8799 0.0000 -194.3670
v  173.8799 84.7169 -194.3670
v  173.8799 93.6459 -116.0695
v  57.8909 85.0253 -198.4879
v  115.8854 84.7169 -198.4879
v  173.8799 0.0000 -198.4879
v  -0.0518 0.0000 -116.0293
v  -0.1010 0.0000 -194.3650
v  117.8854 88.8058 -118.0695
v  171.8799 88.8058 -118.0695
v  171.8799 79.8769 -192.3670
v  117.8854 79.8769 -192.3670
v  57.8956 125.0253 -198.4879
v  -0.0988 125.0253 -198.4879
v  -0.0963 125.0253 -194.3650
v  57.8956 125.0253 -194.3670
v  -0.0518 93.6459 -116.0293
v  -0.1036 0.0000 -198.4879
v  -0.1036 85.0253 -198.4879
v  173.8799 84.7169 -198.4879
v  -82.4184 0.0000 -0.0000
v  -82.4184 0.0000 -2.8997
v  -78.2975 0.0000 -2.8997
v  -78.2975 0.0000 -0.0000
v  -0.0000 93.9542 -0.0000
v  -0.0000 93.6459 -2.8997
v  -78.2975 85.0253 -2.8997
v  -78.2975 85.0253 -0.0000
v  -0.0000 0.0000 -0.0000
v  -0.0000 0.0000 -2.8997
v  -82.4184 0.0000 -57.9945
v  -82.4184 85.0253 -2.8997
v  -82.4184 85.0253 -57.9945
v  -82.4184 0.0000 -115.9890
v  -78.3001 0.0000 -115.9910
v  -78.2975 0.0000 -57.9945
v  -2.0209 88.8138 -59.9945
v  -2.0691 88.8138 -114.0283
v  -76.3191 80.1774 -113.9920
v  -76.3167 80.1774 -59.9945
v  -0.0000 0.0000 -57.9945
v  -0.0000 93.6459 -57.9945
v  -82.4184 85.0253 -115.9890
v  -82.4137 125.0253 -115.9890
v  -78.2953 125.0253 -115.9910
v  115.8902 124.7169 -194.3670
v  115.8902 124.7169 -198.4879
v  173.8846 124.7169 -194.3670
v  173.8846 124.7169 -198.4879
v  1.9002 80.1774 -192.3842
v  1.9469 88.8138 -118.0497
v  55.8909 88.8138 -118.0872
v  55.8909 80.1774 -192.3860
v  -78.2927 125.0253 -57.9945
v  -82.4137 125.0253 -57.9945
v  -82.4137 125.0253 -2.8997
v  -78.2927 125.0253 -2.8997
v  -78.3001 85.0253 -115.9910
v  -0.1010 85.0253 -194.3650
v  -2.0191 88.8138 -4.8997
v  -2.0191 88.8138 -55.9945
v  -76.3166 80.1774 -55.9945
v  -76.3166 80.1774 -4.8997
v  -82.4184 85.0253 -0.0000
v  -82.4137 125.0253 -0.0000
v  -78.2927 125.0253 -0.0000
v  -78.2975 85.0253 -57.9945
v  57.8909 85.0253 -194.3670
v  115.8854 84.7169 -194.3670
v  -76.2975 85.0174 -55.9945
v  -2.0000 93.6537 -55.9945
v  -76.2975 85.0174 -4.8997
v  -2.0000 93.6537 -4.8997
v  -2.0018 93.6537 -59.9945
v  -76.2976 85.0174 -59.9945
v  -2.0500 93.6537 -114.0283
v  -76.3000 85.0174 -113.9920
v  55.8909 93.6537 -118.0681
v  1.9469 93.6537 -118.0306
v  55.8909 85.0174 -192.3670
v  1.9002 85.0174 -192.3651
v  113.8854 93.6551 -118.0695
v  59.8909 93.6445 -118.0696
v  113.8854 84.7183 -192.3670
v  59.8909 85.0160 -192.3670
v  171.8799 84.7169 -192.3670
v  171.8799 93.6459 -118.0695
v  117.8854 84.7169 -192.3670
v  117.8854 93.6459 -118.0695
# 102 vertices

vn 0.0000 -0.7071 -0.7071
vn 0.0000 -1.0000 -0.0000
vn 0.5846 0.5399 -0.6056
vn -0.5832 0.5399 -0.6070
vn -0.5689 0.6159 0.5450
vn 0.5737 0.6099 0.5467
vn 0.0002 -0.7072 0.7070
vn 0.0000 -0.7071 0.7071
vn 0.0008 0.7262 0.6874
vn 0.0011 0.7258 0.6879
vn 0.5774 -0.5774 0.5774
vn 0.7071 -0.7071 -0.0000
vn 0.9101 0.3011 0.2847
vn 0.5827 0.5905 0.5583
vn 0.0000 0.0000 -1.0000
vn 0.5774 -0.5774 -0.5774
vn 0.3016 -0.9046 0.3012
vn 0.5839 0.5388 -0.6073
vn -0.5839 0.5386 -0.6074
vn -0.5714 0.6139 0.5447
vn 0.5714 0.6139 0.5447
vn 0.0019 0.7077 -0.7065
vn -0.2975 0.6302 -0.7172
vn 0.2277 0.8044 0.5488
vn 0.0019 0.7077 0.7065
vn 0.2465 0.9374 0.2462
vn -0.2975 -0.6302 -0.7172
vn -0.3832 0.0000 -0.9237
vn 0.7071 -0.0000 -0.7071
vn -0.7071 -0.7071 -0.0000
vn 0.6397 0.7643 -0.0813
vn 0.6907 0.7229 -0.0178
vn 0.6780 0.7347 -0.0209
vn 0.6659 0.7461 -0.0000
vn -1.0000 0.0001 -0.0000
vn -0.7174 -0.6304 -0.2967
vn -0.6056 0.5410 -0.5836
vn -0.6047 0.5411 0.5843
vn 0.5471 0.6119 0.5712
vn 0.5470 0.6118 -0.5713
vn 0.7072 -0.7070 -0.0003
vn 0.6886 0.7252 -0.0003
vn -0.9241 0.0001 -0.3822
vn -0.7173 0.6304 -0.2967
vn 0.5495 0.8040 0.2273
vn 0.0019 0.7065 0.7077
vn 0.0019 0.7065 -0.7077
vn 0.5774 0.5773 0.5774
vn 0.5774 0.5773 -0.5774
vn 0.5715 0.6118 0.5469
vn 0.5835 0.5410 -0.6056
vn -0.5841 0.5411 -0.6050
vn -0.5713 0.6119 0.5470
vn 0.7071 0.7071 -0.0000
vn -0.7071 0.7071 -0.0000
vn 0.6950 0.6499 0.3076
vn 0.3085 0.6496 0.6948
vn -0.6052 0.5411 -0.5839
vn -0.6052 0.5411 0.5839
vn 0.5470 0.6119 0.5713
vn 0.5470 0.6119 -0.5713
vn 0.6885 0.7253 -0.0000
vn 0.0011 0.7251 0.6886
vn 0.0011 0.7268 0.6868
vn 0.2505 0.8920 0.3763
vn -0.3548 0.9069 0.2273
vn 0.2505 0.8920 -0.3763
vn -0.3548 0.9069 -0.2273
vn -0.3548 0.9070 -0.2269
vn -0.3548 0.9068 0.2276
vn 0.2507 0.8919 0.3764
vn -0.2275 0.9068 -0.3548
vn 0.2271 0.9069 -0.3549
vn -0.3763 0.8920 0.2505
vn 0.3763 0.8921 0.2503
vn -0.2251 0.9070 -0.3559
vn 0.2295 0.9054 -0.3573
vn -0.3739 0.8932 0.2496
vn 0.3787 0.8917 0.2480
vn -0.3763 0.8930 0.2470
vn -0.2273 0.9055 -0.3584
vn 0.3763 0.8930 0.2470
vn 0.2273 0.9055 -0.3584
# 83 vertex normals

vt 0.6667 1.0000 0.0000
vt 0.3333 1.0000 0.0000
vt 0.3333 0.9500 0.0000
vt 0.6667 0.9500 0.0000
vt 0.3333 0.0000 0.0000
vt 0.6667 0.0000 0.0000
vt 0.0000 0.0000 0.0000
vt 0.9500 0.0000 0.0000
vt 0.9500 1.0000 0.0000
vt 0.0000 1.0000 0.0000
vt 0.0000 0.9500 0.0000
vt 1.0000 0.0000 0.0000
vt 1.0000 0.9500 0.0000
vt 1.0000 1.0000 0.0000
vt 0.6500 1.0000 0.0000
vt 0.6500 0.9500 0.0000
vt 0.3500 0.0000 0.0000
vt 0.3500 0.9500 0.0000
vt 0.3500 1.0000 0.0000
vt 0.6500 0.0000 0.0000
vt 0.0500 0.9500 0.0000
vt 0.6833 0.0000 0.0000
# 22 texture coords

o MeatSeafood_Table
g MeatSeafood_Table
usemtl wire_006135113
s 2
f 1/1/1 2/2/1 3/3/2 4/4/2 
s 4
f 5/5/3 6/6/4 7/4/5 8/3/6 
s 8
f 9/5/7 10/6/8 11/1/9 12/2/10 
s 16
f 13/7/11 14/8/12 15/9/13 16/10/14 
s 32
f 2/5/1 1/6/1 17/1/15 18/2/15 
s 2
f 2/2/1 19/10/16 14/11/12 3/3/2 
f 9/6/7 20/12/17 21/13/2 4/4/2 
s 4
f 22/6/18 23/12/19 24/13/20 25/4/21 
f 26/2/22 27/10/23 28/11/24 29/3/25 
s 8
f 10/6/8 13/12/11 16/14/14 11/1/9 
f 12/2/10 30/10/26 20/7/17 9/5/7 
s 32
f 1/6/1 31/12/27 32/14/28 17/1/15 
f 18/2/15 33/10/29 19/7/16 2/5/1 
s 2
f 34/1/30 35/15/30 36/16/2 37/4/2 
s 4
f 38/5/31 39/17/32 40/18/33 41/3/34 
s 8
f 42/5/12 43/17/12 39/19/32 38/2/31 
s 32
f 44/5/30 35/20/30 45/15/35 46/2/35 
s 2
f 44/2/30 47/10/36 48/11/2 49/3/2 
s 4
f 50/6/37 51/12/38 52/13/39 53/4/40 
s 8
f 54/6/41 20/12/17 30/14/26 55/1/42 
s 1
f 47/5/36 56/6/43 32/10/28 31/14/27 
s off
f 20/12/17 48/21/2 21/13/2 
f 27/10/23 57/6/44 58/22/45 28/21/24 
s 2
f 3/3/2 10/5/8 9/6/7 4/4/2 
s 4
f 59/4/46 60/1/47 26/2/22 29/3/25 
s 16
f 14/8/12 19/12/16 33/14/29 15/9/13 
s 2
f 14/11/12 13/7/11 10/5/8 3/3/2 
f 21/13/2 31/14/27 1/1/1 4/4/2 
s 4
f 61/13/48 62/14/49 60/1/47 59/4/46 
f 63/11/50 64/7/51 65/5/52 66/3/53 
s 2
f 49/3/2 54/5/41 43/20/12 36/16/2 
s 4
f 67/4/54 68/1/55 69/19/55 70/18/54 
s 2
f 48/11/2 20/7/17 54/5/41 49/3/2 
s 4
f 58/13/45 57/14/44 68/1/55 67/4/54 
s off
f 48/21/2 47/10/36 31/14/27 21/13/2 
f 71/22/56 30/12/26 72/21/57 
s 2
f 35/15/30 44/2/30 49/3/2 36/16/2 
s 4
f 73/17/58 74/6/59 75/4/60 76/18/61 
s 8
f 43/17/12 54/6/41 55/1/42 39/19/32 
s 32
f 35/20/30 34/6/30 77/1/35 45/15/35 
s 2
f 43/20/12 42/6/12 37/4/2 36/16/2 
s 4
f 69/19/55 78/2/55 79/3/54 70/18/54 
s off
f 33/14/29 18/1/15 60/1/47 62/14/49 
f 18/1/15 17/2/15 26/2/22 60/1/47 
f 17/2/15 32/10/28 27/10/23 26/2/22 
f 32/10/28 56/6/43 57/6/44 27/10/23 
f 56/14/43 46/1/35 68/1/55 57/14/44 
f 46/1/35 45/19/35 69/19/55 68/1/55 
f 45/19/35 77/2/35 78/2/55 69/19/55 
f 41/3/34 40/18/33 70/18/54 79/3/54 
f 40/18/33 80/4/62 67/4/54 70/18/54 
f 80/4/62 71/13/56 58/13/45 67/4/54 
f 71/22/56 72/21/57 28/21/24 58/22/45 
f 72/11/57 81/3/63 29/3/25 28/11/24 
f 81/3/63 82/4/64 59/4/46 29/3/25 
f 82/4/64 15/13/13 61/13/48 59/4/46 
f 15/13/13 33/14/29 62/14/49 61/13/48 
s 32
f 44/5/30 46/2/35 56/10/43 47/7/36 
s off
f 55/6/42 80/4/62 83/4/65 84/6/66 
f 80/4/62 40/18/33 85/18/67 83/4/65 
f 40/18/33 39/17/32 86/17/68 85/18/67 
f 39/17/32 55/6/42 84/6/66 86/17/68 
f 80/4/62 55/6/42 87/6/69 88/4/67 
f 55/6/42 30/12/26 89/12/70 87/6/69 
f 30/12/26 71/13/56 90/13/71 89/12/70 
f 71/13/56 80/4/62 88/4/67 90/13/71 
f 30/7/26 12/5/10 91/5/72 92/7/73 
f 12/5/10 81/3/63 93/3/74 91/5/72 
f 81/3/63 72/11/57 94/11/75 93/3/74 
f 72/11/57 30/7/26 92/7/73 94/11/75 
f 12/5/10 11/6/9 95/6/76 96/5/77 
f 11/6/9 82/4/64 97/4/78 95/6/76 
f 82/4/64 81/3/63 98/3/79 97/4/78 
f 81/3/63 12/5/10 96/5/77 98/3/79 
f 16/12/14 15/13/13 99/13/80 100/12/81 
f 15/13/13 82/4/64 101/4/82 99/13/80 
f 82/4/64 11/6/9 102/6/83 101/4/82 
f 11/6/9 16/12/14 100/12/81 102/6/83 
f 96/5/77 95/6/76 6/6/4 5/5/3 
f 95/6/76 97/4/78 7/4/5 6/6/4 
f 97/4/78 98/3/79 8/3/6 7/4/5 
f 98/3/79 96/5/77 5/5/3 8/3/6 
f 100/12/81 99/13/80 24/13/20 23/12/19 
f 99/13/80 101/4/82 25/4/21 24/13/20 
f 101/4/82 102/6/83 22/6/18 25/4/21 
f 102/6/83 100/12/81 23/12/19 22/6/18 
f 88/4/67 87/6/69 50/6/37 53/4/40 
f 87/6/69 89/12/70 51/12/38 50/6/37 
f 89/12/70 90/13/71 52/13/39 51/12/38 
f 90/13/71 88/4/67 53/4/40 52/13/39 
f 92/7/73 91/5/72 65/5/52 64/7/51 
f 91/5/72 93/3/74 66/3/53 65/5/52 
f 93/3/74 94/11/75 63/11/50 66/3/53 
f 94/11/75 92/7/73 64/7/51 63/11/50 
f 84/6/66 83/4/65 75/4/60 74/6/59 
f 83/4/65 85/18/67 76/18/61 75/4/60 
f 85/18/67 86/17/68 73/17/58 76/18/61 
f 86/17/68 84/6/66 74/6/59 73/17/58 
# 96 polygons - 2 triangles

