# 3ds Max Wavefront OBJ Exporter v0.97b - (c)2007 guruware
# File Created: 01.02.2020 16:45:27

mtllib ProduceTable.mtl

#
# object Produce_Table
#

v  -1.2899 0.6905 -0.9785
v  -1.2899 0.6905 -0.1177
v  -2.1788 0.6905 -0.1177
v  -2.1788 0.6905 -0.9785
v  -1.2899 0.8223 -0.1177
v  -1.2899 1.1068 -0.9785
v  -2.1788 1.1068 -0.9785
v  -2.1788 0.8223 -0.1177
v  -2.1788 0.6905 -0.0000
v  -1.2899 0.6905 -0.0000
v  -1.2899 0.8869 -0.0000
v  -2.1788 0.8869 -0.0000
v  -0.0000 0.6905 -0.1177
v  -0.0000 0.6905 -0.9785
v  -0.0000 1.1714 -0.9785
v  -0.0000 0.8869 -0.1177
v  -1.2899 0.6905 -1.0885
v  -2.1788 0.6905 -1.0885
v  -2.1788 1.1714 -1.0885
v  -1.2899 1.1714 -1.0885
v  -3.4738 0.6905 -0.9785
v  -3.4738 0.6905 -0.1177
v  -3.4738 0.8869 -0.1177
v  -3.4738 1.1714 -0.9785
v  -0.1375 0.6905 -0.9785
v  -0.1375 0.6905 -0.1177
v  -1.0167 0.6905 -0.1177
v  -1.0167 0.6905 -0.9785
v  -3.3601 0.6905 -0.1177
v  -3.3601 0.6905 -0.9785
v  -2.4328 0.6905 -0.9785
v  -2.4328 0.6905 -0.1177
v  -0.1375 0.8223 -0.1177
v  -0.1375 1.1068 -0.9785
v  -1.0167 1.1068 -0.9785
v  -1.0167 0.8223 -0.1177
v  -3.3601 1.1068 -0.9785
v  -3.3601 0.8223 -0.1177
v  -2.4328 0.8223 -0.1177
v  -2.4328 1.1068 -0.9785
v  -1.0167 0.6905 -0.0000
v  -0.1375 0.6905 -0.0000
v  -0.1375 0.8869 -0.0000
v  -1.0167 0.8869 -0.0000
v  -2.4328 0.8869 -0.0000
v  -3.3601 0.8869 -0.0000
v  -3.3601 0.6905 -0.0000
v  -2.4328 0.6905 -0.0000
v  -2.4328 0.6905 -1.0885
v  -3.3601 0.6905 -1.0885
v  -3.3601 1.1714 -1.0885
v  -2.4328 1.1714 -1.0885
v  -1.0167 1.1714 -1.0885
v  -0.1375 1.1714 -1.0885
v  -0.1375 0.6905 -1.0885
v  -1.0167 0.6905 -1.0885
v  -1.1579 0.6905 -0.9785
v  -1.1579 0.6905 -0.1177
v  -2.3158 0.6905 -0.1177
v  -2.3158 0.6905 -0.9785
v  -1.1579 0.8869 -0.1177
v  -1.1579 1.1714 -0.9785
v  -1.2899 1.1714 -0.9785
v  -1.2899 0.8869 -0.1177
v  -2.3158 1.1714 -0.9785
v  -2.3158 0.8869 -0.1177
v  -2.1788 0.8869 -0.1177
v  -2.1788 1.1714 -0.9785
v  -1.1579 0.6905 -0.0000
v  -1.1579 0.8869 -0.0000
v  -2.3158 0.8869 -0.0000
v  -2.3158 0.6905 -0.0000
v  -2.3158 0.6905 -1.0885
v  -2.3158 1.1714 -1.0885
v  -1.1579 1.1714 -1.0885
v  -1.1579 0.6905 -1.0885
v  -0.1375 1.1714 -0.9785
v  -0.1375 0.8869 -0.1177
v  -1.0167 0.8869 -0.1177
v  -1.0167 1.1714 -0.9785
v  -3.3601 0.8869 -0.1177
v  -3.3601 1.1714 -0.9785
v  -2.4328 1.1714 -0.9785
v  -2.4328 0.8869 -0.1177
v  -0.0000 0.6905 -0.0000
v  -0.0000 0.8869 -0.0000
v  -3.4738 0.8869 -0.0000
v  -3.4738 0.6905 -0.0000
v  -3.4738 0.6905 -1.0885
v  -3.4738 1.1714 -1.0885
v  -0.0000 1.1714 -1.0885
v  -0.0000 0.6905 -1.0885
v  -1.1579 0.0000 -0.1177
v  -1.1579 0.0000 -0.0000
v  -1.2899 0.0000 -0.0000
v  -1.2899 0.0000 -0.1177
v  -1.2899 0.0000 -0.9785
v  -1.2899 0.0000 -1.0885
v  -1.1579 0.0000 -1.0885
v  -1.1579 0.0000 -0.9785
v  -2.3158 0.0000 -0.9785
v  -2.3158 0.0000 -1.0885
v  -2.1788 0.0000 -1.0885
v  -2.1788 0.0000 -0.9785
v  -2.1788 0.0000 -0.1177
v  -2.1788 0.0000 -0.0000
v  -2.3158 0.0000 -0.0000
v  -2.3158 0.0000 -0.1177
v  -0.0000 0.0000 -0.1177
v  -0.0000 0.0000 -0.0000
v  -0.1375 0.0000 -0.0000
v  -0.1375 0.0000 -0.1177
v  -0.1375 0.0000 -0.9785
v  -0.1375 0.0000 -1.0885
v  -0.0000 0.0000 -1.0885
v  -0.0000 0.0000 -0.9785
v  -1.0167 0.0000 -1.0885
v  -1.0167 0.0000 -0.9785
v  -1.0167 0.0000 -0.1177
v  -1.0167 0.0000 -0.0000
v  -3.4738 0.0000 -0.9785
v  -3.4738 0.0000 -1.0885
v  -3.3601 0.0000 -1.0885
v  -3.3601 0.0000 -0.9785
v  -3.3601 0.0000 -0.1177
v  -3.3601 0.0000 -0.0000
v  -3.4738 0.0000 -0.0000
v  -3.4738 0.0000 -0.1177
v  -2.4328 0.0000 -0.0000
v  -2.4328 0.0000 -0.1177
v  -2.4328 0.0000 -0.9785
v  -2.4328 0.0000 -1.0885
v  -3.5220 0.6663 0.0110
v  0.0410 0.6663 0.0110
v  0.0410 0.6663 -0.0109
v  -3.5220 0.6663 -0.0109
v  -3.5220 0.5429 0.0110
v  -3.5220 0.5429 -0.0109
v  0.0410 0.5429 -0.0109
v  0.0410 0.5429 0.0110
v  -3.5220 0.5114 0.0110
v  0.0410 0.5114 0.0110
v  0.0410 0.5114 -0.0109
v  -3.5220 0.5114 -0.0109
v  -3.5220 0.3880 0.0110
v  -3.5220 0.3880 -0.0109
v  0.0410 0.3880 -0.0109
v  0.0410 0.3880 0.0110
v  -3.5220 0.3622 0.0110
v  0.0410 0.3622 0.0110
v  0.0410 0.3622 -0.0109
v  -3.5220 0.3622 -0.0109
v  -3.5220 0.2387 0.0110
v  -3.5220 0.2387 -0.0109
v  0.0410 0.2387 -0.0109
v  0.0410 0.2387 0.0110
v  -3.5220 0.2144 0.0110
v  0.0410 0.2144 0.0110
v  0.0410 0.2144 -0.0109
v  -3.5220 0.2144 -0.0109
v  -3.5220 0.0909 0.0110
v  -3.5220 0.0909 -0.0109
v  0.0410 0.0909 -0.0109
v  0.0410 0.0909 0.0110
v  -2.1826 0.6905 -1.2022
v  -2.1826 0.6905 -2.0630
v  -1.2937 0.6905 -2.0630
v  -1.2937 0.6905 -1.2022
v  -2.1826 0.8223 -2.0630
v  -2.1826 1.1068 -1.2022
v  -1.2937 1.1068 -1.2022
v  -1.2937 0.8223 -2.0630
v  -1.2937 0.6905 -2.1807
v  -2.1826 0.6905 -2.1807
v  -2.1826 0.8869 -2.1807
v  -1.2937 0.8869 -2.1807
v  -3.4725 0.6905 -2.0630
v  -3.4725 0.6905 -1.2022
v  -3.4725 1.1714 -1.2022
v  -3.4725 0.8869 -2.0630
v  -2.1826 0.6905 -1.0922
v  -1.2937 0.6905 -1.0922
v  -1.2937 1.1714 -1.0922
v  -2.1826 1.1714 -1.0922
v  0.0013 0.6905 -1.2022
v  0.0013 0.6905 -2.0630
v  0.0013 0.8869 -2.0630
v  0.0013 1.1714 -1.2022
v  -3.3350 0.6905 -1.2022
v  -3.3350 0.6905 -2.0630
v  -2.4558 0.6905 -2.0630
v  -2.4558 0.6905 -1.2022
v  -0.1124 0.6905 -2.0630
v  -0.1124 0.6905 -1.2022
v  -1.0397 0.6905 -1.2022
v  -1.0397 0.6905 -2.0630
v  -3.3350 0.8223 -2.0630
v  -3.3350 1.1068 -1.2022
v  -2.4558 1.1068 -1.2022
v  -2.4558 0.8223 -2.0630
v  -0.1124 1.1068 -1.2022
v  -0.1124 0.8223 -2.0630
v  -1.0397 0.8223 -2.0630
v  -1.0397 1.1068 -1.2022
v  -2.4558 0.6905 -2.1807
v  -3.3350 0.6905 -2.1807
v  -3.3350 0.8869 -2.1807
v  -2.4558 0.8869 -2.1807
v  -1.0397 0.8869 -2.1807
v  -0.1124 0.8869 -2.1807
v  -0.1124 0.6905 -2.1807
v  -1.0397 0.6905 -2.1807
v  -1.0397 0.6905 -1.0922
v  -0.1124 0.6905 -1.0922
v  -0.1124 1.1714 -1.0922
v  -1.0397 1.1714 -1.0922
v  -2.4558 1.1714 -1.0922
v  -3.3350 1.1714 -1.0922
v  -3.3350 0.6905 -1.0922
v  -2.4558 0.6905 -1.0922
v  -2.3146 0.6905 -1.2022
v  -2.3146 0.6905 -2.0630
v  -1.1567 0.6905 -2.0630
v  -1.1567 0.6905 -1.2022
v  -2.3146 0.8869 -2.0630
v  -2.3146 1.1714 -1.2022
v  -2.1826 1.1714 -1.2022
v  -2.1826 0.8869 -2.0630
v  -1.1567 1.1714 -1.2022
v  -1.1567 0.8869 -2.0630
v  -1.2937 0.8869 -2.0630
v  -1.2937 1.1714 -1.2022
v  -2.3146 0.6905 -2.1807
v  -2.3146 0.8869 -2.1807
v  -1.1567 0.8869 -2.1807
v  -1.1567 0.6905 -2.1807
v  -1.1567 0.6905 -1.0922
v  -1.1567 1.1714 -1.0922
v  -2.3146 1.1714 -1.0922
v  -2.3146 0.6905 -1.0922
v  -3.3350 1.1714 -1.2022
v  -3.3350 0.8869 -2.0630
v  -2.4558 0.8869 -2.0630
v  -2.4558 1.1714 -1.2022
v  -0.1124 0.8869 -2.0630
v  -0.1124 1.1714 -1.2022
v  -1.0397 1.1714 -1.2022
v  -1.0397 0.8869 -2.0630
v  -3.4725 0.6905 -2.1807
v  -3.4725 0.8869 -2.1807
v  0.0013 0.8869 -2.1807
v  0.0013 0.6905 -2.1807
v  0.0013 0.6905 -1.0922
v  0.0013 1.1714 -1.0922
v  -3.4725 1.1714 -1.0922
v  -3.4725 0.6905 -1.0922
v  -2.3146 0.0000 -2.0630
v  -2.3146 0.0000 -2.1807
v  -2.1826 0.0000 -2.1807
v  -2.1826 0.0000 -2.0630
v  -2.1826 0.0000 -1.2022
v  -2.1826 0.0000 -1.0922
v  -2.3146 0.0000 -1.0922
v  -2.3146 0.0000 -1.2022
v  -1.1567 0.0000 -1.2022
v  -1.1567 0.0000 -1.0922
v  -1.2937 0.0000 -1.0922
v  -1.2937 0.0000 -1.2022
v  -1.2937 0.0000 -2.0630
v  -1.2937 0.0000 -2.1807
v  -1.1567 0.0000 -2.1807
v  -1.1567 0.0000 -2.0630
v  -3.4725 0.0000 -2.0630
v  -3.4725 0.0000 -2.1807
v  -3.3350 0.0000 -2.1807
v  -3.3350 0.0000 -2.0630
v  -3.3350 0.0000 -1.2022
v  -3.3350 0.0000 -1.0922
v  -3.4725 0.0000 -1.0922
v  -3.4725 0.0000 -1.2022
v  -2.4558 0.0000 -1.0922
v  -2.4558 0.0000 -1.2022
v  -2.4558 0.0000 -2.0630
v  -2.4558 0.0000 -2.1807
v  0.0013 0.0000 -1.2022
v  0.0013 0.0000 -1.0922
v  -0.1124 0.0000 -1.0922
v  -0.1124 0.0000 -1.2022
v  -0.1124 0.0000 -2.0630
v  -0.1124 0.0000 -2.1807
v  0.0013 0.0000 -2.1807
v  0.0013 0.0000 -2.0630
v  -1.0397 0.0000 -2.1807
v  -1.0397 0.0000 -2.0630
v  -1.0397 0.0000 -1.2022
v  -1.0397 0.0000 -1.0922
v  0.0495 0.6663 -2.1917
v  -3.5135 0.6663 -2.1917
v  -3.5135 0.6663 -2.1698
v  0.0495 0.6663 -2.1698
v  0.0495 0.5429 -2.1917
v  0.0495 0.5429 -2.1698
v  -3.5135 0.5429 -2.1698
v  -3.5135 0.5429 -2.1917
v  0.0495 0.5114 -2.1917
v  -3.5135 0.5114 -2.1917
v  -3.5135 0.5114 -2.1698
v  0.0495 0.5114 -2.1698
v  0.0495 0.3880 -2.1917
v  0.0495 0.3880 -2.1698
v  -3.5135 0.3880 -2.1698
v  -3.5135 0.3880 -2.1917
v  0.0495 0.3622 -2.1917
v  -3.5135 0.3622 -2.1917
v  -3.5135 0.3622 -2.1698
v  0.0495 0.3622 -2.1698
v  0.0495 0.2387 -2.1917
v  0.0495 0.2387 -2.1698
v  -3.5135 0.2387 -2.1698
v  -3.5135 0.2387 -2.1917
v  0.0495 0.2144 -2.1917
v  -3.5135 0.2144 -2.1917
v  -3.5135 0.2144 -2.1698
v  0.0495 0.2144 -2.1698
v  0.0495 0.0909 -2.1917
v  0.0495 0.0909 -2.1698
v  -3.5135 0.0909 -2.1698
v  -3.5135 0.0909 -2.1917
# 328 vertices

vn -0.3015 -0.9045 0.3015
vn -0.3015 -0.9045 -0.3015
vn 0.3015 -0.9045 -0.3015
vn 0.3015 -0.9045 0.3015
vn -0.5603 0.6837 -0.4675
vn -0.5994 0.4518 0.6607
vn 0.5994 0.4518 0.6607
vn 0.5603 0.6837 -0.4675
vn 0.3015 -0.3015 0.9045
vn -0.3015 -0.3015 0.9045
vn 0.0000 0.7071 0.7071
vn 0.9045 -0.3015 -0.3015
vn 0.9045 -0.3015 0.3015
vn 0.6678 0.7315 0.1374
vn 0.7511 0.6488 0.1219
vn -0.3015 -0.3015 -0.9045
vn 0.3015 -0.3015 -0.9045
vn 0.0000 0.7071 -0.7071
vn -0.9045 -0.3015 0.3015
vn -0.9045 -0.3015 -0.3015
vn -0.7511 0.6488 0.1219
vn -0.6678 0.7315 0.1374
vn 0.0000 -0.7071 0.7071
vn 0.0000 -0.7071 -0.7071
vn 0.0000 0.9828 0.1846
vn -0.2299 0.8825 0.4102
vn -0.3810 0.9035 -0.1964
vn 0.3810 0.9035 -0.1964
vn 0.2299 0.8825 0.4102
vn 0.0000 0.0000 1.0000
vn 0.0000 0.0000 -1.0000
vn 0.7071 0.0000 0.7071
vn 0.5774 0.5774 0.5774
vn -0.5774 0.5774 0.5774
vn -0.7071 0.0000 0.7071
vn -0.7071 0.0000 -0.7071
vn -0.5774 0.5774 -0.5774
vn 0.5774 0.5774 -0.5774
vn 0.7071 0.0000 -0.7071
vn -0.5774 -0.5774 0.5774
vn -0.5774 -0.5774 -0.5774
vn 0.5774 -0.5774 -0.5774
vn 0.5774 -0.5774 0.5774
vn 0.5603 0.6837 0.4675
vn 0.5994 0.4518 -0.6607
vn -0.5994 0.4518 -0.6607
vn -0.5603 0.6837 0.4675
vn -0.6678 0.7315 -0.1374
vn -0.7511 0.6488 -0.1219
vn -0.0000 0.7071 0.7071
vn 0.7511 0.6488 -0.1219
vn 0.6678 0.7315 -0.1374
vn -0.0000 -0.7071 0.7071
vn 0.0000 0.9828 -0.1846
vn 0.2299 0.8825 -0.4102
vn 0.3810 0.9035 0.1964
vn -0.3810 0.9035 0.1964
vn -0.2299 0.8825 -0.4102
vn -0.0000 0.0000 1.0000
vn 0.5773 -0.5774 0.5774
vn -0.5773 -0.5774 -0.5774
# 61 vertex normals

vt 0.3879 0.8432 0.0000
vt 0.3879 0.1568 0.0000
vt 0.6121 0.1568 0.0000
vt 0.6121 0.8432 0.0000
vt 0.3879 0.0000 0.0000
vt 0.6121 0.0000 0.0000
vt 0.6121 1.0000 0.0000
vt 0.3879 1.0000 0.0000
vt 0.1568 0.0000 0.0000
vt 0.8432 0.0000 0.0000
vt 0.8432 1.0000 0.0000
vt 0.1568 1.0000 0.0000
vt 0.0546 0.8432 0.0000
vt 0.0546 0.1568 0.0000
vt 0.2787 0.1568 0.0000
vt 0.2787 0.8432 0.0000
vt 0.9454 0.1568 0.0000
vt 0.9454 0.8432 0.0000
vt 0.7213 0.8432 0.0000
vt 0.7213 0.1568 0.0000
vt 0.7213 0.0000 0.0000
vt 0.9454 0.0000 0.0000
vt 0.9454 1.0000 0.0000
vt 0.7213 1.0000 0.0000
vt 0.2787 1.0000 0.0000
vt 0.0546 1.0000 0.0000
vt 0.0546 0.0000 0.0000
vt 0.2787 0.0000 0.0000
vt 0.3333 0.8432 0.0000
vt 0.3333 0.1568 0.0000
vt 0.6667 0.1568 0.0000
vt 0.6667 0.8432 0.0000
vt 0.6667 0.0000 0.0000
vt 0.6667 1.0000 0.0000
vt 0.3333 1.0000 0.0000
vt 0.3333 0.0000 0.0000
vt 0.0000 0.8432 0.0000
vt 0.0000 0.1568 0.0000
vt 1.0000 0.1568 0.0000
vt 1.0000 0.8432 0.0000
vt 1.0000 0.0000 0.0000
vt 1.0000 1.0000 0.0000
vt 0.0000 1.0000 0.0000
vt 0.0000 0.0000 0.0000
# 44 texture coords

o Produce_Table
g Produce_Table
usemtl wire_135059008
s 2
f 1/1/1 2/2/2 3/3/3 4/4/4 
s 4
f 5/3/5 6/4/6 7/1/7 8/2/8 
s 8
f 9/5/9 10/6/10 11/7/11 12/8/11 
s 16
f 13/9/12 14/10/13 15/11/14 16/12/15 
s 32
f 17/5/16 18/6/17 19/7/18 20/8/18 
s 64
f 21/9/19 22/10/20 23/11/21 24/12/22 
s 2
f 25/13/1 26/14/2 27/15/3 28/16/4 
f 29/17/3 30/18/4 31/19/1 32/20/2 
s 4
f 33/17/5 34/18/6 35/19/7 36/20/8 
f 37/13/7 38/14/8 39/15/5 40/16/6 
s 8
f 41/21/9 42/22/10 43/23/11 44/24/11 
f 45/25/11 46/26/11 47/27/9 48/28/10 
s 32
f 49/21/16 50/22/17 51/23/18 52/24/18 
f 53/25/18 54/26/18 55/27/16 56/28/17 
s 2
f 57/29/23 58/30/24 2/2/2 1/1/1 
f 59/31/24 60/32/23 4/4/4 3/3/3 
s 4
f 61/31/25 62/32/25 63/4/26 64/3/27 
f 65/29/25 66/30/25 67/2/28 68/1/29 
s 8
f 10/6/10 69/33/30 70/34/11 11/7/11 
f 12/8/11 71/35/11 72/36/30 9/5/9 
s 32
f 18/6/17 73/33/31 74/34/18 19/7/18 
f 20/8/18 75/35/18 76/36/31 17/5/16 
s 2
f 14/37/13 13/38/12 26/14/2 25/13/1 
f 58/30/24 57/29/23 28/16/4 27/15/3 
f 22/39/20 21/40/19 30/18/4 29/17/3 
f 60/32/23 59/31/24 32/20/2 31/19/1 
s 4
f 16/39/15 15/40/14 77/18/26 78/17/27 
f 62/32/25 61/31/25 79/20/28 80/19/29 
f 24/37/22 23/38/21 81/14/28 82/13/29 
f 66/30/25 65/29/25 83/16/26 84/15/27 
s 8
f 42/22/10 85/41/32 86/42/33 43/23/11 
f 44/24/11 70/34/11 69/33/30 41/21/9 
f 46/26/11 87/43/34 88/44/35 47/27/9 
f 48/28/10 72/36/30 71/35/11 45/25/11 
s 32
f 50/22/17 89/41/36 90/42/37 51/23/18 
f 52/24/18 74/34/18 73/33/31 49/21/16 
f 54/26/18 91/43/38 92/44/39 55/27/16 
f 56/28/17 76/36/31 75/35/18 53/25/18 
s 2
f 2/2/2 10/5/10 9/6/9 3/3/3 
f 4/4/4 18/7/17 17/8/16 1/1/1 
s 4
f 63/4/26 20/7/18 19/8/18 68/1/29 
f 67/2/28 12/5/11 11/6/11 64/3/27 
s 16
f 14/10/13 92/41/39 91/42/38 15/11/14 
f 16/12/15 86/43/33 85/44/32 13/9/12 
s 64
f 22/10/20 88/41/35 87/42/34 23/11/21 
f 24/12/22 90/43/37 89/44/36 21/9/19 
s 2
f 26/14/2 42/27/10 41/28/9 27/15/3 
f 28/16/4 56/25/17 55/26/16 25/13/1 
f 30/18/4 50/23/17 49/24/16 31/19/1 
f 32/20/2 48/21/10 47/22/9 29/17/3 
s 4
f 77/18/26 54/23/18 53/24/18 80/19/29 
f 79/20/28 44/21/11 43/22/11 78/17/27 
f 81/14/28 46/27/11 45/28/11 84/15/27 
f 83/16/26 52/25/18 51/26/18 82/13/29 
s 2
f 93/30/24 94/36/23 95/5/40 96/2/41 
f 97/1/40 98/8/41 99/35/24 100/29/23 
f 101/32/23 102/34/24 103/7/42 104/4/43 
f 105/3/42 106/6/43 107/33/23 108/31/24 
s 4
f 62/32/25 75/34/18 20/7/18 63/4/26 
f 64/3/27 11/6/11 70/33/11 61/31/25 
f 66/30/25 71/36/11 12/5/11 67/2/28 
f 68/1/29 19/8/18 74/35/18 65/29/25 
s 2
f 109/38/42 110/44/43 111/27/40 112/14/41 
f 113/13/40 114/26/41 115/43/42 116/37/43 
f 100/29/23 99/35/24 117/25/42 118/16/43 
f 119/15/42 120/28/43 94/36/23 93/30/24 
f 121/40/40 122/42/41 123/23/42 124/18/43 
f 125/17/42 126/22/43 127/41/40 128/39/41 
f 108/31/24 107/33/23 129/21/40 130/20/41 
f 131/19/40 132/24/41 102/34/24 101/32/23 
s 4
f 15/40/14 91/42/38 54/23/18 77/18/26 
f 78/17/27 43/22/11 86/41/33 16/39/15 
f 61/31/25 70/33/11 44/21/11 79/20/28 
f 80/19/29 53/24/18 75/34/18 62/32/25 
f 23/38/21 87/44/34 46/27/11 81/14/28 
f 82/13/29 51/26/18 90/43/37 24/37/22 
f 65/29/25 74/35/18 52/25/18 83/16/26 
f 84/15/27 45/28/11 71/36/11 66/30/25 
s off
f 69/36/30 10/5/10 95/5/40 94/36/23 
f 10/5/10 2/2/2 96/2/41 95/5/40 
f 2/2/2 58/30/24 93/30/24 96/2/41 
f 58/30/24 27/15/3 119/15/42 93/30/24 
f 27/15/3 41/28/9 120/28/43 119/15/42 
f 41/28/9 69/36/30 94/36/23 120/28/43 
f 76/35/31 56/25/17 117/25/42 99/35/24 
f 56/25/17 28/16/4 118/16/43 117/25/42 
f 28/16/4 57/29/23 100/29/23 118/16/43 
f 57/29/23 1/1/1 97/1/40 100/29/23 
f 1/1/1 17/8/16 98/8/41 97/1/40 
f 17/8/16 76/35/31 99/35/24 98/8/41 
f 73/34/31 18/7/17 103/7/42 102/34/24 
f 18/7/17 4/4/4 104/4/43 103/7/42 
f 4/4/4 60/32/23 101/32/23 104/4/43 
f 60/32/23 31/19/1 131/19/40 101/32/23 
f 31/19/1 49/24/16 132/24/41 131/19/40 
f 49/24/16 73/34/31 102/34/24 132/24/41 
f 72/33/30 48/21/10 129/21/40 107/33/23 
f 48/21/10 32/20/2 130/20/41 129/21/40 
f 32/20/2 59/31/24 108/31/24 130/20/41 
f 59/31/24 3/3/3 105/3/42 108/31/24 
f 3/3/3 9/6/9 106/6/43 105/3/42 
f 9/6/9 72/33/30 107/33/23 106/6/43 
f 85/44/32 42/27/10 111/27/40 110/44/43 
f 42/27/10 26/14/2 112/14/41 111/27/40 
f 26/14/2 13/38/12 109/38/42 112/14/41 
f 13/38/12 85/44/32 110/44/43 109/38/42 
f 92/43/39 14/37/13 116/37/43 115/43/42 
f 14/37/13 25/13/1 113/13/40 116/37/43 
f 25/13/1 55/26/16 114/26/41 113/13/40 
f 55/26/16 92/43/39 115/43/42 114/26/41 
f 89/42/36 50/23/17 123/23/42 122/42/41 
f 50/23/17 30/18/4 124/18/43 123/23/42 
f 30/18/4 21/40/19 121/40/40 124/18/43 
f 21/40/19 89/42/36 122/42/41 121/40/40 
f 88/41/35 22/39/20 128/39/41 127/41/40 
f 22/39/20 29/17/3 125/17/42 128/39/41 
f 29/17/3 47/22/9 126/22/43 125/17/42 
f 47/22/9 88/41/35 127/41/40 126/22/43 
f 64/3/27 63/4/26 6/4/6 5/3/5 
f 63/4/26 68/1/29 7/1/7 6/4/6 
f 68/1/29 67/2/28 8/2/8 7/1/7 
f 67/2/28 64/3/27 5/3/5 8/2/8 
f 78/17/27 77/18/26 34/18/6 33/17/5 
f 77/18/26 80/19/29 35/19/7 34/18/6 
f 80/19/29 79/20/28 36/20/8 35/19/7 
f 79/20/28 78/17/27 33/17/5 36/20/8 
f 82/13/29 81/14/28 38/14/8 37/13/7 
f 81/14/28 84/15/27 39/15/5 38/14/8 
f 84/15/27 83/16/26 40/16/6 39/15/5 
f 83/16/26 82/13/29 37/13/7 40/16/6 
s 2
f 133/41/34 134/44/33 135/43/38 136/42/37 
s 4
f 137/44/40 138/43/41 139/42/42 140/41/43 
s 8
f 133/44/34 137/43/40 140/42/43 134/41/33 
s 16
f 134/44/33 140/43/43 139/42/42 135/41/38 
s 32
f 135/44/38 139/43/42 138/42/41 136/41/37 
s 64
f 136/44/37 138/43/41 137/42/40 133/41/34 
s 2
f 141/41/34 142/44/33 143/43/38 144/42/37 
s 4
f 145/44/40 146/43/41 147/42/42 148/41/43 
s 8
f 141/44/34 145/43/40 148/42/43 142/41/33 
s 16
f 142/44/33 148/43/43 147/42/42 143/41/38 
s 32
f 143/44/38 147/43/42 146/42/41 144/41/37 
s 64
f 144/44/37 146/43/41 145/42/40 141/41/34 
s 2
f 149/41/34 150/44/33 151/43/38 152/42/37 
s 4
f 153/44/40 154/43/41 155/42/42 156/41/43 
s 8
f 149/44/34 153/43/40 156/42/43 150/41/33 
s 16
f 150/44/33 156/43/43 155/42/42 151/41/38 
s 32
f 151/44/38 155/43/42 154/42/41 152/41/37 
s 64
f 152/44/37 154/43/41 153/42/40 149/41/34 
s 2
f 157/41/34 158/44/33 159/43/38 160/42/37 
s 4
f 161/44/40 162/43/41 163/42/42 164/41/43 
s 8
f 157/44/34 161/43/40 164/42/43 158/41/33 
s 16
f 158/44/33 164/43/43 163/42/42 159/41/38 
s 32
f 159/44/38 163/43/42 162/42/41 160/41/37 
s 64
f 160/44/37 162/43/41 161/42/40 157/41/34 
s 2
f 165/1/3 166/2/4 167/3/1 168/4/2 
s 4
f 169/3/44 170/4/45 171/1/46 172/2/47 
s 8
f 173/5/16 174/6/17 175/7/18 176/8/18 
s 16
f 177/9/19 178/10/20 179/11/48 180/12/49 
s 32
f 181/5/9 182/6/10 183/7/50 184/8/50 
s 64
f 185/9/12 186/10/13 187/11/51 188/12/52 
s 2
f 189/13/3 190/14/4 191/15/1 192/16/2 
f 193/17/1 194/18/2 195/19/3 196/20/4 
s 4
f 197/17/44 198/18/45 199/19/46 200/20/47 
f 201/13/46 202/14/47 203/15/44 204/16/45 
s 8
f 205/21/16 206/22/17 207/23/18 208/24/18 
f 209/25/18 210/26/18 211/27/16 212/28/17 
s 32
f 213/21/9 214/22/10 215/23/50 216/24/50 
f 217/25/50 218/26/50 219/27/9 220/28/10 
s 2
f 221/29/24 222/30/53 166/2/4 165/1/3 
f 223/31/23 224/32/24 168/4/2 167/3/1 
s 4
f 225/31/54 226/32/54 227/4/55 228/3/56 
f 229/29/54 230/30/54 231/2/57 232/1/58 
s 8
f 174/6/17 233/33/31 234/34/18 175/7/18 
f 176/8/18 235/35/18 236/36/31 173/5/16 
s 32
f 182/6/10 237/33/59 238/34/50 183/7/50 
f 184/8/50 239/35/50 240/36/59 181/5/9 
s 2
f 178/37/20 177/38/19 190/14/4 189/13/3 
f 222/30/53 221/29/24 192/16/2 191/15/1 
f 186/39/13 185/40/12 194/18/2 193/17/1 
f 224/32/24 223/31/23 196/20/4 195/19/3 
s 4
f 180/39/49 179/40/48 241/18/55 242/17/56 
f 226/32/54 225/31/54 243/20/57 244/19/58 
f 188/37/52 187/38/51 245/14/57 246/13/58 
f 230/30/54 229/29/54 247/16/55 248/15/56 
s 8
f 206/22/17 249/41/36 250/42/37 207/23/18 
f 208/24/18 234/34/18 233/33/31 205/21/16 
f 210/26/18 251/43/38 252/44/39 211/27/16 
f 212/28/17 236/36/31 235/35/18 209/25/18 
s 32
f 214/22/10 253/41/32 254/42/33 215/23/50 
f 216/24/50 238/34/50 237/33/59 213/21/9 
f 218/26/50 255/43/34 256/44/35 219/27/9 
f 220/28/10 240/36/59 239/35/50 217/25/50 
s 2
f 166/2/4 174/5/17 173/6/16 167/3/1 
f 168/4/2 182/7/10 181/8/9 165/1/3 
s 4
f 227/4/55 184/7/50 183/8/50 232/1/58 
f 231/2/57 176/5/18 175/6/18 228/3/56 
s 16
f 178/10/20 256/41/35 255/42/34 179/11/48 
f 180/12/49 250/43/37 249/44/36 177/9/19 
s 64
f 186/10/13 252/41/39 251/42/38 187/11/51 
f 188/12/52 254/43/33 253/44/32 185/9/12 
s 2
f 190/14/4 206/27/17 205/28/16 191/15/1 
f 192/16/2 220/25/10 219/26/9 189/13/3 
f 194/18/2 214/23/10 213/24/9 195/19/3 
f 196/20/4 212/21/17 211/22/16 193/17/1 
s 4
f 241/18/55 218/23/50 217/24/50 244/19/58 
f 243/20/57 208/21/18 207/22/18 242/17/56 
f 245/14/57 210/27/18 209/28/18 248/15/56 
f 247/16/55 216/25/50 215/26/50 246/13/58 
s 2
f 257/30/53 258/36/24 259/5/42 260/2/60 
f 261/1/42 262/8/43 263/35/53 264/29/24 
f 265/32/24 266/34/53 267/7/40 268/4/41 
f 269/3/40 270/6/61 271/33/24 272/31/23 
s 4
f 226/32/54 239/34/50 184/7/50 227/4/55 
f 228/3/56 175/6/18 234/33/18 225/31/54 
f 230/30/54 235/36/18 176/5/18 231/2/57 
f 232/1/58 183/8/50 238/35/50 229/29/54 
s 2
f 273/38/40 274/44/41 275/27/42 276/14/43 
f 277/13/42 278/26/43 279/43/40 280/37/41 
f 264/29/24 263/35/53 281/25/40 282/16/41 
f 283/15/40 284/28/41 258/36/24 257/30/53 
f 285/40/42 286/42/43 287/23/40 288/18/41 
f 289/17/40 290/22/41 291/41/42 292/39/60 
f 272/31/23 271/33/24 293/21/42 294/20/43 
f 295/19/42 296/24/43 266/34/53 265/32/24 
s 4
f 179/40/48 255/42/34 218/23/50 241/18/55 
f 242/17/56 207/22/18 250/41/37 180/39/49 
f 225/31/54 234/33/18 208/21/18 243/20/57 
f 244/19/58 217/24/50 239/34/50 226/32/54 
f 187/38/51 251/44/38 210/27/18 245/14/57 
f 246/13/58 215/26/50 254/43/33 188/37/52 
f 229/29/54 238/35/50 216/25/50 247/16/55 
f 248/15/56 209/28/18 235/36/18 230/30/54 
s off
f 233/36/31 174/5/17 259/5/42 258/36/24 
f 174/5/17 166/2/4 260/2/60 259/5/42 
f 166/2/4 222/30/53 257/30/53 260/2/60 
f 222/30/53 191/15/1 283/15/40 257/30/53 
f 191/15/1 205/28/16 284/28/41 283/15/40 
f 205/28/16 233/36/31 258/36/24 284/28/41 
f 240/35/59 220/25/10 281/25/40 263/35/53 
f 220/25/10 192/16/2 282/16/41 281/25/40 
f 192/16/2 221/29/24 264/29/24 282/16/41 
f 221/29/24 165/1/3 261/1/42 264/29/24 
f 165/1/3 181/8/9 262/8/43 261/1/42 
f 181/8/9 240/35/59 263/35/53 262/8/43 
f 237/34/59 182/7/10 267/7/40 266/34/53 
f 182/7/10 168/4/2 268/4/41 267/7/40 
f 168/4/2 224/32/24 265/32/24 268/4/41 
f 224/32/24 195/19/3 295/19/42 265/32/24 
f 195/19/3 213/24/9 296/24/43 295/19/42 
f 213/24/9 237/34/59 266/34/53 296/24/43 
f 236/33/31 212/21/17 293/21/42 271/33/24 
f 212/21/17 196/20/4 294/20/43 293/21/42 
f 196/20/4 223/31/23 272/31/23 294/20/43 
f 223/31/23 167/3/1 269/3/40 272/31/23 
f 167/3/1 173/6/16 270/6/61 269/3/40 
f 173/6/16 236/33/31 271/33/24 270/6/61 
f 249/44/36 206/27/17 275/27/42 274/44/41 
f 206/27/17 190/14/4 276/14/43 275/27/42 
f 190/14/4 177/38/19 273/38/40 276/14/43 
f 177/38/19 249/44/36 274/44/41 273/38/40 
f 256/43/35 178/37/20 280/37/41 279/43/40 
f 178/37/20 189/13/3 277/13/42 280/37/41 
f 189/13/3 219/26/9 278/26/43 277/13/42 
f 219/26/9 256/43/35 279/43/40 278/26/43 
f 253/42/32 214/23/10 287/23/40 286/42/43 
f 214/23/10 194/18/2 288/18/41 287/23/40 
f 194/18/2 185/40/12 285/40/42 288/18/41 
f 185/40/12 253/42/32 286/42/43 285/40/42 
f 252/41/39 186/39/13 292/39/60 291/41/42 
f 186/39/13 193/17/1 289/17/40 292/39/60 
f 193/17/1 211/22/16 290/22/41 289/17/40 
f 211/22/16 252/41/39 291/41/42 290/22/41 
f 228/3/56 227/4/55 170/4/45 169/3/44 
f 227/4/55 232/1/58 171/1/46 170/4/45 
f 232/1/58 231/2/57 172/2/47 171/1/46 
f 231/2/57 228/3/56 169/3/44 172/2/47 
f 242/17/56 241/18/55 198/18/45 197/17/44 
f 241/18/55 244/19/58 199/19/46 198/18/45 
f 244/19/58 243/20/57 200/20/47 199/19/46 
f 243/20/57 242/17/56 197/17/44 200/20/47 
f 246/13/58 245/14/57 202/14/47 201/13/46 
f 245/14/57 248/15/56 203/15/44 202/14/47 
f 248/15/56 247/16/55 204/16/45 203/15/44 
f 247/16/55 246/13/58 201/13/46 204/16/45 
s 2
f 297/41/38 298/44/37 299/43/34 300/42/33 
s 4
f 301/44/42 302/43/43 303/42/40 304/41/41 
s 8
f 297/44/38 301/43/42 304/42/41 298/41/37 
s 16
f 298/44/37 304/43/41 303/42/40 299/41/34 
s 32
f 299/44/34 303/43/40 302/42/43 300/41/33 
s 64
f 300/44/33 302/43/43 301/42/42 297/41/38 
s 2
f 305/41/38 306/44/37 307/43/34 308/42/33 
s 4
f 309/44/42 310/43/43 311/42/40 312/41/41 
s 8
f 305/44/38 309/43/42 312/42/41 306/41/37 
s 16
f 306/44/37 312/43/41 311/42/40 307/41/34 
s 32
f 307/44/34 311/43/40 310/42/43 308/41/33 
s 64
f 308/44/33 310/43/43 309/42/42 305/41/38 
s 2
f 313/41/38 314/44/37 315/43/34 316/42/33 
s 4
f 317/44/42 318/43/43 319/42/40 320/41/41 
s 8
f 313/44/38 317/43/42 320/42/41 314/41/37 
s 16
f 314/44/37 320/43/41 319/42/40 315/41/34 
s 32
f 315/44/34 319/43/40 318/42/43 316/41/33 
s 64
f 316/44/33 318/43/43 317/42/42 313/41/38 
s 2
f 321/41/38 322/44/37 323/43/34 324/42/33 
s 4
f 325/44/42 326/43/43 327/42/40 328/41/41 
s 8
f 321/44/38 325/43/42 328/42/41 322/41/37 
s 16
f 322/44/37 328/43/41 327/42/40 323/41/34 
s 32
f 323/44/34 327/43/40 326/42/43 324/41/33 
s 64
f 324/44/33 326/43/43 325/42/42 321/41/38 
# 308 polygons

