# 3ds Max Wavefront OBJ Exporter v0.97b - (c)2007 guruware
# File Created: 02.02.2020 13:36:06

mtllib Sponge.mtl

#
# object Sponge
#

v  -0.2954 0.0000 0.1756
v  -0.2954 0.0000 -0.1756
v  0.2954 0.0000 -0.1756
v  0.2954 0.0000 0.1756
v  -0.2954 0.1110 0.1756
v  0.2954 0.1110 0.1756
v  0.2954 0.1110 -0.1756
v  -0.2954 0.1110 -0.1756
v  -0.2954 0.0200 0.1956
v  0.2954 0.0200 0.1956
v  0.2954 0.0847 0.1956
v  -0.2954 0.0847 0.1956
v  0.3154 0.0200 0.1756
v  0.3154 0.0200 -0.1756
v  0.3154 0.0847 -0.1756
v  0.3154 0.0847 0.1756
v  0.2954 0.0200 -0.1956
v  -0.2954 0.0200 -0.1956
v  -0.2954 0.0847 -0.1956
v  0.2954 0.0847 -0.1956
v  -0.3154 0.0200 -0.1756
v  -0.3154 0.0200 0.1756
v  -0.3154 0.0847 0.1756
v  -0.3154 0.0847 -0.1756
v  0.2954 0.0910 0.1956
v  -0.2954 0.0910 0.1956
v  0.3154 0.0910 -0.1756
v  0.3154 0.0910 0.1756
v  -0.2954 0.0910 -0.1956
v  0.2954 0.0910 -0.1956
v  -0.3154 0.0910 0.1756
v  -0.3154 0.0910 -0.1756
v  -0.2954 0.0050 0.1906
v  -0.3079 0.0075 0.1881
v  -0.3104 0.0050 0.1756
v  -0.3104 0.0050 -0.1756
v  -0.3079 0.0075 -0.1881
v  -0.2954 0.0050 -0.1906
v  0.2954 0.0050 -0.1906
v  0.3079 0.0075 -0.1881
v  0.3104 0.0050 -0.1756
v  0.3104 0.0050 0.1756
v  0.3079 0.0075 0.1881
v  0.2954 0.0050 0.1906
v  -0.3104 0.1060 0.1756
v  -0.3079 0.1035 0.1881
v  -0.2954 0.1060 0.1906
v  0.2954 0.1060 0.1906
v  0.3079 0.1035 0.1881
v  0.3104 0.1060 0.1756
v  0.3104 0.1060 -0.1756
v  0.3079 0.1035 -0.1881
v  0.2954 0.1060 -0.1906
v  -0.2954 0.1060 -0.1906
v  -0.3079 0.1035 -0.1881
v  -0.3104 0.1060 -0.1756
v  -0.3104 0.0200 0.1906
v  0.3104 0.0200 0.1906
v  0.3104 0.0200 -0.1906
v  -0.3104 0.0200 -0.1906
v  0.3104 0.0910 0.1906
v  -0.3104 0.0910 0.1906
v  0.3104 0.0910 -0.1906
v  -0.3104 0.0910 -0.1906
v  0.3104 0.0847 0.1906
v  -0.3104 0.0847 0.1906
v  0.3104 0.0847 -0.1906
v  -0.3104 0.0847 -0.1906
# 68 vertices

vn -0.1559 -0.9754 0.1559
vn -0.1559 -0.9754 -0.1559
vn 0.1559 -0.9754 -0.1559
vn 0.1559 -0.9754 0.1559
vn -0.1559 0.9754 0.1559
vn 0.1559 0.9754 0.1559
vn 0.1559 0.9754 -0.1559
vn -0.1559 0.9754 -0.1559
vn -0.1559 -0.1559 0.9754
vn 0.1559 -0.1559 0.9754
vn 0.1602 0.0000 0.9871
vn -0.1602 0.0000 0.9871
vn 0.9754 -0.1559 0.1559
vn 0.9754 -0.1559 -0.1559
vn 0.9871 0.0000 -0.1602
vn 0.9871 0.0000 0.1602
vn 0.1559 -0.1559 -0.9754
vn -0.1559 -0.1559 -0.9754
vn -0.1602 0.0000 -0.9871
vn 0.1602 0.0000 -0.9871
vn -0.9754 -0.1559 -0.1559
vn -0.9754 -0.1559 0.1559
vn -0.9871 0.0000 0.1602
vn -0.9871 0.0000 -0.1602
vn 0.1559 0.1559 0.9754
vn -0.1559 0.1559 0.9754
vn 0.9754 0.1559 -0.1559
vn 0.9754 0.1559 0.1559
vn -0.1559 0.1559 -0.9754
vn 0.1559 0.1559 -0.9754
vn -0.9754 0.1559 0.1559
vn -0.9754 0.1559 -0.1559
vn -0.1323 -0.7009 0.7009
vn -0.5774 -0.5774 0.5774
vn -0.7009 -0.7009 0.1324
vn -0.7009 -0.7009 -0.1324
vn -0.5774 -0.5774 -0.5774
vn -0.1323 -0.7009 -0.7009
vn 0.1323 -0.7009 -0.7009
vn 0.5774 -0.5774 -0.5774
vn 0.7009 -0.7009 -0.1324
vn 0.7009 -0.7009 0.1324
vn 0.5774 -0.5774 0.5774
vn 0.1323 -0.7009 0.7009
vn -0.7009 0.7009 0.1324
vn -0.5774 0.5774 0.5774
vn -0.1323 0.7009 0.7009
vn 0.1323 0.7009 0.7009
vn 0.5774 0.5774 0.5774
vn 0.7009 0.7009 0.1324
vn 0.7009 0.7009 -0.1324
vn 0.5774 0.5774 -0.5774
vn 0.1323 0.7009 -0.7009
vn -0.1323 0.7009 -0.7009
vn -0.5774 0.5774 -0.5774
vn -0.7009 0.7009 -0.1324
vn -0.7009 -0.1323 0.7009
vn 0.7009 -0.1323 0.7009
vn 0.7009 -0.1323 -0.7009
vn -0.7009 -0.1323 -0.7009
vn 0.7009 0.1323 0.7009
vn -0.7009 0.1323 0.7009
vn 0.7009 0.1323 -0.7009
vn -0.7009 0.1323 -0.7009
vn 0.7071 0.0000 0.7071
vn -0.7071 0.0000 0.7071
vn 0.7071 0.0000 -0.7071
vn -0.7071 0.0000 -0.7071
# 68 vertex normals

vt 0.0437 0.7790 0.0000
vt 0.0939 0.7790 0.0000
vt 0.3122 0.9034 0.0000
vt 0.3422 0.9034 0.0000
vt 0.0437 0.8126 0.0000
vt 0.0939 0.8126 0.0000
vt 0.0939 0.9212 0.0000
vt 0.0437 0.9212 0.0000
vt 0.0956 0.8126 0.0000
vt 0.0956 0.9212 0.0000
vt 0.0420 0.8126 0.0000
vt 0.0420 0.9212 0.0000
vt 0.3422 0.8617 0.0000
vt 0.3422 0.8717 0.0000
vt 0.3122 0.8717 0.0000
vt 0.3122 0.8617 0.0000
vt 0.3432 0.8617 0.0000
vt 0.3432 0.8717 0.0000
vt 0.3112 0.8617 0.0000
vt 0.3112 0.8717 0.0000
vt 0.0437 0.7874 0.0000
vt 0.0427 0.7916 0.0000
vt 0.0424 0.7874 0.0000
vt 0.0939 0.7874 0.0000
vt 0.0950 0.7916 0.0000
vt 0.0952 0.7874 0.0000
vt 0.3115 0.8955 0.0000
vt 0.3116 0.8915 0.0000
vt 0.3122 0.8955 0.0000
vt 0.3422 0.8955 0.0000
vt 0.3428 0.8915 0.0000
vt 0.3430 0.8955 0.0000
vt 0.0424 0.8126 0.0000
vt 0.0952 0.8126 0.0000
vt 0.3430 0.8717 0.0000
vt 0.3115 0.8717 0.0000
vt 0.0952 0.9212 0.0000
vt 0.0424 0.9212 0.0000
vt 0.3430 0.8617 0.0000
vt 0.3115 0.8617 0.0000
# 40 texture coords

o Sponge
g Sponge
usemtl Material__47
s 1
f 1/1/1 2/1/2 3/2/3 4/2/4 
f 5/3/5 6/4/6 7/4/7 8/3/8 
s 2
f 9/5/9 10/6/10 11/7/11 12/8/12 
s 4
f 13/9/13 14/9/14 15/10/15 16/10/16 
s 2
f 17/6/17 18/5/18 19/8/19 20/7/20 
s 4
f 21/11/21 22/11/22 23/12/23 24/12/24 
s 2
f 11/13/11 25/14/25 26/15/26 12/16/12 
s 4
f 15/17/15 27/18/27 28/18/28 16/17/16 
s 2
f 19/16/19 29/15/29 30/14/30 20/13/20 
s 4
f 23/19/23 31/20/31 32/20/32 24/19/24 
s 1
f 1/1/1 33/21/33 34/22/34 35/23/35 
f 2/1/2 36/23/36 37/22/37 38/21/38 
f 3/2/3 39/24/39 40/25/40 41/26/41 
f 4/2/4 42/26/42 43/25/43 44/24/44 
f 5/3/5 45/27/45 46/28/46 47/29/47 
f 6/4/6 48/30/48 49/31/49 50/32/50 
f 7/4/7 51/32/51 52/31/52 53/30/53 
f 8/3/8 54/29/54 55/28/55 56/27/56 
s 2
f 9/5/9 57/33/57 34/22/34 33/21/33 
f 10/6/10 44/24/44 43/25/43 58/34/58 
s 4
f 13/9/13 58/34/58 43/25/43 42/26/42 
f 14/9/14 41/26/41 40/25/40 59/34/59 
s 2
f 17/6/17 59/34/59 40/25/40 39/24/39 
f 18/5/18 38/21/38 37/22/37 60/33/60 
s 4
f 21/11/21 60/33/60 37/22/37 36/23/36 
f 22/11/22 35/23/35 34/22/34 57/33/57 
s 2
f 25/14/25 61/35/61 49/31/49 48/30/48 
f 26/15/26 47/29/47 46/28/46 62/36/62 
s 4
f 27/18/27 63/35/63 52/31/52 51/32/51 
f 28/18/28 50/32/50 49/31/49 61/35/61 
s 2
f 29/15/29 64/36/64 55/28/55 54/29/54 
f 30/14/30 53/30/53 52/31/52 63/35/63 
s 4
f 31/20/31 62/36/62 46/28/46 45/27/45 
f 32/20/32 56/27/56 55/28/55 64/36/64 
s 1
f 2/1/2 1/1/1 35/23/35 36/23/36 
f 3/2/3 2/1/2 38/21/38 39/24/39 
f 4/2/4 3/2/3 41/26/41 42/26/42 
f 1/1/1 4/2/4 44/24/44 33/21/33 
f 6/4/6 5/3/5 47/29/47 48/30/48 
f 7/4/7 6/4/6 50/32/50 51/32/51 
f 8/3/8 7/4/7 53/30/53 54/29/54 
f 5/3/5 8/3/8 56/27/56 45/27/45 
s 2
f 10/6/10 9/5/9 33/21/33 44/24/44 
f 11/7/11 10/6/10 58/34/58 65/37/65 
f 9/5/9 12/8/12 66/38/66 57/33/57 
s 4
f 14/9/14 13/9/13 42/26/42 41/26/41 
f 15/10/15 14/9/14 59/34/59 67/37/67 
f 13/9/13 16/10/16 65/37/65 58/34/58 
s 2
f 18/5/18 17/6/17 39/24/39 38/21/38 
f 19/8/19 18/5/18 60/33/60 68/38/68 
f 17/6/17 20/7/20 67/37/67 59/34/59 
s 4
f 22/11/22 21/11/21 36/23/36 35/23/35 
f 23/12/23 22/11/22 57/33/57 66/38/66 
f 21/11/21 24/12/24 68/38/68 60/33/60 
s 2
f 25/14/25 11/13/11 65/39/65 61/35/61 
f 26/15/26 25/14/25 48/30/48 47/29/47 
f 12/16/12 26/15/26 62/36/62 66/40/66 
s 4
f 27/18/27 15/17/15 67/39/67 63/35/63 
f 28/18/28 27/18/27 51/32/51 50/32/50 
f 16/17/16 28/18/28 61/35/61 65/39/65 
s 2
f 29/15/29 19/16/19 68/40/68 64/36/64 
f 30/14/30 29/15/29 54/29/54 53/30/53 
f 20/13/20 30/14/30 63/35/63 67/39/67 
s 4
f 31/20/31 23/19/23 66/40/66 62/36/62 
f 32/20/32 31/20/31 45/27/45 56/27/56 
f 24/19/24 32/20/32 64/36/64 68/40/68 
# 66 polygons

