# 3ds Max Wavefront OBJ Exporter v0.97b - (c)2007 guruware
# File Created: 01.02.2020 16:43:54

mtllib Steak.mtl

#
# object Steak
#

v  -0.2123 0.1714 0.1592
v  -0.2663 0.3658 0.1592
v  -0.1141 0.3658 0.1592
v  0.0382 0.3658 0.1592
v  0.0382 0.0896 0.1592
v  0.1904 0.3658 0.1592
v  0.3426 0.3658 0.1592
v  0.2887 0.1651 0.1592
v  -0.1504 0.5602 0.1592
v  -0.0561 0.5602 0.1592
v  0.0408 0.5051 0.1586
v  0.0793 0.5232 0.1591
v  -0.1812 0.7546 0.1621
v  -0.0715 0.7546 0.1621
v  0.0355 0.6162 0.1604
v  0.0382 0.7546 0.1621
v  0.1478 0.7546 0.1621
v  0.0756 0.6018 0.1604
v  -0.0908 0.9185 0.1597
v  0.0382 0.9490 0.1592
v  0.1671 0.9185 0.1597
v  0.2575 0.7546 0.1621
v  0.1768 0.5602 0.1592
v  0.3155 0.5602 0.1592
v  -0.0174 0.5580 0.1592
v  0.0007 0.5195 0.1587
v  -0.0030 0.5981 0.1600
v  0.0937 0.5633 0.1598
v  0.0408 0.5051 0.1489
v  0.0793 0.5232 0.1494
v  0.0937 0.5633 0.1501
v  0.0756 0.6018 0.1507
v  0.0355 0.6162 0.1508
v  -0.0030 0.5981 0.1503
v  -0.0174 0.5580 0.1495
v  0.0007 0.5195 0.1490
v  0.0407 0.5076 0.1464
v  0.0404 0.5141 0.1466
v  0.0727 0.5293 0.1470
v  0.0775 0.5249 0.1469
v  0.0847 0.5629 0.1476
v  0.0912 0.5632 0.1476
v  0.0695 0.5952 0.1480
v  0.0739 0.5999 0.1481
v  0.0359 0.6072 0.1481
v  0.0356 0.6137 0.1482
v  0.0036 0.5920 0.1477
v  -0.0011 0.5964 0.1477
v  -0.0084 0.5584 0.1471
v  -0.0149 0.5581 0.1470
v  0.0068 0.5262 0.1466
v  0.0024 0.5214 0.1465
v  0.0403 0.5166 0.1491
v  0.0403 0.5166 0.1582
v  0.0708 0.5310 0.1585
v  0.0708 0.5310 0.1495
v  0.0822 0.5628 0.1591
v  0.0822 0.5628 0.1501
v  0.0678 0.5933 0.1595
v  0.0678 0.5933 0.1505
v  0.0361 0.6047 0.1596
v  0.0361 0.6047 0.1506
v  0.0055 0.5903 0.1592
v  0.0055 0.5903 0.1502
v  -0.0059 0.5586 0.1586
v  -0.0059 0.5586 0.1496
v  0.0085 0.5280 0.1582
v  0.0085 0.5280 0.1492
v  0.0382 0.5607 0.1589
v  0.0376 0.0542 0.2295
v  0.3075 0.1354 0.2295
v  0.3656 0.3517 0.2295
v  0.2739 0.7706 0.2295
v  0.1765 0.9472 0.2295
v  0.0376 0.9800 0.2295
v  -0.1014 0.9472 0.2295
v  -0.1988 0.7706 0.2295
v  -0.1656 0.5611 0.2295
v  -0.2904 0.3517 0.2295
v  -0.2323 0.1423 0.2295
v  0.3364 0.5611 0.2295
v  -0.2123 0.1714 0.2998
v  0.0382 0.0896 0.2998
v  0.0382 0.3658 0.2998
v  -0.1141 0.3658 0.2998
v  -0.2663 0.3658 0.2998
v  0.2887 0.1651 0.2998
v  0.3426 0.3658 0.2998
v  0.1904 0.3658 0.2998
v  -0.0561 0.5602 0.2998
v  -0.1504 0.5602 0.2998
v  0.0793 0.5232 0.2999
v  0.0408 0.5051 0.3004
v  -0.0715 0.7546 0.2969
v  -0.1812 0.7546 0.2969
v  0.0355 0.6162 0.2985
v  0.0756 0.6018 0.2986
v  0.1478 0.7546 0.2969
v  0.0382 0.7546 0.2969
v  0.0382 0.9490 0.2998
v  -0.0908 0.9185 0.2993
v  0.2575 0.7546 0.2969
v  0.1671 0.9185 0.2993
v  0.3155 0.5602 0.2998
v  0.1768 0.5602 0.2998
v  0.0007 0.5195 0.3003
v  -0.0174 0.5580 0.2998
v  -0.0030 0.5981 0.2990
v  0.0937 0.5633 0.2992
v  0.0793 0.5232 0.3096
v  0.0408 0.5051 0.3100
v  0.0937 0.5633 0.3088
v  0.0756 0.6018 0.3083
v  0.0355 0.6162 0.3082
v  -0.0030 0.5981 0.3087
v  -0.0174 0.5580 0.3094
v  0.0007 0.5195 0.3100
v  0.0407 0.5076 0.3125
v  0.0775 0.5249 0.3121
v  0.0727 0.5293 0.3120
v  0.0404 0.5141 0.3124
v  0.0912 0.5632 0.3114
v  0.0847 0.5629 0.3114
v  0.0739 0.5999 0.3109
v  0.0695 0.5952 0.3110
v  0.0356 0.6137 0.3108
v  0.0359 0.6072 0.3109
v  -0.0011 0.5964 0.3113
v  0.0036 0.5920 0.3113
v  -0.0149 0.5581 0.3120
v  -0.0084 0.5584 0.3119
v  0.0024 0.5214 0.3125
v  0.0068 0.5262 0.3124
v  0.0403 0.5166 0.3099
v  0.0708 0.5310 0.3095
v  0.0708 0.5310 0.3005
v  0.0403 0.5166 0.3008
v  0.0822 0.5628 0.3089
v  0.0822 0.5628 0.2999
v  0.0678 0.5933 0.3085
v  0.0678 0.5933 0.2994
v  0.0361 0.6047 0.3084
v  0.0361 0.6047 0.2994
v  0.0055 0.5903 0.3088
v  0.0055 0.5903 0.2998
v  -0.0059 0.5586 0.3094
v  -0.0059 0.5586 0.3004
v  0.0085 0.5280 0.3098
v  0.0085 0.5280 0.3008
v  0.0382 0.5607 0.3001
# 150 vertices

vn -0.4693 -0.4187 -0.7775
vn -0.6668 0.1335 -0.7331
vn -0.0004 -0.0004 -1.0000
vn 0.0000 -0.0021 -1.0000
vn -0.0065 -0.5900 -0.8074
vn 0.0001 -0.0001 -1.0000
vn 0.6288 -0.0247 -0.7772
vn 0.4722 -0.4228 -0.7734
vn -0.5184 0.1036 -0.8488
vn 0.0005 0.0076 -1.0000
vn 0.0340 -0.5974 -0.8012
vn 0.4522 -0.3904 -0.8019
vn -0.6666 0.0903 -0.7399
vn 0.0002 -0.0002 -1.0000
vn -0.0233 0.5986 -0.8007
vn 0.0000 -0.0014 -1.0000
vn -0.0005 -0.0007 -1.0000
vn 0.3958 0.4473 -0.8020
vn -0.4077 0.4902 -0.7704
vn 0.0007 0.5918 -0.8061
vn 0.4118 0.4917 -0.7672
vn 0.5722 0.2369 -0.7851
vn -0.0035 0.0070 -1.0000
vn 0.6010 0.1373 -0.7874
vn -0.5937 -0.0129 -0.8046
vn -0.4078 -0.4370 -0.8017
vn -0.4321 0.4126 -0.8019
vn 0.5893 0.0434 -0.8068
vn 0.0458 -0.9327 -0.3576
vn 0.6944 -0.6258 -0.3553
vn 0.9348 0.0489 -0.3517
vn 0.6288 0.6948 -0.3490
vn -0.0432 0.9362 -0.3487
vn -0.6902 0.6328 -0.3510
vn -0.9341 -0.0403 -0.3546
vn -0.6297 -0.6898 -0.3573
vn 0.0255 -0.4469 -0.8942
vn -0.0093 0.3080 -0.9513
vn -0.2129 0.2141 -0.9533
vn 0.3433 -0.2959 -0.8914
vn -0.2919 0.0024 -0.9564
vn 0.4602 0.0348 -0.8871
vn -0.1967 -0.2049 -0.9588
vn 0.3101 0.3502 -0.8839
vn 0.0188 -0.2826 -0.9591
vn -0.0181 0.4680 -0.8836
vn 0.2246 -0.1835 -0.9570
vn -0.3344 0.3202 -0.8863
vn 0.2986 0.0305 -0.9539
vn -0.4546 -0.0089 -0.8906
vn 0.2010 0.2326 -0.9516
vn -0.3059 -0.3276 -0.8939
vn -0.0409 0.9079 -0.4172
vn -0.0349 0.7809 -0.6237
vn -0.5718 0.5289 -0.6271
vn -0.6673 0.6158 -0.4188
vn -0.7741 -0.0297 -0.6323
vn -0.9062 -0.0361 -0.4212
vn -0.5213 -0.5685 -0.6364
vn -0.6119 -0.6682 -0.4231
vn 0.0391 -0.7700 -0.6368
vn 0.0455 -0.9049 -0.4233
vn 0.5772 -0.5155 -0.6333
vn 0.6755 -0.6049 -0.4217
vn 0.7769 0.0443 -0.6280
vn 0.9065 0.0505 -0.4192
vn 0.5230 0.5805 -0.6241
vn 0.6086 0.6748 -0.4174
vn 0.0046 0.0166 -0.9999
vn -0.0119 -0.9999 -0.0000
vn 0.6986 -0.7155 -0.0000
vn 0.9966 -0.0821 0.0000
vn 0.9192 0.3938 0.0000
vn 0.5811 0.8138 0.0000
vn -0.0010 1.0000 0.0000
vn -0.5834 0.8122 0.0000
vn -0.9785 0.2061 -0.0000
vn -0.9808 0.1952 0.0000
vn -0.9967 0.0817 0.0000
vn -0.7065 -0.7078 -0.0000
vn 0.9776 0.2104 0.0000
vn -0.4693 -0.4187 0.7775
vn -0.0065 -0.5900 0.8074
vn 0.0000 -0.0021 1.0000
vn -0.0004 -0.0004 1.0000
vn -0.6668 0.1335 0.7331
vn 0.4722 -0.4228 0.7734
vn 0.6288 -0.0247 0.7772
vn 0.0001 -0.0001 1.0000
vn 0.0005 0.0076 1.0000
vn -0.5184 0.1036 0.8488
vn 0.4522 -0.3904 0.8019
vn 0.0340 -0.5974 0.8012
vn 0.0002 -0.0002 1.0000
vn -0.6666 0.0903 0.7399
vn -0.0233 0.5986 0.8007
vn 0.3958 0.4473 0.8020
vn -0.0005 -0.0007 1.0000
vn 0.0000 -0.0014 1.0000
vn 0.0007 0.5918 0.8061
vn -0.4077 0.4902 0.7704
vn 0.5722 0.2369 0.7851
vn 0.4118 0.4917 0.7672
vn 0.6010 0.1373 0.7874
vn -0.0035 0.0070 1.0000
vn -0.4078 -0.4370 0.8017
vn -0.5937 -0.0129 0.8046
vn -0.4321 0.4126 0.8019
vn 0.5893 0.0434 0.8068
vn 0.6944 -0.6258 0.3553
vn 0.0459 -0.9327 0.3576
vn 0.9348 0.0489 0.3517
vn 0.6288 0.6948 0.3490
vn -0.0432 0.9362 0.3487
vn -0.6902 0.6328 0.3510
vn -0.9341 -0.0403 0.3546
vn -0.6297 -0.6898 0.3573
vn 0.0255 -0.4469 0.8942
vn 0.3433 -0.2959 0.8914
vn -0.2129 0.2141 0.9533
vn -0.0093 0.3080 0.9513
vn 0.4602 0.0348 0.8871
vn -0.2919 0.0024 0.9564
vn 0.3101 0.3502 0.8839
vn -0.1967 -0.2049 0.9588
vn -0.0181 0.4680 0.8836
vn 0.0188 -0.2826 0.9591
vn -0.3344 0.3202 0.8863
vn 0.2246 -0.1835 0.9570
vn -0.4546 -0.0089 0.8906
vn 0.2986 0.0305 0.9539
vn -0.3059 -0.3276 0.8939
vn 0.2010 0.2326 0.9516
vn -0.0409 0.9079 0.4172
vn -0.6673 0.6158 0.4188
vn -0.5718 0.5289 0.6271
vn -0.0349 0.7809 0.6237
vn -0.9062 -0.0361 0.4212
vn -0.7741 -0.0297 0.6323
vn -0.6119 -0.6682 0.4231
vn -0.5213 -0.5685 0.6364
vn 0.0455 -0.9049 0.4233
vn 0.0391 -0.7700 0.6368
vn 0.6755 -0.6049 0.4217
vn 0.5772 -0.5155 0.6333
vn 0.9065 0.0505 0.4192
vn 0.7769 0.0443 0.6280
vn 0.6086 0.6748 0.4174
vn 0.5230 0.5805 0.6241
vn 0.0046 0.0166 0.9999
# 150 vertex normals

vt 0.0000 0.0000 0.0000
vt 0.0000 0.2500 0.0000
vt 0.2500 0.2500 0.0000
vt 0.5000 0.2500 0.0000
vt 0.5000 0.0000 0.0000
vt 0.7500 0.2500 0.0000
vt 1.0000 0.2500 0.0000
vt 1.0000 0.0000 0.0000
vt 0.0000 0.5000 0.0000
vt 0.2500 0.5000 0.0000
vt 0.5000 0.4289 0.0000
vt 0.5560 0.4440 0.0000
vt 0.0000 0.7500 0.0000
vt 0.2500 0.7500 0.0000
vt 0.5000 0.5711 0.0000
vt 0.5000 0.7500 0.0000
vt 0.7500 0.7500 0.0000
vt 0.5619 0.5619 0.0000
vt 0.0000 1.0000 0.0000
vt 0.5000 1.0000 0.0000
vt 1.0000 1.0000 0.0000
vt 1.0000 0.7500 0.0000
vt 0.7500 0.5000 0.0000
vt 1.0000 0.5000 0.0000
vt 0.3535 0.5000 0.0000
vt 0.4440 0.4440 0.0000
vt 0.4381 0.5619 0.0000
vt 0.5996 0.5000 0.0000
vt 0.4941 0.5015 0.0000
vt 0.2500 1.0000 0.0000
vt 0.7500 1.0000 0.0000
# 31 texture coords

o Steak
g Steak
usemtl wire_115115115
s 1
f 1/1/1 2/2/2 3/3/3 4/4/4 5/5/5 
f 5/5/5 4/4/4 6/6/6 7/7/7 8/8/8 
f 2/2/2 9/9/9 10/10/10 3/3/3 
f 4/4/4 11/11/11 12/12/12 6/6/6 
f 9/9/9 13/13/13 14/14/14 10/10/10 
f 15/15/15 16/16/16 17/17/17 18/18/18 
f 13/13/13 19/19/19 20/20/20 16/16/16 14/14/14 
f 16/16/16 20/20/20 21/21/21 22/22/22 17/17/17 
f 6/6/6 23/23/23 24/24/24 7/7/7 
f 23/23/23 17/17/17 22/22/22 24/24/24 
f 3/3/3 10/10/10 25/25/25 26/26/26 
f 10/10/10 14/14/14 27/27/27 25/25/25 
f 3/3/3 26/26/26 11/11/11 4/4/4 
f 6/6/6 12/12/12 28/28/28 23/23/23 
f 27/27/27 14/14/14 16/16/16 15/15/15 
f 18/18/18 17/17/17 23/23/23 28/28/28 
s 2
f 11/11/11 29/11/29 30/12/30 12/12/12 
f 12/12/12 30/12/30 31/28/31 28/28/28 
f 28/28/28 31/28/31 32/18/32 18/18/18 
f 18/18/18 32/18/32 33/15/33 15/15/15 
f 15/15/15 33/15/33 34/27/34 27/27/27 
f 27/27/27 34/27/34 35/25/35 25/25/25 
f 25/25/25 35/25/35 36/26/36 26/26/26 
f 26/26/26 36/26/36 29/11/29 11/11/11 
s 1
f 37/11/37 38/11/38 39/12/39 40/12/40 
f 40/12/40 39/12/39 41/28/41 42/28/42 
f 42/28/42 41/28/41 43/18/43 44/18/44 
f 44/18/44 43/18/43 45/15/45 46/15/46 
f 46/15/46 45/15/45 47/27/47 48/27/48 
f 48/27/48 47/27/47 49/25/49 50/25/50 
f 50/25/50 49/25/49 51/26/51 52/26/52 
f 52/26/52 51/26/51 38/11/38 37/11/37 
s 2
f 53/11/53 54/11/54 55/12/55 56/12/56 
f 56/12/56 55/12/55 57/28/57 58/28/58 
f 58/28/58 57/28/57 59/18/59 60/18/60 
f 60/18/60 59/18/59 61/15/61 62/15/62 
f 62/15/62 61/15/61 63/27/63 64/27/64 
f 64/27/64 63/27/63 65/25/65 66/25/66 
f 66/25/66 65/25/65 67/26/67 68/26/68 
f 68/26/68 67/26/67 54/11/54 53/11/53 
s 1
f 54/11/54 69/29/69 55/12/55 
f 55/12/55 69/29/69 57/28/57 
f 57/28/57 69/29/69 59/18/59 
f 59/18/59 69/29/69 61/15/61 
f 61/15/61 69/29/69 63/27/63 
f 63/27/63 69/29/69 65/25/65 
f 65/25/65 69/29/69 67/26/67 
f 67/26/67 69/29/69 54/11/54 
s 2
f 29/11/29 37/11/37 40/12/40 30/12/30 
f 30/12/30 40/12/40 42/28/42 31/28/31 
f 31/28/31 42/28/42 44/18/44 32/18/32 
f 32/18/32 44/18/44 46/15/46 33/15/33 
f 33/15/33 46/15/46 48/27/48 34/27/34 
f 34/27/34 48/27/48 50/25/50 35/25/35 
f 35/25/35 50/25/50 52/26/52 36/26/36 
f 36/26/36 52/26/52 37/11/37 29/11/29 
f 38/11/38 53/11/53 56/12/56 39/12/39 
f 39/12/39 56/12/56 58/28/58 41/28/41 
f 41/28/41 58/28/58 60/18/60 43/18/43 
f 43/18/43 60/18/60 62/15/62 45/15/45 
f 45/15/45 62/15/62 64/27/64 47/27/47 
f 47/27/47 64/27/64 66/25/66 49/25/49 
f 49/25/49 66/25/66 68/26/68 51/26/51 
f 51/26/51 68/26/68 53/11/53 38/11/38 
f 70/20/70 5/20/5 8/21/8 71/21/71 
s 4
f 71/19/71 8/19/8 7/30/7 72/30/72 
f 73/31/73 22/31/22 21/21/21 74/21/74 
f 74/19/74 21/19/21 20/20/20 75/20/75 
f 76/19/76 19/19/19 13/30/13 77/30/77 
f 77/30/77 13/30/13 9/20/9 78/20/78 
f 78/20/78 9/20/9 2/31/2 79/31/79 
s 8
f 79/31/79 2/31/2 1/21/1 80/21/80 
s 2
f 80/19/80 1/19/1 5/20/5 70/20/70 
s 4
f 72/30/72 7/30/7 24/20/24 81/20/81 
f 81/20/81 24/20/24 22/31/22 73/31/73 
f 75/20/75 20/20/20 19/21/19 76/21/76 
s 1
f 82/1/82 83/5/83 84/4/84 85/3/85 86/2/86 
f 83/5/83 87/8/87 88/7/88 89/6/89 84/4/84 
f 86/2/86 85/3/85 90/10/90 91/9/91 
f 84/4/84 89/6/89 92/12/92 93/11/93 
f 91/9/91 90/10/90 94/14/94 95/13/95 
f 96/15/96 97/18/97 98/17/98 99/16/99 
f 95/13/95 94/14/94 99/16/99 100/20/100 101/19/101 
f 99/16/99 98/17/98 102/22/102 103/21/103 100/20/100 
f 89/6/89 88/7/88 104/24/104 105/23/105 
f 105/23/105 104/24/104 102/22/102 98/17/98 
f 85/3/85 106/26/106 107/25/107 90/10/90 
f 90/10/90 107/25/107 108/27/108 94/14/94 
f 85/3/85 84/4/84 93/11/93 106/26/106 
f 89/6/89 105/23/105 109/28/109 92/12/92 
f 108/27/108 96/15/96 99/16/99 94/14/94 
f 97/18/97 109/28/109 105/23/105 98/17/98 
s 2
f 93/11/93 92/12/92 110/12/110 111/11/111 
f 92/12/92 109/28/109 112/28/112 110/12/110 
f 109/28/109 97/18/97 113/18/113 112/28/112 
f 97/18/97 96/15/96 114/15/114 113/18/113 
f 96/15/96 108/27/108 115/27/115 114/15/114 
f 108/27/108 107/25/107 116/25/116 115/27/115 
f 107/25/107 106/26/106 117/26/117 116/25/116 
f 106/26/106 93/11/93 111/11/111 117/26/117 
s 1
f 118/11/118 119/12/119 120/12/120 121/11/121 
f 119/12/119 122/28/122 123/28/123 120/12/120 
f 122/28/122 124/18/124 125/18/125 123/28/123 
f 124/18/124 126/15/126 127/15/127 125/18/125 
f 126/15/126 128/27/128 129/27/129 127/15/127 
f 128/27/128 130/25/130 131/25/131 129/27/129 
f 130/25/130 132/26/132 133/26/133 131/25/131 
f 132/26/132 118/11/118 121/11/121 133/26/133 
s 2
f 134/11/134 135/12/135 136/12/136 137/11/137 
f 135/12/135 138/28/138 139/28/139 136/12/136 
f 138/28/138 140/18/140 141/18/141 139/28/139 
f 140/18/140 142/15/142 143/15/143 141/18/141 
f 142/15/142 144/27/144 145/27/145 143/15/143 
f 144/27/144 146/25/146 147/25/147 145/27/145 
f 146/25/146 148/26/148 149/26/149 147/25/147 
f 148/26/148 134/11/134 137/11/137 149/26/149 
s 1
f 137/11/137 136/12/136 150/29/150 
f 136/12/136 139/28/139 150/29/150 
f 139/28/139 141/18/141 150/29/150 
f 141/18/141 143/15/143 150/29/150 
f 143/15/143 145/27/145 150/29/150 
f 145/27/145 147/25/147 150/29/150 
f 147/25/147 149/26/149 150/29/150 
f 149/26/149 137/11/137 150/29/150 
s 2
f 111/11/111 110/12/110 119/12/119 118/11/118 
f 110/12/110 112/28/112 122/28/122 119/12/119 
f 112/28/112 113/18/113 124/18/124 122/28/122 
f 113/18/113 114/15/114 126/15/126 124/18/124 
f 114/15/114 115/27/115 128/27/128 126/15/126 
f 115/27/115 116/25/116 130/25/130 128/27/128 
f 116/25/116 117/26/117 132/26/132 130/25/130 
f 117/26/117 111/11/111 118/11/118 132/26/132 
f 121/11/121 120/12/120 135/12/135 134/11/134 
f 120/12/120 123/28/123 138/28/138 135/12/135 
f 123/28/123 125/18/125 140/18/140 138/28/138 
f 125/18/125 127/15/127 142/15/142 140/18/140 
f 127/15/127 129/27/129 144/27/144 142/15/142 
f 129/27/129 131/25/131 146/25/146 144/27/144 
f 131/25/131 133/26/133 148/26/148 146/25/146 
f 133/26/133 121/11/121 134/11/134 148/26/148 
s 16
f 70/20/70 71/21/71 87/21/87 83/20/83 
s 4
f 71/19/71 72/30/72 88/30/88 87/19/87 
f 73/31/73 74/21/74 103/21/103 102/31/102 
f 74/19/74 75/20/75 100/20/100 103/19/103 
f 76/19/76 77/30/77 95/30/95 101/19/101 
f 77/30/77 78/20/78 91/20/91 95/30/95 
f 78/20/78 79/31/79 86/31/86 91/20/91 
s 8
f 79/31/79 80/21/80 82/21/82 86/31/86 
s 16
f 80/19/80 70/20/70 83/20/83 82/19/82 
s 4
f 72/30/72 81/20/81 104/20/104 88/30/88 
f 81/20/81 73/31/73 102/31/102 104/20/104 
f 75/20/75 76/21/76 101/21/101 100/20/100 
# 136 polygons - 16 triangles

